;TYPE=PLATED
;Layer: PTH_Through_Via
;EasyEDA Pro Client v3.2.87, 2026-07-14 13:35:38
;Gerber Generator version 0.3
M48
METRIC,LZ,0000.00000
;Hole size 1 = 0.30480 METRIC
T01C0.30480
%
G05
G90
T01
X-95.25447Y2.79483
X-78.87466Y-22.88457
X-82.71933Y-6.73017
X-82.71933Y-5.96817
X-85.54713Y0.72743
X-85.54713Y1.31008
X-89.04508Y-16.30198
X-89.0683Y-17.08757
X-89.23953Y-20.24572
X-78.93253Y3.43103
X-78.93253Y2.56743
X-78.93253Y1.75463
X-78.93253Y4.19303
X-86.233Y-3.3528
X-63.76873Y-20.08937
X-96.93266Y48.38903
X-42.41761Y52.89534
X-45.37732Y64.42694
X-75.36611Y41.2496
X-73.5838Y-25.5016
X-64.6684Y-25.57117
X-84.0486Y-13.4112
X-84.0486Y-12.1412
X-84.0486Y-12.1412
X-84.0486Y-10.5664
X-85.256Y-10.1718
X-87.415Y-10.1972
X-87.9602Y-11.43
X-87.9602Y-12.98612
X-87.9602Y-14.25612
X-87.9602Y-15.52612
X-87.9602Y-17.1196
X-86.53102Y-17.653
X-84.328Y-17.653
X-84.0486Y-16.1036
X-84.0486Y-14.9606
X-64.8078Y-17.9324
X-71.0946Y22.5806
X-82.66962Y8.43633
X-82.6516Y9.1186
X-76.4286Y-23.69537
X-63.3476Y-16.8148
X-49.9872Y42.0624
X-49.96825Y42.69644
X-38.4318Y37.1856
X-38.66284Y64.7954
X-37.77182Y64.7954
X-56.32363Y26.72167
X-41.93509Y4.98384
X-41.30046Y5.00551
X-73.025Y-6.985
X-72.263Y-7.00493
X-79.74844Y-12.43844
X-70.43305Y-6.2844
X-89.662Y-20.72612
X-41.6306Y64.6938
X-47.0662Y34.9758
X-82.3722Y-10.3632
X-68.834Y-10.88039
X-70.4596Y-20.3708
X-80.645Y-20.42015
X-91.91177Y-14.0722
X-91.57056Y2.27125
X-81.61113Y-23.80073
X-46.25338Y50.165
X-63.00227Y-13.34527
X-64.74257Y-22.42617
X-38.2778Y35.1028
X-75.57351Y-19.4564
X-84.328Y8.636
X-96.93906Y51.32074
X-93.98722Y8.6868
X-96.93906Y54.1274
X-91.57056Y4.63734
X-96.93906Y56.8452
X-51.28621Y38.38046
X-40.22295Y34.51709
X-35.0048Y60.8584
X-44.80921Y48.43886
X-41.75465Y52.17266
X-46.99Y60.4012
X-49.76777Y-0.6096
X-49.79317Y0.127
X-37.084Y-1.651
X-37.084Y-0.381
X-37.084Y0.889
X-37.084Y2.159
X-37.084Y3.429
X-37.084Y4.699
X-37.084Y5.969
X-37.084Y7.239
X-37.084Y8.509
X-37.084Y9.779
X-37.084Y11.049
X-37.084Y12.319
X-37.084Y13.589
X-37.084Y14.859
X-37.084Y16.129
X-37.084Y17.399
X-35.814Y-1.651
X-35.814Y-0.381
X-35.814Y0.889
X-35.814Y2.159
X-35.814Y3.429
X-35.814Y4.699
X-35.814Y5.969
X-35.814Y7.239
X-35.814Y8.509
X-35.814Y9.779
X-35.814Y11.049
X-35.814Y12.319
X-35.814Y13.589
X-35.814Y14.859
X-35.814Y16.129
X-35.814Y17.399
X-35.814Y18.669
X-34.544Y-1.651
X-34.544Y-0.381
X-34.544Y0.889
X-34.544Y2.159
X-34.544Y3.429
X-34.544Y4.699
X-34.544Y5.969
X-34.544Y7.239
X-34.544Y8.509
X-34.544Y9.779
X-34.544Y11.049
X-34.544Y12.319
X-34.544Y13.589
X-34.544Y14.859
X-34.544Y16.129
X-34.544Y17.399
X-34.544Y18.669
X-33.274Y-1.651
X-33.274Y-0.381
X-33.274Y0.889
X-33.274Y2.159
X-33.274Y3.429
X-33.274Y4.699
X-33.274Y5.969
X-33.274Y7.239
X-33.274Y8.509
X-33.274Y9.779
X-33.274Y11.049
X-33.274Y12.319
X-33.274Y13.589
X-33.274Y14.859
X-33.274Y16.129
X-33.274Y17.399
X-33.274Y18.669
X-32.004Y-1.651
X-32.004Y-0.381
X-32.004Y0.889
X-32.004Y2.159
X-32.004Y3.429
X-32.004Y4.699
X-32.004Y5.969
X-32.004Y7.239
X-32.004Y8.509
X-32.004Y9.779
X-32.004Y11.049
X-32.004Y12.319
X-32.004Y13.589
X-32.004Y14.859
X-32.004Y16.129
X-32.004Y17.399
X-32.004Y18.669
X-30.734Y-1.651
X-30.734Y-0.381
X-30.734Y0.889
X-30.734Y2.159
X-30.734Y3.429
X-30.734Y4.699
X-30.734Y5.969
X-30.734Y7.239
X-30.734Y8.509
X-30.734Y9.779
X-30.734Y11.049
X-30.734Y12.319
X-30.734Y13.589
X-30.734Y14.859
X-30.734Y16.129
X-30.734Y17.399
X-30.734Y18.669
X-29.464Y-1.651
X-29.464Y-0.381
X-29.464Y0.889
X-29.464Y2.159
X-29.464Y3.429
X-29.464Y4.699
X-29.464Y5.969
X-29.464Y7.239
X-29.464Y8.509
X-29.464Y9.779
X-29.464Y11.049
X-28.194Y-1.651
X-28.194Y-0.381
X-28.194Y0.889
X-28.194Y2.159
X-28.194Y3.429
X-28.194Y4.699
X-28.194Y5.969
X-28.194Y7.239
X-28.194Y8.509
X-28.194Y9.779
X-28.194Y11.049
X-26.924Y-1.651
X-26.924Y-0.381
X-26.924Y0.889
X-26.924Y2.159
X-26.924Y3.429
X-26.924Y4.699
X-26.924Y5.969
X-26.924Y7.239
X-26.924Y8.509
X-26.924Y9.779
X-26.924Y11.049
X-25.654Y-1.651
X-25.654Y-0.381
X-25.654Y0.889
X-25.654Y2.159
X-25.654Y3.429
X-25.654Y4.699
X-25.654Y5.969
X-25.654Y7.239
X-25.654Y8.509
X-25.654Y9.779
X-25.654Y11.049
X-24.384Y-1.651
X-24.384Y-0.381
X-24.384Y0.889
X-24.384Y2.159
X-24.384Y3.429
X-24.384Y4.699
X-24.384Y5.969
X-24.384Y7.239
X-24.384Y8.509
X-24.384Y9.779
X-24.384Y11.049
X-23.114Y-1.651
X-23.114Y-0.381
X-23.114Y0.889
X-23.114Y2.159
X-23.114Y3.429
X-23.114Y4.699
X-23.114Y5.969
X-23.114Y7.239
X-23.114Y8.509
X-23.114Y9.779
X-23.114Y11.049
X-23.114Y12.319
X-23.114Y13.589
X-23.114Y14.859
X-23.114Y16.129
X-23.114Y17.399
X-23.114Y18.669
X-71.0946Y20.95018
X-43.5864Y64.9478
X-87.25683Y-3.35039
X-88.78141Y23.1902
X-88.78141Y24.4602
X-88.78141Y25.7302
X-88.78141Y27.0002
X-87.51141Y23.1902
X-87.51141Y24.4602
X-87.51141Y25.7302
X-87.51141Y27.0002
X-86.24141Y23.1902
X-86.24141Y24.4602
X-86.24141Y25.7302
X-86.24141Y27.0002
X-84.97141Y27.0002
X-84.97141Y28.2702
X-86.868Y16.8656
X-83.70141Y27.0002
X-83.70141Y28.2702
X-82.43141Y27.0002
X-82.43141Y28.2702
X-81.16141Y27.0002
X-81.16141Y28.2702
X-79.89141Y27.0002
X-79.89141Y28.2702
X-78.62141Y27.0002
X-78.62141Y28.2702
X-77.35141Y27.0002
X-77.35141Y28.2702
X-76.08141Y27.0002
X-76.08141Y28.2702
X-75.87821Y19.3802
X-74.81141Y20.6502
X-74.81141Y21.9202
X-74.81141Y23.1902
X-74.81141Y24.4602
X-74.81141Y25.7302
X-74.81141Y27.0002
X-74.81141Y28.2702
X-74.60821Y19.3802
X-73.54141Y20.6502
X-73.54141Y21.9202
X-73.54141Y23.1902
X-73.54141Y24.4602
X-73.33821Y19.3802
X-72.27141Y20.6502
X-72.27141Y21.9202
X-72.27141Y23.1902
X-72.27141Y24.4602
X-70.79821Y19.3802
X-69.73141Y20.6502
X-69.73141Y21.9202
X-69.73141Y23.1902
X-69.73141Y24.4602
X-69.73141Y25.7302
X-69.52821Y19.3802
X-68.46141Y20.6502
X-68.46141Y21.9202
X-68.46141Y23.1902
X-68.46141Y24.4602
X-68.46141Y25.7302
X-68.46141Y27.0002
X-68.46141Y40.9702
X-68.46141Y42.2402
X-68.46141Y43.5102
X-68.46141Y44.7802
X-68.46141Y46.0502
X-68.46141Y47.3202
X-68.46141Y48.5902
X-68.46141Y49.8602
X-68.46141Y51.1302
X-68.46141Y52.4002
X-68.46141Y53.6702
X-68.46141Y54.9402
X-68.46141Y56.2102
X-68.46141Y57.4802
X-68.46141Y58.7502
X-68.46141Y60.0202
X-68.46141Y61.2902
X-68.46141Y62.5602
X-68.46141Y63.8302
X-68.46141Y65.1002
X-68.46141Y66.3702
X-70.82361Y16.8402
X-67.19141Y23.1902
X-67.19141Y24.4602
X-67.19141Y25.7302
X-67.19141Y27.0002
X-67.19141Y28.2702
X-67.19141Y29.5402
X-67.19141Y30.8102
X-67.19141Y32.0802
X-67.19141Y33.3502
X-67.19141Y34.6202
X-67.19141Y35.8902
X-67.19141Y37.1602
X-67.19141Y38.4302
X-67.19141Y39.7002
X-67.19141Y40.9702
X-67.19141Y42.2402
X-67.19141Y43.5102
X-67.19141Y44.7802
X-67.19141Y46.0502
X-67.19141Y47.3202
X-67.19141Y48.5902
X-67.19141Y49.8602
X-67.19141Y51.1302
X-67.19141Y52.4002
X-67.19141Y53.6702
X-67.19141Y54.9402
X-67.19141Y56.2102
X-67.19141Y57.4802
X-67.19141Y58.7502
X-67.19141Y60.0202
X-67.19141Y61.2902
X-67.19141Y62.5602
X-67.19141Y63.8302
X-67.19141Y65.1002
X-67.19141Y66.3702
X-65.92141Y23.1902
X-65.92141Y24.4602
X-65.92141Y25.7302
X-65.92141Y27.0002
X-65.92141Y28.2702
X-65.92141Y29.5402
X-65.92141Y30.8102
X-65.92141Y32.0802
X-65.92141Y33.3502
X-65.92141Y34.6202
X-65.92141Y35.8902
X-65.92141Y37.1602
X-65.92141Y38.4302
X-65.92141Y39.7002
X-65.92141Y40.9702
X-65.92141Y42.2402
X-65.92141Y43.5102
X-65.92141Y44.7802
X-65.92141Y46.0502
X-65.92141Y47.3202
X-65.92141Y48.5902
X-65.92141Y49.8602
X-65.92141Y51.1302
X-65.92141Y52.4002
X-65.92141Y53.6702
X-65.92141Y54.9402
X-65.92141Y56.2102
X-65.92141Y57.4802
X-65.92141Y58.7502
X-65.92141Y60.0202
X-65.92141Y61.2902
X-65.92141Y62.5602
X-65.92141Y63.8302
X-65.92141Y65.1002
X-65.92141Y66.3702
X-64.65141Y19.3802
X-64.65141Y20.6502
X-64.65141Y21.9202
X-64.65141Y23.1902
X-64.65141Y24.4602
X-64.65141Y25.7302
X-64.65141Y27.0002
X-64.65141Y28.2702
X-64.65141Y29.5402
X-64.65141Y30.8102
X-64.65141Y32.0802
X-64.65141Y33.3502
X-64.65141Y34.6202
X-64.65141Y35.8902
X-64.65141Y37.1602
X-64.65141Y38.4302
X-64.65141Y39.7002
X-64.65141Y40.9702
X-64.65141Y42.2402
X-64.65141Y43.5102
X-64.65141Y44.7802
X-64.65141Y46.0502
X-64.65141Y47.3202
X-64.65141Y48.5902
X-64.65141Y49.8602
X-64.65141Y51.1302
X-64.65141Y52.4002
X-64.65141Y53.6702
X-64.65141Y54.9402
X-64.65141Y56.2102
X-64.65141Y57.4802
X-64.65141Y58.7502
X-64.65141Y60.0202
X-64.65141Y61.2902
X-64.65141Y62.5602
X-64.65141Y63.8302
X-64.65141Y65.1002
X-64.65141Y66.3702
X-63.38141Y19.3802
X-63.38141Y20.6502
X-63.38141Y21.9202
X-63.38141Y23.1902
X-63.38141Y24.4602
X-63.38141Y25.7302
X-63.38141Y27.0002
X-63.38141Y28.2702
X-63.38141Y29.5402
X-63.38141Y30.8102
X-63.38141Y32.0802
X-63.38141Y33.3502
X-63.38141Y34.6202
X-63.38141Y35.8902
X-63.38141Y37.1602
X-63.38141Y38.4302
X-63.38141Y39.7002
X-63.38141Y40.9702
X-63.38141Y42.2402
X-63.38141Y43.5102
X-63.38141Y44.7802
X-63.38141Y46.0502
X-63.38141Y47.3202
X-63.38141Y48.5902
X-63.38141Y49.8602
X-63.38141Y51.1302
X-63.38141Y52.4002
X-63.38141Y53.6702
X-63.38141Y54.9402
X-63.38141Y56.2102
X-63.38141Y57.4802
X-63.38141Y58.7502
X-63.38141Y60.0202
X-63.38141Y61.2902
X-63.38141Y62.5602
X-63.38141Y63.8302
X-63.38141Y65.1002
X-63.38141Y66.3702
X-62.11141Y19.3802
X-62.11141Y20.6502
X-62.11141Y21.9202
X-62.11141Y23.1902
X-62.11141Y24.4602
X-62.11141Y25.7302
X-62.11141Y27.0002
X-62.11141Y28.2702
X-62.11141Y29.5402
X-62.11141Y30.8102
X-62.11141Y32.0802
X-62.11141Y33.3502
X-62.11141Y34.6202
X-62.11141Y35.8902
X-62.11141Y37.1602
X-62.11141Y38.4302
X-62.11141Y39.7002
X-62.11141Y40.9702
X-62.11141Y42.2402
X-62.11141Y43.5102
X-62.11141Y44.7802
X-62.11141Y46.0502
X-62.11141Y47.3202
X-62.11141Y48.5902
X-62.11141Y49.8602
X-62.11141Y51.1302
X-62.11141Y52.4002
X-62.11141Y53.6702
X-62.11141Y54.9402
X-62.11141Y56.2102
X-62.11141Y57.4802
X-62.11141Y58.7502
X-62.11141Y60.0202
X-62.11141Y61.2902
X-62.11141Y62.5602
X-62.11141Y63.8302
X-62.11141Y65.1002
X-62.11141Y66.3702
X-56.388Y26.0604
X-81.3816Y40.7924
X-81.96072Y40.21328
X0.89639Y33.3429
X0.89639Y42.88695
X0.89639Y38.1054
X0.94719Y52.4183
X0.89639Y47.64945
X-40.4622Y41.9862
X-40.37027Y55.82934
X-33.8328Y60.7822
X-96.28039Y59.35592
X-96.28039Y60.62592
X-96.28039Y61.89592
X-96.28039Y63.16592
X-96.28039Y64.43592
X-96.28039Y65.70592
X-96.28039Y31.41592
X-96.28039Y32.68592
X-96.28039Y33.95592
X-96.28039Y35.22592
X-96.28039Y36.49592
X-96.28039Y37.76592
X-96.28039Y40.30592
X-96.28039Y41.57592
X-96.28039Y42.84592
X-96.28039Y44.11592
X-96.28039Y45.38592
X-96.28039Y46.65592
X-95.01039Y30.14592
X-95.01039Y31.41592
X-95.01039Y32.68592
X-95.01039Y33.95592
X-95.01039Y35.22592
X-95.01039Y36.49592
X-95.01039Y37.76592
X-95.01039Y40.30592
X-95.01039Y41.57592
X-95.01039Y42.84592
X-95.01039Y44.11592
X-95.01039Y45.38592
X-95.01039Y46.65592
X-95.01039Y47.92592
X-95.01039Y49.19592
X-95.01039Y50.46592
X-95.01039Y53.00592
X-95.01039Y55.54592
X-95.01039Y58.08592
X-95.01039Y59.35592
X-95.01039Y65.70592
X-93.74039Y30.14592
X-93.74039Y31.41592
X-93.74039Y32.68592
X-93.74039Y33.95592
X-93.74039Y35.22592
X-93.74039Y36.49592
X-93.74039Y37.76592
X-93.74039Y40.30592
X-93.74039Y41.57592
X-93.74039Y42.84592
X-93.74039Y44.11592
X-93.74039Y45.38592
X-93.74039Y46.65592
X-93.74039Y47.92592
X-93.74039Y49.19592
X-93.74039Y50.46592
X-93.74039Y53.00592
X-93.74039Y55.54592
X-93.74039Y58.08592
X-93.74039Y59.35592
X-93.74039Y65.70592
X-92.47039Y33.95592
X-92.47039Y35.22592
X-92.47039Y36.49592
X-92.47039Y37.76592
X-92.47039Y39.03592
X-92.47039Y40.30592
X-92.47039Y41.57592
X-92.47039Y42.84592
X-92.47039Y44.11592
X-92.47039Y45.38592
X-92.47039Y46.65592
X-92.47039Y47.92592
X-92.47039Y49.19592
X-92.47039Y50.46592
X-92.47039Y53.00592
X-92.47039Y55.54592
X-92.47039Y58.08592
X-92.47039Y65.70592
X-91.20039Y53.00592
X-91.20039Y55.54592
X-91.20039Y58.08592
X-91.20039Y59.35592
X-91.20039Y65.70592
X-89.93039Y58.08592
X-89.93039Y59.35592
X-89.93039Y60.62592
X-89.93039Y64.43592
X-89.93039Y65.70592
X-88.66039Y41.57592
X-88.66039Y42.84592
X-88.66039Y44.11592
X-88.66039Y45.38592
X-88.66039Y46.65592
X-88.66039Y47.92592
X-88.66039Y49.19592
X-88.66039Y50.46592
X-88.66039Y51.73592
X-88.66039Y53.00592
X-88.66039Y54.27592
X-88.66039Y55.54592
X-88.66039Y56.81592
X-88.66039Y58.08592
X-88.66039Y59.35592
X-88.66039Y60.62592
X-88.66039Y61.89592
X-88.66039Y63.16592
X-88.66039Y64.43592
X-88.66039Y65.70592
X-87.39039Y41.57592
X-87.39039Y42.84592
X-87.39039Y44.11592
X-87.39039Y45.38592
X-87.39039Y46.65592
X-87.39039Y47.92592
X-87.39039Y49.19592
X-87.39039Y50.46592
X-87.39039Y51.73592
X-87.39039Y53.00592
X-87.39039Y54.27592
X-87.39039Y59.35592
X-87.39039Y60.62592
X-87.39039Y61.89592
X-87.39039Y63.16592
X-87.39039Y64.43592
X-87.39039Y65.70592
X-87.39039Y36.49592
X-86.12039Y45.38592
X-86.12039Y46.65592
X-86.12039Y47.92592
X-86.12039Y49.19592
X-86.12039Y50.46592
X-86.12039Y51.73592
X-86.12039Y53.00592
X-86.12039Y54.27592
X-86.12039Y55.54592
X-86.12039Y59.35592
X-86.12039Y60.62592
X-86.12039Y61.89592
X-86.12039Y63.16592
X-86.12039Y64.43592
X-86.12039Y65.70592
X-86.12039Y36.49592
X-86.12039Y37.76592
X-84.85039Y45.38592
X-84.85039Y46.65592
X-84.85039Y47.92592
X-84.85039Y54.27592
X-84.85039Y55.54592
X-84.85039Y56.81592
X-84.85039Y58.08592
X-84.85039Y59.35592
X-84.85039Y60.62592
X-84.85039Y61.89592
X-84.85039Y63.16592
X-84.85039Y64.43592
X-84.85039Y65.70592
X-84.85039Y36.49592
X-84.85039Y37.76592
X-83.58039Y36.49592
X-83.58039Y37.76592
X-83.58039Y39.03592
X-83.58039Y45.38592
X-83.58039Y46.65592
X-83.58039Y47.92592
X-83.58039Y54.27592
X-83.58039Y55.54592
X-83.58039Y56.81592
X-83.58039Y58.08592
X-83.58039Y59.35592
X-83.58039Y60.62592
X-83.58039Y61.89592
X-83.58039Y63.16592
X-83.58039Y64.43592
X-83.58039Y65.70592
X-82.31039Y39.03592
X-82.31039Y41.57592
X-82.31039Y42.84592
X-82.31039Y44.11592
X-82.31039Y45.38592
X-82.31039Y49.19592
X-82.31039Y53.00592
X-82.31039Y54.27592
X-82.31039Y55.54592
X-82.31039Y56.81592
X-82.31039Y58.08592
X-82.31039Y59.35592
X-82.31039Y60.62592
X-82.31039Y61.89592
X-82.31039Y63.16592
X-82.31039Y64.43592
X-82.31039Y65.70592
X-87.49756Y30.41357
X-87.49756Y31.68357
X-87.49756Y32.95357
X-87.49756Y34.22357
X-86.22756Y30.41357
X-86.22756Y31.68357
X-86.22756Y32.95357
X-86.22756Y34.22357
X-84.95756Y34.22357
X-83.68756Y30.41357
X-82.41756Y30.41357
X-81.14756Y30.41357
X-81.14756Y31.68357
X-81.14756Y32.95357
X-81.14756Y34.22357
X-79.87756Y30.41357
X-79.87756Y31.68357
X-79.87756Y32.95357
X-79.87756Y34.22357
X-79.87756Y35.49357
X-79.87756Y39.30357
X-79.87756Y43.11357
X-79.87756Y44.38357
X-79.87756Y45.65357
X-79.87756Y49.46357
X-79.87756Y50.73357
X-79.87756Y52.00357
X-79.87756Y53.27357
X-79.87756Y54.54357
X-79.87756Y55.81357
X-79.87756Y57.08357
X-79.87756Y58.35357
X-79.87756Y59.62357
X-79.87756Y60.89357
X-79.87756Y62.16357
X-79.87756Y63.43357
X-79.87756Y64.70357
X-79.87756Y65.97357
X-78.60756Y35.49357
X-78.60756Y39.30357
X-78.60756Y45.65357
X-78.60756Y49.46357
X-78.60756Y53.27357
X-78.60756Y54.54357
X-78.60756Y55.81357
X-78.60756Y57.08357
X-78.60756Y58.35357
X-78.60756Y59.62357
X-78.60756Y60.89357
X-78.60756Y62.16357
X-78.60756Y63.43357
X-78.60756Y64.70357
X-78.60756Y65.97357
X-77.33756Y36.76357
X-77.33756Y39.30357
X-77.33756Y45.65357
X-77.33756Y46.92357
X-77.33756Y48.19357
X-77.33756Y53.27357
X-77.33756Y54.54357
X-77.33756Y55.81357
X-77.33756Y57.08357
X-77.33756Y58.35357
X-77.33756Y59.62357
X-77.33756Y60.89357
X-77.33756Y62.16357
X-77.33756Y63.43357
X-77.33756Y64.70357
X-77.33756Y65.97357
X-76.06756Y36.76357
X-76.06756Y39.30357
X-76.06756Y45.65357
X-76.06756Y46.92357
X-76.06756Y48.19357
X-76.06756Y53.27357
X-76.06756Y54.54357
X-76.06756Y55.81357
X-76.06756Y57.08357
X-76.06756Y58.35357
X-76.06756Y59.62357
X-76.06756Y60.89357
X-76.06756Y62.16357
X-76.06756Y63.43357
X-76.06756Y64.70357
X-76.06756Y65.97357
X-76.06756Y30.41357
X-74.79756Y34.22357
X-74.79756Y35.49357
X-74.79756Y36.76357
X-74.79756Y38.03357
X-74.79756Y39.30357
X-74.79756Y43.11357
X-74.79756Y44.38357
X-74.79756Y45.65357
X-74.79756Y46.92357
X-74.79756Y48.19357
X-74.79756Y49.46357
X-74.79756Y53.27357
X-74.79756Y54.54357
X-74.79756Y55.81357
X-74.79756Y57.08357
X-74.79756Y58.35357
X-74.79756Y59.62357
X-74.79756Y60.89357
X-74.79756Y62.16357
X-74.79756Y63.43357
X-74.79756Y64.70357
X-74.79756Y65.97357
X-74.79756Y30.41357
X-73.52756Y32.95357
X-73.52756Y34.22357
X-73.52756Y35.49357
X-73.52756Y36.76357
X-73.52756Y38.03357
X-73.52756Y39.30357
X-73.52756Y43.11357
X-73.52756Y44.38357
X-73.52756Y45.65357
X-73.52756Y46.92357
X-73.52756Y48.19357
X-73.52756Y49.46357
X-73.52756Y50.73357
X-73.52756Y52.00357
X-73.52756Y53.27357
X-73.52756Y54.54357
X-73.52756Y59.62357
X-73.52756Y60.89357
X-73.52756Y62.16357
X-73.52756Y63.43357
X-73.52756Y64.70357
X-73.52756Y65.97357
X-72.25756Y30.41357
X-72.25756Y31.68357
X-72.25756Y32.95357
X-72.25756Y36.76357
X-72.25756Y43.11357
X-72.25756Y44.38357
X-72.25756Y45.65357
X-72.25756Y46.92357
X-72.25756Y48.19357
X-72.25756Y49.46357
X-72.25756Y50.73357
X-72.25756Y52.00357
X-72.25756Y53.27357
X-72.25756Y54.54357
X-72.25756Y55.81357
X-72.25756Y57.08357
X-72.25756Y58.35357
X-72.25756Y59.62357
X-72.25756Y60.89357
X-72.25756Y62.16357
X-72.25756Y63.43357
X-72.25756Y64.70357
X-72.25756Y65.97357
X-70.98756Y38.03357
X-70.98756Y41.84357
X-70.98756Y43.11357
X-70.98756Y44.38357
X-70.98756Y45.65357
X-70.98756Y46.92357
X-70.98756Y48.19357
X-70.98756Y49.46357
X-70.98756Y50.73357
X-70.98756Y52.00357
X-70.98756Y53.27357
X-70.98756Y54.54357
X-70.98756Y55.81357
X-70.98756Y57.08357
X-70.98756Y58.35357
X-70.98756Y59.62357
X-70.98756Y60.89357
X-70.98756Y62.16357
X-70.98756Y63.43357
X-70.98756Y64.70357
X-46.5328Y0.68897
X-46.5328Y1.95897
X-46.5328Y3.22897
X-46.5328Y4.49897
X-45.2628Y0.68897
X-58.166Y-9.398
X-49.149Y-31.06103
X-49.149Y-29.79103
X-49.149Y-28.52103
X-49.149Y-27.25103
X-49.149Y-25.98103
X-49.149Y-24.71103
X-49.149Y-19.63103
X-49.149Y-18.36103
X-49.149Y-17.09103
X-49.149Y-15.82103
X-49.149Y-14.55103
X-47.879Y-31.06103
X-47.879Y-29.79103
X-47.879Y-28.52103
X-47.879Y-27.25103
X-47.879Y-25.98103
X-47.879Y-24.71103
X-47.879Y-23.44103
X-47.879Y-22.17103
X-47.879Y-20.90103
X-47.879Y-19.63103
X-47.879Y-18.36103
X-47.879Y-14.55103
X-47.879Y-13.28103
X-46.609Y-31.06103
X-46.609Y-29.79103
X-46.609Y-28.52103
X-46.609Y-27.25103
X-46.609Y-25.98103
X-46.609Y-24.71103
X-46.609Y-23.44103
X-46.609Y-22.17103
X-46.609Y-20.90103
X-46.609Y-19.63103
X-46.609Y-13.28103
X-46.609Y-12.01103
X-46.609Y-10.74103
X-46.609Y-9.47103
X-46.609Y-8.20103
X-46.609Y-6.93103
X-46.609Y-5.66103
X-46.609Y-4.39103
X-45.339Y-31.06103
X-45.339Y-29.79103
X-45.339Y-28.52103
X-45.339Y-27.25103
X-45.339Y-25.98103
X-45.339Y-24.71103
X-45.339Y-23.44103
X-45.339Y-22.17103
X-45.339Y-20.90103
X-45.339Y-19.63103
X-45.339Y-18.36103
X-45.339Y-13.28103
X-45.339Y-12.01103
X-45.339Y-10.74103
X-45.339Y-6.93103
X-45.339Y-5.66103
X-45.339Y-4.39103
X-44.069Y-31.06103
X-44.069Y-29.79103
X-44.069Y-28.52103
X-44.069Y-27.25103
X-44.069Y-25.98103
X-44.069Y-24.71103
X-44.069Y-23.44103
X-44.069Y-22.17103
X-44.069Y-20.90103
X-44.069Y-19.63103
X-44.069Y-18.36103
X-44.069Y-17.09103
X-44.069Y-15.82103
X-44.069Y-14.55103
X-44.069Y-8.20103
X-44.069Y-4.39103
X-44.069Y-3.12103
X-44.069Y-1.85103
X-42.799Y-31.06103
X-42.799Y-29.79103
X-42.799Y-28.52103
X-42.799Y-27.25103
X-42.799Y-25.98103
X-42.799Y-24.71103
X-42.799Y-23.44103
X-42.799Y-22.17103
X-42.799Y-20.90103
X-42.799Y-19.63103
X-42.799Y-18.36103
X-42.799Y-17.09103
X-42.799Y-15.82103
X-42.799Y-14.55103
X-42.799Y-13.28103
X-42.799Y-12.01103
X-42.799Y-10.74103
X-42.799Y-9.47103
X-42.799Y-8.20103
X-42.799Y-6.93103
X-42.799Y-5.66103
X-42.799Y-4.39103
X-42.799Y-3.12103
X-42.799Y-1.85103
X-42.799Y-0.58103
X-33.3502Y61.9506
X-41.0464Y48.768
X-41.0464Y47.86289
X-41.0464Y46.95865
X-40.0304Y46.95865
X-40.0304Y47.86289
X-40.0304Y48.768
X-39.0144Y48.768
X-39.0144Y47.86289
X-39.0144Y46.95865
X-37.9984Y48.768
X-37.9984Y47.86289
X-37.9984Y46.95865
X-36.9824Y48.768
X-36.9824Y47.86289
X-36.9824Y46.95865
X-52.9336Y31.0896
X-52.9336Y32.3596
X-52.9336Y33.6296
X-51.6636Y31.0896
X-51.6636Y32.3596
X-51.6636Y33.6296
X-48.8188Y10.7696
X-48.8188Y12.0396
X-48.8188Y13.3096
X-48.8188Y14.5796
X-48.8188Y15.8496
X-48.8188Y17.1196
X-48.8188Y18.3896
X-48.8188Y19.6596
X-48.8188Y20.9296
X-48.8188Y22.1996
X-48.8188Y23.4696
X-48.8188Y24.7396
X-48.8188Y26.0096
X-48.8188Y27.2796
X-47.5488Y10.7696
X-47.5488Y12.0396
X-47.5488Y13.3096
X-47.5488Y14.5796
X-47.5488Y15.8496
X-47.5488Y17.1196
X-47.5488Y18.3896
X-47.5488Y19.6596
X-47.5488Y20.9296
X-47.5488Y22.1996
X-47.5488Y23.4696
X-47.5488Y24.7396
X-47.5488Y26.0096
X-47.5488Y27.2796
X-46.2788Y10.7696
X-46.2788Y12.0396
X-46.2788Y13.3096
X-46.2788Y14.5796
X-46.2788Y15.8496
X-46.2788Y17.1196
X-46.2788Y18.3896
X-46.2788Y19.6596
X-46.2788Y20.9296
X-46.2788Y22.1996
X-46.2788Y23.4696
X-46.2788Y24.7396
X-46.2788Y26.0096
X-46.2788Y27.2796
X-45.0088Y10.7696
X-45.0088Y12.0396
X-45.0088Y13.3096
X-45.0088Y14.5796
X-45.0088Y15.8496
X-45.0088Y17.1196
X-45.0088Y18.3896
X-45.0088Y19.6596
X-45.0088Y20.9296
X-45.0088Y22.1996
X-45.0088Y23.4696
X-45.0088Y24.7396
X-45.0088Y26.0096
X-45.0088Y27.2796
X-43.7388Y10.7696
X-43.7388Y12.0396
X-43.7388Y13.3096
X-43.7388Y14.5796
X-43.7388Y15.8496
X-43.7388Y17.1196
X-43.7388Y18.3896
X-43.7388Y19.6596
X-43.7388Y20.9296
X-43.7388Y22.1996
X-43.7388Y23.4696
X-43.7388Y24.7396
X-43.7388Y26.0096
X-43.7388Y27.2796
X-42.4688Y10.7696
X-42.4688Y12.0396
X-42.4688Y13.3096
X-42.4688Y14.5796
X-42.4688Y15.8496
X-42.4688Y17.1196
X-42.4688Y18.3896
X-42.4688Y19.6596
X-42.4688Y20.9296
X-42.4688Y22.1996
X-42.4688Y23.4696
X-42.4688Y24.7396
X-42.4688Y26.0096
X-42.4688Y27.2796
X-39.9288Y10.7696
X-39.9288Y12.0396
X-39.9288Y13.3096
X-39.9288Y14.5796
X-39.9288Y15.8496
X-39.9288Y17.1196
X-39.9288Y18.3896
X-39.9288Y19.6596
X-39.9288Y20.9296
X-39.9288Y22.1996
X-39.9288Y23.4696
X-39.9288Y24.7396
X-39.9288Y26.0096
X-39.9288Y27.2796
X-39.9288Y28.5496
X-39.9288Y29.8196
X-38.6588Y18.3896
X-38.6588Y19.6596
X-38.6588Y20.9296
X-38.6588Y22.1996
X-38.6588Y23.4696
X-38.6588Y24.7396
X-38.6588Y26.0096
X-38.6588Y27.2796
X-37.3888Y19.6596
X-37.3888Y20.9296
X-37.3888Y22.1996
X-37.3888Y23.4696
X-37.3888Y24.7396
X-37.3888Y26.0096
X-37.3888Y27.2796
X-36.1188Y20.9296
X-36.1188Y22.1996
X-36.1188Y23.4696
X-36.1188Y24.7396
X-36.1188Y26.0096
X-36.1188Y27.2796
X-36.1188Y28.5496
X-34.8488Y20.9296
X-34.8488Y22.1996
X-34.8488Y23.4696
X-34.8488Y24.7396
X-34.8488Y26.0096
X-34.8488Y27.2796
X-34.8488Y28.5496
X-33.5788Y20.9296
X-33.5788Y22.1996
X-33.5788Y23.4696
X-33.5788Y24.7396
X-33.5788Y26.0096
X-33.5788Y27.2796
X-33.5788Y28.5496
X-32.3088Y20.9296
X-32.3088Y22.1996
X-32.3088Y23.4696
X-32.3088Y24.7396
X-32.3088Y26.0096
X-32.3088Y27.2796
X-32.3088Y28.5496
X-31.0388Y20.9296
X-31.0388Y22.1996
X-31.0388Y23.4696
X-31.0388Y24.7396
X-29.7688Y20.9296
X-29.7688Y22.1996
X-29.7688Y23.4696
X-29.7688Y24.7396
X-28.4988Y20.9296
X-28.4988Y22.1996
X-28.4988Y23.4696
X-28.4988Y24.7396
X-27.2288Y20.9296
X-27.2288Y22.1996
X-27.2288Y23.4696
X-27.2288Y24.7396
X-25.9588Y20.9296
X-25.9588Y22.1996
X-25.9588Y23.4696
X-25.9588Y24.7396
X-25.9588Y26.0096
X-25.9588Y27.2796
X-25.9588Y28.5496
X-24.6888Y20.9296
X-24.6888Y22.1996
X-24.6888Y23.4696
X-24.6888Y24.7396
X-24.6888Y26.0096
X-24.6888Y27.2796
X-24.6888Y28.5496
X-23.4188Y20.9296
X-23.4188Y22.1996
X-23.4188Y23.4696
X-23.4188Y24.7396
X-23.4188Y26.0096
X-23.4188Y27.2796
X-23.4188Y28.5496
X-45.00568Y43.86897
X-76.7334Y-0.9144
X-84.4042Y4.9784
X-29.83892Y26.48791
X-29.83892Y27.75791
X-28.56892Y26.48791
X-28.56892Y27.75791
X-27.29892Y27.75791
X-27.29892Y26.48791
X-29.83892Y29.02791
X-28.56892Y29.02791
X-27.29892Y29.02791
X-25.86766Y34.83017
X-25.86766Y36.10017
X-24.59766Y34.83017
X-24.59766Y36.10017
X-23.32766Y36.10017
X-23.32766Y34.83017
X-25.86766Y37.37017
X-24.59766Y37.37017
X-23.32766Y37.37017
X-96.17913Y26.44051
X-96.17913Y27.71051
X-94.90913Y26.44051
X-94.90913Y27.71051
X-93.63913Y27.71051
X-93.63913Y26.44051
X-96.17913Y28.98051
X-94.90913Y28.98051
X-93.63913Y28.98051
X-81.70722Y19.44695
X-79.16722Y19.44695
X-80.43722Y19.44695
X-82.97722Y19.44695
X-77.89722Y19.44695
X-81.70722Y20.71695
X-77.89722Y20.71695
X-82.97722Y20.71695
X-80.43722Y20.71695
X-79.16722Y20.71695
X-81.70722Y21.98695
X-82.97722Y21.98695
X-77.89722Y21.98695
X-80.43722Y21.98695
X-79.16722Y21.98695
X-82.97722Y23.25695
X-81.70722Y23.25695
X-79.16722Y23.25695
X-80.43722Y23.25695
X-77.89722Y23.25695
X-82.97722Y24.52695
X-81.70722Y24.52695
X-79.16722Y24.52695
X-80.43722Y24.52695
X-77.89722Y24.52695
X-53.467Y16.12895
X-53.467Y16.89095
X-53.467Y17.65295
X-53.467Y18.41495
X-53.467Y19.17695
X-53.467Y19.93895
X-53.467Y20.70095
X-53.467Y21.46295
X-53.467Y22.22495
X-52.705Y16.12895
X-52.705Y16.89095
X-52.705Y17.65295
X-52.705Y18.41495
X-52.705Y19.17695
X-52.705Y19.93895
X-52.705Y20.70095
X-52.705Y21.46295
X-52.705Y22.22495
X-51.943Y16.12895
X-51.943Y16.89095
X-51.943Y17.65295
X-51.943Y18.41495
X-51.943Y19.17695
X-51.943Y19.93895
X-51.943Y20.70095
X-51.943Y21.46295
X-51.943Y22.22495
X-43.13859Y57.87924
X-95.01039Y10.84897
X-95.01039Y13.38897
X-95.01039Y21.00897
X-95.01039Y23.54897
X-95.01039Y-14.55103
X-95.01039Y-12.01103
X-95.01039Y-6.93103
X-95.01039Y-4.39103
X-95.01039Y-1.85103
X-92.47039Y10.84897
X-92.47039Y13.38897
X-92.47039Y0.68897
X-89.93039Y-22.17103
X-89.93039Y-14.55103
X-89.93039Y-9.47103
X-89.93039Y-6.93103
X-89.93039Y-1.85103
X-89.93039Y-29.79103
X-87.39039Y10.41717
X-87.39039Y13.38897
X-87.39039Y-9.47103
X-87.39039Y-6.93103
X-87.39039Y-1.85103
X-87.39039Y-24.71103
X-87.39039Y-17.09103
X-84.85039Y10.41717
X-84.85039Y13.38897
X-84.85039Y-9.47103
X-84.85039Y-6.93103
X-84.85039Y-4.39103
X-84.85039Y-29.79103
X-82.31039Y10.41717
X-82.31039Y13.38897
X-82.31039Y-24.71103
X-82.31039Y-29.79103
X-79.77039Y10.41717
X-79.77039Y13.38897
X-79.77039Y-19.63103
X-79.77039Y-17.09103
X-79.77039Y-14.55103
X-79.77039Y-29.79103
X-77.23039Y10.41717
X-77.23039Y13.38897
X-77.23039Y-19.63103
X-77.23039Y-17.09103
X-77.23039Y-14.55103
X-77.23039Y-12.01103
X-77.23039Y-29.79103
X-77.23039Y-27.25103
X-77.23039Y-24.71103
X-74.69039Y10.41717
X-74.69039Y13.38897
X-74.69039Y-6.93103
X-74.69039Y-17.09103
X-74.69039Y-14.55103
X-74.69039Y-12.01103
X-74.69039Y-24.71103
X-72.15039Y10.41717
X-72.15039Y13.38897
X-72.15039Y-19.63103
X-72.15039Y-29.79103
X-69.61039Y10.41717
X-69.61039Y13.38897
X-69.61039Y-6.93103
X-69.61039Y-24.71103
X-69.61039Y-29.79103
X-67.07039Y-24.71103
X-67.07039Y-29.79103
X-61.99039Y-29.79103
X-59.45039Y10.84897
X-56.91039Y5.76897
X-56.91039Y10.84897
X-50.8Y6.425
X-54.37039Y5.76897
X-54.37039Y8.30897
X-54.37039Y-9.47103
X-54.37039Y-6.93103
X-53.12033Y-4.39103
X-51.83039Y-9.47103
X-51.83039Y-6.93103
X-49.29039Y3.22897
X-49.29039Y5.76897
X-49.29039Y8.30897
X-49.29039Y-9.47103
X-49.29039Y-6.93103
X-49.29039Y-4.39103
X-46.75039Y8.30897
X-44.21039Y8.30897
X-41.67039Y8.30897
X-39.13039Y5.76897
X-39.13039Y8.30897
X-52.62568Y43.86897
X-52.62568Y51.48897
X-52.62568Y54.02897
X-52.62568Y56.56897
X-52.62568Y59.10897
X-52.62568Y61.64897
X-52.62568Y64.18897
X-50.08568Y56.56897
X-50.08568Y59.10897
X-50.08568Y61.64897
X-50.08568Y64.18897
X-47.54568Y59.10897
X-47.54568Y64.18897
X-47.54568Y33.70897
X-42.46568Y64.18897
X-42.46568Y0.68897
X-39.92568Y64.18897
X-39.92568Y-29.79103
X-39.92568Y-27.25103
X-39.92568Y-24.71103
X-39.92568Y-22.17103
X-39.92568Y-19.63103
X-39.92568Y-4.39103
X-39.92568Y0.68897
X-37.38568Y41.32897
X-37.38568Y-29.79103
X-37.38568Y-27.25103
X-37.38568Y-24.71103
X-37.38568Y-22.17103
X-37.38568Y-19.63103
X-37.38568Y-14.55103
X-37.38568Y-12.01103
X-37.38568Y-9.47103
X-37.38568Y-6.93103
X-37.38568Y-4.39103
X-34.84568Y64.18897
X-34.84568Y46.40897
X-34.84568Y48.94897
X-34.84568Y33.70897
X-34.84568Y-29.79103
X-34.84568Y-27.25103
X-34.84568Y-24.71103
X-34.84568Y-19.63103
X-34.84568Y-17.09103
X-34.84568Y-14.55103
X-34.84568Y-12.01103
X-34.84568Y-9.47103
X-34.84568Y-6.93103
X-34.84568Y-4.39103
X-32.30568Y43.86897
X-32.30568Y46.40897
X-32.30568Y48.94897
X-32.30568Y-29.79103
X-32.30568Y-27.25103
X-32.30568Y-24.71103
X-32.30568Y-22.17103
X-32.30568Y-19.63103
X-32.30568Y-17.09103
X-32.30568Y-14.55103
X-32.30568Y-12.01103
X-32.30568Y-9.47103
X-32.30568Y-6.93103
X-32.30568Y-4.39103
X-29.76568Y-29.79103
X-29.76568Y-27.25103
X-29.76568Y-24.71103
X-29.76568Y-22.17103
X-29.76568Y-19.63103
X-29.76568Y-17.09103
X-29.76568Y-14.55103
X-29.76568Y-12.01103
X-29.76568Y-9.47103
X-29.76568Y-6.93103
X-29.76568Y-4.39103
X-27.22568Y46.40897
X-27.22568Y48.94897
X-27.22568Y54.02897
X-27.22568Y61.64897
X-27.22568Y64.18897
X-27.22568Y66.72897
X-27.22568Y-29.79103
X-27.22568Y-27.25103
X-27.22568Y-24.71103
X-27.22568Y-22.17103
X-27.22568Y-19.63103
X-27.22568Y-17.09103
X-27.22568Y-14.55103
X-27.22568Y-12.01103
X-27.22568Y-9.47103
X-27.22568Y-6.93103
X-27.22568Y-4.39103
X-24.68568Y38.78897
X-24.68568Y41.32897
X-24.68568Y43.86897
X-24.68568Y46.40897
X-24.68568Y59.10897
X-24.68568Y61.64897
X-24.68568Y64.18897
X-24.68568Y66.72897
X-24.68568Y-29.79103
X-24.68568Y-27.25103
X-24.68568Y-24.71103
X-24.68568Y-22.17103
X-24.68568Y-19.63103
X-24.68568Y-17.09103
X-24.68568Y-14.55103
X-24.68568Y-4.39103
X-22.14568Y38.78897
X-22.14568Y41.32897
X-22.14568Y43.86897
X-22.14568Y46.40897
X-22.14568Y48.94897
X-22.14568Y56.56897
X-22.14568Y59.10897
X-22.14568Y61.64897
X-22.14568Y64.18897
X-22.14568Y66.72897
X-22.14568Y-29.79103
X-22.14568Y-27.25103
X-22.14568Y-24.71103
X-22.14568Y-22.17103
X-22.14568Y-19.63103
X-22.14568Y-17.09103
X-22.14568Y-14.55103
X-22.14568Y-4.39103
X-19.60568Y38.78897
X-19.60568Y43.86897
X-19.60568Y46.40897
X-19.60568Y48.94897
X-19.60568Y54.02897
X-19.60568Y56.56897
X-19.60568Y59.10897
X-19.60568Y61.64897
X-19.60568Y64.18897
X-19.60568Y66.72897
X-19.60568Y-29.79103
X-19.60568Y-27.25103
X-19.60568Y-24.71103
X-19.60568Y-22.17103
X-19.60568Y-19.63103
X-19.60568Y-17.09103
X-19.60568Y-14.55103
X-19.60568Y-4.39103
X-19.60568Y-1.85103
X-19.60568Y0.68897
X-19.60568Y3.22897
X-19.60568Y5.76897
X-17.06568Y38.78897
X-17.06568Y46.40897
X-17.06568Y48.94897
X-17.06568Y54.02897
X-17.06568Y56.56897
X-17.06568Y59.10897
X-17.06568Y61.64897
X-17.06568Y64.18897
X-17.06568Y66.72897
X-17.06568Y-29.79103
X-17.06568Y-27.25103
X-17.06568Y-24.71103
X-17.06568Y-22.17103
X-17.06568Y-19.63103
X-17.06568Y-17.09103
X-17.06568Y-14.55103
X-17.06568Y-12.01103
X-17.06568Y-9.47103
X-17.06568Y-6.93103
X-17.06568Y-4.39103
X-17.06568Y-1.85103
X-17.06568Y0.68897
X-17.06568Y3.22897
X-17.06568Y5.76897
X-14.52568Y38.78897
X-14.52568Y41.32897
X-14.52568Y43.86897
X-14.52568Y46.40897
X-14.52568Y54.02897
X-14.52568Y56.56897
X-14.52568Y59.10897
X-14.52568Y61.64897
X-14.52568Y64.18897
X-14.52568Y66.72897
X-14.52568Y-29.79103
X-14.52568Y-27.25103
X-14.52568Y-24.71103
X-14.52568Y-22.17103
X-14.52568Y-19.63103
X-14.52568Y-17.09103
X-14.52568Y-14.55103
X-14.52568Y-12.01103
X-14.52568Y-9.47103
X-14.52568Y-6.93103
X-14.52568Y-4.39103
X-14.52568Y-1.85103
X-14.52568Y0.68897
X-14.52568Y3.22897
X-14.52568Y5.76897
X-11.98568Y38.78897
X-11.98568Y41.32897
X-11.98568Y43.86897
X-11.98568Y48.94897
X-11.98568Y54.02897
X-11.98568Y56.56897
X-11.98568Y59.10897
X-11.98568Y61.64897
X-11.98568Y64.18897
X-11.98568Y66.72897
X-11.98568Y-29.79103
X-11.98568Y-27.25103
X-11.98568Y-24.71103
X-11.98568Y-22.17103
X-11.98568Y-19.63103
X-11.98568Y-17.09103
X-11.98568Y-14.55103
X-11.98568Y-12.01103
X-11.98568Y-9.47103
X-11.98568Y-6.93103
X-11.98568Y-4.39103
X-11.98568Y-1.85103
X-11.98568Y0.68897
X-11.98568Y3.22897
X-11.98568Y5.76897
X-9.44568Y38.78897
X-9.44568Y41.32897
X-9.44568Y46.40897
X-9.44568Y51.48897
X-9.44568Y54.02897
X-9.44568Y56.56897
X-9.44568Y59.10897
X-9.44568Y61.64897
X-9.44568Y64.18897
X-9.44568Y66.72897
X-9.44568Y-29.79103
X-9.44568Y-27.25103
X-9.44568Y-24.71103
X-9.44568Y-22.17103
X-9.44568Y-19.63103
X-9.44568Y-17.09103
X-9.44568Y-14.55103
X-9.44568Y-12.01103
X-9.44568Y-9.47103
X-9.44568Y-6.93103
X-9.44568Y-4.39103
X-9.44568Y-1.85103
X-9.44568Y0.68897
X-9.44568Y3.22897
X-9.44568Y5.76897
X-6.90568Y-29.79103
X-6.90568Y-27.25103
X-6.90568Y-24.71103
X-6.90568Y-22.17103
X-6.90568Y-19.63103
X-6.90568Y-17.09103
X-6.90568Y-14.55103
X-6.90568Y-12.01103
X-6.90568Y-9.47103
X-6.90568Y-6.93103
X-6.90568Y-4.39103
X-6.90568Y-1.85103
X-6.90568Y0.68897
X-6.90568Y3.22897
X-6.90568Y5.76897
X-6.90568Y8.30897
X-6.90568Y10.84897
X-6.90568Y13.38897
X-6.90568Y15.92897
X-6.90568Y18.46897
X-6.90568Y21.00897
X-6.90568Y23.54897
X-6.90568Y26.08897
X-6.90568Y28.62897
X-6.90568Y31.16897
X-6.90568Y33.70897
X-6.90568Y36.24897
X-6.90568Y38.78897
X-6.90568Y43.86897
X-6.90568Y48.94897
X-6.90568Y51.48897
X-6.90568Y54.02897
X-6.90568Y56.56897
X-6.90568Y59.10897
X-6.90568Y61.64897
X-6.90568Y64.18897
X-6.90568Y66.72897
X-4.36568Y-24.71103
X-4.36568Y-22.17103
X-4.36568Y-19.63103
X-4.36568Y-17.09103
X-4.36568Y-14.55103
X-4.36568Y-12.01103
X-4.36568Y-9.47103
X-4.36568Y-6.93103
X-4.36568Y-4.39103
X-4.36568Y-1.85103
X-4.36568Y0.68897
X-4.36568Y3.22897
X-4.36568Y5.76897
X-4.36568Y8.30897
X-4.36568Y10.84897
X-4.36568Y13.38897
X-4.36568Y15.92897
X-4.36568Y18.46897
X-4.36568Y21.00897
X-4.36568Y23.54897
X-4.36568Y26.08897
X-4.36568Y28.62897
X-4.36568Y31.16897
X-4.36568Y33.70897
X-4.36568Y36.24897
X-4.36568Y41.32897
X-4.36568Y46.40897
X-4.36568Y48.94897
X-4.36568Y51.48897
X-4.36568Y54.02897
X-4.36568Y56.56897
X-4.36568Y59.10897
X-4.36568Y66.72897
X-1.82568Y-24.71103
X-1.82568Y-22.17103
X-1.82568Y-19.63103
X-1.82568Y-17.09103
X-1.82568Y-14.55103
X-1.82568Y-12.01103
X-1.82568Y-9.47103
X-1.82568Y-6.93103
X-1.82568Y-4.39103
X-1.82568Y-1.85103
X-1.82568Y0.68897
X-1.82568Y3.22897
X-1.82568Y5.76897
X-1.82568Y8.30897
X-1.82568Y10.84897
X-1.82568Y13.38897
X-1.82568Y15.92897
X-1.82568Y18.46897
X-1.82568Y21.00897
X-1.82568Y23.54897
X-1.82568Y26.08897
X-1.82568Y28.62897
X-1.82568Y31.16897
X-1.82568Y33.70897
X-1.82568Y38.78897
X-1.82568Y43.86897
X-1.82568Y46.40897
X-1.82568Y48.94897
X-1.82568Y51.48897
X-1.82568Y54.02897
X-1.82568Y56.56897
X-1.82568Y59.10897
X-1.82568Y66.72897
X0.71432Y54.02897
X0.71432Y56.56897
X0.71432Y59.10897
X0.71432Y61.64897
X0.71432Y64.18897
X0.71432Y48.94897
X-0.635Y43.8404
X0.71432Y-29.79103
X0.71432Y-27.25103
X0.71432Y-24.71103
X0.71432Y-22.17103
X0.71432Y-19.63103
X0.71432Y-17.09103
X0.71432Y-14.55103
X0.71432Y-12.01103
X0.71432Y-9.47103
X0.71432Y-6.93103
X0.71432Y-4.39103
X0.71432Y-1.85103
X0.71432Y0.68897
X0.71432Y3.22897
X0.71432Y5.76897
X0.71432Y8.30897
X0.71432Y10.84897
X0.71432Y13.38897
X0.71432Y15.92897
X0.71432Y18.46897
X0.71432Y21.00897
X0.71432Y23.54897
X0.71432Y26.08897
X0.71432Y28.62897
X-48.05426Y45.55303
X-92.53944Y6.922
X-44.069Y41.5036
X-35.179Y37.8968
X-39.7764Y57.0484
X-43.1546Y58.7248
X-44.7802Y59.182
X-36.9316Y56.7436
X-30.9118Y54.5084
X-63.6Y10.275
X-64.975Y-8.1
X-51.525Y26.4
X-59.175Y-8.425
X-61.725Y-15.65
X-60.375Y-18.5
X-67.625Y-16.4
X-48.98037Y-0.6096
X-49.00577Y0.127
X-48.19297Y-0.6096
X-48.21837Y0.127
X-76.93617Y1.23266
X-88.475Y-28.275
X-94.52961Y-20.525
X-63.5254Y-18.034
M30