G04 Layer: BottomSolderMaskLayer*
G04 EasyEDA Pro v3.2.87, 2026-07-14 13:35:36*
G04 Gerber Generator version 0.3*
G04 Scale: 100 percent, Rotated: No, Reflected: No*
G04 Dimensions in millimeters*
G04 Leading zeros omitted, absolute positions, 4 integers and 5 decimals*
G04 Generated by one-click*
%FSLAX45Y45*%
%MOMM*%
%AMRoundRect*1,1,$1,$2,$3*1,1,$1,$4,$5*1,1,$1,0-$2,0-$3*1,1,$1,0-$4,0-$5*20,1,$1,$2,$3,$4,$5,0*20,1,$1,$4,$5,0-$2,0-$3,0*20,1,$1,0-$2,0-$3,0-$4,0-$5,0*20,1,$1,0-$4,0-$5,$2,$3,0*4,1,4,$2,$3,$4,$5,0-$2,0-$3,0-$4,0-$5,$2,$3,0*%
%ADD10C,5.20319*%
%ADD11RoundRect,0.1016X-1.35X-0.8175X-1.35X0.8175*%
%ADD12O,1.30002X2.30002*%
%ADD13C,3.90002*%
%ADD14RoundRect,0.1016X-0.64126X1.728X0.64126X1.728*%
%ADD15C,1.8044*%
%ADD16C,1.8032*%
%ADD17RoundRect,0.1016X-0.8175X1.35X0.8175X1.35*%
%ADD18C,2.0032*%
G75*


G04 Rect Start*
G36*
G01X-3134360Y2473960D02*
G01X-3134360Y3032760D01*
G01X-2550160Y3032760D01*
G01X-2550160Y2473960D01*
G01X-3134360Y2473960D01*
G37*
G36*
G01X-2751840Y3299737D02*
G01X-2751840Y3858537D01*
G01X-2167640Y3858537D01*
G01X-2167640Y3299737D01*
G01X-2751840Y3299737D01*
G37*
G36*
G01X-4193540Y4506889D02*
G01X-4193540Y5065689D01*
G01X-3609340Y5065689D01*
G01X-3609340Y4506889D01*
G01X-4193540Y4506889D01*
G37*
G36*
G01X-8547500Y1905000D02*
G01X-8547500Y2645000D01*
G01X-8272500Y2645000D01*
G01X-8272500Y1905000D01*
G01X-8547500Y1905000D01*
G37*
G36*
G01X-4260000Y-752500D02*
G01X-4760000Y-752500D01*
G01X-4760000Y-477500D01*
G01X-4260000Y-477500D01*
G01X-4260000Y-752500D01*
G37*
G36*
G01X-4260000Y-1252500D02*
G01X-4745000Y-1252500D01*
G01X-4745000Y-977500D01*
G01X-4260000Y-977500D01*
G01X-4260000Y-1252500D01*
G37*
G36*
G01X-4260000Y-2252500D02*
G01X-5000000Y-2252500D01*
G01X-5000000Y-1977500D01*
G01X-4260000Y-1977500D01*
G01X-4260000Y-2252500D01*
G37*
G36*
G01X-4260000Y-3252500D02*
G01X-5000000Y-3252500D01*
G01X-5000000Y-2977500D01*
G01X-4260000Y-2977500D01*
G01X-4260000Y-3252500D01*
G37*
G36*
G01X-4400000Y102500D02*
G01X-4542500Y102500D01*
G01X-4542500Y470000D01*
G01X-4400000Y470000D01*
G01X-4400000Y102500D01*
G37*
G36*
G01X-5023250Y2388444D02*
G01X-5023250Y2245944D01*
G01X-5390750Y2245944D01*
G01X-5390750Y2388444D01*
G01X-5023250Y2388444D01*
G37*
G36*
G01X-5023250Y3001699D02*
G01X-5023250Y2859199D01*
G01X-5390750Y2859199D01*
G01X-5390750Y3001699D01*
G01X-5023250Y3001699D01*
G37*
G36*
G01X-3782641Y113430D02*
G01X-3925141Y113430D01*
G01X-3925141Y480930D01*
G01X-3782641Y480930D01*
G01X-3782641Y113430D01*
G37*
G36*
G01X-8020000Y1900000D02*
G01X-8020000Y2640000D01*
G01X-7745000Y2640000D01*
G01X-7745000Y1900000D01*
G01X-8020000Y1900000D01*
G37*
G36*
G01X-4260000Y-2749867D02*
G01X-5000000Y-2749867D01*
G01X-5000000Y-2474867D01*
G01X-4260000Y-2474867D01*
G01X-4260000Y-2749867D01*
G37*
G36*
G01X-6020000Y1900000D02*
G01X-6020000Y2640000D01*
G01X-5745000Y2640000D01*
G01X-5745000Y1900000D01*
G01X-6020000Y1900000D01*
G37*
G04 Rect End*

G04 Pad Start*
G54D10*
G01X-9285773Y6236163D03*
G01X-9285773Y-2763837D03*
G01X-285773Y6236163D03*
G01X-285773Y-2763837D03*
G54D11*
G01X-6072381Y1780850D03*
G01X-6072381Y1477371D03*
G01X-6403343Y1780850D03*
G01X-6403343Y1477371D03*
G01X-7191505Y1780850D03*
G01X-7191505Y1477371D03*
G01X-7522467Y1780850D03*
G01X-7522467Y1477371D03*
G01X-7855969Y1780850D03*
G01X-7855969Y1477371D03*
G01X-8186931Y1780850D03*
G01X-8186931Y1477371D03*
G01X-8517245Y1782752D03*
G01X-8517245Y1479273D03*
G54D12*
G01X-3589172Y-2234649D03*
G01X-4939182Y-2234649D03*
G54D13*
G01X-3904183Y-1634650D03*
G01X-4624172Y-1634650D03*
G54D12*
G01X-8703838Y5710162D03*
G01X-7353828Y5710162D03*
G54D13*
G01X-8388827Y5110164D03*
G01X-7668839Y5110164D03*
G54D14*
G01X-4617009Y-185420D03*
G01X-4003751Y-185420D03*
G54D16*
G01X-2406214Y5327480D03*
G01X-3226227Y5327480D03*
G01X-4489259Y-899160D03*
G01X-3989260Y-899160D03*
G01X-5226253Y-2857500D03*
G01X-6046267Y-2857500D03*
G54D17*
G01X-4388894Y-1168655D03*
G01X-4085415Y-1168655D03*
G01X-4388460Y-614680D03*
G01X-4084980Y-614680D03*
G54D16*
G01X-6697980Y1781620D03*
G01X-6697980Y1281621D03*
G01X-5669280Y1784160D03*
G01X-5669280Y1284161D03*
G54D18*
G01X-5810601Y-2857166D03*
G01X-5460614Y-2857166D03*
G04 Pad End*

M02*

