G04 Layer: BottomSilkscreenLayer*
G04 EasyEDA Pro v3.2.87, 2026-07-14 13:35:36*
G04 Gerber Generator version 0.3*
G04 Scale: 100 percent, Rotated: No, Reflected: No*
G04 Dimensions in millimeters*
G04 Leading zeros omitted, absolute positions, 4 integers and 5 decimals*
G04 Generated by one-click*
%FSLAX45Y45*%
%MOMM*%
%ADD10C,0.1524*%
%ADD11C,0.254*%
%ADD12C,0.6534*%
G75*


G04 PolygonModel Start*
G54D10*
G01X-6215002Y1885470D02*
G01X-5929760Y1885470D01*
G01X-5914520Y1870230D02*
G01X-5914520Y1706730D01*
G01X-6230242Y1706730D02*
G01X-6230242Y1870230D01*
G01X-5914520Y1387991D02*
G01X-5914520Y1551491D01*
G01X-6230242Y1551491D02*
G01X-6230242Y1387991D01*
G01X-6215002Y1372751D02*
G01X-5929760Y1372751D01*
G01X-6230242Y1870230D02*
G02X-6215002Y1885470I15240J0D01*
G01X-5929760Y1885470D02*
G02X-5914520Y1870230I0J-15240D01*
G01X-6230242Y1387991D02*
G03X-6215002Y1372751I15240J0D01*
G01X-5929760Y1372751D02*
G03X-5914520Y1387991I0J15240D01*
G01X-6545964Y1885470D02*
G01X-6260722Y1885470D01*
G01X-6245482Y1870230D02*
G01X-6245482Y1706730D01*
G01X-6561204Y1706730D02*
G01X-6561204Y1870230D01*
G01X-6245482Y1387991D02*
G01X-6245482Y1551491D01*
G01X-6561204Y1551491D02*
G01X-6561204Y1387991D01*
G01X-6545964Y1372751D02*
G01X-6260722Y1372751D01*
G01X-6561204Y1870230D02*
G02X-6545964Y1885470I15240J0D01*
G01X-6260722Y1885470D02*
G02X-6245482Y1870230I0J-15240D01*
G01X-6561204Y1387991D02*
G03X-6545964Y1372751I15240J0D01*
G01X-6260722Y1372751D02*
G03X-6245482Y1387991I0J15240D01*
G01X-7334126Y1885470D02*
G01X-7048884Y1885470D01*
G01X-7033644Y1870230D02*
G01X-7033644Y1706730D01*
G01X-7349366Y1706730D02*
G01X-7349366Y1870230D01*
G01X-7033644Y1387991D02*
G01X-7033644Y1551491D01*
G01X-7349366Y1551491D02*
G01X-7349366Y1387991D01*
G01X-7334126Y1372751D02*
G01X-7048884Y1372751D01*
G01X-7349366Y1870230D02*
G02X-7334126Y1885470I15240J0D01*
G01X-7048884Y1885470D02*
G02X-7033644Y1870230I0J-15240D01*
G01X-7349366Y1387991D02*
G03X-7334126Y1372751I15240J0D01*
G01X-7048884Y1372751D02*
G03X-7033644Y1387991I0J15240D01*
G01X-7665088Y1885470D02*
G01X-7379846Y1885470D01*
G01X-7364606Y1870230D02*
G01X-7364606Y1706730D01*
G01X-7680328Y1706730D02*
G01X-7680328Y1870230D01*
G01X-7364606Y1387991D02*
G01X-7364606Y1551491D01*
G01X-7680328Y1551491D02*
G01X-7680328Y1387991D01*
G01X-7665088Y1372751D02*
G01X-7379846Y1372751D01*
G01X-7680328Y1870230D02*
G02X-7665088Y1885470I15240J0D01*
G01X-7379846Y1885470D02*
G02X-7364606Y1870230I0J-15240D01*
G01X-7680328Y1387991D02*
G03X-7665088Y1372751I15240J0D01*
G01X-7379846Y1372751D02*
G03X-7364606Y1387991I0J15240D01*
G01X-7998590Y1885470D02*
G01X-7713348Y1885470D01*
G01X-7698108Y1870230D02*
G01X-7698108Y1706730D01*
G01X-8013830Y1706730D02*
G01X-8013830Y1870230D01*
G01X-7698108Y1387991D02*
G01X-7698108Y1551491D01*
G01X-8013830Y1551491D02*
G01X-8013830Y1387991D01*
G01X-7998590Y1372751D02*
G01X-7713348Y1372751D01*
G01X-8013830Y1870230D02*
G02X-7998590Y1885470I15240J0D01*
G01X-7713348Y1885470D02*
G02X-7698108Y1870230I0J-15240D01*
G01X-8013830Y1387991D02*
G03X-7998590Y1372751I15240J0D01*
G01X-7713348Y1372751D02*
G03X-7698108Y1387991I0J15240D01*
G01X-8329552Y1885470D02*
G01X-8044310Y1885470D01*
G01X-8029070Y1870230D02*
G01X-8029070Y1706730D01*
G01X-8344792Y1706730D02*
G01X-8344792Y1870230D01*
G01X-8029070Y1387991D02*
G01X-8029070Y1551491D01*
G01X-8344792Y1551491D02*
G01X-8344792Y1387991D01*
G01X-8329552Y1372751D02*
G01X-8044310Y1372751D01*
G01X-8344792Y1870230D02*
G02X-8329552Y1885470I15240J0D01*
G01X-8044310Y1885470D02*
G02X-8029070Y1870230I0J-15240D01*
G01X-8344792Y1387991D02*
G03X-8329552Y1372751I15240J0D01*
G01X-8044310Y1372751D02*
G03X-8029070Y1387991I0J15240D01*
G01X-8659866Y1887372D02*
G01X-8374624Y1887372D01*
G01X-8359384Y1872132D02*
G01X-8359384Y1708633D01*
G01X-8675106Y1708633D02*
G01X-8675106Y1872132D01*
G01X-8359384Y1389893D02*
G01X-8359384Y1553393D01*
G01X-8675106Y1553393D02*
G01X-8675106Y1389893D01*
G01X-8659866Y1374653D02*
G01X-8374624Y1374653D01*
G01X-8675106Y1872132D02*
G02X-8659866Y1887372I15240J0D01*
G01X-8374624Y1887372D02*
G02X-8359384Y1872132I0J-15240D01*
G01X-8675106Y1389893D02*
G03X-8659866Y1374653I15240J0D01*
G01X-8374624Y1374653D02*
G03X-8359384Y1389893I0J15240D01*
G01X-4560499Y-381079D02*
G01X-4703994Y-381079D01*
G01X-4703994Y-381079D02*
G01X-4703994Y10239D01*
G01X-4703994Y10239D02*
G01X-4560499Y10239D01*
G01X-4060261Y-381079D02*
G01X-3916766Y-381079D01*
G01X-3916766Y-381079D02*
G01X-3916766Y10239D01*
G01X-3916766Y10239D02*
G01X-4060261Y10239D01*
G54D11*
G01X-5856260Y-2967500D02*
G01X-5416260Y-2967500D01*
G01X-5856260Y-2747500D02*
G01X-5416260Y-2747500D01*
G01X-5856260Y-2967500D02*
G01X-5856260Y-2747500D01*
G01X-5416260Y-2967500D02*
G01X-5416260Y-2747500D01*
G01X-5762320Y-2967500D02*
G01X-5762320Y-2747500D01*
G54D10*
G01X-4493514Y-1311276D02*
G01X-4493514Y-1026034D01*
G01X-4478274Y-1010794D02*
G01X-4314774Y-1010794D01*
G01X-4314774Y-1326516D02*
G01X-4478274Y-1326516D01*
G01X-3996035Y-1010794D02*
G01X-4159534Y-1010794D01*
G01X-4159534Y-1326516D02*
G01X-3996035Y-1326516D01*
G01X-3980795Y-1311276D02*
G01X-3980795Y-1026034D01*
G01X-4478274Y-1326516D02*
G02X-4493514Y-1311276I0J15240D01*
G01X-4493514Y-1026034D02*
G02X-4478274Y-1010794I15240J0D01*
G01X-3996035Y-1326516D02*
G03X-3980795Y-1311276I0J15240D01*
G01X-3980795Y-1026034D02*
G03X-3996035Y-1010794I-15240J0D01*
G01X-4493080Y-757301D02*
G01X-4493080Y-472059D01*
G01X-4477840Y-456819D02*
G01X-4314340Y-456819D01*
G01X-4314340Y-772541D02*
G01X-4477840Y-772541D01*
G01X-3995600Y-456819D02*
G01X-4159100Y-456819D01*
G01X-4159100Y-772541D02*
G01X-3995600Y-772541D01*
G01X-3980360Y-757301D02*
G01X-3980360Y-472059D01*
G01X-4477840Y-772541D02*
G02X-4493080Y-757301I0J15240D01*
G01X-4493080Y-472059D02*
G02X-4477840Y-456819I15240J0D01*
G01X-3995600Y-772541D02*
G03X-3980360Y-757301I0J15240D01*
G01X-3980360Y-472059D02*
G03X-3995600Y-456819I-15240J0D01*

M02*

