G04 Layer: DrillDrawingLayer*
G04 EasyEDA Pro v3.2.87, 2026-07-14 13:35:36*
G04 Gerber Generator version 0.3*
G04 Scale: 100 percent, Rotated: No, Reflected: No*
G04 Dimensions in millimeters*
G04 Leading zeros omitted, absolute positions, 4 integers and 5 decimals*
G04 Generated by one-click*
%FSLAX45Y45*%
%MOMM*%
%AMIconRect*4,1,4,0.28,-0.28,-0.28,-0.28,-0.28,0.28,0.28,0.28,0.28,-0.28,0*4,0,4,0.233333,-0.233333,0.233333,0.233333,-0.233333,0.233333,-0.233333,-0.233333,0.233333,-0.233333,0*%
%AMIconTriangle*4,1,3,-0.339593,0.240473,0.339593,0.240473,0,-0.37884,-0.339593,0.240473,0*4,0,3,-0.265673,0.19404,0,-0.27342,0.266233,0.19404,-0.265673,0.19404,0*%
%AMIconStar6*4,1,12,0.12068,0.20888,0.298527,0.172713,0.241313,0,0.298527,-0.17206,0.12068,-0.208227,0,-0.344073,-0.120073,-0.208227,-0.298573,-0.17206,-0.240707,0,-0.298573,0.17206,-0.120073,0.20888,0,0.344073,0.12068,0.20888,0*4,0,12,-0.000467,0.273467,-0.090067,0.171733,-0.237533,0.136733,-0.193667,-0.007467,-0.237533,-0.1372,-0.090067,-0.171733,-0.000467,-0.273933,0.090067,-0.171733,0.237533,-0.1372,0.194133,0.007,0.237533,0.1372,0.090067,0.171267,-0.000467,0.273467,0*%
%AMIconStar4*4,1,8,-0.311733,0.311733,0,0.202533,0.311733,0.311733,0.202533,0,0.311733,-0.311733,0,-0.202533,-0.304407,-0.311733,-0.202533,0,-0.311733,0.311733,0*4,0,8,0.233333,-0.233333,0.1512,0,0.233333,0.233333,0,0.1512,-0.233333,0.233333,-0.1512,0,-0.233333,-0.233333,0,-0.1512,0.233333,-0.233333,0*%
%AMIconPlus*4,1,12,0.1736,-0.28,-0.1736,-0.28,-0.1736,-0.1736,-0.28,-0.1736,-0.28,0.1736,-0.1736,0.1736,-0.1736,0.28,0.1736,0.28,0.1736,0.1736,0.28,0.1736,0.28,-0.1736,0.1736,-0.1736,0.1736,-0.28,0*4,0,12,0.126933,-0.233333,0.126933,-0.126933,0.233333,-0.126933,0.233333,0.126933,0.126933,0.126933,0.126933,0.233333,-0.126933,0.233333,-0.126933,0.126933,-0.233333,0.126933,-0.233333,-0.126933,-0.126933,-0.126933,-0.126933,-0.233333,0.126933,-0.233333,0*%
%AMIconX*4,1,16,0.28,-0.28,0.076347,-0.28,0,-0.203653,-0.076347,-0.28,-0.28,-0.28,-0.28,-0.076347,-0.203653,0,-0.28,0.076347,-0.28,0.28,-0.076347,0.28,0,0.203653,0.076347,0.28,0.28,0.28,0.28,0.076347,0.203653,0,0.28,-0.076347,0.28,-0.28,0*4,0,16,0.23352,-0.23296,0.23352,-0.095853,0.137107,0.000093,0.23352,0.095853,0.23352,0.2331,0.095853,0.2331,0,0.137107,-0.095853,0.2331,-0.23352,0.2331,-0.23352,0.095853,-0.137107,0.000093,-0.23352,-0.095853,-0.23352,-0.23296,-0.095853,-0.23296,0,-0.137107,0.095853,-0.23296,0.23352,-0.23296,0*%
%ADD10IconRect*%
%ADD11C,0.616X0.522667*%
%ADD12IconTriangle*%
%ADD13IconStar6*%
%ADD14IconStar4*%
%ADD15IconPlus*%
%ADD16IconX*%
%ADD17C,0.2032*%
%ADD18C,0.254*%
G75*


G04 Drill Drawing Start*
G54D10*
G01X-5810613Y-2857166D03*
G01X-5460614Y-2857166D03*
G54D11*
G01X-9285773Y-2763837D03*
G01X-9285773Y6236163D03*
G01X-285773Y-2763837D03*
G01X-285773Y6236163D03*
G54D12*
G01X-8703838Y5710162D03*
G01X-7353828Y5710162D03*
G01X-4939182Y-2234649D03*
G01X-3589172Y-2234649D03*
G54D13*
G01X-8388835Y5110176D03*
G01X-7668852Y5110176D03*
G01X-4624159Y-1634663D03*
G01X-3904176Y-1634663D03*
G54D14*
G01X-6046259Y-2857500D03*
G01X-5226261Y-2857500D03*
G01X-3226220Y5327480D03*
G01X-2406221Y5327480D03*
G54D15*
G01X-6697980Y1281633D03*
G01X-6697980Y1781632D03*
G01X-5669280Y1284173D03*
G01X-5669280Y1784172D03*
G01X-4489272Y-899160D03*
G01X-3989273Y-899160D03*
G54D16*
G01X-9693906Y5132074D03*
G01X-9693906Y5412740D03*
G01X-9693906Y5684520D03*
G01X-9693266Y4838903D03*
G01X-9628039Y3141592D03*
G01X-9628039Y3268592D03*
G01X-9628039Y3395592D03*
G01X-9628039Y3522592D03*
G01X-9628039Y3649592D03*
G01X-9628039Y3776592D03*
G01X-9628039Y4030592D03*
G01X-9628039Y4157592D03*
G01X-9628039Y4284592D03*
G01X-9628039Y4411592D03*
G01X-9628039Y4538592D03*
G01X-9628039Y4665592D03*
G01X-9628039Y5935592D03*
G01X-9628039Y6062592D03*
G01X-9628039Y6189592D03*
G01X-9628039Y6316592D03*
G01X-9628039Y6443592D03*
G01X-9628039Y6570592D03*
G01X-9617913Y2644051D03*
G01X-9617913Y2771051D03*
G01X-9617913Y2898051D03*
G01X-9525447Y279483D03*
G01X-9501039Y-1455103D03*
G01X-9501039Y-1201103D03*
G01X-9501039Y-693103D03*
G01X-9501039Y-439103D03*
G01X-9501039Y-185103D03*
G01X-9501039Y1084897D03*
G01X-9501039Y1338897D03*
G01X-9501039Y2100897D03*
G01X-9501039Y2354897D03*
G01X-9501039Y3014592D03*
G01X-9501039Y3141592D03*
G01X-9501039Y3268592D03*
G01X-9501039Y3395592D03*
G01X-9501039Y3522592D03*
G01X-9501039Y3649592D03*
G01X-9501039Y3776592D03*
G01X-9501039Y4030592D03*
G01X-9501039Y4157592D03*
G01X-9501039Y4284592D03*
G01X-9501039Y4411592D03*
G01X-9501039Y4538592D03*
G01X-9501039Y4665592D03*
G01X-9501039Y4792592D03*
G01X-9501039Y4919592D03*
G01X-9501039Y5046592D03*
G01X-9501039Y5300592D03*
G01X-9501039Y5554592D03*
G01X-9501039Y5808592D03*
G01X-9501039Y5935592D03*
G01X-9501039Y6570592D03*
G01X-9490913Y2644051D03*
G01X-9490913Y2771051D03*
G01X-9490913Y2898051D03*
G01X-9452961Y-2052500D03*
G01X-9398722Y868680D03*
G01X-9374039Y3014592D03*
G01X-9374039Y3141592D03*
G01X-9374039Y3268592D03*
G01X-9374039Y3395592D03*
G01X-9374039Y3522592D03*
G01X-9374039Y3649592D03*
G01X-9374039Y3776592D03*
G01X-9374039Y4030592D03*
G01X-9374039Y4157592D03*
G01X-9374039Y4284592D03*
G01X-9374039Y4411592D03*
G01X-9374039Y4538592D03*
G01X-9374039Y4665592D03*
G01X-9374039Y4792592D03*
G01X-9374039Y4919592D03*
G01X-9374039Y5046592D03*
G01X-9374039Y5300592D03*
G01X-9374039Y5554592D03*
G01X-9374039Y5808592D03*
G01X-9374039Y5935592D03*
G01X-9374039Y6570592D03*
G01X-9363913Y2644051D03*
G01X-9363913Y2771051D03*
G01X-9363913Y2898051D03*
G01X-9253944Y692200D03*
G01X-9247039Y68897D03*
G01X-9247039Y1084897D03*
G01X-9247039Y1338897D03*
G01X-9247039Y3395592D03*
G01X-9247039Y3522592D03*
G01X-9247039Y3649592D03*
G01X-9247039Y3776592D03*
G01X-9247039Y3903592D03*
G01X-9247039Y4030592D03*
G01X-9247039Y4157592D03*
G01X-9247039Y4284592D03*
G01X-9247039Y4411592D03*
G01X-9247039Y4538592D03*
G01X-9247039Y4665592D03*
G01X-9247039Y4792592D03*
G01X-9247039Y4919592D03*
G01X-9247039Y5046592D03*
G01X-9247039Y5300592D03*
G01X-9247039Y5554592D03*
G01X-9247039Y5808592D03*
G01X-9247039Y6570592D03*
G01X-9191177Y-1407220D03*
G01X-9157056Y227125D03*
G01X-9157056Y463734D03*
G01X-9120039Y5300592D03*
G01X-9120039Y5554592D03*
G01X-9120039Y5808592D03*
G01X-9120039Y5935592D03*
G01X-9120039Y6570592D03*
G01X-8993039Y-2979103D03*
G01X-8993039Y-2217103D03*
G01X-8993039Y-1455103D03*
G01X-8993039Y-947103D03*
G01X-8993039Y-693103D03*
G01X-8993039Y-185103D03*
G01X-8993039Y5808592D03*
G01X-8993039Y5935592D03*
G01X-8993039Y6062592D03*
G01X-8993039Y6443592D03*
G01X-8993039Y6570592D03*
G01X-8966200Y-2072612D03*
G01X-8923953Y-2024572D03*
G01X-8906830Y-1708757D03*
G01X-8904508Y-1630198D03*
G01X-8878141Y2319020D03*
G01X-8878141Y2446020D03*
G01X-8878141Y2573020D03*
G01X-8878141Y2700020D03*
G01X-8866039Y4157592D03*
G01X-8866039Y4284592D03*
G01X-8866039Y4411592D03*
G01X-8866039Y4538592D03*
G01X-8866039Y4665592D03*
G01X-8866039Y4792592D03*
G01X-8866039Y4919592D03*
G01X-8866039Y5046592D03*
G01X-8866039Y5173592D03*
G01X-8866039Y5300592D03*
G01X-8866039Y5427592D03*
G01X-8866039Y5554592D03*
G01X-8866039Y5681592D03*
G01X-8866039Y5808592D03*
G01X-8866039Y5935592D03*
G01X-8866039Y6062592D03*
G01X-8866039Y6189592D03*
G01X-8866039Y6316592D03*
G01X-8866039Y6443592D03*
G01X-8866039Y6570592D03*
G01X-8847500Y-2827500D03*
G01X-8796020Y-1711960D03*
G01X-8796020Y-1552612D03*
G01X-8796020Y-1425612D03*
G01X-8796020Y-1298612D03*
G01X-8796020Y-1143000D03*
G01X-8751141Y2319020D03*
G01X-8751141Y2446020D03*
G01X-8751141Y2573020D03*
G01X-8751141Y2700020D03*
G01X-8749756Y3041357D03*
G01X-8749756Y3168357D03*
G01X-8749756Y3295357D03*
G01X-8749756Y3422357D03*
G01X-8741500Y-1019720D03*
G01X-8739039Y-2471103D03*
G01X-8739039Y-1709103D03*
G01X-8739039Y-947103D03*
G01X-8739039Y-693103D03*
G01X-8739039Y-185103D03*
G01X-8739039Y1041717D03*
G01X-8739039Y1338897D03*
G01X-8739039Y3649592D03*
G01X-8739039Y4157592D03*
G01X-8739039Y4284592D03*
G01X-8739039Y4411592D03*
G01X-8739039Y4538592D03*
G01X-8739039Y4665592D03*
G01X-8739039Y4792592D03*
G01X-8739039Y4919592D03*
G01X-8739039Y5046592D03*
G01X-8739039Y5173592D03*
G01X-8739039Y5300592D03*
G01X-8739039Y5427592D03*
G01X-8739039Y5935592D03*
G01X-8739039Y6062592D03*
G01X-8739039Y6189592D03*
G01X-8739039Y6316592D03*
G01X-8739039Y6443592D03*
G01X-8739039Y6570592D03*
G01X-8725683Y-335039D03*
G01X-8686800Y1686560D03*
G01X-8653102Y-1765300D03*
G01X-8624141Y2319020D03*
G01X-8624141Y2446020D03*
G01X-8624141Y2573020D03*
G01X-8624141Y2700020D03*
G01X-8623300Y-335280D03*
G01X-8622756Y3041357D03*
G01X-8622756Y3168357D03*
G01X-8622756Y3295357D03*
G01X-8622756Y3422357D03*
G01X-8612039Y3649592D03*
G01X-8612039Y3776592D03*
G01X-8612039Y4538592D03*
G01X-8612039Y4665592D03*
G01X-8612039Y4792592D03*
G01X-8612039Y4919592D03*
G01X-8612039Y5046592D03*
G01X-8612039Y5173592D03*
G01X-8612039Y5300592D03*
G01X-8612039Y5427592D03*
G01X-8612039Y5554592D03*
G01X-8612039Y5935592D03*
G01X-8612039Y6062592D03*
G01X-8612039Y6189592D03*
G01X-8612039Y6316592D03*
G01X-8612039Y6443592D03*
G01X-8612039Y6570592D03*
G01X-8554713Y72743D03*
G01X-8554713Y131008D03*
G01X-8525600Y-1017180D03*
G01X-8497141Y2700020D03*
G01X-8497141Y2827020D03*
G01X-8495756Y3422357D03*
G01X-8485039Y-2979103D03*
G01X-8485039Y-947103D03*
G01X-8485039Y-693103D03*
G01X-8485039Y-439103D03*
G01X-8485039Y1041717D03*
G01X-8485039Y1338897D03*
G01X-8485039Y3649592D03*
G01X-8485039Y3776592D03*
G01X-8485039Y4538592D03*
G01X-8485039Y4665592D03*
G01X-8485039Y4792592D03*
G01X-8485039Y5427592D03*
G01X-8485039Y5554592D03*
G01X-8485039Y5681592D03*
G01X-8485039Y5808592D03*
G01X-8485039Y5935592D03*
G01X-8485039Y6062592D03*
G01X-8485039Y6189592D03*
G01X-8485039Y6316592D03*
G01X-8485039Y6443592D03*
G01X-8485039Y6570592D03*
G01X-8440420Y497840D03*
G01X-8432800Y-1765300D03*
G01X-8432800Y863600D03*
G01X-8404860Y-1610360D03*
G01X-8404860Y-1496060D03*
G01X-8404860Y-1341120D03*
G01X-8404860Y-1214120D03*
G01X-8404860Y-1214120D03*
G01X-8404860Y-1056640D03*
G01X-8370141Y2700020D03*
G01X-8370141Y2827020D03*
G01X-8368756Y3041357D03*
G01X-8358039Y3649592D03*
G01X-8358039Y3776592D03*
G01X-8358039Y3903592D03*
G01X-8358039Y4538592D03*
G01X-8358039Y4665592D03*
G01X-8358039Y4792592D03*
G01X-8358039Y5427592D03*
G01X-8358039Y5554592D03*
G01X-8358039Y5681592D03*
G01X-8358039Y5808592D03*
G01X-8358039Y5935592D03*
G01X-8358039Y6062592D03*
G01X-8358039Y6189592D03*
G01X-8358039Y6316592D03*
G01X-8358039Y6443592D03*
G01X-8358039Y6570592D03*
G01X-8297722Y1944695D03*
G01X-8297722Y2071695D03*
G01X-8297722Y2198695D03*
G01X-8297722Y2325695D03*
G01X-8297722Y2452695D03*
G01X-8271933Y-673017D03*
G01X-8271933Y-596817D03*
G01X-8266962Y843633D03*
G01X-8265160Y911860D03*
G01X-8243141Y2700020D03*
G01X-8243141Y2827020D03*
G01X-8241756Y3041357D03*
G01X-8237220Y-1036320D03*
G01X-8231039Y-2979103D03*
G01X-8231039Y-2471103D03*
G01X-8231039Y1041717D03*
G01X-8231039Y1338897D03*
G01X-8231039Y3903592D03*
G01X-8231039Y4157592D03*
G01X-8231039Y4284592D03*
G01X-8231039Y4411592D03*
G01X-8231039Y4538592D03*
G01X-8231039Y4919592D03*
G01X-8231039Y5300592D03*
G01X-8231039Y5427592D03*
G01X-8231039Y5554592D03*
G01X-8231039Y5681592D03*
G01X-8231039Y5808592D03*
G01X-8231039Y5935592D03*
G01X-8231039Y6062592D03*
G01X-8231039Y6189592D03*
G01X-8231039Y6316592D03*
G01X-8231039Y6443592D03*
G01X-8231039Y6570592D03*
G01X-8196072Y4021328D03*
G01X-8170722Y1944695D03*
G01X-8170722Y2071695D03*
G01X-8170722Y2198695D03*
G01X-8170722Y2325695D03*
G01X-8170722Y2452695D03*
G01X-8161113Y-2380073D03*
G01X-8138160Y4079240D03*
G01X-8116141Y2700020D03*
G01X-8116141Y2827020D03*
G01X-8114756Y3041357D03*
G01X-8114756Y3168357D03*
G01X-8114756Y3295357D03*
G01X-8114756Y3422357D03*
G01X-8064500Y-2042015D03*
G01X-8043722Y1944695D03*
G01X-8043722Y2071695D03*
G01X-8043722Y2198695D03*
G01X-8043722Y2325695D03*
G01X-8043722Y2452695D03*
G01X-7989141Y2700020D03*
G01X-7989141Y2827020D03*
G01X-7987756Y3041357D03*
G01X-7987756Y3168357D03*
G01X-7987756Y3295357D03*
G01X-7987756Y3422357D03*
G01X-7987756Y3549357D03*
G01X-7987756Y3930357D03*
G01X-7987756Y4311357D03*
G01X-7987756Y4438357D03*
G01X-7987756Y4565357D03*
G01X-7987756Y4946357D03*
G01X-7987756Y5073357D03*
G01X-7987756Y5200357D03*
G01X-7987756Y5327357D03*
G01X-7987756Y5454357D03*
G01X-7987756Y5581357D03*
G01X-7987756Y5708357D03*
G01X-7987756Y5835357D03*
G01X-7987756Y5962357D03*
G01X-7987756Y6089357D03*
G01X-7987756Y6216357D03*
G01X-7987756Y6343357D03*
G01X-7987756Y6470357D03*
G01X-7987756Y6597357D03*
G01X-7977039Y-2979103D03*
G01X-7977039Y-1963103D03*
G01X-7977039Y-1709103D03*
G01X-7977039Y-1455103D03*
G01X-7977039Y1041717D03*
G01X-7977039Y1338897D03*
G01X-7974844Y-1243844D03*
G01X-7916722Y1944695D03*
G01X-7916722Y2071695D03*
G01X-7916722Y2198695D03*
G01X-7916722Y2325695D03*
G01X-7916722Y2452695D03*
G01X-7893253Y175463D03*
G01X-7893253Y256743D03*
G01X-7893253Y343103D03*
G01X-7893253Y419303D03*
G01X-7887466Y-2288457D03*
G01X-7862141Y2700020D03*
G01X-7862141Y2827020D03*
G01X-7860756Y3549357D03*
G01X-7860756Y3930357D03*
G01X-7860756Y4565357D03*
G01X-7860756Y4946357D03*
G01X-7860756Y5327357D03*
G01X-7860756Y5454357D03*
G01X-7860756Y5581357D03*
G01X-7860756Y5708357D03*
G01X-7860756Y5835357D03*
G01X-7860756Y5962357D03*
G01X-7860756Y6089357D03*
G01X-7860756Y6216357D03*
G01X-7860756Y6343357D03*
G01X-7860756Y6470357D03*
G01X-7860756Y6597357D03*
G01X-7789722Y1944695D03*
G01X-7789722Y2071695D03*
G01X-7789722Y2198695D03*
G01X-7789722Y2325695D03*
G01X-7789722Y2452695D03*
G01X-7735141Y2700020D03*
G01X-7735141Y2827020D03*
G01X-7733756Y3676357D03*
G01X-7733756Y3930357D03*
G01X-7733756Y4565357D03*
G01X-7733756Y4692357D03*
G01X-7733756Y4819357D03*
G01X-7733756Y5327357D03*
G01X-7733756Y5454357D03*
G01X-7733756Y5581357D03*
G01X-7733756Y5708357D03*
G01X-7733756Y5835357D03*
G01X-7733756Y5962357D03*
G01X-7733756Y6089357D03*
G01X-7733756Y6216357D03*
G01X-7733756Y6343357D03*
G01X-7733756Y6470357D03*
G01X-7733756Y6597357D03*
G01X-7723039Y-2979103D03*
G01X-7723039Y-2725103D03*
G01X-7723039Y-2471103D03*
G01X-7723039Y-1963103D03*
G01X-7723039Y-1709103D03*
G01X-7723039Y-1455103D03*
G01X-7723039Y-1201103D03*
G01X-7723039Y1041717D03*
G01X-7723039Y1338897D03*
G01X-7693617Y123266D03*
G01X-7673340Y-91440D03*
G01X-7642860Y-2369537D03*
G01X-7608141Y2700020D03*
G01X-7608141Y2827020D03*
G01X-7606756Y3041357D03*
G01X-7606756Y3676357D03*
G01X-7606756Y3930357D03*
G01X-7606756Y4565357D03*
G01X-7606756Y4692357D03*
G01X-7606756Y4819357D03*
G01X-7606756Y5327357D03*
G01X-7606756Y5454357D03*
G01X-7606756Y5581357D03*
G01X-7606756Y5708357D03*
G01X-7606756Y5835357D03*
G01X-7606756Y5962357D03*
G01X-7606756Y6089357D03*
G01X-7606756Y6216357D03*
G01X-7606756Y6343357D03*
G01X-7606756Y6470357D03*
G01X-7606756Y6597357D03*
G01X-7587821Y1938020D03*
G01X-7557351Y-1945640D03*
G01X-7536611Y4124960D03*
G01X-7481141Y2065020D03*
G01X-7481141Y2192020D03*
G01X-7481141Y2319020D03*
G01X-7481141Y2446020D03*
G01X-7481141Y2573020D03*
G01X-7481141Y2700020D03*
G01X-7481141Y2827020D03*
G01X-7479756Y3041357D03*
G01X-7479756Y3422357D03*
G01X-7479756Y3549357D03*
G01X-7479756Y3676357D03*
G01X-7479756Y3803357D03*
G01X-7479756Y3930357D03*
G01X-7479756Y4311357D03*
G01X-7479756Y4438357D03*
G01X-7479756Y4565357D03*
G01X-7479756Y4692357D03*
G01X-7479756Y4819357D03*
G01X-7479756Y4946357D03*
G01X-7479756Y5327357D03*
G01X-7479756Y5454357D03*
G01X-7479756Y5581357D03*
G01X-7479756Y5708357D03*
G01X-7479756Y5835357D03*
G01X-7479756Y5962357D03*
G01X-7479756Y6089357D03*
G01X-7479756Y6216357D03*
G01X-7479756Y6343357D03*
G01X-7479756Y6470357D03*
G01X-7479756Y6597357D03*
G01X-7469039Y-2471103D03*
G01X-7469039Y-1709103D03*
G01X-7469039Y-1455103D03*
G01X-7469039Y-1201103D03*
G01X-7469039Y-693103D03*
G01X-7469039Y1041717D03*
G01X-7469039Y1338897D03*
G01X-7460821Y1938020D03*
G01X-7358380Y-2550160D03*
G01X-7354141Y2065020D03*
G01X-7354141Y2192020D03*
G01X-7354141Y2319020D03*
G01X-7354141Y2446020D03*
G01X-7352756Y3295357D03*
G01X-7352756Y3422357D03*
G01X-7352756Y3549357D03*
G01X-7352756Y3676357D03*
G01X-7352756Y3803357D03*
G01X-7352756Y3930357D03*
G01X-7352756Y4311357D03*
G01X-7352756Y4438357D03*
G01X-7352756Y4565357D03*
G01X-7352756Y4692357D03*
G01X-7352756Y4819357D03*
G01X-7352756Y4946357D03*
G01X-7352756Y5073357D03*
G01X-7352756Y5200357D03*
G01X-7352756Y5327357D03*
G01X-7352756Y5454357D03*
G01X-7352756Y5962357D03*
G01X-7352756Y6089357D03*
G01X-7352756Y6216357D03*
G01X-7352756Y6343357D03*
G01X-7352756Y6470357D03*
G01X-7352756Y6597357D03*
G01X-7333821Y1938020D03*
G01X-7302500Y-698500D03*
G01X-7227141Y2065020D03*
G01X-7227141Y2192020D03*
G01X-7227141Y2319020D03*
G01X-7227141Y2446020D03*
G01X-7226300Y-700493D03*
G01X-7225756Y3041357D03*
G01X-7225756Y3168357D03*
G01X-7225756Y3295357D03*
G01X-7225756Y3676357D03*
G01X-7225756Y4311357D03*
G01X-7225756Y4438357D03*
G01X-7225756Y4565357D03*
G01X-7225756Y4692357D03*
G01X-7225756Y4819357D03*
G01X-7225756Y4946357D03*
G01X-7225756Y5073357D03*
G01X-7225756Y5200357D03*
G01X-7225756Y5327357D03*
G01X-7225756Y5454357D03*
G01X-7225756Y5581357D03*
G01X-7225756Y5708357D03*
G01X-7225756Y5835357D03*
G01X-7225756Y5962357D03*
G01X-7225756Y6089357D03*
G01X-7225756Y6216357D03*
G01X-7225756Y6343357D03*
G01X-7225756Y6470357D03*
G01X-7225756Y6597357D03*
G01X-7215039Y-2979103D03*
G01X-7215039Y-1963103D03*
G01X-7215039Y1041717D03*
G01X-7215039Y1338897D03*
G01X-7109460Y2095018D03*
G01X-7109460Y2258060D03*
G01X-7098756Y3803357D03*
G01X-7098756Y4184357D03*
G01X-7098756Y4311357D03*
G01X-7098756Y4438357D03*
G01X-7098756Y4565357D03*
G01X-7098756Y4692357D03*
G01X-7098756Y4819357D03*
G01X-7098756Y4946357D03*
G01X-7098756Y5073357D03*
G01X-7098756Y5200357D03*
G01X-7098756Y5327357D03*
G01X-7098756Y5454357D03*
G01X-7098756Y5581357D03*
G01X-7098756Y5708357D03*
G01X-7098756Y5835357D03*
G01X-7098756Y5962357D03*
G01X-7098756Y6089357D03*
G01X-7098756Y6216357D03*
G01X-7098756Y6343357D03*
G01X-7098756Y6470357D03*
G01X-7082361Y1684020D03*
G01X-7079821Y1938020D03*
G01X-7045960Y-2037080D03*
G01X-7043305Y-628440D03*
G01X-6973141Y2065020D03*
G01X-6973141Y2192020D03*
G01X-6973141Y2319020D03*
G01X-6973141Y2446020D03*
G01X-6973141Y2573020D03*
G01X-6961039Y-2979103D03*
G01X-6961039Y-2471103D03*
G01X-6961039Y-693103D03*
G01X-6961039Y1041717D03*
G01X-6961039Y1338897D03*
G01X-6952821Y1938020D03*
G01X-6883400Y-1088039D03*
G01X-6846141Y2065020D03*
G01X-6846141Y2192020D03*
G01X-6846141Y2319020D03*
G01X-6846141Y2446020D03*
G01X-6846141Y2573020D03*
G01X-6846141Y2700020D03*
G01X-6846141Y4097020D03*
G01X-6846141Y4224020D03*
G01X-6846141Y4351020D03*
G01X-6846141Y4478020D03*
G01X-6846141Y4605020D03*
G01X-6846141Y4732020D03*
G01X-6846141Y4859020D03*
G01X-6846141Y4986020D03*
G01X-6846141Y5113020D03*
G01X-6846141Y5240020D03*
G01X-6846141Y5367020D03*
G01X-6846141Y5494020D03*
G01X-6846141Y5621020D03*
G01X-6846141Y5748020D03*
G01X-6846141Y5875020D03*
G01X-6846141Y6002020D03*
G01X-6846141Y6129020D03*
G01X-6846141Y6256020D03*
G01X-6846141Y6383020D03*
G01X-6846141Y6510020D03*
G01X-6846141Y6637020D03*
G01X-6762500Y-1640000D03*
G01X-6719141Y2319020D03*
G01X-6719141Y2446020D03*
G01X-6719141Y2573020D03*
G01X-6719141Y2700020D03*
G01X-6719141Y2827020D03*
G01X-6719141Y2954020D03*
G01X-6719141Y3081020D03*
G01X-6719141Y3208020D03*
G01X-6719141Y3335020D03*
G01X-6719141Y3462020D03*
G01X-6719141Y3589020D03*
G01X-6719141Y3716020D03*
G01X-6719141Y3843020D03*
G01X-6719141Y3970020D03*
G01X-6719141Y4097020D03*
G01X-6719141Y4224020D03*
G01X-6719141Y4351020D03*
G01X-6719141Y4478020D03*
G01X-6719141Y4605020D03*
G01X-6719141Y4732020D03*
G01X-6719141Y4859020D03*
G01X-6719141Y4986020D03*
G01X-6719141Y5113020D03*
G01X-6719141Y5240020D03*
G01X-6719141Y5367020D03*
G01X-6719141Y5494020D03*
G01X-6719141Y5621020D03*
G01X-6719141Y5748020D03*
G01X-6719141Y5875020D03*
G01X-6719141Y6002020D03*
G01X-6719141Y6129020D03*
G01X-6719141Y6256020D03*
G01X-6719141Y6383020D03*
G01X-6719141Y6510020D03*
G01X-6719141Y6637020D03*
G01X-6707039Y-2979103D03*
G01X-6707039Y-2471103D03*
G01X-6592141Y2319020D03*
G01X-6592141Y2446020D03*
G01X-6592141Y2573020D03*
G01X-6592141Y2700020D03*
G01X-6592141Y2827020D03*
G01X-6592141Y2954020D03*
G01X-6592141Y3081020D03*
G01X-6592141Y3208020D03*
G01X-6592141Y3335020D03*
G01X-6592141Y3462020D03*
G01X-6592141Y3589020D03*
G01X-6592141Y3716020D03*
G01X-6592141Y3843020D03*
G01X-6592141Y3970020D03*
G01X-6592141Y4097020D03*
G01X-6592141Y4224020D03*
G01X-6592141Y4351020D03*
G01X-6592141Y4478020D03*
G01X-6592141Y4605020D03*
G01X-6592141Y4732020D03*
G01X-6592141Y4859020D03*
G01X-6592141Y4986020D03*
G01X-6592141Y5113020D03*
G01X-6592141Y5240020D03*
G01X-6592141Y5367020D03*
G01X-6592141Y5494020D03*
G01X-6592141Y5621020D03*
G01X-6592141Y5748020D03*
G01X-6592141Y5875020D03*
G01X-6592141Y6002020D03*
G01X-6592141Y6129020D03*
G01X-6592141Y6256020D03*
G01X-6592141Y6383020D03*
G01X-6592141Y6510020D03*
G01X-6592141Y6637020D03*
G01X-6497500Y-810000D03*
G01X-6480780Y-1793240D03*
G01X-6474257Y-2242617D03*
G01X-6466840Y-2557117D03*
G01X-6465141Y1938020D03*
G01X-6465141Y2065020D03*
G01X-6465141Y2192020D03*
G01X-6465141Y2319020D03*
G01X-6465141Y2446020D03*
G01X-6465141Y2573020D03*
G01X-6465141Y2700020D03*
G01X-6465141Y2827020D03*
G01X-6465141Y2954020D03*
G01X-6465141Y3081020D03*
G01X-6465141Y3208020D03*
G01X-6465141Y3335020D03*
G01X-6465141Y3462020D03*
G01X-6465141Y3589020D03*
G01X-6465141Y3716020D03*
G01X-6465141Y3843020D03*
G01X-6465141Y3970020D03*
G01X-6465141Y4097020D03*
G01X-6465141Y4224020D03*
G01X-6465141Y4351020D03*
G01X-6465141Y4478020D03*
G01X-6465141Y4605020D03*
G01X-6465141Y4732020D03*
G01X-6465141Y4859020D03*
G01X-6465141Y4986020D03*
G01X-6465141Y5113020D03*
G01X-6465141Y5240020D03*
G01X-6465141Y5367020D03*
G01X-6465141Y5494020D03*
G01X-6465141Y5621020D03*
G01X-6465141Y5748020D03*
G01X-6465141Y5875020D03*
G01X-6465141Y6002020D03*
G01X-6465141Y6129020D03*
G01X-6465141Y6256020D03*
G01X-6465141Y6383020D03*
G01X-6465141Y6510020D03*
G01X-6465141Y6637020D03*
G01X-6376873Y-2008937D03*
G01X-6360000Y1027500D03*
G01X-6352540Y-1803400D03*
G01X-6338141Y1938020D03*
G01X-6338141Y2065020D03*
G01X-6338141Y2192020D03*
G01X-6338141Y2319020D03*
G01X-6338141Y2446020D03*
G01X-6338141Y2573020D03*
G01X-6338141Y2700020D03*
G01X-6338141Y2827020D03*
G01X-6338141Y2954020D03*
G01X-6338141Y3081020D03*
G01X-6338141Y3208020D03*
G01X-6338141Y3335020D03*
G01X-6338141Y3462020D03*
G01X-6338141Y3589020D03*
G01X-6338141Y3716020D03*
G01X-6338141Y3843020D03*
G01X-6338141Y3970020D03*
G01X-6338141Y4097020D03*
G01X-6338141Y4224020D03*
G01X-6338141Y4351020D03*
G01X-6338141Y4478020D03*
G01X-6338141Y4605020D03*
G01X-6338141Y4732020D03*
G01X-6338141Y4859020D03*
G01X-6338141Y4986020D03*
G01X-6338141Y5113020D03*
G01X-6338141Y5240020D03*
G01X-6338141Y5367020D03*
G01X-6338141Y5494020D03*
G01X-6338141Y5621020D03*
G01X-6338141Y5748020D03*
G01X-6338141Y5875020D03*
G01X-6338141Y6002020D03*
G01X-6338141Y6129020D03*
G01X-6338141Y6256020D03*
G01X-6338141Y6383020D03*
G01X-6338141Y6510020D03*
G01X-6338141Y6637020D03*
G01X-6334760Y-1681480D03*
G01X-6300227Y-1334527D03*
G01X-6211141Y1938020D03*
G01X-6211141Y2065020D03*
G01X-6211141Y2192020D03*
G01X-6211141Y2319020D03*
G01X-6211141Y2446020D03*
G01X-6211141Y2573020D03*
G01X-6211141Y2700020D03*
G01X-6211141Y2827020D03*
G01X-6211141Y2954020D03*
G01X-6211141Y3081020D03*
G01X-6211141Y3208020D03*
G01X-6211141Y3335020D03*
G01X-6211141Y3462020D03*
G01X-6211141Y3589020D03*
G01X-6211141Y3716020D03*
G01X-6211141Y3843020D03*
G01X-6211141Y3970020D03*
G01X-6211141Y4097020D03*
G01X-6211141Y4224020D03*
G01X-6211141Y4351020D03*
G01X-6211141Y4478020D03*
G01X-6211141Y4605020D03*
G01X-6211141Y4732020D03*
G01X-6211141Y4859020D03*
G01X-6211141Y4986020D03*
G01X-6211141Y5113020D03*
G01X-6211141Y5240020D03*
G01X-6211141Y5367020D03*
G01X-6211141Y5494020D03*
G01X-6211141Y5621020D03*
G01X-6211141Y5748020D03*
G01X-6211141Y5875020D03*
G01X-6211141Y6002020D03*
G01X-6211141Y6129020D03*
G01X-6211141Y6256020D03*
G01X-6211141Y6383020D03*
G01X-6211141Y6510020D03*
G01X-6211141Y6637020D03*
G01X-6199039Y-2979103D03*
G01X-6172500Y-1565000D03*
G01X-6037500Y-1850000D03*
G01X-5945039Y1084897D03*
G01X-5917500Y-842500D03*
G01X-5816600Y-939800D03*
G01X-5691039Y576897D03*
G01X-5691039Y1084897D03*
G01X-5638800Y2606040D03*
G01X-5632363Y2672167D03*
G01X-5437039Y-947103D03*
G01X-5437039Y-693103D03*
G01X-5437039Y576897D03*
G01X-5437039Y830897D03*
G01X-5346700Y1612895D03*
G01X-5346700Y1689095D03*
G01X-5346700Y1765295D03*
G01X-5346700Y1841495D03*
G01X-5346700Y1917695D03*
G01X-5346700Y1993895D03*
G01X-5346700Y2070095D03*
G01X-5346700Y2146295D03*
G01X-5346700Y2222495D03*
G01X-5312033Y-439103D03*
G01X-5293360Y3108960D03*
G01X-5293360Y3235960D03*
G01X-5293360Y3362960D03*
G01X-5270500Y1612895D03*
G01X-5270500Y1689095D03*
G01X-5270500Y1765295D03*
G01X-5270500Y1841495D03*
G01X-5270500Y1917695D03*
G01X-5270500Y1993895D03*
G01X-5270500Y2070095D03*
G01X-5270500Y2146295D03*
G01X-5270500Y2222495D03*
G01X-5262568Y4386897D03*
G01X-5262568Y5148897D03*
G01X-5262568Y5402897D03*
G01X-5262568Y5656897D03*
G01X-5262568Y5910897D03*
G01X-5262568Y6164897D03*
G01X-5262568Y6418897D03*
G01X-5194300Y1612895D03*
G01X-5194300Y1689095D03*
G01X-5194300Y1765295D03*
G01X-5194300Y1841495D03*
G01X-5194300Y1917695D03*
G01X-5194300Y1993895D03*
G01X-5194300Y2070095D03*
G01X-5194300Y2146295D03*
G01X-5194300Y2222495D03*
G01X-5183039Y-947103D03*
G01X-5183039Y-693103D03*
G01X-5166360Y3108960D03*
G01X-5166360Y3235960D03*
G01X-5166360Y3362960D03*
G01X-5152500Y2640000D03*
G01X-5128621Y3838046D03*
G01X-5080000Y642500D03*
G01X-5008568Y5656897D03*
G01X-5008568Y5910897D03*
G01X-5008568Y6164897D03*
G01X-5008568Y6418897D03*
G01X-4998720Y4206240D03*
G01X-4996825Y4269644D03*
G01X-4979317Y12700D03*
G01X-4976777Y-60960D03*
G01X-4929039Y-947103D03*
G01X-4929039Y-693103D03*
G01X-4929039Y-439103D03*
G01X-4929039Y322897D03*
G01X-4929039Y576897D03*
G01X-4929039Y830897D03*
G01X-4914900Y-3106103D03*
G01X-4914900Y-2979103D03*
G01X-4914900Y-2852103D03*
G01X-4914900Y-2725103D03*
G01X-4914900Y-2598103D03*
G01X-4914900Y-2471103D03*
G01X-4914900Y-1963103D03*
G01X-4914900Y-1836103D03*
G01X-4914900Y-1709103D03*
G01X-4914900Y-1582103D03*
G01X-4914900Y-1455103D03*
G01X-4900577Y12700D03*
G01X-4898037Y-60960D03*
G01X-4881880Y1076960D03*
G01X-4881880Y1203960D03*
G01X-4881880Y1330960D03*
G01X-4881880Y1457960D03*
G01X-4881880Y1584960D03*
G01X-4881880Y1711960D03*
G01X-4881880Y1838960D03*
G01X-4881880Y1965960D03*
G01X-4881880Y2092960D03*
G01X-4881880Y2219960D03*
G01X-4881880Y2346960D03*
G01X-4881880Y2473960D03*
G01X-4881880Y2600960D03*
G01X-4881880Y2727960D03*
G01X-4821837Y12700D03*
G01X-4819297Y-60960D03*
G01X-4805426Y4555303D03*
G01X-4787900Y-3106103D03*
G01X-4787900Y-2979103D03*
G01X-4787900Y-2852103D03*
G01X-4787900Y-2725103D03*
G01X-4787900Y-2598103D03*
G01X-4787900Y-2471103D03*
G01X-4787900Y-2344103D03*
G01X-4787900Y-2217103D03*
G01X-4787900Y-2090103D03*
G01X-4787900Y-1963103D03*
G01X-4787900Y-1836103D03*
G01X-4787900Y-1455103D03*
G01X-4787900Y-1328103D03*
G01X-4754880Y1076960D03*
G01X-4754880Y1203960D03*
G01X-4754880Y1330960D03*
G01X-4754880Y1457960D03*
G01X-4754880Y1584960D03*
G01X-4754880Y1711960D03*
G01X-4754880Y1838960D03*
G01X-4754880Y1965960D03*
G01X-4754880Y2092960D03*
G01X-4754880Y2219960D03*
G01X-4754880Y2346960D03*
G01X-4754880Y2473960D03*
G01X-4754880Y2600960D03*
G01X-4754880Y2727960D03*
G01X-4754568Y3370897D03*
G01X-4754568Y5910897D03*
G01X-4754568Y6418897D03*
G01X-4706620Y3497580D03*
G01X-4699000Y6040120D03*
G01X-4675039Y830897D03*
G01X-4660900Y-3106103D03*
G01X-4660900Y-2979103D03*
G01X-4660900Y-2852103D03*
G01X-4660900Y-2725103D03*
G01X-4660900Y-2598103D03*
G01X-4660900Y-2471103D03*
G01X-4660900Y-2344103D03*
G01X-4660900Y-2217103D03*
G01X-4660900Y-2090103D03*
G01X-4660900Y-1963103D03*
G01X-4660900Y-1328103D03*
G01X-4660900Y-1201103D03*
G01X-4660900Y-1074103D03*
G01X-4660900Y-947103D03*
G01X-4660900Y-820103D03*
G01X-4660900Y-693103D03*
G01X-4660900Y-566103D03*
G01X-4660900Y-439103D03*
G01X-4653280Y68897D03*
G01X-4653280Y195897D03*
G01X-4653280Y322897D03*
G01X-4653280Y449897D03*
G01X-4627880Y1076960D03*
G01X-4627880Y1203960D03*
G01X-4627880Y1330960D03*
G01X-4627880Y1457960D03*
G01X-4627880Y1584960D03*
G01X-4627880Y1711960D03*
G01X-4627880Y1838960D03*
G01X-4627880Y1965960D03*
G01X-4627880Y2092960D03*
G01X-4627880Y2219960D03*
G01X-4627880Y2346960D03*
G01X-4627880Y2473960D03*
G01X-4627880Y2600960D03*
G01X-4627880Y2727960D03*
G01X-4625338Y5016500D03*
G01X-4537732Y6442694D03*
G01X-4533900Y-3106103D03*
G01X-4533900Y-2979103D03*
G01X-4533900Y-2852103D03*
G01X-4533900Y-2725103D03*
G01X-4533900Y-2598103D03*
G01X-4533900Y-2471103D03*
G01X-4533900Y-2344103D03*
G01X-4533900Y-2217103D03*
G01X-4533900Y-2090103D03*
G01X-4533900Y-1963103D03*
G01X-4533900Y-1836103D03*
G01X-4533900Y-1328103D03*
G01X-4533900Y-1201103D03*
G01X-4533900Y-1074103D03*
G01X-4533900Y-693103D03*
G01X-4533900Y-566103D03*
G01X-4533900Y-439103D03*
G01X-4526280Y68897D03*
G01X-4500880Y1076960D03*
G01X-4500880Y1203960D03*
G01X-4500880Y1330960D03*
G01X-4500880Y1457960D03*
G01X-4500880Y1584960D03*
G01X-4500880Y1711960D03*
G01X-4500880Y1838960D03*
G01X-4500880Y1965960D03*
G01X-4500880Y2092960D03*
G01X-4500880Y2219960D03*
G01X-4500880Y2346960D03*
G01X-4500880Y2473960D03*
G01X-4500880Y2600960D03*
G01X-4500880Y2727960D03*
G01X-4500568Y4386897D03*
G01X-4480921Y4843886D03*
G01X-4478020Y5918200D03*
G01X-4421039Y830897D03*
G01X-4406900Y-3106103D03*
G01X-4406900Y-2979103D03*
G01X-4406900Y-2852103D03*
G01X-4406900Y-2725103D03*
G01X-4406900Y-2598103D03*
G01X-4406900Y-2471103D03*
G01X-4406900Y-2344103D03*
G01X-4406900Y-2217103D03*
G01X-4406900Y-2090103D03*
G01X-4406900Y-1963103D03*
G01X-4406900Y-1836103D03*
G01X-4406900Y-1709103D03*
G01X-4406900Y-1582103D03*
G01X-4406900Y-1455103D03*
G01X-4406900Y-820103D03*
G01X-4406900Y-439103D03*
G01X-4406900Y-312103D03*
G01X-4406900Y-185103D03*
G01X-4406900Y4150360D03*
G01X-4373880Y1076960D03*
G01X-4373880Y1203960D03*
G01X-4373880Y1330960D03*
G01X-4373880Y1457960D03*
G01X-4373880Y1584960D03*
G01X-4373880Y1711960D03*
G01X-4373880Y1838960D03*
G01X-4373880Y1965960D03*
G01X-4373880Y2092960D03*
G01X-4373880Y2219960D03*
G01X-4373880Y2346960D03*
G01X-4373880Y2473960D03*
G01X-4373880Y2600960D03*
G01X-4373880Y2727960D03*
G01X-4358640Y6494780D03*
G01X-4315460Y5872480D03*
G01X-4313859Y5787924D03*
G01X-4279900Y-3106103D03*
G01X-4279900Y-2979103D03*
G01X-4279900Y-2852103D03*
G01X-4279900Y-2725103D03*
G01X-4279900Y-2598103D03*
G01X-4279900Y-2471103D03*
G01X-4279900Y-2344103D03*
G01X-4279900Y-2217103D03*
G01X-4279900Y-2090103D03*
G01X-4279900Y-1963103D03*
G01X-4279900Y-1836103D03*
G01X-4279900Y-1709103D03*
G01X-4279900Y-1582103D03*
G01X-4279900Y-1455103D03*
G01X-4279900Y-1328103D03*
G01X-4279900Y-1201103D03*
G01X-4279900Y-1074103D03*
G01X-4279900Y-947103D03*
G01X-4279900Y-820103D03*
G01X-4279900Y-693103D03*
G01X-4279900Y-566103D03*
G01X-4279900Y-439103D03*
G01X-4279900Y-312103D03*
G01X-4279900Y-185103D03*
G01X-4279900Y-58103D03*
G01X-4246880Y1076960D03*
G01X-4246880Y1203960D03*
G01X-4246880Y1330960D03*
G01X-4246880Y1457960D03*
G01X-4246880Y1584960D03*
G01X-4246880Y1711960D03*
G01X-4246880Y1838960D03*
G01X-4246880Y1965960D03*
G01X-4246880Y2092960D03*
G01X-4246880Y2219960D03*
G01X-4246880Y2346960D03*
G01X-4246880Y2473960D03*
G01X-4246880Y2600960D03*
G01X-4246880Y2727960D03*
G01X-4246568Y68897D03*
G01X-4246568Y6418897D03*
G01X-4241761Y5289534D03*
G01X-4193509Y498384D03*
G01X-4175465Y5217266D03*
G01X-4167039Y830897D03*
G01X-4163060Y6469380D03*
G01X-4130046Y500551D03*
G01X-4104640Y4695865D03*
G01X-4104640Y4786289D03*
G01X-4104640Y4876800D03*
G01X-4046220Y4198620D03*
G01X-4037027Y5582934D03*
G01X-4022295Y3451709D03*
G01X-4003040Y4695865D03*
G01X-4003040Y4786289D03*
G01X-4003040Y4876800D03*
G01X-3992880Y1076960D03*
G01X-3992880Y1203960D03*
G01X-3992880Y1330960D03*
G01X-3992880Y1457960D03*
G01X-3992880Y1584960D03*
G01X-3992880Y1711960D03*
G01X-3992880Y1838960D03*
G01X-3992880Y1965960D03*
G01X-3992880Y2092960D03*
G01X-3992880Y2219960D03*
G01X-3992880Y2346960D03*
G01X-3992880Y2473960D03*
G01X-3992880Y2600960D03*
G01X-3992880Y2727960D03*
G01X-3992880Y2854960D03*
G01X-3992880Y2981960D03*
G01X-3992568Y-2979103D03*
G01X-3992568Y-2725103D03*
G01X-3992568Y-2471103D03*
G01X-3992568Y-2217103D03*
G01X-3992568Y-1963103D03*
G01X-3992568Y-439103D03*
G01X-3992568Y68897D03*
G01X-3992568Y6418897D03*
G01X-3977640Y5704840D03*
G01X-3913039Y576897D03*
G01X-3913039Y830897D03*
G01X-3901440Y4695865D03*
G01X-3901440Y4786289D03*
G01X-3901440Y4876800D03*
G01X-3866284Y6479540D03*
G01X-3865880Y1838960D03*
G01X-3865880Y1965960D03*
G01X-3865880Y2092960D03*
G01X-3865880Y2219960D03*
G01X-3865880Y2346960D03*
G01X-3865880Y2473960D03*
G01X-3865880Y2600960D03*
G01X-3865880Y2727960D03*
G01X-3843180Y3718560D03*
G01X-3827780Y3510280D03*
G01X-3799840Y4695865D03*
G01X-3799840Y4786289D03*
G01X-3799840Y4876800D03*
G01X-3777182Y6479540D03*
G01X-3738880Y1965960D03*
G01X-3738880Y2092960D03*
G01X-3738880Y2219960D03*
G01X-3738880Y2346960D03*
G01X-3738880Y2473960D03*
G01X-3738880Y2600960D03*
G01X-3738880Y2727960D03*
G01X-3738568Y-2979103D03*
G01X-3738568Y-2725103D03*
G01X-3738568Y-2471103D03*
G01X-3738568Y-2217103D03*
G01X-3738568Y-1963103D03*
G01X-3738568Y-1455103D03*
G01X-3738568Y-1201103D03*
G01X-3738568Y-947103D03*
G01X-3738568Y-693103D03*
G01X-3738568Y-439103D03*
G01X-3738568Y4132897D03*
G01X-3708400Y-165100D03*
G01X-3708400Y-38100D03*
G01X-3708400Y88900D03*
G01X-3708400Y215900D03*
G01X-3708400Y342900D03*
G01X-3708400Y469900D03*
G01X-3708400Y596900D03*
G01X-3708400Y723900D03*
G01X-3708400Y850900D03*
G01X-3708400Y977900D03*
G01X-3708400Y1104900D03*
G01X-3708400Y1231900D03*
G01X-3708400Y1358900D03*
G01X-3708400Y1485900D03*
G01X-3708400Y1612900D03*
G01X-3708400Y1739900D03*
G01X-3698240Y4695865D03*
G01X-3698240Y4786289D03*
G01X-3698240Y4876800D03*
G01X-3693160Y5674360D03*
G01X-3611880Y2092960D03*
G01X-3611880Y2219960D03*
G01X-3611880Y2346960D03*
G01X-3611880Y2473960D03*
G01X-3611880Y2600960D03*
G01X-3611880Y2727960D03*
G01X-3611880Y2854960D03*
G01X-3581400Y-165100D03*
G01X-3581400Y-38100D03*
G01X-3581400Y88900D03*
G01X-3581400Y215900D03*
G01X-3581400Y342900D03*
G01X-3581400Y469900D03*
G01X-3581400Y596900D03*
G01X-3581400Y723900D03*
G01X-3581400Y850900D03*
G01X-3581400Y977900D03*
G01X-3581400Y1104900D03*
G01X-3581400Y1231900D03*
G01X-3581400Y1358900D03*
G01X-3581400Y1485900D03*
G01X-3581400Y1612900D03*
G01X-3581400Y1739900D03*
G01X-3581400Y1866900D03*
G01X-3517900Y3789680D03*
G01X-3500480Y6085840D03*
G01X-3484880Y2092960D03*
G01X-3484880Y2219960D03*
G01X-3484880Y2346960D03*
G01X-3484880Y2473960D03*
G01X-3484880Y2600960D03*
G01X-3484880Y2727960D03*
G01X-3484880Y2854960D03*
G01X-3484568Y-2979103D03*
G01X-3484568Y-2725103D03*
G01X-3484568Y-2471103D03*
G01X-3484568Y-1963103D03*
G01X-3484568Y-1709103D03*
G01X-3484568Y-1455103D03*
G01X-3484568Y-1201103D03*
G01X-3484568Y-947103D03*
G01X-3484568Y-693103D03*
G01X-3484568Y-439103D03*
G01X-3484568Y3370897D03*
G01X-3484568Y4640897D03*
G01X-3484568Y4894897D03*
G01X-3484568Y6418897D03*
G01X-3454400Y-165100D03*
G01X-3454400Y-38100D03*
G01X-3454400Y88900D03*
G01X-3454400Y215900D03*
G01X-3454400Y342900D03*
G01X-3454400Y469900D03*
G01X-3454400Y596900D03*
G01X-3454400Y723900D03*
G01X-3454400Y850900D03*
G01X-3454400Y977900D03*
G01X-3454400Y1104900D03*
G01X-3454400Y1231900D03*
G01X-3454400Y1358900D03*
G01X-3454400Y1485900D03*
G01X-3454400Y1612900D03*
G01X-3454400Y1739900D03*
G01X-3454400Y1866900D03*
G01X-3383280Y6078220D03*
G01X-3357880Y2092960D03*
G01X-3357880Y2219960D03*
G01X-3357880Y2346960D03*
G01X-3357880Y2473960D03*
G01X-3357880Y2600960D03*
G01X-3357880Y2727960D03*
G01X-3357880Y2854960D03*
G01X-3335020Y6195060D03*
G01X-3327400Y-165100D03*
G01X-3327400Y-38100D03*
G01X-3327400Y88900D03*
G01X-3327400Y215900D03*
G01X-3327400Y342900D03*
G01X-3327400Y469900D03*
G01X-3327400Y596900D03*
G01X-3327400Y723900D03*
G01X-3327400Y850900D03*
G01X-3327400Y977900D03*
G01X-3327400Y1104900D03*
G01X-3327400Y1231900D03*
G01X-3327400Y1358900D03*
G01X-3327400Y1485900D03*
G01X-3327400Y1612900D03*
G01X-3327400Y1739900D03*
G01X-3327400Y1866900D03*
G01X-3230880Y2092960D03*
G01X-3230880Y2219960D03*
G01X-3230880Y2346960D03*
G01X-3230880Y2473960D03*
G01X-3230880Y2600960D03*
G01X-3230880Y2727960D03*
G01X-3230880Y2854960D03*
G01X-3230568Y-2979103D03*
G01X-3230568Y-2725103D03*
G01X-3230568Y-2471103D03*
G01X-3230568Y-2217103D03*
G01X-3230568Y-1963103D03*
G01X-3230568Y-1709103D03*
G01X-3230568Y-1455103D03*
G01X-3230568Y-1201103D03*
G01X-3230568Y-947103D03*
G01X-3230568Y-693103D03*
G01X-3230568Y-439103D03*
G01X-3230568Y4386897D03*
G01X-3230568Y4640897D03*
G01X-3230568Y4894897D03*
G01X-3200400Y-165100D03*
G01X-3200400Y-38100D03*
G01X-3200400Y88900D03*
G01X-3200400Y215900D03*
G01X-3200400Y342900D03*
G01X-3200400Y469900D03*
G01X-3200400Y596900D03*
G01X-3200400Y723900D03*
G01X-3200400Y850900D03*
G01X-3200400Y977900D03*
G01X-3200400Y1104900D03*
G01X-3200400Y1231900D03*
G01X-3200400Y1358900D03*
G01X-3200400Y1485900D03*
G01X-3200400Y1612900D03*
G01X-3200400Y1739900D03*
G01X-3200400Y1866900D03*
G01X-3103880Y2092960D03*
G01X-3103880Y2219960D03*
G01X-3103880Y2346960D03*
G01X-3103880Y2473960D03*
G01X-3091180Y5450840D03*
G01X-3073400Y-165100D03*
G01X-3073400Y-38100D03*
G01X-3073400Y88900D03*
G01X-3073400Y215900D03*
G01X-3073400Y342900D03*
G01X-3073400Y469900D03*
G01X-3073400Y596900D03*
G01X-3073400Y723900D03*
G01X-3073400Y850900D03*
G01X-3073400Y977900D03*
G01X-3073400Y1104900D03*
G01X-3073400Y1231900D03*
G01X-3073400Y1358900D03*
G01X-3073400Y1485900D03*
G01X-3073400Y1612900D03*
G01X-3073400Y1739900D03*
G01X-3073400Y1866900D03*
G01X-2983892Y2648791D03*
G01X-2983892Y2775791D03*
G01X-2983892Y2902791D03*
G01X-2976880Y2092960D03*
G01X-2976880Y2219960D03*
G01X-2976880Y2346960D03*
G01X-2976880Y2473960D03*
G01X-2976568Y-2979103D03*
G01X-2976568Y-2725103D03*
G01X-2976568Y-2471103D03*
G01X-2976568Y-2217103D03*
G01X-2976568Y-1963103D03*
G01X-2976568Y-1709103D03*
G01X-2976568Y-1455103D03*
G01X-2976568Y-1201103D03*
G01X-2976568Y-947103D03*
G01X-2976568Y-693103D03*
G01X-2976568Y-439103D03*
G01X-2946400Y-165100D03*
G01X-2946400Y-38100D03*
G01X-2946400Y88900D03*
G01X-2946400Y215900D03*
G01X-2946400Y342900D03*
G01X-2946400Y469900D03*
G01X-2946400Y596900D03*
G01X-2946400Y723900D03*
G01X-2946400Y850900D03*
G01X-2946400Y977900D03*
G01X-2946400Y1104900D03*
G01X-2856892Y2648791D03*
G01X-2856892Y2775791D03*
G01X-2856892Y2902791D03*
G01X-2849880Y2092960D03*
G01X-2849880Y2219960D03*
G01X-2849880Y2346960D03*
G01X-2849880Y2473960D03*
G01X-2819400Y-165100D03*
G01X-2819400Y-38100D03*
G01X-2819400Y88900D03*
G01X-2819400Y215900D03*
G01X-2819400Y342900D03*
G01X-2819400Y469900D03*
G01X-2819400Y596900D03*
G01X-2819400Y723900D03*
G01X-2819400Y850900D03*
G01X-2819400Y977900D03*
G01X-2819400Y1104900D03*
G01X-2729892Y2648791D03*
G01X-2729892Y2775791D03*
G01X-2729892Y2902791D03*
G01X-2722880Y2092960D03*
G01X-2722880Y2219960D03*
G01X-2722880Y2346960D03*
G01X-2722880Y2473960D03*
G01X-2722568Y-2979103D03*
G01X-2722568Y-2725103D03*
G01X-2722568Y-2471103D03*
G01X-2722568Y-2217103D03*
G01X-2722568Y-1963103D03*
G01X-2722568Y-1709103D03*
G01X-2722568Y-1455103D03*
G01X-2722568Y-1201103D03*
G01X-2722568Y-947103D03*
G01X-2722568Y-693103D03*
G01X-2722568Y-439103D03*
G01X-2722568Y4640897D03*
G01X-2722568Y4894897D03*
G01X-2722568Y5402897D03*
G01X-2722568Y6164897D03*
G01X-2722568Y6418897D03*
G01X-2722568Y6672897D03*
G01X-2692400Y-165100D03*
G01X-2692400Y-38100D03*
G01X-2692400Y88900D03*
G01X-2692400Y215900D03*
G01X-2692400Y342900D03*
G01X-2692400Y469900D03*
G01X-2692400Y596900D03*
G01X-2692400Y723900D03*
G01X-2692400Y850900D03*
G01X-2692400Y977900D03*
G01X-2692400Y1104900D03*
G01X-2595880Y2092960D03*
G01X-2595880Y2219960D03*
G01X-2595880Y2346960D03*
G01X-2595880Y2473960D03*
G01X-2595880Y2600960D03*
G01X-2595880Y2727960D03*
G01X-2595880Y2854960D03*
G01X-2586766Y3483017D03*
G01X-2586766Y3610017D03*
G01X-2586766Y3737017D03*
G01X-2565400Y-165100D03*
G01X-2565400Y-38100D03*
G01X-2565400Y88900D03*
G01X-2565400Y215900D03*
G01X-2565400Y342900D03*
G01X-2565400Y469900D03*
G01X-2565400Y596900D03*
G01X-2565400Y723900D03*
G01X-2565400Y850900D03*
G01X-2565400Y977900D03*
G01X-2565400Y1104900D03*
G01X-2468880Y2092960D03*
G01X-2468880Y2219960D03*
G01X-2468880Y2346960D03*
G01X-2468880Y2473960D03*
G01X-2468880Y2600960D03*
G01X-2468880Y2727960D03*
G01X-2468880Y2854960D03*
G01X-2468568Y-2979103D03*
G01X-2468568Y-2725103D03*
G01X-2468568Y-2471103D03*
G01X-2468568Y-2217103D03*
G01X-2468568Y-1963103D03*
G01X-2468568Y-1709103D03*
G01X-2468568Y-1455103D03*
G01X-2468568Y-439103D03*
G01X-2468568Y3878897D03*
G01X-2468568Y4132897D03*
G01X-2468568Y4386897D03*
G01X-2468568Y4640897D03*
G01X-2468568Y5910897D03*
G01X-2468568Y6164897D03*
G01X-2468568Y6418897D03*
G01X-2468568Y6672897D03*
G01X-2459766Y3483017D03*
G01X-2459766Y3610017D03*
G01X-2459766Y3737017D03*
G01X-2438400Y-165100D03*
G01X-2438400Y-38100D03*
G01X-2438400Y88900D03*
G01X-2438400Y215900D03*
G01X-2438400Y342900D03*
G01X-2438400Y469900D03*
G01X-2438400Y596900D03*
G01X-2438400Y723900D03*
G01X-2438400Y850900D03*
G01X-2438400Y977900D03*
G01X-2438400Y1104900D03*
G01X-2341880Y2092960D03*
G01X-2341880Y2219960D03*
G01X-2341880Y2346960D03*
G01X-2341880Y2473960D03*
G01X-2341880Y2600960D03*
G01X-2341880Y2727960D03*
G01X-2341880Y2854960D03*
G01X-2332766Y3483017D03*
G01X-2332766Y3610017D03*
G01X-2332766Y3737017D03*
G01X-2311400Y-165100D03*
G01X-2311400Y-38100D03*
G01X-2311400Y88900D03*
G01X-2311400Y215900D03*
G01X-2311400Y342900D03*
G01X-2311400Y469900D03*
G01X-2311400Y596900D03*
G01X-2311400Y723900D03*
G01X-2311400Y850900D03*
G01X-2311400Y977900D03*
G01X-2311400Y1104900D03*
G01X-2311400Y1231900D03*
G01X-2311400Y1358900D03*
G01X-2311400Y1485900D03*
G01X-2311400Y1612900D03*
G01X-2311400Y1739900D03*
G01X-2311400Y1866900D03*
G01X-2214568Y-2979103D03*
G01X-2214568Y-2725103D03*
G01X-2214568Y-2471103D03*
G01X-2214568Y-2217103D03*
G01X-2214568Y-1963103D03*
G01X-2214568Y-1709103D03*
G01X-2214568Y-1455103D03*
G01X-2214568Y-439103D03*
G01X-2214568Y3878897D03*
G01X-2214568Y4132897D03*
G01X-2214568Y4386897D03*
G01X-2214568Y4640897D03*
G01X-2214568Y4894897D03*
G01X-2214568Y5656897D03*
G01X-2214568Y5910897D03*
G01X-2214568Y6164897D03*
G01X-2214568Y6418897D03*
G01X-2214568Y6672897D03*
G01X-1960568Y-2979103D03*
G01X-1960568Y-2725103D03*
G01X-1960568Y-2471103D03*
G01X-1960568Y-2217103D03*
G01X-1960568Y-1963103D03*
G01X-1960568Y-1709103D03*
G01X-1960568Y-1455103D03*
G01X-1960568Y-439103D03*
G01X-1960568Y-185103D03*
G01X-1960568Y68897D03*
G01X-1960568Y322897D03*
G01X-1960568Y576897D03*
G01X-1960568Y3878897D03*
G01X-1960568Y4386897D03*
G01X-1960568Y4640897D03*
G01X-1960568Y4894897D03*
G01X-1960568Y5402897D03*
G01X-1960568Y5656897D03*
G01X-1960568Y5910897D03*
G01X-1960568Y6164897D03*
G01X-1960568Y6418897D03*
G01X-1960568Y6672897D03*
G01X-1706568Y-2979103D03*
G01X-1706568Y-2725103D03*
G01X-1706568Y-2471103D03*
G01X-1706568Y-2217103D03*
G01X-1706568Y-1963103D03*
G01X-1706568Y-1709103D03*
G01X-1706568Y-1455103D03*
G01X-1706568Y-1201103D03*
G01X-1706568Y-947103D03*
G01X-1706568Y-693103D03*
G01X-1706568Y-439103D03*
G01X-1706568Y-185103D03*
G01X-1706568Y68897D03*
G01X-1706568Y322897D03*
G01X-1706568Y576897D03*
G01X-1706568Y3878897D03*
G01X-1706568Y4640897D03*
G01X-1706568Y4894897D03*
G01X-1706568Y5402897D03*
G01X-1706568Y5656897D03*
G01X-1706568Y5910897D03*
G01X-1706568Y6164897D03*
G01X-1706568Y6418897D03*
G01X-1706568Y6672897D03*
G01X-1452568Y-2979103D03*
G01X-1452568Y-2725103D03*
G01X-1452568Y-2471103D03*
G01X-1452568Y-2217103D03*
G01X-1452568Y-1963103D03*
G01X-1452568Y-1709103D03*
G01X-1452568Y-1455103D03*
G01X-1452568Y-1201103D03*
G01X-1452568Y-947103D03*
G01X-1452568Y-693103D03*
G01X-1452568Y-439103D03*
G01X-1452568Y-185103D03*
G01X-1452568Y68897D03*
G01X-1452568Y322897D03*
G01X-1452568Y576897D03*
G01X-1452568Y3878897D03*
G01X-1452568Y4132897D03*
G01X-1452568Y4386897D03*
G01X-1452568Y4640897D03*
G01X-1452568Y5402897D03*
G01X-1452568Y5656897D03*
G01X-1452568Y5910897D03*
G01X-1452568Y6164897D03*
G01X-1452568Y6418897D03*
G01X-1452568Y6672897D03*
G01X-1198568Y-2979103D03*
G01X-1198568Y-2725103D03*
G01X-1198568Y-2471103D03*
G01X-1198568Y-2217103D03*
G01X-1198568Y-1963103D03*
G01X-1198568Y-1709103D03*
G01X-1198568Y-1455103D03*
G01X-1198568Y-1201103D03*
G01X-1198568Y-947103D03*
G01X-1198568Y-693103D03*
G01X-1198568Y-439103D03*
G01X-1198568Y-185103D03*
G01X-1198568Y68897D03*
G01X-1198568Y322897D03*
G01X-1198568Y576897D03*
G01X-1198568Y3878897D03*
G01X-1198568Y4132897D03*
G01X-1198568Y4386897D03*
G01X-1198568Y4894897D03*
G01X-1198568Y5402897D03*
G01X-1198568Y5656897D03*
G01X-1198568Y5910897D03*
G01X-1198568Y6164897D03*
G01X-1198568Y6418897D03*
G01X-1198568Y6672897D03*
G01X-944568Y-2979103D03*
G01X-944568Y-2725103D03*
G01X-944568Y-2471103D03*
G01X-944568Y-2217103D03*
G01X-944568Y-1963103D03*
G01X-944568Y-1709103D03*
G01X-944568Y-1455103D03*
G01X-944568Y-1201103D03*
G01X-944568Y-947103D03*
G01X-944568Y-693103D03*
G01X-944568Y-439103D03*
G01X-944568Y-185103D03*
G01X-944568Y68897D03*
G01X-944568Y322897D03*
G01X-944568Y576897D03*
G01X-944568Y3878897D03*
G01X-944568Y4132897D03*
G01X-944568Y4640897D03*
G01X-944568Y5148897D03*
G01X-944568Y5402897D03*
G01X-944568Y5656897D03*
G01X-944568Y5910897D03*
G01X-944568Y6164897D03*
G01X-944568Y6418897D03*
G01X-944568Y6672897D03*
G01X-690568Y-2979103D03*
G01X-690568Y-2725103D03*
G01X-690568Y-2471103D03*
G01X-690568Y-2217103D03*
G01X-690568Y-1963103D03*
G01X-690568Y-1709103D03*
G01X-690568Y-1455103D03*
G01X-690568Y-1201103D03*
G01X-690568Y-947103D03*
G01X-690568Y-693103D03*
G01X-690568Y-439103D03*
G01X-690568Y-185103D03*
G01X-690568Y68897D03*
G01X-690568Y322897D03*
G01X-690568Y576897D03*
G01X-690568Y830897D03*
G01X-690568Y1084897D03*
G01X-690568Y1338897D03*
G01X-690568Y1592897D03*
G01X-690568Y1846897D03*
G01X-690568Y2100897D03*
G01X-690568Y2354897D03*
G01X-690568Y2608897D03*
G01X-690568Y2862897D03*
G01X-690568Y3116897D03*
G01X-690568Y3370897D03*
G01X-690568Y3624897D03*
G01X-690568Y3878897D03*
G01X-690568Y4386897D03*
G01X-690568Y4894897D03*
G01X-690568Y5148897D03*
G01X-690568Y5402897D03*
G01X-690568Y5656897D03*
G01X-690568Y5910897D03*
G01X-690568Y6164897D03*
G01X-690568Y6418897D03*
G01X-690568Y6672897D03*
G01X-436568Y-2471103D03*
G01X-436568Y-2217103D03*
G01X-436568Y-1963103D03*
G01X-436568Y-1709103D03*
G01X-436568Y-1455103D03*
G01X-436568Y-1201103D03*
G01X-436568Y-947103D03*
G01X-436568Y-693103D03*
G01X-436568Y-439103D03*
G01X-436568Y-185103D03*
G01X-436568Y68897D03*
G01X-436568Y322897D03*
G01X-436568Y576897D03*
G01X-436568Y830897D03*
G01X-436568Y1084897D03*
G01X-436568Y1338897D03*
G01X-436568Y1592897D03*
G01X-436568Y1846897D03*
G01X-436568Y2100897D03*
G01X-436568Y2354897D03*
G01X-436568Y2608897D03*
G01X-436568Y2862897D03*
G01X-436568Y3116897D03*
G01X-436568Y3370897D03*
G01X-436568Y3624897D03*
G01X-436568Y4132897D03*
G01X-436568Y4640897D03*
G01X-436568Y4894897D03*
G01X-436568Y5148897D03*
G01X-436568Y5402897D03*
G01X-436568Y5656897D03*
G01X-436568Y5910897D03*
G01X-436568Y6672897D03*
G01X-182568Y-2471103D03*
G01X-182568Y-2217103D03*
G01X-182568Y-1963103D03*
G01X-182568Y-1709103D03*
G01X-182568Y-1455103D03*
G01X-182568Y-1201103D03*
G01X-182568Y-947103D03*
G01X-182568Y-693103D03*
G01X-182568Y-439103D03*
G01X-182568Y-185103D03*
G01X-182568Y68897D03*
G01X-182568Y322897D03*
G01X-182568Y576897D03*
G01X-182568Y830897D03*
G01X-182568Y1084897D03*
G01X-182568Y1338897D03*
G01X-182568Y1592897D03*
G01X-182568Y1846897D03*
G01X-182568Y2100897D03*
G01X-182568Y2354897D03*
G01X-182568Y2608897D03*
G01X-182568Y2862897D03*
G01X-182568Y3116897D03*
G01X-182568Y3370897D03*
G01X-182568Y3878897D03*
G01X-182568Y4386897D03*
G01X-182568Y4640897D03*
G01X-182568Y4894897D03*
G01X-182568Y5148897D03*
G01X-182568Y5402897D03*
G01X-182568Y5656897D03*
G01X-182568Y5910897D03*
G01X-182568Y6672897D03*
G01X-63500Y4384040D03*
G01X71432Y-2979103D03*
G01X71432Y-2725103D03*
G01X71432Y-2471103D03*
G01X71432Y-2217103D03*
G01X71432Y-1963103D03*
G01X71432Y-1709103D03*
G01X71432Y-1455103D03*
G01X71432Y-1201103D03*
G01X71432Y-947103D03*
G01X71432Y-693103D03*
G01X71432Y-439103D03*
G01X71432Y-185103D03*
G01X71432Y68897D03*
G01X71432Y322897D03*
G01X71432Y576897D03*
G01X71432Y830897D03*
G01X71432Y1084897D03*
G01X71432Y1338897D03*
G01X71432Y1592897D03*
G01X71432Y1846897D03*
G01X71432Y2100897D03*
G01X71432Y2354897D03*
G01X71432Y2608897D03*
G01X71432Y2862897D03*
G01X71432Y4894897D03*
G01X71432Y5402897D03*
G01X71432Y5656897D03*
G01X71432Y5910897D03*
G01X71432Y6164897D03*
G01X71432Y6418897D03*
G01X89639Y3334290D03*
G01X89639Y3810540D03*
G01X89639Y4288695D03*
G01X89639Y4764945D03*
G01X94719Y5241830D03*
G04 Drill Drawing End*

G04 Text Start*
G54D17*
G01X2514673Y6514457D02*
G01X2514673Y6394315D01*
G01X2514673Y6514457D02*
G01X2560393Y6394315D01*
G01X2606113Y6514457D02*
G01X2560393Y6394315D01*
G01X2606113Y6514457D02*
G01X2606113Y6394315D01*
G01X2722445Y6474325D02*
G01X2722445Y6394315D01*
G01X2722445Y6457307D02*
G01X2711015Y6468737D01*
G01X2699585Y6474325D01*
G01X2682567Y6474325D01*
G01X2671137Y6468737D01*
G01X2659707Y6457307D01*
G01X2653865Y6440035D01*
G01X2653865Y6428605D01*
G01X2659707Y6411587D01*
G01X2671137Y6400157D01*
G01X2682567Y6394315D01*
G01X2699585Y6394315D01*
G01X2711015Y6400157D01*
G01X2722445Y6411587D01*
G01X2770197Y6474325D02*
G01X2770197Y6394315D01*
G01X2770197Y6440035D02*
G01X2776039Y6457307D01*
G01X2787469Y6468737D01*
G01X2798899Y6474325D01*
G01X2815917Y6474325D01*
G01X2863669Y6514457D02*
G01X2863669Y6394315D01*
G01X2920819Y6474325D02*
G01X2863669Y6417175D01*
G01X2886529Y6440035D02*
G01X2926661Y6394315D01*
G01X4051953Y6485755D02*
G01X4046111Y6497185D01*
G01X4034681Y6508615D01*
G01X4023251Y6514457D01*
G01X4000391Y6514457D01*
G01X3988961Y6508615D01*
G01X3977531Y6497185D01*
G01X3971943Y6485755D01*
G01X3966101Y6468737D01*
G01X3966101Y6440035D01*
G01X3971943Y6423017D01*
G01X3977531Y6411587D01*
G01X3988961Y6400157D01*
G01X4000391Y6394315D01*
G01X4023251Y6394315D01*
G01X4034681Y6400157D01*
G01X4046111Y6411587D01*
G01X4051953Y6423017D01*
G01X4128407Y6474325D02*
G01X4116977Y6468737D01*
G01X4105547Y6457307D01*
G01X4099705Y6440035D01*
G01X4099705Y6428605D01*
G01X4105547Y6411587D01*
G01X4116977Y6400157D01*
G01X4128407Y6394315D01*
G01X4145425Y6394315D01*
G01X4156855Y6400157D01*
G01X4168285Y6411587D01*
G01X4174127Y6428605D01*
G01X4174127Y6440035D01*
G01X4168285Y6457307D01*
G01X4156855Y6468737D01*
G01X4145425Y6474325D01*
G01X4128407Y6474325D01*
G01X4221879Y6474325D02*
G01X4221879Y6417175D01*
G01X4227721Y6400157D01*
G01X4239151Y6394315D01*
G01X4256169Y6394315D01*
G01X4267599Y6400157D01*
G01X4284871Y6417175D01*
G01X4284871Y6474325D02*
G01X4284871Y6394315D01*
G01X4332623Y6474325D02*
G01X4332623Y6394315D01*
G01X4332623Y6451465D02*
G01X4349895Y6468737D01*
G01X4361325Y6474325D01*
G01X4378343Y6474325D01*
G01X4389773Y6468737D01*
G01X4395615Y6451465D01*
G01X4395615Y6394315D01*
G01X4460639Y6514457D02*
G01X4460639Y6417175D01*
G01X4466227Y6400157D01*
G01X4477657Y6394315D01*
G01X4489087Y6394315D01*
G01X4443367Y6474325D02*
G01X4483499Y6474325D01*
G01X5460274Y6497185D02*
G01X5448844Y6508615D01*
G01X5431826Y6514457D01*
G01X5408966Y6514457D01*
G01X5391694Y6508615D01*
G01X5380264Y6497185D01*
G01X5380264Y6485755D01*
G01X5386106Y6474325D01*
G01X5391694Y6468737D01*
G01X5403124Y6462895D01*
G01X5437414Y6451465D01*
G01X5448844Y6445877D01*
G01X5454686Y6440035D01*
G01X5460274Y6428605D01*
G01X5460274Y6411587D01*
G01X5448844Y6400157D01*
G01X5431826Y6394315D01*
G01X5408966Y6394315D01*
G01X5391694Y6400157D01*
G01X5380264Y6411587D01*
G01X5508026Y6514457D02*
G01X5513868Y6508615D01*
G01X5519456Y6514457D01*
G01X5513868Y6520045D01*
G01X5508026Y6514457D01*
G01X5513868Y6474325D02*
G01X5513868Y6394315D01*
G01X5630200Y6474325D02*
G01X5567208Y6394315D01*
G01X5567208Y6474325D02*
G01X5630200Y6474325D01*
G01X5567208Y6394315D02*
G01X5630200Y6394315D01*
G01X5677952Y6440035D02*
G01X5746532Y6440035D01*
G01X5746532Y6451465D01*
G01X5740944Y6462895D01*
G01X5735102Y6468737D01*
G01X5723672Y6474325D01*
G01X5706654Y6474325D01*
G01X5695224Y6468737D01*
G01X5683794Y6457307D01*
G01X5677952Y6440035D01*
G01X5677952Y6428605D01*
G01X5683794Y6411587D01*
G01X5695224Y6400157D01*
G01X5706654Y6394315D01*
G01X5723672Y6394315D01*
G01X5735102Y6400157D01*
G01X5746532Y6411587D01*
G01X9324521Y6514457D02*
G01X9324521Y6394315D01*
G01X9324521Y6514457D02*
G01X9376083Y6514457D01*
G01X9393101Y6508615D01*
G01X9398943Y6503027D01*
G01X9404531Y6491597D01*
G01X9404531Y6474325D01*
G01X9398943Y6462895D01*
G01X9393101Y6457307D01*
G01X9376083Y6451465D01*
G01X9324521Y6451465D01*
G01X9452283Y6514457D02*
G01X9452283Y6394315D01*
G01X9568615Y6474325D02*
G01X9568615Y6394315D01*
G01X9568615Y6457307D02*
G01X9557185Y6468737D01*
G01X9545755Y6474325D01*
G01X9528737Y6474325D01*
G01X9517307Y6468737D01*
G01X9505877Y6457307D01*
G01X9500035Y6440035D01*
G01X9500035Y6428605D01*
G01X9505877Y6411587D01*
G01X9517307Y6400157D01*
G01X9528737Y6394315D01*
G01X9545755Y6394315D01*
G01X9557185Y6400157D01*
G01X9568615Y6411587D01*
G01X9633639Y6514457D02*
G01X9633639Y6417175D01*
G01X9639227Y6400157D01*
G01X9650657Y6394315D01*
G01X9662087Y6394315D01*
G01X9616367Y6474325D02*
G01X9656499Y6474325D01*
G01X9709839Y6440035D02*
G01X9778419Y6440035D01*
G01X9778419Y6451465D01*
G01X9772831Y6462895D01*
G01X9766989Y6468737D01*
G01X9755559Y6474325D01*
G01X9738541Y6474325D01*
G01X9727111Y6468737D01*
G01X9715681Y6457307D01*
G01X9709839Y6440035D01*
G01X9709839Y6428605D01*
G01X9715681Y6411587D01*
G01X9727111Y6400157D01*
G01X9738541Y6394315D01*
G01X9755559Y6394315D01*
G01X9766989Y6400157D01*
G01X9778419Y6411587D01*
G01X9894751Y6514457D02*
G01X9894751Y6394315D01*
G01X9894751Y6457307D02*
G01X9883321Y6468737D01*
G01X9871891Y6474325D01*
G01X9854873Y6474325D01*
G01X9843443Y6468737D01*
G01X9832013Y6457307D01*
G01X9826171Y6440035D01*
G01X9826171Y6428605D01*
G01X9832013Y6411587D01*
G01X9843443Y6400157D01*
G01X9854873Y6394315D01*
G01X9871891Y6394315D01*
G01X9883321Y6400157D01*
G01X9894751Y6411587D01*
G01X10865939Y6497185D02*
G01X10854509Y6508615D01*
G01X10837491Y6514457D01*
G01X10814631Y6514457D01*
G01X10797359Y6508615D01*
G01X10785929Y6497185D01*
G01X10785929Y6485755D01*
G01X10791771Y6474325D01*
G01X10797359Y6468737D01*
G01X10808789Y6462895D01*
G01X10843079Y6451465D01*
G01X10854509Y6445877D01*
G01X10860351Y6440035D01*
G01X10865939Y6428605D01*
G01X10865939Y6411587D01*
G01X10854509Y6400157D01*
G01X10837491Y6394315D01*
G01X10814631Y6394315D01*
G01X10797359Y6400157D01*
G01X10785929Y6411587D01*
G01X10913691Y6514457D02*
G01X10913691Y6394315D01*
G01X10913691Y6451465D02*
G01X10930963Y6468737D01*
G01X10942393Y6474325D01*
G01X10959411Y6474325D01*
G01X10970841Y6468737D01*
G01X10976683Y6451465D01*
G01X10976683Y6394315D01*
G01X11093015Y6474325D02*
G01X11093015Y6394315D01*
G01X11093015Y6457307D02*
G01X11081585Y6468737D01*
G01X11070155Y6474325D01*
G01X11053137Y6474325D01*
G01X11041707Y6468737D01*
G01X11030277Y6457307D01*
G01X11024435Y6440035D01*
G01X11024435Y6428605D01*
G01X11030277Y6411587D01*
G01X11041707Y6400157D01*
G01X11053137Y6394315D01*
G01X11070155Y6394315D01*
G01X11081585Y6400157D01*
G01X11093015Y6411587D01*
G01X11140767Y6474325D02*
G01X11140767Y6354437D01*
G01X11140767Y6457307D02*
G01X11152197Y6468737D01*
G01X11163627Y6474325D01*
G01X11180899Y6474325D01*
G01X11192329Y6468737D01*
G01X11203759Y6457307D01*
G01X11209347Y6440035D01*
G01X11209347Y6428605D01*
G01X11203759Y6411587D01*
G01X11192329Y6400157D01*
G01X11180899Y6394315D01*
G01X11163627Y6394315D01*
G01X11152197Y6400157D01*
G01X11140767Y6411587D01*
G01X11257099Y6440035D02*
G01X11325679Y6440035D01*
G01X11325679Y6451465D01*
G01X11320091Y6462895D01*
G01X11314249Y6468737D01*
G01X11302819Y6474325D01*
G01X11285801Y6474325D01*
G01X11274371Y6468737D01*
G01X11262941Y6457307D01*
G01X11257099Y6440035D01*
G01X11257099Y6428605D01*
G01X11262941Y6411587D01*
G01X11274371Y6400157D01*
G01X11285801Y6394315D01*
G01X11302819Y6394315D01*
G01X11314249Y6400157D01*
G01X11325679Y6411587D01*
G01X12217110Y6514457D02*
G01X12262830Y6394315D01*
G01X12308550Y6514457D02*
G01X12262830Y6394315D01*
G01X12356302Y6514457D02*
G01X12362144Y6508615D01*
G01X12367732Y6514457D01*
G01X12362144Y6520045D01*
G01X12356302Y6514457D01*
G01X12362144Y6474325D02*
G01X12362144Y6394315D01*
G01X12484064Y6474325D02*
G01X12484064Y6394315D01*
G01X12484064Y6457307D02*
G01X12472634Y6468737D01*
G01X12461204Y6474325D01*
G01X12444186Y6474325D01*
G01X12432756Y6468737D01*
G01X12421326Y6457307D01*
G01X12415484Y6440035D01*
G01X12415484Y6428605D01*
G01X12421326Y6411587D01*
G01X12432756Y6400157D01*
G01X12444186Y6394315D01*
G01X12461204Y6394315D01*
G01X12472634Y6400157D01*
G01X12484064Y6411587D01*
G01X12634686Y6537317D02*
G01X12531816Y6354437D01*
G01X12682438Y6514457D02*
G01X12682438Y6394315D01*
G01X12682438Y6514457D02*
G01X12734000Y6514457D01*
G01X12751018Y6508615D01*
G01X12756860Y6503027D01*
G01X12762448Y6491597D01*
G01X12762448Y6474325D01*
G01X12756860Y6462895D01*
G01X12751018Y6457307D01*
G01X12734000Y6451465D01*
G01X12682438Y6451465D01*
G01X12878780Y6474325D02*
G01X12878780Y6394315D01*
G01X12878780Y6457307D02*
G01X12867350Y6468737D01*
G01X12855920Y6474325D01*
G01X12838902Y6474325D01*
G01X12827472Y6468737D01*
G01X12816042Y6457307D01*
G01X12810200Y6440035D01*
G01X12810200Y6428605D01*
G01X12816042Y6411587D01*
G01X12827472Y6400157D01*
G01X12838902Y6394315D01*
G01X12855920Y6394315D01*
G01X12867350Y6400157D01*
G01X12878780Y6411587D01*
G01X12995112Y6514457D02*
G01X12995112Y6394315D01*
G01X12995112Y6457307D02*
G01X12983682Y6468737D01*
G01X12972252Y6474325D01*
G01X12955234Y6474325D01*
G01X12943804Y6468737D01*
G01X12932374Y6457307D01*
G01X12926532Y6440035D01*
G01X12926532Y6428605D01*
G01X12932374Y6411587D01*
G01X12943804Y6400157D01*
G01X12955234Y6394315D01*
G01X12972252Y6394315D01*
G01X12983682Y6400157D01*
G01X12995112Y6411587D01*
G01X13886289Y6514457D02*
G01X13886289Y6394315D01*
G01X13886289Y6514457D02*
G01X13937851Y6514457D01*
G01X13954869Y6508615D01*
G01X13960711Y6503027D01*
G01X13966299Y6491597D01*
G01X13966299Y6474325D01*
G01X13960711Y6462895D01*
G01X13954869Y6457307D01*
G01X13937851Y6451465D01*
G01X13886289Y6451465D01*
G01X14082631Y6474325D02*
G01X14082631Y6394315D01*
G01X14082631Y6457307D02*
G01X14071201Y6468737D01*
G01X14059771Y6474325D01*
G01X14042753Y6474325D01*
G01X14031323Y6468737D01*
G01X14019893Y6457307D01*
G01X14014051Y6440035D01*
G01X14014051Y6428605D01*
G01X14019893Y6411587D01*
G01X14031323Y6400157D01*
G01X14042753Y6394315D01*
G01X14059771Y6394315D01*
G01X14071201Y6400157D01*
G01X14082631Y6411587D01*
G01X14198963Y6514457D02*
G01X14198963Y6394315D01*
G01X14198963Y6457307D02*
G01X14187533Y6468737D01*
G01X14176103Y6474325D01*
G01X14159085Y6474325D01*
G01X14147655Y6468737D01*
G01X14136225Y6457307D01*
G01X14130383Y6440035D01*
G01X14130383Y6428605D01*
G01X14136225Y6411587D01*
G01X14147655Y6400157D01*
G01X14159085Y6394315D01*
G01X14176103Y6394315D01*
G01X14187533Y6400157D01*
G01X14198963Y6411587D01*
G01X14454741Y6497185D02*
G01X14443311Y6508615D01*
G01X14426293Y6514457D01*
G01X14403433Y6514457D01*
G01X14386161Y6508615D01*
G01X14374731Y6497185D01*
G01X14374731Y6485755D01*
G01X14380573Y6474325D01*
G01X14386161Y6468737D01*
G01X14397591Y6462895D01*
G01X14431881Y6451465D01*
G01X14443311Y6445877D01*
G01X14449153Y6440035D01*
G01X14454741Y6428605D01*
G01X14454741Y6411587D01*
G01X14443311Y6400157D01*
G01X14426293Y6394315D01*
G01X14403433Y6394315D01*
G01X14386161Y6400157D01*
G01X14374731Y6411587D01*
G01X14502493Y6514457D02*
G01X14502493Y6394315D01*
G01X14502493Y6451465D02*
G01X14519765Y6468737D01*
G01X14531195Y6474325D01*
G01X14548213Y6474325D01*
G01X14559643Y6468737D01*
G01X14565485Y6451465D01*
G01X14565485Y6394315D01*
G01X14681817Y6474325D02*
G01X14681817Y6394315D01*
G01X14681817Y6457307D02*
G01X14670387Y6468737D01*
G01X14658957Y6474325D01*
G01X14641939Y6474325D01*
G01X14630509Y6468737D01*
G01X14619079Y6457307D01*
G01X14613237Y6440035D01*
G01X14613237Y6428605D01*
G01X14619079Y6411587D01*
G01X14630509Y6400157D01*
G01X14641939Y6394315D01*
G01X14658957Y6394315D01*
G01X14670387Y6400157D01*
G01X14681817Y6411587D01*
G01X14729569Y6474325D02*
G01X14729569Y6354437D01*
G01X14729569Y6457307D02*
G01X14740999Y6468737D01*
G01X14752429Y6474325D01*
G01X14769701Y6474325D01*
G01X14781131Y6468737D01*
G01X14792561Y6457307D01*
G01X14798149Y6440035D01*
G01X14798149Y6428605D01*
G01X14792561Y6411587D01*
G01X14781131Y6400157D01*
G01X14769701Y6394315D01*
G01X14752429Y6394315D01*
G01X14740999Y6400157D01*
G01X14729569Y6411587D01*
G01X14845901Y6440035D02*
G01X14914481Y6440035D01*
G01X14914481Y6451465D01*
G01X14908893Y6462895D01*
G01X14903051Y6468737D01*
G01X14891621Y6474325D01*
G01X14874603Y6474325D01*
G01X14863173Y6468737D01*
G01X14851743Y6457307D01*
G01X14845901Y6440035D01*
G01X14845901Y6428605D01*
G01X14851743Y6411587D01*
G01X14863173Y6400157D01*
G01X14874603Y6394315D01*
G01X14891621Y6394315D01*
G01X14903051Y6400157D01*
G01X14914481Y6411587D01*
G01X15805658Y6514457D02*
G01X15805658Y6394315D01*
G01X15805658Y6394315D02*
G01X15874238Y6394315D01*
G01X15990570Y6474325D02*
G01X15990570Y6394315D01*
G01X15990570Y6457307D02*
G01X15979140Y6468737D01*
G01X15967710Y6474325D01*
G01X15950692Y6474325D01*
G01X15939262Y6468737D01*
G01X15927832Y6457307D01*
G01X15921990Y6440035D01*
G01X15921990Y6428605D01*
G01X15927832Y6411587D01*
G01X15939262Y6400157D01*
G01X15950692Y6394315D01*
G01X15967710Y6394315D01*
G01X15979140Y6400157D01*
G01X15990570Y6411587D01*
G01X16044164Y6474325D02*
G01X16078454Y6394315D01*
G01X16112744Y6474325D02*
G01X16078454Y6394315D01*
G01X16067024Y6371455D01*
G01X16055594Y6360025D01*
G01X16044164Y6354437D01*
G01X16038322Y6354437D01*
G01X16160496Y6440035D02*
G01X16229076Y6440035D01*
G01X16229076Y6451465D01*
G01X16223488Y6462895D01*
G01X16217646Y6468737D01*
G01X16206216Y6474325D01*
G01X16189198Y6474325D01*
G01X16177768Y6468737D01*
G01X16166338Y6457307D01*
G01X16160496Y6440035D01*
G01X16160496Y6428605D01*
G01X16166338Y6411587D01*
G01X16177768Y6400157D01*
G01X16189198Y6394315D01*
G01X16206216Y6394315D01*
G01X16217646Y6400157D01*
G01X16229076Y6411587D01*
G01X16276828Y6474325D02*
G01X16276828Y6394315D01*
G01X16276828Y6440035D02*
G01X16282670Y6457307D01*
G01X16294100Y6468737D01*
G01X16305530Y6474325D01*
G01X16322548Y6474325D01*
G01X16498316Y6514457D02*
G01X16498316Y6394315D01*
G01X16498316Y6514457D02*
G01X16549878Y6514457D01*
G01X16566896Y6508615D01*
G01X16572738Y6503027D01*
G01X16578326Y6491597D01*
G01X16578326Y6474325D01*
G01X16572738Y6462895D01*
G01X16566896Y6457307D01*
G01X16549878Y6451465D01*
G01X16498316Y6451465D01*
G01X16694658Y6474325D02*
G01X16694658Y6394315D01*
G01X16694658Y6457307D02*
G01X16683228Y6468737D01*
G01X16671798Y6474325D01*
G01X16654780Y6474325D01*
G01X16643350Y6468737D01*
G01X16631920Y6457307D01*
G01X16626078Y6440035D01*
G01X16626078Y6428605D01*
G01X16631920Y6411587D01*
G01X16643350Y6400157D01*
G01X16654780Y6394315D01*
G01X16671798Y6394315D01*
G01X16683228Y6400157D01*
G01X16694658Y6411587D01*
G01X16742410Y6514457D02*
G01X16748252Y6508615D01*
G01X16753840Y6514457D01*
G01X16748252Y6520045D01*
G01X16742410Y6514457D01*
G01X16748252Y6474325D02*
G01X16748252Y6394315D01*
G01X16801592Y6474325D02*
G01X16801592Y6394315D01*
G01X16801592Y6440035D02*
G01X16807434Y6457307D01*
G01X16818864Y6468737D01*
G01X16830294Y6474325D01*
G01X16847312Y6474325D01*
G01X3971943Y5905184D02*
G01X3971943Y5911026D01*
G01X3977531Y5922456D01*
G01X3983373Y5928044D01*
G01X3994803Y5933886D01*
G01X4017663Y5933886D01*
G01X4029093Y5928044D01*
G01X4034681Y5922456D01*
G01X4040523Y5911026D01*
G01X4040523Y5899596D01*
G01X4034681Y5888166D01*
G01X4023251Y5870894D01*
G01X3966101Y5813744D01*
G01X4046111Y5813744D01*
G01X5437414Y5933886D02*
G01X5380264Y5853876D01*
G01X5466116Y5853876D01*
G01X5437414Y5933886D02*
G01X5437414Y5813744D01*
G01X5525298Y5933886D02*
G01X5588290Y5933886D01*
G01X5554000Y5888166D01*
G01X5571018Y5888166D01*
G01X5582448Y5882324D01*
G01X5588290Y5876736D01*
G01X5593878Y5859464D01*
G01X5593878Y5848034D01*
G01X5588290Y5831016D01*
G01X5576860Y5819586D01*
G01X5559588Y5813744D01*
G01X5542570Y5813744D01*
G01X5525298Y5819586D01*
G01X5519710Y5825174D01*
G01X5513868Y5836604D01*
G01X5647472Y5842446D02*
G01X5641630Y5836604D01*
G01X5647472Y5831016D01*
G01X5653060Y5836604D01*
G01X5647472Y5842446D01*
G01X5712242Y5933886D02*
G01X5775234Y5933886D01*
G01X5740944Y5888166D01*
G01X5757962Y5888166D01*
G01X5769392Y5882324D01*
G01X5775234Y5876736D01*
G01X5780822Y5859464D01*
G01X5780822Y5848034D01*
G01X5775234Y5831016D01*
G01X5763804Y5819586D01*
G01X5746532Y5813744D01*
G01X5729514Y5813744D01*
G01X5712242Y5819586D01*
G01X5706654Y5825174D01*
G01X5700812Y5836604D01*
G01X5828574Y5893754D02*
G01X5891566Y5813744D01*
G01X5891566Y5893754D02*
G01X5828574Y5813744D01*
G01X5996468Y5933886D02*
G01X5939318Y5853876D01*
G01X6025170Y5853876D01*
G01X5996468Y5933886D02*
G01X5996468Y5813744D01*
G01X6084352Y5933886D02*
G01X6147344Y5933886D01*
G01X6113054Y5888166D01*
G01X6130072Y5888166D01*
G01X6141502Y5882324D01*
G01X6147344Y5876736D01*
G01X6152932Y5859464D01*
G01X6152932Y5848034D01*
G01X6147344Y5831016D01*
G01X6135914Y5819586D01*
G01X6118642Y5813744D01*
G01X6101624Y5813744D01*
G01X6084352Y5819586D01*
G01X6078764Y5825174D01*
G01X6072922Y5836604D01*
G01X6206526Y5842446D02*
G01X6200684Y5836604D01*
G01X6206526Y5831016D01*
G01X6212114Y5836604D01*
G01X6206526Y5842446D01*
G01X6271296Y5933886D02*
G01X6334288Y5933886D01*
G01X6299998Y5888166D01*
G01X6317016Y5888166D01*
G01X6328446Y5882324D01*
G01X6334288Y5876736D01*
G01X6339876Y5859464D01*
G01X6339876Y5848034D01*
G01X6334288Y5831016D01*
G01X6322858Y5819586D01*
G01X6305586Y5813744D01*
G01X6288568Y5813744D01*
G01X6271296Y5819586D01*
G01X6265708Y5825174D01*
G01X6259866Y5836604D01*
G01X6387628Y5893754D02*
G01X6387628Y5813744D01*
G01X6387628Y5870894D02*
G01X6404900Y5888166D01*
G01X6416330Y5893754D01*
G01X6433348Y5893754D01*
G01X6444778Y5888166D01*
G01X6450620Y5870894D01*
G01X6450620Y5813744D01*
G01X6450620Y5870894D02*
G01X6467638Y5888166D01*
G01X6479068Y5893754D01*
G01X6496340Y5893754D01*
G01X6507770Y5888166D01*
G01X6513358Y5870894D01*
G01X6513358Y5813744D01*
G01X6561110Y5933886D02*
G01X6566952Y5928044D01*
G01X6572540Y5933886D01*
G01X6566952Y5939474D01*
G01X6561110Y5933886D01*
G01X6566952Y5893754D02*
G01X6566952Y5813744D01*
G01X6620292Y5933886D02*
G01X6620292Y5813744D01*
G01X6708176Y5956746D02*
G01X6696746Y5945316D01*
G01X6685316Y5928044D01*
G01X6673886Y5905184D01*
G01X6668044Y5876736D01*
G01X6668044Y5853876D01*
G01X6673886Y5825174D01*
G01X6685316Y5802314D01*
G01X6696746Y5785296D01*
G01X6708176Y5773866D01*
G01X6755928Y5911026D02*
G01X6767358Y5916614D01*
G01X6784630Y5933886D01*
G01X6784630Y5813744D01*
G01X6838224Y5842446D02*
G01X6832382Y5836604D01*
G01X6838224Y5831016D01*
G01X6843812Y5836604D01*
G01X6838224Y5842446D01*
G01X6891564Y5911026D02*
G01X6902994Y5916614D01*
G01X6920266Y5933886D01*
G01X6920266Y5813744D01*
G01X7002308Y5933886D02*
G01X6985290Y5928044D01*
G01X6973860Y5911026D01*
G01X6968018Y5882324D01*
G01X6968018Y5865306D01*
G01X6973860Y5836604D01*
G01X6985290Y5819586D01*
G01X7002308Y5813744D01*
G01X7013738Y5813744D01*
G01X7031010Y5819586D01*
G01X7042440Y5836604D01*
G01X7048028Y5865306D01*
G01X7048028Y5882324D01*
G01X7042440Y5911026D01*
G01X7031010Y5928044D01*
G01X7013738Y5933886D01*
G01X7002308Y5933886D01*
G01X7130070Y5933886D02*
G01X7113052Y5928044D01*
G01X7101622Y5911026D01*
G01X7095780Y5882324D01*
G01X7095780Y5865306D01*
G01X7101622Y5836604D01*
G01X7113052Y5819586D01*
G01X7130070Y5813744D01*
G01X7141500Y5813744D01*
G01X7158772Y5819586D01*
G01X7170202Y5836604D01*
G01X7175790Y5865306D01*
G01X7175790Y5882324D01*
G01X7170202Y5911026D01*
G01X7158772Y5928044D01*
G01X7141500Y5933886D01*
G01X7130070Y5933886D01*
G01X7223542Y5893754D02*
G01X7286534Y5813744D01*
G01X7286534Y5893754D02*
G01X7223542Y5813744D01*
G01X7334286Y5911026D02*
G01X7345716Y5916614D01*
G01X7362988Y5933886D01*
G01X7362988Y5813744D01*
G01X7416582Y5842446D02*
G01X7410740Y5836604D01*
G01X7416582Y5831016D01*
G01X7422170Y5836604D01*
G01X7416582Y5842446D01*
G01X7469922Y5911026D02*
G01X7481352Y5916614D01*
G01X7498624Y5933886D01*
G01X7498624Y5813744D01*
G01X7580666Y5933886D02*
G01X7563648Y5928044D01*
G01X7552218Y5911026D01*
G01X7546376Y5882324D01*
G01X7546376Y5865306D01*
G01X7552218Y5836604D01*
G01X7563648Y5819586D01*
G01X7580666Y5813744D01*
G01X7592096Y5813744D01*
G01X7609368Y5819586D01*
G01X7620798Y5836604D01*
G01X7626386Y5865306D01*
G01X7626386Y5882324D01*
G01X7620798Y5911026D01*
G01X7609368Y5928044D01*
G01X7592096Y5933886D01*
G01X7580666Y5933886D01*
G01X7708428Y5933886D02*
G01X7691410Y5928044D01*
G01X7679980Y5911026D01*
G01X7674138Y5882324D01*
G01X7674138Y5865306D01*
G01X7679980Y5836604D01*
G01X7691410Y5819586D01*
G01X7708428Y5813744D01*
G01X7719858Y5813744D01*
G01X7737130Y5819586D01*
G01X7748560Y5836604D01*
G01X7754148Y5865306D01*
G01X7754148Y5882324D01*
G01X7748560Y5911026D01*
G01X7737130Y5928044D01*
G01X7719858Y5933886D01*
G01X7708428Y5933886D01*
G01X7801900Y5893754D02*
G01X7801900Y5813744D01*
G01X7801900Y5870894D02*
G01X7819172Y5888166D01*
G01X7830602Y5893754D01*
G01X7847620Y5893754D01*
G01X7859050Y5888166D01*
G01X7864892Y5870894D01*
G01X7864892Y5813744D01*
G01X7864892Y5870894D02*
G01X7881910Y5888166D01*
G01X7893340Y5893754D01*
G01X7910612Y5893754D01*
G01X7922042Y5888166D01*
G01X7927630Y5870894D01*
G01X7927630Y5813744D01*
G01X7975382Y5893754D02*
G01X7975382Y5813744D01*
G01X7975382Y5870894D02*
G01X7992654Y5888166D01*
G01X8004084Y5893754D01*
G01X8021102Y5893754D01*
G01X8032532Y5888166D01*
G01X8038374Y5870894D01*
G01X8038374Y5813744D01*
G01X8038374Y5870894D02*
G01X8055392Y5888166D01*
G01X8066822Y5893754D01*
G01X8084094Y5893754D01*
G01X8095524Y5888166D01*
G01X8101112Y5870894D01*
G01X8101112Y5813744D01*
G01X8148864Y5956746D02*
G01X8160294Y5945316D01*
G01X8171724Y5928044D01*
G01X8183154Y5905184D01*
G01X8188996Y5876736D01*
G01X8188996Y5853876D01*
G01X8183154Y5825174D01*
G01X8171724Y5802314D01*
G01X8160294Y5785296D01*
G01X8148864Y5773866D01*
G01X9324521Y5933886D02*
G01X9324521Y5813744D01*
G01X9324521Y5933886D02*
G01X9376083Y5933886D01*
G01X9393101Y5928044D01*
G01X9398943Y5922456D01*
G01X9404531Y5911026D01*
G01X9404531Y5893754D01*
G01X9398943Y5882324D01*
G01X9393101Y5876736D01*
G01X9376083Y5870894D01*
G01X9324521Y5870894D01*
G01X9492415Y5933886D02*
G01X9492415Y5813744D01*
G01X9452283Y5933886D02*
G01X9532293Y5933886D01*
G01X9580045Y5933886D02*
G01X9580045Y5813744D01*
G01X9660055Y5933886D02*
G01X9660055Y5813744D01*
G01X9580045Y5876736D02*
G01X9660055Y5876736D01*
G01X10785929Y5933886D02*
G01X10785929Y5813744D01*
G01X10785929Y5933886D02*
G01X10837491Y5933886D01*
G01X10854509Y5928044D01*
G01X10860351Y5922456D01*
G01X10865939Y5911026D01*
G01X10865939Y5899596D01*
G01X10860351Y5888166D01*
G01X10854509Y5882324D01*
G01X10837491Y5876736D01*
G01X10785929Y5876736D01*
G01X10826061Y5876736D02*
G01X10865939Y5813744D01*
G01X10942393Y5893754D02*
G01X10930963Y5888166D01*
G01X10919533Y5876736D01*
G01X10913691Y5859464D01*
G01X10913691Y5848034D01*
G01X10919533Y5831016D01*
G01X10930963Y5819586D01*
G01X10942393Y5813744D01*
G01X10959411Y5813744D01*
G01X10970841Y5819586D01*
G01X10982271Y5831016D01*
G01X10988113Y5848034D01*
G01X10988113Y5859464D01*
G01X10982271Y5876736D01*
G01X10970841Y5888166D01*
G01X10959411Y5893754D01*
G01X10942393Y5893754D01*
G01X11035865Y5893754D02*
G01X11035865Y5836604D01*
G01X11041707Y5819586D01*
G01X11053137Y5813744D01*
G01X11070155Y5813744D01*
G01X11081585Y5819586D01*
G01X11098857Y5836604D01*
G01X11098857Y5893754D02*
G01X11098857Y5813744D01*
G01X11146609Y5893754D02*
G01X11146609Y5813744D01*
G01X11146609Y5870894D02*
G01X11163881Y5888166D01*
G01X11175311Y5893754D01*
G01X11192329Y5893754D01*
G01X11203759Y5888166D01*
G01X11209601Y5870894D01*
G01X11209601Y5813744D01*
G01X11325933Y5933886D02*
G01X11325933Y5813744D01*
G01X11325933Y5876736D02*
G01X11314503Y5888166D01*
G01X11303073Y5893754D01*
G01X11286055Y5893754D01*
G01X11274625Y5888166D01*
G01X11263195Y5876736D01*
G01X11257353Y5859464D01*
G01X11257353Y5848034D01*
G01X11263195Y5831016D01*
G01X11274625Y5819586D01*
G01X11286055Y5813744D01*
G01X11303073Y5813744D01*
G01X11314503Y5819586D01*
G01X11325933Y5831016D01*
G01X12217110Y5933886D02*
G01X12217110Y5813744D01*
G01X12217110Y5933886D02*
G01X12268672Y5933886D01*
G01X12285690Y5928044D01*
G01X12291532Y5922456D01*
G01X12297120Y5911026D01*
G01X12297120Y5893754D01*
G01X12291532Y5882324D01*
G01X12285690Y5876736D01*
G01X12268672Y5870894D01*
G01X12217110Y5870894D01*
G01X12413452Y5893754D02*
G01X12413452Y5813744D01*
G01X12413452Y5876736D02*
G01X12402022Y5888166D01*
G01X12390592Y5893754D01*
G01X12373574Y5893754D01*
G01X12362144Y5888166D01*
G01X12350714Y5876736D01*
G01X12344872Y5859464D01*
G01X12344872Y5848034D01*
G01X12350714Y5831016D01*
G01X12362144Y5819586D01*
G01X12373574Y5813744D01*
G01X12390592Y5813744D01*
G01X12402022Y5819586D01*
G01X12413452Y5831016D01*
G01X12529784Y5933886D02*
G01X12529784Y5813744D01*
G01X12529784Y5876736D02*
G01X12518354Y5888166D01*
G01X12506924Y5893754D01*
G01X12489906Y5893754D01*
G01X12478476Y5888166D01*
G01X12467046Y5876736D01*
G01X12461204Y5859464D01*
G01X12461204Y5848034D01*
G01X12467046Y5831016D01*
G01X12478476Y5819586D01*
G01X12489906Y5813744D01*
G01X12506924Y5813744D01*
G01X12518354Y5819586D01*
G01X12529784Y5831016D01*
G01X13886289Y5933886D02*
G01X13886289Y5813744D01*
G01X13886289Y5933886D02*
G01X13937851Y5933886D01*
G01X13954869Y5928044D01*
G01X13960711Y5922456D01*
G01X13966299Y5911026D01*
G01X13966299Y5899596D01*
G01X13960711Y5888166D01*
G01X13954869Y5882324D01*
G01X13937851Y5876736D01*
G01X13886289Y5876736D01*
G01X13926421Y5876736D02*
G01X13966299Y5813744D01*
G01X14042753Y5893754D02*
G01X14031323Y5888166D01*
G01X14019893Y5876736D01*
G01X14014051Y5859464D01*
G01X14014051Y5848034D01*
G01X14019893Y5831016D01*
G01X14031323Y5819586D01*
G01X14042753Y5813744D01*
G01X14059771Y5813744D01*
G01X14071201Y5819586D01*
G01X14082631Y5831016D01*
G01X14088473Y5848034D01*
G01X14088473Y5859464D01*
G01X14082631Y5876736D01*
G01X14071201Y5888166D01*
G01X14059771Y5893754D01*
G01X14042753Y5893754D01*
G01X14136225Y5893754D02*
G01X14136225Y5836604D01*
G01X14142067Y5819586D01*
G01X14153497Y5813744D01*
G01X14170515Y5813744D01*
G01X14181945Y5819586D01*
G01X14199217Y5836604D01*
G01X14199217Y5893754D02*
G01X14199217Y5813744D01*
G01X14246969Y5893754D02*
G01X14246969Y5813744D01*
G01X14246969Y5870894D02*
G01X14264241Y5888166D01*
G01X14275671Y5893754D01*
G01X14292689Y5893754D01*
G01X14304119Y5888166D01*
G01X14309961Y5870894D01*
G01X14309961Y5813744D01*
G01X14426293Y5933886D02*
G01X14426293Y5813744D01*
G01X14426293Y5876736D02*
G01X14414863Y5888166D01*
G01X14403433Y5893754D01*
G01X14386415Y5893754D01*
G01X14374985Y5888166D01*
G01X14363555Y5876736D01*
G01X14357713Y5859464D01*
G01X14357713Y5848034D01*
G01X14363555Y5831016D01*
G01X14374985Y5819586D01*
G01X14386415Y5813744D01*
G01X14403433Y5813744D01*
G01X14414863Y5819586D01*
G01X14426293Y5831016D01*
G01X15845790Y5933886D02*
G01X15845790Y5813744D01*
G01X15805658Y5933886D02*
G01X15885668Y5933886D01*
G01X15962122Y5893754D02*
G01X15950692Y5888166D01*
G01X15939262Y5876736D01*
G01X15933420Y5859464D01*
G01X15933420Y5848034D01*
G01X15939262Y5831016D01*
G01X15950692Y5819586D01*
G01X15962122Y5813744D01*
G01X15979140Y5813744D01*
G01X15990570Y5819586D01*
G01X16002000Y5831016D01*
G01X16007842Y5848034D01*
G01X16007842Y5859464D01*
G01X16002000Y5876736D01*
G01X15990570Y5888166D01*
G01X15979140Y5893754D01*
G01X15962122Y5893754D01*
G01X16055594Y5893754D02*
G01X16055594Y5773866D01*
G01X16055594Y5876736D02*
G01X16067024Y5888166D01*
G01X16078454Y5893754D01*
G01X16095726Y5893754D01*
G01X16107156Y5888166D01*
G01X16118586Y5876736D01*
G01X16124174Y5859464D01*
G01X16124174Y5848034D01*
G01X16118586Y5831016D01*
G01X16107156Y5819586D01*
G01X16095726Y5813744D01*
G01X16078454Y5813744D01*
G01X16067024Y5819586D01*
G01X16055594Y5831016D01*
G01X16299942Y5933886D02*
G01X16299942Y5813744D01*
G01X16299942Y5813744D02*
G01X16368522Y5813744D01*
G01X16484854Y5893754D02*
G01X16484854Y5813744D01*
G01X16484854Y5876736D02*
G01X16473424Y5888166D01*
G01X16461994Y5893754D01*
G01X16444976Y5893754D01*
G01X16433546Y5888166D01*
G01X16422116Y5876736D01*
G01X16416274Y5859464D01*
G01X16416274Y5848034D01*
G01X16422116Y5831016D01*
G01X16433546Y5819586D01*
G01X16444976Y5813744D01*
G01X16461994Y5813744D01*
G01X16473424Y5819586D01*
G01X16484854Y5831016D01*
G01X16538448Y5893754D02*
G01X16572738Y5813744D01*
G01X16607028Y5893754D02*
G01X16572738Y5813744D01*
G01X16561308Y5790884D01*
G01X16549878Y5779454D01*
G01X16538448Y5773866D01*
G01X16532606Y5773866D01*
G01X16654780Y5859464D02*
G01X16723360Y5859464D01*
G01X16723360Y5870894D01*
G01X16717772Y5882324D01*
G01X16711930Y5888166D01*
G01X16700500Y5893754D01*
G01X16683482Y5893754D01*
G01X16672052Y5888166D01*
G01X16660622Y5876736D01*
G01X16654780Y5859464D01*
G01X16654780Y5848034D01*
G01X16660622Y5831016D01*
G01X16672052Y5819586D01*
G01X16683482Y5813744D01*
G01X16700500Y5813744D01*
G01X16711930Y5819586D01*
G01X16723360Y5831016D01*
G01X16771112Y5893754D02*
G01X16771112Y5813744D01*
G01X16771112Y5859464D02*
G01X16776954Y5876736D01*
G01X16788384Y5888166D01*
G01X16799814Y5893754D01*
G01X16816832Y5893754D01*
G01X16864584Y5865306D02*
G01X16967454Y5865306D01*
G01X17015206Y5933886D02*
G01X17015206Y5813744D01*
G01X17015206Y5933886D02*
G01X17066768Y5933886D01*
G01X17083786Y5928044D01*
G01X17089628Y5922456D01*
G01X17095216Y5911026D01*
G01X17095216Y5899596D01*
G01X17089628Y5888166D01*
G01X17083786Y5882324D01*
G01X17066768Y5876736D01*
G01X17015206Y5876736D02*
G01X17066768Y5876736D01*
G01X17083786Y5870894D01*
G01X17089628Y5865306D01*
G01X17095216Y5853876D01*
G01X17095216Y5836604D01*
G01X17089628Y5825174D01*
G01X17083786Y5819586D01*
G01X17066768Y5813744D01*
G01X17015206Y5813744D01*
G01X17171670Y5893754D02*
G01X17160240Y5888166D01*
G01X17148810Y5876736D01*
G01X17142968Y5859464D01*
G01X17142968Y5848034D01*
G01X17148810Y5831016D01*
G01X17160240Y5819586D01*
G01X17171670Y5813744D01*
G01X17188688Y5813744D01*
G01X17200118Y5819586D01*
G01X17211548Y5831016D01*
G01X17217390Y5848034D01*
G01X17217390Y5859464D01*
G01X17211548Y5876736D01*
G01X17200118Y5888166D01*
G01X17188688Y5893754D01*
G01X17171670Y5893754D01*
G01X17282414Y5933886D02*
G01X17282414Y5836604D01*
G01X17288002Y5819586D01*
G01X17299432Y5813744D01*
G01X17310862Y5813744D01*
G01X17265142Y5893754D02*
G01X17305274Y5893754D01*
G01X17375886Y5933886D02*
G01X17375886Y5836604D01*
G01X17381474Y5819586D01*
G01X17392904Y5813744D01*
G01X17404334Y5813744D01*
G01X17358614Y5893754D02*
G01X17398746Y5893754D01*
G01X17480788Y5893754D02*
G01X17469358Y5888166D01*
G01X17457928Y5876736D01*
G01X17452086Y5859464D01*
G01X17452086Y5848034D01*
G01X17457928Y5831016D01*
G01X17469358Y5819586D01*
G01X17480788Y5813744D01*
G01X17497806Y5813744D01*
G01X17509236Y5819586D01*
G01X17520666Y5831016D01*
G01X17526508Y5848034D01*
G01X17526508Y5859464D01*
G01X17520666Y5876736D01*
G01X17509236Y5888166D01*
G01X17497806Y5893754D01*
G01X17480788Y5893754D01*
G01X17574260Y5893754D02*
G01X17574260Y5813744D01*
G01X17574260Y5870894D02*
G01X17591532Y5888166D01*
G01X17602962Y5893754D01*
G01X17619980Y5893754D01*
G01X17631410Y5888166D01*
G01X17637252Y5870894D01*
G01X17637252Y5813744D01*
G01X17637252Y5870894D02*
G01X17654270Y5888166D01*
G01X17665700Y5893754D01*
G01X17682972Y5893754D01*
G01X17694402Y5888166D01*
G01X17699990Y5870894D01*
G01X17699990Y5813744D01*
G01X17875758Y5933886D02*
G01X17875758Y5813744D01*
G01X17875758Y5813744D02*
G01X17944338Y5813744D01*
G01X18060670Y5893754D02*
G01X18060670Y5813744D01*
G01X18060670Y5876736D02*
G01X18049240Y5888166D01*
G01X18037810Y5893754D01*
G01X18020792Y5893754D01*
G01X18009362Y5888166D01*
G01X17997932Y5876736D01*
G01X17992090Y5859464D01*
G01X17992090Y5848034D01*
G01X17997932Y5831016D01*
G01X18009362Y5819586D01*
G01X18020792Y5813744D01*
G01X18037810Y5813744D01*
G01X18049240Y5819586D01*
G01X18060670Y5831016D01*
G01X18114264Y5893754D02*
G01X18148554Y5813744D01*
G01X18182844Y5893754D02*
G01X18148554Y5813744D01*
G01X18137124Y5790884D01*
G01X18125694Y5779454D01*
G01X18114264Y5773866D01*
G01X18108422Y5773866D01*
G01X18230596Y5859464D02*
G01X18299176Y5859464D01*
G01X18299176Y5870894D01*
G01X18293588Y5882324D01*
G01X18287746Y5888166D01*
G01X18276316Y5893754D01*
G01X18259298Y5893754D01*
G01X18247868Y5888166D01*
G01X18236438Y5876736D01*
G01X18230596Y5859464D01*
G01X18230596Y5848034D01*
G01X18236438Y5831016D01*
G01X18247868Y5819586D01*
G01X18259298Y5813744D01*
G01X18276316Y5813744D01*
G01X18287746Y5819586D01*
G01X18299176Y5831016D01*
G01X18346928Y5893754D02*
G01X18346928Y5813744D01*
G01X18346928Y5859464D02*
G01X18352770Y5876736D01*
G01X18364200Y5888166D01*
G01X18375630Y5893754D01*
G01X18392648Y5893754D01*
G01X4023251Y5353314D02*
G01X3966101Y5273304D01*
G01X4051953Y5273304D01*
G01X4023251Y5353314D02*
G01X4023251Y5233172D01*
G01X5380264Y5330454D02*
G01X5391694Y5336042D01*
G01X5408966Y5353314D01*
G01X5408966Y5233172D01*
G01X5456718Y5330454D02*
G01X5468148Y5336042D01*
G01X5485420Y5353314D01*
G01X5485420Y5233172D01*
G01X5561874Y5353314D02*
G01X5544602Y5347472D01*
G01X5539014Y5336042D01*
G01X5539014Y5324612D01*
G01X5544602Y5313182D01*
G01X5556032Y5307594D01*
G01X5578892Y5301752D01*
G01X5596164Y5296164D01*
G01X5607594Y5284734D01*
G01X5613182Y5273304D01*
G01X5613182Y5256032D01*
G01X5607594Y5244602D01*
G01X5601752Y5239014D01*
G01X5584734Y5233172D01*
G01X5561874Y5233172D01*
G01X5544602Y5239014D01*
G01X5539014Y5244602D01*
G01X5533172Y5256032D01*
G01X5533172Y5273304D01*
G01X5539014Y5284734D01*
G01X5550444Y5296164D01*
G01X5567462Y5301752D01*
G01X5590322Y5307594D01*
G01X5601752Y5313182D01*
G01X5607594Y5324612D01*
G01X5607594Y5336042D01*
G01X5601752Y5347472D01*
G01X5584734Y5353314D01*
G01X5561874Y5353314D01*
G01X5666776Y5261874D02*
G01X5660934Y5256032D01*
G01X5666776Y5250444D01*
G01X5672364Y5256032D01*
G01X5666776Y5261874D01*
G01X5720116Y5330454D02*
G01X5731546Y5336042D01*
G01X5748818Y5353314D01*
G01X5748818Y5233172D01*
G01X5796570Y5313182D02*
G01X5859562Y5233172D01*
G01X5859562Y5313182D02*
G01X5796570Y5233172D01*
G01X5907314Y5330454D02*
G01X5918744Y5336042D01*
G01X5936016Y5353314D01*
G01X5936016Y5233172D01*
G01X5983768Y5330454D02*
G01X5995198Y5336042D01*
G01X6012470Y5353314D01*
G01X6012470Y5233172D01*
G01X6088924Y5353314D02*
G01X6071652Y5347472D01*
G01X6066064Y5336042D01*
G01X6066064Y5324612D01*
G01X6071652Y5313182D01*
G01X6083082Y5307594D01*
G01X6105942Y5301752D01*
G01X6123214Y5296164D01*
G01X6134644Y5284734D01*
G01X6140232Y5273304D01*
G01X6140232Y5256032D01*
G01X6134644Y5244602D01*
G01X6128802Y5239014D01*
G01X6111784Y5233172D01*
G01X6088924Y5233172D01*
G01X6071652Y5239014D01*
G01X6066064Y5244602D01*
G01X6060222Y5256032D01*
G01X6060222Y5273304D01*
G01X6066064Y5284734D01*
G01X6077494Y5296164D01*
G01X6094512Y5301752D01*
G01X6117372Y5307594D01*
G01X6128802Y5313182D01*
G01X6134644Y5324612D01*
G01X6134644Y5336042D01*
G01X6128802Y5347472D01*
G01X6111784Y5353314D01*
G01X6088924Y5353314D01*
G01X6193826Y5261874D02*
G01X6187984Y5256032D01*
G01X6193826Y5250444D01*
G01X6199414Y5256032D01*
G01X6193826Y5261874D01*
G01X6247166Y5330454D02*
G01X6258596Y5336042D01*
G01X6275868Y5353314D01*
G01X6275868Y5233172D01*
G01X6323620Y5313182D02*
G01X6323620Y5233172D01*
G01X6323620Y5290322D02*
G01X6340892Y5307594D01*
G01X6352322Y5313182D01*
G01X6369340Y5313182D01*
G01X6380770Y5307594D01*
G01X6386612Y5290322D01*
G01X6386612Y5233172D01*
G01X6386612Y5290322D02*
G01X6403630Y5307594D01*
G01X6415060Y5313182D01*
G01X6432332Y5313182D01*
G01X6443762Y5307594D01*
G01X6449350Y5290322D01*
G01X6449350Y5233172D01*
G01X6497102Y5353314D02*
G01X6502944Y5347472D01*
G01X6508532Y5353314D01*
G01X6502944Y5358902D01*
G01X6497102Y5353314D01*
G01X6502944Y5313182D02*
G01X6502944Y5233172D01*
G01X6556284Y5353314D02*
G01X6556284Y5233172D01*
G01X6644168Y5376174D02*
G01X6632738Y5364744D01*
G01X6621308Y5347472D01*
G01X6609878Y5324612D01*
G01X6604036Y5296164D01*
G01X6604036Y5273304D01*
G01X6609878Y5244602D01*
G01X6621308Y5221742D01*
G01X6632738Y5204724D01*
G01X6644168Y5193294D01*
G01X6703350Y5353314D02*
G01X6766342Y5353314D01*
G01X6732052Y5307594D01*
G01X6749070Y5307594D01*
G01X6760500Y5301752D01*
G01X6766342Y5296164D01*
G01X6771930Y5278892D01*
G01X6771930Y5267462D01*
G01X6766342Y5250444D01*
G01X6754912Y5239014D01*
G01X6737640Y5233172D01*
G01X6720622Y5233172D01*
G01X6703350Y5239014D01*
G01X6697762Y5244602D01*
G01X6691920Y5256032D01*
G01X6825524Y5261874D02*
G01X6819682Y5256032D01*
G01X6825524Y5250444D01*
G01X6831112Y5256032D01*
G01X6825524Y5261874D01*
G01X6913154Y5353314D02*
G01X6896136Y5347472D01*
G01X6884706Y5330454D01*
G01X6878864Y5301752D01*
G01X6878864Y5284734D01*
G01X6884706Y5256032D01*
G01X6896136Y5239014D01*
G01X6913154Y5233172D01*
G01X6924584Y5233172D01*
G01X6941856Y5239014D01*
G01X6953286Y5256032D01*
G01X6958874Y5284734D01*
G01X6958874Y5301752D01*
G01X6953286Y5330454D01*
G01X6941856Y5347472D01*
G01X6924584Y5353314D01*
G01X6913154Y5353314D01*
G01X7040916Y5353314D02*
G01X7023898Y5347472D01*
G01X7012468Y5330454D01*
G01X7006626Y5301752D01*
G01X7006626Y5284734D01*
G01X7012468Y5256032D01*
G01X7023898Y5239014D01*
G01X7040916Y5233172D01*
G01X7052346Y5233172D01*
G01X7069618Y5239014D01*
G01X7081048Y5256032D01*
G01X7086636Y5284734D01*
G01X7086636Y5301752D01*
G01X7081048Y5330454D01*
G01X7069618Y5347472D01*
G01X7052346Y5353314D01*
G01X7040916Y5353314D01*
G01X7168678Y5353314D02*
G01X7151660Y5347472D01*
G01X7140230Y5330454D01*
G01X7134388Y5301752D01*
G01X7134388Y5284734D01*
G01X7140230Y5256032D01*
G01X7151660Y5239014D01*
G01X7168678Y5233172D01*
G01X7180108Y5233172D01*
G01X7197380Y5239014D01*
G01X7208810Y5256032D01*
G01X7214398Y5284734D01*
G01X7214398Y5301752D01*
G01X7208810Y5330454D01*
G01X7197380Y5347472D01*
G01X7180108Y5353314D01*
G01X7168678Y5353314D01*
G01X7262150Y5313182D02*
G01X7325142Y5233172D01*
G01X7325142Y5313182D02*
G01X7262150Y5233172D01*
G01X7384324Y5353314D02*
G01X7447316Y5353314D01*
G01X7413026Y5307594D01*
G01X7430044Y5307594D01*
G01X7441474Y5301752D01*
G01X7447316Y5296164D01*
G01X7452904Y5278892D01*
G01X7452904Y5267462D01*
G01X7447316Y5250444D01*
G01X7435886Y5239014D01*
G01X7418614Y5233172D01*
G01X7401596Y5233172D01*
G01X7384324Y5239014D01*
G01X7378736Y5244602D01*
G01X7372894Y5256032D01*
G01X7506498Y5261874D02*
G01X7500656Y5256032D01*
G01X7506498Y5250444D01*
G01X7512086Y5256032D01*
G01X7506498Y5261874D01*
G01X7594128Y5353314D02*
G01X7577110Y5347472D01*
G01X7565680Y5330454D01*
G01X7559838Y5301752D01*
G01X7559838Y5284734D01*
G01X7565680Y5256032D01*
G01X7577110Y5239014D01*
G01X7594128Y5233172D01*
G01X7605558Y5233172D01*
G01X7622830Y5239014D01*
G01X7634260Y5256032D01*
G01X7639848Y5284734D01*
G01X7639848Y5301752D01*
G01X7634260Y5330454D01*
G01X7622830Y5347472D01*
G01X7605558Y5353314D01*
G01X7594128Y5353314D01*
G01X7721890Y5353314D02*
G01X7704872Y5347472D01*
G01X7693442Y5330454D01*
G01X7687600Y5301752D01*
G01X7687600Y5284734D01*
G01X7693442Y5256032D01*
G01X7704872Y5239014D01*
G01X7721890Y5233172D01*
G01X7733320Y5233172D01*
G01X7750592Y5239014D01*
G01X7762022Y5256032D01*
G01X7767610Y5284734D01*
G01X7767610Y5301752D01*
G01X7762022Y5330454D01*
G01X7750592Y5347472D01*
G01X7733320Y5353314D01*
G01X7721890Y5353314D01*
G01X7849652Y5353314D02*
G01X7832634Y5347472D01*
G01X7821204Y5330454D01*
G01X7815362Y5301752D01*
G01X7815362Y5284734D01*
G01X7821204Y5256032D01*
G01X7832634Y5239014D01*
G01X7849652Y5233172D01*
G01X7861082Y5233172D01*
G01X7878354Y5239014D01*
G01X7889784Y5256032D01*
G01X7895372Y5284734D01*
G01X7895372Y5301752D01*
G01X7889784Y5330454D01*
G01X7878354Y5347472D01*
G01X7861082Y5353314D01*
G01X7849652Y5353314D01*
G01X7943124Y5313182D02*
G01X7943124Y5233172D01*
G01X7943124Y5290322D02*
G01X7960396Y5307594D01*
G01X7971826Y5313182D01*
G01X7988844Y5313182D01*
G01X8000274Y5307594D01*
G01X8006116Y5290322D01*
G01X8006116Y5233172D01*
G01X8006116Y5290322D02*
G01X8023134Y5307594D01*
G01X8034564Y5313182D01*
G01X8051836Y5313182D01*
G01X8063266Y5307594D01*
G01X8068854Y5290322D01*
G01X8068854Y5233172D01*
G01X8116606Y5313182D02*
G01X8116606Y5233172D01*
G01X8116606Y5290322D02*
G01X8133878Y5307594D01*
G01X8145308Y5313182D01*
G01X8162326Y5313182D01*
G01X8173756Y5307594D01*
G01X8179598Y5290322D01*
G01X8179598Y5233172D01*
G01X8179598Y5290322D02*
G01X8196616Y5307594D01*
G01X8208046Y5313182D01*
G01X8225318Y5313182D01*
G01X8236748Y5307594D01*
G01X8242336Y5290322D01*
G01X8242336Y5233172D01*
G01X8290088Y5376174D02*
G01X8301518Y5364744D01*
G01X8312948Y5347472D01*
G01X8324378Y5324612D01*
G01X8330220Y5296164D01*
G01X8330220Y5273304D01*
G01X8324378Y5244602D01*
G01X8312948Y5221742D01*
G01X8301518Y5204724D01*
G01X8290088Y5193294D01*
G01X9324521Y5353314D02*
G01X9324521Y5233172D01*
G01X9324521Y5353314D02*
G01X9376083Y5353314D01*
G01X9393101Y5347472D01*
G01X9398943Y5341884D01*
G01X9404531Y5330454D01*
G01X9404531Y5313182D01*
G01X9398943Y5301752D01*
G01X9393101Y5296164D01*
G01X9376083Y5290322D01*
G01X9324521Y5290322D01*
G01X9492415Y5353314D02*
G01X9492415Y5233172D01*
G01X9452283Y5353314D02*
G01X9532293Y5353314D01*
G01X9580045Y5353314D02*
G01X9580045Y5233172D01*
G01X9660055Y5353314D02*
G01X9660055Y5233172D01*
G01X9580045Y5296164D02*
G01X9660055Y5296164D01*
G01X10785929Y5353314D02*
G01X10785929Y5233172D01*
G01X10785929Y5353314D02*
G01X10837491Y5353314D01*
G01X10854509Y5347472D01*
G01X10860351Y5341884D01*
G01X10865939Y5330454D01*
G01X10865939Y5319024D01*
G01X10860351Y5307594D01*
G01X10854509Y5301752D01*
G01X10837491Y5296164D01*
G01X10785929Y5296164D01*
G01X10826061Y5296164D02*
G01X10865939Y5233172D01*
G01X10942393Y5313182D02*
G01X10930963Y5307594D01*
G01X10919533Y5296164D01*
G01X10913691Y5278892D01*
G01X10913691Y5267462D01*
G01X10919533Y5250444D01*
G01X10930963Y5239014D01*
G01X10942393Y5233172D01*
G01X10959411Y5233172D01*
G01X10970841Y5239014D01*
G01X10982271Y5250444D01*
G01X10988113Y5267462D01*
G01X10988113Y5278892D01*
G01X10982271Y5296164D01*
G01X10970841Y5307594D01*
G01X10959411Y5313182D01*
G01X10942393Y5313182D01*
G01X11035865Y5313182D02*
G01X11035865Y5256032D01*
G01X11041707Y5239014D01*
G01X11053137Y5233172D01*
G01X11070155Y5233172D01*
G01X11081585Y5239014D01*
G01X11098857Y5256032D01*
G01X11098857Y5313182D02*
G01X11098857Y5233172D01*
G01X11146609Y5313182D02*
G01X11146609Y5233172D01*
G01X11146609Y5290322D02*
G01X11163881Y5307594D01*
G01X11175311Y5313182D01*
G01X11192329Y5313182D01*
G01X11203759Y5307594D01*
G01X11209601Y5290322D01*
G01X11209601Y5233172D01*
G01X11325933Y5353314D02*
G01X11325933Y5233172D01*
G01X11325933Y5296164D02*
G01X11314503Y5307594D01*
G01X11303073Y5313182D01*
G01X11286055Y5313182D01*
G01X11274625Y5307594D01*
G01X11263195Y5296164D01*
G01X11257353Y5278892D01*
G01X11257353Y5267462D01*
G01X11263195Y5250444D01*
G01X11274625Y5239014D01*
G01X11286055Y5233172D01*
G01X11303073Y5233172D01*
G01X11314503Y5239014D01*
G01X11325933Y5250444D01*
G01X12217110Y5353314D02*
G01X12217110Y5233172D01*
G01X12217110Y5353314D02*
G01X12268672Y5353314D01*
G01X12285690Y5347472D01*
G01X12291532Y5341884D01*
G01X12297120Y5330454D01*
G01X12297120Y5313182D01*
G01X12291532Y5301752D01*
G01X12285690Y5296164D01*
G01X12268672Y5290322D01*
G01X12217110Y5290322D01*
G01X12413452Y5313182D02*
G01X12413452Y5233172D01*
G01X12413452Y5296164D02*
G01X12402022Y5307594D01*
G01X12390592Y5313182D01*
G01X12373574Y5313182D01*
G01X12362144Y5307594D01*
G01X12350714Y5296164D01*
G01X12344872Y5278892D01*
G01X12344872Y5267462D01*
G01X12350714Y5250444D01*
G01X12362144Y5239014D01*
G01X12373574Y5233172D01*
G01X12390592Y5233172D01*
G01X12402022Y5239014D01*
G01X12413452Y5250444D01*
G01X12529784Y5353314D02*
G01X12529784Y5233172D01*
G01X12529784Y5296164D02*
G01X12518354Y5307594D01*
G01X12506924Y5313182D01*
G01X12489906Y5313182D01*
G01X12478476Y5307594D01*
G01X12467046Y5296164D01*
G01X12461204Y5278892D01*
G01X12461204Y5267462D01*
G01X12467046Y5250444D01*
G01X12478476Y5239014D01*
G01X12489906Y5233172D01*
G01X12506924Y5233172D01*
G01X12518354Y5239014D01*
G01X12529784Y5250444D01*
G01X13886289Y5353314D02*
G01X13886289Y5233172D01*
G01X13886289Y5353314D02*
G01X13937851Y5353314D01*
G01X13954869Y5347472D01*
G01X13960711Y5341884D01*
G01X13966299Y5330454D01*
G01X13966299Y5319024D01*
G01X13960711Y5307594D01*
G01X13954869Y5301752D01*
G01X13937851Y5296164D01*
G01X13886289Y5296164D01*
G01X13926421Y5296164D02*
G01X13966299Y5233172D01*
G01X14042753Y5313182D02*
G01X14031323Y5307594D01*
G01X14019893Y5296164D01*
G01X14014051Y5278892D01*
G01X14014051Y5267462D01*
G01X14019893Y5250444D01*
G01X14031323Y5239014D01*
G01X14042753Y5233172D01*
G01X14059771Y5233172D01*
G01X14071201Y5239014D01*
G01X14082631Y5250444D01*
G01X14088473Y5267462D01*
G01X14088473Y5278892D01*
G01X14082631Y5296164D01*
G01X14071201Y5307594D01*
G01X14059771Y5313182D01*
G01X14042753Y5313182D01*
G01X14136225Y5313182D02*
G01X14136225Y5256032D01*
G01X14142067Y5239014D01*
G01X14153497Y5233172D01*
G01X14170515Y5233172D01*
G01X14181945Y5239014D01*
G01X14199217Y5256032D01*
G01X14199217Y5313182D02*
G01X14199217Y5233172D01*
G01X14246969Y5313182D02*
G01X14246969Y5233172D01*
G01X14246969Y5290322D02*
G01X14264241Y5307594D01*
G01X14275671Y5313182D01*
G01X14292689Y5313182D01*
G01X14304119Y5307594D01*
G01X14309961Y5290322D01*
G01X14309961Y5233172D01*
G01X14426293Y5353314D02*
G01X14426293Y5233172D01*
G01X14426293Y5296164D02*
G01X14414863Y5307594D01*
G01X14403433Y5313182D01*
G01X14386415Y5313182D01*
G01X14374985Y5307594D01*
G01X14363555Y5296164D01*
G01X14357713Y5278892D01*
G01X14357713Y5267462D01*
G01X14363555Y5250444D01*
G01X14374985Y5239014D01*
G01X14386415Y5233172D01*
G01X14403433Y5233172D01*
G01X14414863Y5239014D01*
G01X14426293Y5250444D01*
G01X15845790Y5353314D02*
G01X15845790Y5233172D01*
G01X15805658Y5353314D02*
G01X15885668Y5353314D01*
G01X15962122Y5313182D02*
G01X15950692Y5307594D01*
G01X15939262Y5296164D01*
G01X15933420Y5278892D01*
G01X15933420Y5267462D01*
G01X15939262Y5250444D01*
G01X15950692Y5239014D01*
G01X15962122Y5233172D01*
G01X15979140Y5233172D01*
G01X15990570Y5239014D01*
G01X16002000Y5250444D01*
G01X16007842Y5267462D01*
G01X16007842Y5278892D01*
G01X16002000Y5296164D01*
G01X15990570Y5307594D01*
G01X15979140Y5313182D01*
G01X15962122Y5313182D01*
G01X16055594Y5313182D02*
G01X16055594Y5193294D01*
G01X16055594Y5296164D02*
G01X16067024Y5307594D01*
G01X16078454Y5313182D01*
G01X16095726Y5313182D01*
G01X16107156Y5307594D01*
G01X16118586Y5296164D01*
G01X16124174Y5278892D01*
G01X16124174Y5267462D01*
G01X16118586Y5250444D01*
G01X16107156Y5239014D01*
G01X16095726Y5233172D01*
G01X16078454Y5233172D01*
G01X16067024Y5239014D01*
G01X16055594Y5250444D01*
G01X16299942Y5353314D02*
G01X16299942Y5233172D01*
G01X16299942Y5233172D02*
G01X16368522Y5233172D01*
G01X16484854Y5313182D02*
G01X16484854Y5233172D01*
G01X16484854Y5296164D02*
G01X16473424Y5307594D01*
G01X16461994Y5313182D01*
G01X16444976Y5313182D01*
G01X16433546Y5307594D01*
G01X16422116Y5296164D01*
G01X16416274Y5278892D01*
G01X16416274Y5267462D01*
G01X16422116Y5250444D01*
G01X16433546Y5239014D01*
G01X16444976Y5233172D01*
G01X16461994Y5233172D01*
G01X16473424Y5239014D01*
G01X16484854Y5250444D01*
G01X16538448Y5313182D02*
G01X16572738Y5233172D01*
G01X16607028Y5313182D02*
G01X16572738Y5233172D01*
G01X16561308Y5210312D01*
G01X16549878Y5198882D01*
G01X16538448Y5193294D01*
G01X16532606Y5193294D01*
G01X16654780Y5278892D02*
G01X16723360Y5278892D01*
G01X16723360Y5290322D01*
G01X16717772Y5301752D01*
G01X16711930Y5307594D01*
G01X16700500Y5313182D01*
G01X16683482Y5313182D01*
G01X16672052Y5307594D01*
G01X16660622Y5296164D01*
G01X16654780Y5278892D01*
G01X16654780Y5267462D01*
G01X16660622Y5250444D01*
G01X16672052Y5239014D01*
G01X16683482Y5233172D01*
G01X16700500Y5233172D01*
G01X16711930Y5239014D01*
G01X16723360Y5250444D01*
G01X16771112Y5313182D02*
G01X16771112Y5233172D01*
G01X16771112Y5278892D02*
G01X16776954Y5296164D01*
G01X16788384Y5307594D01*
G01X16799814Y5313182D01*
G01X16816832Y5313182D01*
G01X16864584Y5284734D02*
G01X16967454Y5284734D01*
G01X17015206Y5353314D02*
G01X17015206Y5233172D01*
G01X17015206Y5353314D02*
G01X17066768Y5353314D01*
G01X17083786Y5347472D01*
G01X17089628Y5341884D01*
G01X17095216Y5330454D01*
G01X17095216Y5319024D01*
G01X17089628Y5307594D01*
G01X17083786Y5301752D01*
G01X17066768Y5296164D01*
G01X17015206Y5296164D02*
G01X17066768Y5296164D01*
G01X17083786Y5290322D01*
G01X17089628Y5284734D01*
G01X17095216Y5273304D01*
G01X17095216Y5256032D01*
G01X17089628Y5244602D01*
G01X17083786Y5239014D01*
G01X17066768Y5233172D01*
G01X17015206Y5233172D01*
G01X17171670Y5313182D02*
G01X17160240Y5307594D01*
G01X17148810Y5296164D01*
G01X17142968Y5278892D01*
G01X17142968Y5267462D01*
G01X17148810Y5250444D01*
G01X17160240Y5239014D01*
G01X17171670Y5233172D01*
G01X17188688Y5233172D01*
G01X17200118Y5239014D01*
G01X17211548Y5250444D01*
G01X17217390Y5267462D01*
G01X17217390Y5278892D01*
G01X17211548Y5296164D01*
G01X17200118Y5307594D01*
G01X17188688Y5313182D01*
G01X17171670Y5313182D01*
G01X17282414Y5353314D02*
G01X17282414Y5256032D01*
G01X17288002Y5239014D01*
G01X17299432Y5233172D01*
G01X17310862Y5233172D01*
G01X17265142Y5313182D02*
G01X17305274Y5313182D01*
G01X17375886Y5353314D02*
G01X17375886Y5256032D01*
G01X17381474Y5239014D01*
G01X17392904Y5233172D01*
G01X17404334Y5233172D01*
G01X17358614Y5313182D02*
G01X17398746Y5313182D01*
G01X17480788Y5313182D02*
G01X17469358Y5307594D01*
G01X17457928Y5296164D01*
G01X17452086Y5278892D01*
G01X17452086Y5267462D01*
G01X17457928Y5250444D01*
G01X17469358Y5239014D01*
G01X17480788Y5233172D01*
G01X17497806Y5233172D01*
G01X17509236Y5239014D01*
G01X17520666Y5250444D01*
G01X17526508Y5267462D01*
G01X17526508Y5278892D01*
G01X17520666Y5296164D01*
G01X17509236Y5307594D01*
G01X17497806Y5313182D01*
G01X17480788Y5313182D01*
G01X17574260Y5313182D02*
G01X17574260Y5233172D01*
G01X17574260Y5290322D02*
G01X17591532Y5307594D01*
G01X17602962Y5313182D01*
G01X17619980Y5313182D01*
G01X17631410Y5307594D01*
G01X17637252Y5290322D01*
G01X17637252Y5233172D01*
G01X17637252Y5290322D02*
G01X17654270Y5307594D01*
G01X17665700Y5313182D01*
G01X17682972Y5313182D01*
G01X17694402Y5307594D01*
G01X17699990Y5290322D01*
G01X17699990Y5233172D01*
G01X17875758Y5353314D02*
G01X17875758Y5233172D01*
G01X17875758Y5233172D02*
G01X17944338Y5233172D01*
G01X18060670Y5313182D02*
G01X18060670Y5233172D01*
G01X18060670Y5296164D02*
G01X18049240Y5307594D01*
G01X18037810Y5313182D01*
G01X18020792Y5313182D01*
G01X18009362Y5307594D01*
G01X17997932Y5296164D01*
G01X17992090Y5278892D01*
G01X17992090Y5267462D01*
G01X17997932Y5250444D01*
G01X18009362Y5239014D01*
G01X18020792Y5233172D01*
G01X18037810Y5233172D01*
G01X18049240Y5239014D01*
G01X18060670Y5250444D01*
G01X18114264Y5313182D02*
G01X18148554Y5233172D01*
G01X18182844Y5313182D02*
G01X18148554Y5233172D01*
G01X18137124Y5210312D01*
G01X18125694Y5198882D01*
G01X18114264Y5193294D01*
G01X18108422Y5193294D01*
G01X18230596Y5278892D02*
G01X18299176Y5278892D01*
G01X18299176Y5290322D01*
G01X18293588Y5301752D01*
G01X18287746Y5307594D01*
G01X18276316Y5313182D01*
G01X18259298Y5313182D01*
G01X18247868Y5307594D01*
G01X18236438Y5296164D01*
G01X18230596Y5278892D01*
G01X18230596Y5267462D01*
G01X18236438Y5250444D01*
G01X18247868Y5239014D01*
G01X18259298Y5233172D01*
G01X18276316Y5233172D01*
G01X18287746Y5239014D01*
G01X18299176Y5250444D01*
G01X18346928Y5313182D02*
G01X18346928Y5233172D01*
G01X18346928Y5278892D02*
G01X18352770Y5296164D01*
G01X18364200Y5307594D01*
G01X18375630Y5313182D01*
G01X18392648Y5313182D01*
G01X4023251Y4772743D02*
G01X3966101Y4692733D01*
G01X4051953Y4692733D01*
G01X4023251Y4772743D02*
G01X4023251Y4652601D01*
G01X5386106Y4744041D02*
G01X5386106Y4749883D01*
G01X5391694Y4761313D01*
G01X5397536Y4766901D01*
G01X5408966Y4772743D01*
G01X5431826Y4772743D01*
G01X5443256Y4766901D01*
G01X5448844Y4761313D01*
G01X5454686Y4749883D01*
G01X5454686Y4738453D01*
G01X5448844Y4727023D01*
G01X5437414Y4709751D01*
G01X5380264Y4652601D01*
G01X5460274Y4652601D01*
G01X5519456Y4772743D02*
G01X5582448Y4772743D01*
G01X5548158Y4727023D01*
G01X5565176Y4727023D01*
G01X5576606Y4721181D01*
G01X5582448Y4715593D01*
G01X5588036Y4698321D01*
G01X5588036Y4686891D01*
G01X5582448Y4669873D01*
G01X5571018Y4658443D01*
G01X5553746Y4652601D01*
G01X5536728Y4652601D01*
G01X5519456Y4658443D01*
G01X5513868Y4664031D01*
G01X5508026Y4675461D01*
G01X5641630Y4681303D02*
G01X5635788Y4675461D01*
G01X5641630Y4669873D01*
G01X5647218Y4675461D01*
G01X5641630Y4681303D01*
G01X5763550Y4755471D02*
G01X5757962Y4766901D01*
G01X5740690Y4772743D01*
G01X5729260Y4772743D01*
G01X5712242Y4766901D01*
G01X5700812Y4749883D01*
G01X5694970Y4721181D01*
G01X5694970Y4692733D01*
G01X5700812Y4669873D01*
G01X5712242Y4658443D01*
G01X5729260Y4652601D01*
G01X5735102Y4652601D01*
G01X5752120Y4658443D01*
G01X5763550Y4669873D01*
G01X5769392Y4686891D01*
G01X5769392Y4692733D01*
G01X5763550Y4709751D01*
G01X5752120Y4721181D01*
G01X5735102Y4727023D01*
G01X5729260Y4727023D01*
G01X5712242Y4721181D01*
G01X5700812Y4709751D01*
G01X5694970Y4692733D01*
G01X5817144Y4732611D02*
G01X5880136Y4652601D01*
G01X5880136Y4732611D02*
G01X5817144Y4652601D01*
G01X5996468Y4755471D02*
G01X5990880Y4766901D01*
G01X5973608Y4772743D01*
G01X5962178Y4772743D01*
G01X5945160Y4766901D01*
G01X5933730Y4749883D01*
G01X5927888Y4721181D01*
G01X5927888Y4692733D01*
G01X5933730Y4669873D01*
G01X5945160Y4658443D01*
G01X5962178Y4652601D01*
G01X5968020Y4652601D01*
G01X5985038Y4658443D01*
G01X5996468Y4669873D01*
G01X6002310Y4686891D01*
G01X6002310Y4692733D01*
G01X5996468Y4709751D01*
G01X5985038Y4721181D01*
G01X5968020Y4727023D01*
G01X5962178Y4727023D01*
G01X5945160Y4721181D01*
G01X5933730Y4709751D01*
G01X5927888Y4692733D01*
G01X6061492Y4772743D02*
G01X6124484Y4772743D01*
G01X6090194Y4727023D01*
G01X6107212Y4727023D01*
G01X6118642Y4721181D01*
G01X6124484Y4715593D01*
G01X6130072Y4698321D01*
G01X6130072Y4686891D01*
G01X6124484Y4669873D01*
G01X6113054Y4658443D01*
G01X6095782Y4652601D01*
G01X6078764Y4652601D01*
G01X6061492Y4658443D01*
G01X6055904Y4664031D01*
G01X6050062Y4675461D01*
G01X6183666Y4681303D02*
G01X6177824Y4675461D01*
G01X6183666Y4669873D01*
G01X6189254Y4675461D01*
G01X6183666Y4681303D01*
G01X6271296Y4772743D02*
G01X6254278Y4766901D01*
G01X6242848Y4749883D01*
G01X6237006Y4721181D01*
G01X6237006Y4704163D01*
G01X6242848Y4675461D01*
G01X6254278Y4658443D01*
G01X6271296Y4652601D01*
G01X6282726Y4652601D01*
G01X6299998Y4658443D01*
G01X6311428Y4675461D01*
G01X6317016Y4704163D01*
G01X6317016Y4721181D01*
G01X6311428Y4749883D01*
G01X6299998Y4766901D01*
G01X6282726Y4772743D01*
G01X6271296Y4772743D01*
G01X6364768Y4732611D02*
G01X6364768Y4652601D01*
G01X6364768Y4709751D02*
G01X6382040Y4727023D01*
G01X6393470Y4732611D01*
G01X6410488Y4732611D01*
G01X6421918Y4727023D01*
G01X6427760Y4709751D01*
G01X6427760Y4652601D01*
G01X6427760Y4709751D02*
G01X6444778Y4727023D01*
G01X6456208Y4732611D01*
G01X6473480Y4732611D01*
G01X6484910Y4727023D01*
G01X6490498Y4709751D01*
G01X6490498Y4652601D01*
G01X6538250Y4772743D02*
G01X6544092Y4766901D01*
G01X6549680Y4772743D01*
G01X6544092Y4778331D01*
G01X6538250Y4772743D01*
G01X6544092Y4732611D02*
G01X6544092Y4652601D01*
G01X6597432Y4772743D02*
G01X6597432Y4652601D01*
G01X6685316Y4795603D02*
G01X6673886Y4784173D01*
G01X6662456Y4766901D01*
G01X6651026Y4744041D01*
G01X6645184Y4715593D01*
G01X6645184Y4692733D01*
G01X6651026Y4664031D01*
G01X6662456Y4641171D01*
G01X6673886Y4624153D01*
G01X6685316Y4612723D01*
G01X6767358Y4772743D02*
G01X6750340Y4766901D01*
G01X6738910Y4749883D01*
G01X6733068Y4721181D01*
G01X6733068Y4704163D01*
G01X6738910Y4675461D01*
G01X6750340Y4658443D01*
G01X6767358Y4652601D01*
G01X6778788Y4652601D01*
G01X6796060Y4658443D01*
G01X6807490Y4675461D01*
G01X6813078Y4704163D01*
G01X6813078Y4721181D01*
G01X6807490Y4749883D01*
G01X6796060Y4766901D01*
G01X6778788Y4772743D01*
G01X6767358Y4772743D01*
G01X6866672Y4681303D02*
G01X6860830Y4675461D01*
G01X6866672Y4669873D01*
G01X6872260Y4675461D01*
G01X6866672Y4681303D01*
G01X6988592Y4755471D02*
G01X6983004Y4766901D01*
G01X6965732Y4772743D01*
G01X6954302Y4772743D01*
G01X6937284Y4766901D01*
G01X6925854Y4749883D01*
G01X6920012Y4721181D01*
G01X6920012Y4692733D01*
G01X6925854Y4669873D01*
G01X6937284Y4658443D01*
G01X6954302Y4652601D01*
G01X6960144Y4652601D01*
G01X6977162Y4658443D01*
G01X6988592Y4669873D01*
G01X6994434Y4686891D01*
G01X6994434Y4692733D01*
G01X6988592Y4709751D01*
G01X6977162Y4721181D01*
G01X6960144Y4727023D01*
G01X6954302Y4727023D01*
G01X6937284Y4721181D01*
G01X6925854Y4709751D01*
G01X6920012Y4692733D01*
G01X7076476Y4772743D02*
G01X7059458Y4766901D01*
G01X7048028Y4749883D01*
G01X7042186Y4721181D01*
G01X7042186Y4704163D01*
G01X7048028Y4675461D01*
G01X7059458Y4658443D01*
G01X7076476Y4652601D01*
G01X7087906Y4652601D01*
G01X7105178Y4658443D01*
G01X7116608Y4675461D01*
G01X7122196Y4704163D01*
G01X7122196Y4721181D01*
G01X7116608Y4749883D01*
G01X7105178Y4766901D01*
G01X7087906Y4772743D01*
G01X7076476Y4772743D01*
G01X7204238Y4772743D02*
G01X7187220Y4766901D01*
G01X7175790Y4749883D01*
G01X7169948Y4721181D01*
G01X7169948Y4704163D01*
G01X7175790Y4675461D01*
G01X7187220Y4658443D01*
G01X7204238Y4652601D01*
G01X7215668Y4652601D01*
G01X7232940Y4658443D01*
G01X7244370Y4675461D01*
G01X7249958Y4704163D01*
G01X7249958Y4721181D01*
G01X7244370Y4749883D01*
G01X7232940Y4766901D01*
G01X7215668Y4772743D01*
G01X7204238Y4772743D01*
G01X7297710Y4732611D02*
G01X7360702Y4652601D01*
G01X7360702Y4732611D02*
G01X7297710Y4652601D01*
G01X7408454Y4749883D02*
G01X7419884Y4755471D01*
G01X7437156Y4772743D01*
G01X7437156Y4652601D01*
G01X7490750Y4681303D02*
G01X7484908Y4675461D01*
G01X7490750Y4669873D01*
G01X7496338Y4675461D01*
G01X7490750Y4681303D01*
G01X7612670Y4755471D02*
G01X7607082Y4766901D01*
G01X7589810Y4772743D01*
G01X7578380Y4772743D01*
G01X7561362Y4766901D01*
G01X7549932Y4749883D01*
G01X7544090Y4721181D01*
G01X7544090Y4692733D01*
G01X7549932Y4669873D01*
G01X7561362Y4658443D01*
G01X7578380Y4652601D01*
G01X7584222Y4652601D01*
G01X7601240Y4658443D01*
G01X7612670Y4669873D01*
G01X7618512Y4686891D01*
G01X7618512Y4692733D01*
G01X7612670Y4709751D01*
G01X7601240Y4721181D01*
G01X7584222Y4727023D01*
G01X7578380Y4727023D01*
G01X7561362Y4721181D01*
G01X7549932Y4709751D01*
G01X7544090Y4692733D01*
G01X7700554Y4772743D02*
G01X7683536Y4766901D01*
G01X7672106Y4749883D01*
G01X7666264Y4721181D01*
G01X7666264Y4704163D01*
G01X7672106Y4675461D01*
G01X7683536Y4658443D01*
G01X7700554Y4652601D01*
G01X7711984Y4652601D01*
G01X7729256Y4658443D01*
G01X7740686Y4675461D01*
G01X7746274Y4704163D01*
G01X7746274Y4721181D01*
G01X7740686Y4749883D01*
G01X7729256Y4766901D01*
G01X7711984Y4772743D01*
G01X7700554Y4772743D01*
G01X7828316Y4772743D02*
G01X7811298Y4766901D01*
G01X7799868Y4749883D01*
G01X7794026Y4721181D01*
G01X7794026Y4704163D01*
G01X7799868Y4675461D01*
G01X7811298Y4658443D01*
G01X7828316Y4652601D01*
G01X7839746Y4652601D01*
G01X7857018Y4658443D01*
G01X7868448Y4675461D01*
G01X7874036Y4704163D01*
G01X7874036Y4721181D01*
G01X7868448Y4749883D01*
G01X7857018Y4766901D01*
G01X7839746Y4772743D01*
G01X7828316Y4772743D01*
G01X7921788Y4732611D02*
G01X7921788Y4652601D01*
G01X7921788Y4709751D02*
G01X7939060Y4727023D01*
G01X7950490Y4732611D01*
G01X7967508Y4732611D01*
G01X7978938Y4727023D01*
G01X7984780Y4709751D01*
G01X7984780Y4652601D01*
G01X7984780Y4709751D02*
G01X8001798Y4727023D01*
G01X8013228Y4732611D01*
G01X8030500Y4732611D01*
G01X8041930Y4727023D01*
G01X8047518Y4709751D01*
G01X8047518Y4652601D01*
G01X8095270Y4732611D02*
G01X8095270Y4652601D01*
G01X8095270Y4709751D02*
G01X8112542Y4727023D01*
G01X8123972Y4732611D01*
G01X8140990Y4732611D01*
G01X8152420Y4727023D01*
G01X8158262Y4709751D01*
G01X8158262Y4652601D01*
G01X8158262Y4709751D02*
G01X8175280Y4727023D01*
G01X8186710Y4732611D01*
G01X8203982Y4732611D01*
G01X8215412Y4727023D01*
G01X8221000Y4709751D01*
G01X8221000Y4652601D01*
G01X8268752Y4795603D02*
G01X8280182Y4784173D01*
G01X8291612Y4766901D01*
G01X8303042Y4744041D01*
G01X8308884Y4715593D01*
G01X8308884Y4692733D01*
G01X8303042Y4664031D01*
G01X8291612Y4641171D01*
G01X8280182Y4624153D01*
G01X8268752Y4612723D01*
G01X9324521Y4772743D02*
G01X9324521Y4652601D01*
G01X9324521Y4772743D02*
G01X9376083Y4772743D01*
G01X9393101Y4766901D01*
G01X9398943Y4761313D01*
G01X9404531Y4749883D01*
G01X9404531Y4732611D01*
G01X9398943Y4721181D01*
G01X9393101Y4715593D01*
G01X9376083Y4709751D01*
G01X9324521Y4709751D01*
G01X9492415Y4772743D02*
G01X9492415Y4652601D01*
G01X9452283Y4772743D02*
G01X9532293Y4772743D01*
G01X9580045Y4772743D02*
G01X9580045Y4652601D01*
G01X9660055Y4772743D02*
G01X9660055Y4652601D01*
G01X9580045Y4715593D02*
G01X9660055Y4715593D01*
G01X10865939Y4755471D02*
G01X10854509Y4766901D01*
G01X10837491Y4772743D01*
G01X10814631Y4772743D01*
G01X10797359Y4766901D01*
G01X10785929Y4755471D01*
G01X10785929Y4744041D01*
G01X10791771Y4732611D01*
G01X10797359Y4727023D01*
G01X10808789Y4721181D01*
G01X10843079Y4709751D01*
G01X10854509Y4704163D01*
G01X10860351Y4698321D01*
G01X10865939Y4686891D01*
G01X10865939Y4669873D01*
G01X10854509Y4658443D01*
G01X10837491Y4652601D01*
G01X10814631Y4652601D01*
G01X10797359Y4658443D01*
G01X10785929Y4669873D01*
G01X10913691Y4772743D02*
G01X10913691Y4652601D01*
G01X10990145Y4732611D02*
G01X10978715Y4727023D01*
G01X10967285Y4715593D01*
G01X10961443Y4698321D01*
G01X10961443Y4686891D01*
G01X10967285Y4669873D01*
G01X10978715Y4658443D01*
G01X10990145Y4652601D01*
G01X11007163Y4652601D01*
G01X11018593Y4658443D01*
G01X11030023Y4669873D01*
G01X11035865Y4686891D01*
G01X11035865Y4698321D01*
G01X11030023Y4715593D01*
G01X11018593Y4727023D01*
G01X11007163Y4732611D01*
G01X10990145Y4732611D01*
G01X11100889Y4772743D02*
G01X11100889Y4675461D01*
G01X11106477Y4658443D01*
G01X11117907Y4652601D01*
G01X11129337Y4652601D01*
G01X11083617Y4732611D02*
G01X11123749Y4732611D01*
G01X12217110Y4772743D02*
G01X12217110Y4652601D01*
G01X12217110Y4772743D02*
G01X12268672Y4772743D01*
G01X12285690Y4766901D01*
G01X12291532Y4761313D01*
G01X12297120Y4749883D01*
G01X12297120Y4732611D01*
G01X12291532Y4721181D01*
G01X12285690Y4715593D01*
G01X12268672Y4709751D01*
G01X12217110Y4709751D01*
G01X12413452Y4732611D02*
G01X12413452Y4652601D01*
G01X12413452Y4715593D02*
G01X12402022Y4727023D01*
G01X12390592Y4732611D01*
G01X12373574Y4732611D01*
G01X12362144Y4727023D01*
G01X12350714Y4715593D01*
G01X12344872Y4698321D01*
G01X12344872Y4686891D01*
G01X12350714Y4669873D01*
G01X12362144Y4658443D01*
G01X12373574Y4652601D01*
G01X12390592Y4652601D01*
G01X12402022Y4658443D01*
G01X12413452Y4669873D01*
G01X12529784Y4772743D02*
G01X12529784Y4652601D01*
G01X12529784Y4715593D02*
G01X12518354Y4727023D01*
G01X12506924Y4732611D01*
G01X12489906Y4732611D01*
G01X12478476Y4727023D01*
G01X12467046Y4715593D01*
G01X12461204Y4698321D01*
G01X12461204Y4686891D01*
G01X12467046Y4669873D01*
G01X12478476Y4658443D01*
G01X12489906Y4652601D01*
G01X12506924Y4652601D01*
G01X12518354Y4658443D01*
G01X12529784Y4669873D01*
G01X13920579Y4772743D02*
G01X13909149Y4766901D01*
G01X13897719Y4755471D01*
G01X13892131Y4744041D01*
G01X13886289Y4727023D01*
G01X13886289Y4698321D01*
G01X13892131Y4681303D01*
G01X13897719Y4669873D01*
G01X13909149Y4658443D01*
G01X13920579Y4652601D01*
G01X13943439Y4652601D01*
G01X13954869Y4658443D01*
G01X13966299Y4669873D01*
G01X13972141Y4681303D01*
G01X13977729Y4698321D01*
G01X13977729Y4727023D01*
G01X13972141Y4744041D01*
G01X13966299Y4755471D01*
G01X13954869Y4766901D01*
G01X13943439Y4772743D01*
G01X13920579Y4772743D01*
G01X14025481Y4732611D02*
G01X14059771Y4652601D01*
G01X14094061Y4732611D02*
G01X14059771Y4652601D01*
G01X14210393Y4732611D02*
G01X14210393Y4652601D01*
G01X14210393Y4715593D02*
G01X14198963Y4727023D01*
G01X14187533Y4732611D01*
G01X14170515Y4732611D01*
G01X14159085Y4727023D01*
G01X14147655Y4715593D01*
G01X14141813Y4698321D01*
G01X14141813Y4686891D01*
G01X14147655Y4669873D01*
G01X14159085Y4658443D01*
G01X14170515Y4652601D01*
G01X14187533Y4652601D01*
G01X14198963Y4658443D01*
G01X14210393Y4669873D01*
G01X14258145Y4772743D02*
G01X14258145Y4652601D01*
G01X15845790Y4772743D02*
G01X15845790Y4652601D01*
G01X15805658Y4772743D02*
G01X15885668Y4772743D01*
G01X15962122Y4732611D02*
G01X15950692Y4727023D01*
G01X15939262Y4715593D01*
G01X15933420Y4698321D01*
G01X15933420Y4686891D01*
G01X15939262Y4669873D01*
G01X15950692Y4658443D01*
G01X15962122Y4652601D01*
G01X15979140Y4652601D01*
G01X15990570Y4658443D01*
G01X16002000Y4669873D01*
G01X16007842Y4686891D01*
G01X16007842Y4698321D01*
G01X16002000Y4715593D01*
G01X15990570Y4727023D01*
G01X15979140Y4732611D01*
G01X15962122Y4732611D01*
G01X16055594Y4732611D02*
G01X16055594Y4612723D01*
G01X16055594Y4715593D02*
G01X16067024Y4727023D01*
G01X16078454Y4732611D01*
G01X16095726Y4732611D01*
G01X16107156Y4727023D01*
G01X16118586Y4715593D01*
G01X16124174Y4698321D01*
G01X16124174Y4686891D01*
G01X16118586Y4669873D01*
G01X16107156Y4658443D01*
G01X16095726Y4652601D01*
G01X16078454Y4652601D01*
G01X16067024Y4658443D01*
G01X16055594Y4669873D01*
G01X16299942Y4772743D02*
G01X16299942Y4652601D01*
G01X16299942Y4652601D02*
G01X16368522Y4652601D01*
G01X16484854Y4732611D02*
G01X16484854Y4652601D01*
G01X16484854Y4715593D02*
G01X16473424Y4727023D01*
G01X16461994Y4732611D01*
G01X16444976Y4732611D01*
G01X16433546Y4727023D01*
G01X16422116Y4715593D01*
G01X16416274Y4698321D01*
G01X16416274Y4686891D01*
G01X16422116Y4669873D01*
G01X16433546Y4658443D01*
G01X16444976Y4652601D01*
G01X16461994Y4652601D01*
G01X16473424Y4658443D01*
G01X16484854Y4669873D01*
G01X16538448Y4732611D02*
G01X16572738Y4652601D01*
G01X16607028Y4732611D02*
G01X16572738Y4652601D01*
G01X16561308Y4629741D01*
G01X16549878Y4618311D01*
G01X16538448Y4612723D01*
G01X16532606Y4612723D01*
G01X16654780Y4698321D02*
G01X16723360Y4698321D01*
G01X16723360Y4709751D01*
G01X16717772Y4721181D01*
G01X16711930Y4727023D01*
G01X16700500Y4732611D01*
G01X16683482Y4732611D01*
G01X16672052Y4727023D01*
G01X16660622Y4715593D01*
G01X16654780Y4698321D01*
G01X16654780Y4686891D01*
G01X16660622Y4669873D01*
G01X16672052Y4658443D01*
G01X16683482Y4652601D01*
G01X16700500Y4652601D01*
G01X16711930Y4658443D01*
G01X16723360Y4669873D01*
G01X16771112Y4732611D02*
G01X16771112Y4652601D01*
G01X16771112Y4698321D02*
G01X16776954Y4715593D01*
G01X16788384Y4727023D01*
G01X16799814Y4732611D01*
G01X16816832Y4732611D01*
G01X16864584Y4704163D02*
G01X16967454Y4704163D01*
G01X17015206Y4772743D02*
G01X17015206Y4652601D01*
G01X17015206Y4772743D02*
G01X17066768Y4772743D01*
G01X17083786Y4766901D01*
G01X17089628Y4761313D01*
G01X17095216Y4749883D01*
G01X17095216Y4738453D01*
G01X17089628Y4727023D01*
G01X17083786Y4721181D01*
G01X17066768Y4715593D01*
G01X17015206Y4715593D02*
G01X17066768Y4715593D01*
G01X17083786Y4709751D01*
G01X17089628Y4704163D01*
G01X17095216Y4692733D01*
G01X17095216Y4675461D01*
G01X17089628Y4664031D01*
G01X17083786Y4658443D01*
G01X17066768Y4652601D01*
G01X17015206Y4652601D01*
G01X17171670Y4732611D02*
G01X17160240Y4727023D01*
G01X17148810Y4715593D01*
G01X17142968Y4698321D01*
G01X17142968Y4686891D01*
G01X17148810Y4669873D01*
G01X17160240Y4658443D01*
G01X17171670Y4652601D01*
G01X17188688Y4652601D01*
G01X17200118Y4658443D01*
G01X17211548Y4669873D01*
G01X17217390Y4686891D01*
G01X17217390Y4698321D01*
G01X17211548Y4715593D01*
G01X17200118Y4727023D01*
G01X17188688Y4732611D01*
G01X17171670Y4732611D01*
G01X17282414Y4772743D02*
G01X17282414Y4675461D01*
G01X17288002Y4658443D01*
G01X17299432Y4652601D01*
G01X17310862Y4652601D01*
G01X17265142Y4732611D02*
G01X17305274Y4732611D01*
G01X17375886Y4772743D02*
G01X17375886Y4675461D01*
G01X17381474Y4658443D01*
G01X17392904Y4652601D01*
G01X17404334Y4652601D01*
G01X17358614Y4732611D02*
G01X17398746Y4732611D01*
G01X17480788Y4732611D02*
G01X17469358Y4727023D01*
G01X17457928Y4715593D01*
G01X17452086Y4698321D01*
G01X17452086Y4686891D01*
G01X17457928Y4669873D01*
G01X17469358Y4658443D01*
G01X17480788Y4652601D01*
G01X17497806Y4652601D01*
G01X17509236Y4658443D01*
G01X17520666Y4669873D01*
G01X17526508Y4686891D01*
G01X17526508Y4698321D01*
G01X17520666Y4715593D01*
G01X17509236Y4727023D01*
G01X17497806Y4732611D01*
G01X17480788Y4732611D01*
G01X17574260Y4732611D02*
G01X17574260Y4652601D01*
G01X17574260Y4709751D02*
G01X17591532Y4727023D01*
G01X17602962Y4732611D01*
G01X17619980Y4732611D01*
G01X17631410Y4727023D01*
G01X17637252Y4709751D01*
G01X17637252Y4652601D01*
G01X17637252Y4709751D02*
G01X17654270Y4727023D01*
G01X17665700Y4732611D01*
G01X17682972Y4732611D01*
G01X17694402Y4727023D01*
G01X17699990Y4709751D01*
G01X17699990Y4652601D01*
G01X17875758Y4772743D02*
G01X17875758Y4652601D01*
G01X17875758Y4652601D02*
G01X17944338Y4652601D01*
G01X18060670Y4732611D02*
G01X18060670Y4652601D01*
G01X18060670Y4715593D02*
G01X18049240Y4727023D01*
G01X18037810Y4732611D01*
G01X18020792Y4732611D01*
G01X18009362Y4727023D01*
G01X17997932Y4715593D01*
G01X17992090Y4698321D01*
G01X17992090Y4686891D01*
G01X17997932Y4669873D01*
G01X18009362Y4658443D01*
G01X18020792Y4652601D01*
G01X18037810Y4652601D01*
G01X18049240Y4658443D01*
G01X18060670Y4669873D01*
G01X18114264Y4732611D02*
G01X18148554Y4652601D01*
G01X18182844Y4732611D02*
G01X18148554Y4652601D01*
G01X18137124Y4629741D01*
G01X18125694Y4618311D01*
G01X18114264Y4612723D01*
G01X18108422Y4612723D01*
G01X18230596Y4698321D02*
G01X18299176Y4698321D01*
G01X18299176Y4709751D01*
G01X18293588Y4721181D01*
G01X18287746Y4727023D01*
G01X18276316Y4732611D01*
G01X18259298Y4732611D01*
G01X18247868Y4727023D01*
G01X18236438Y4715593D01*
G01X18230596Y4698321D01*
G01X18230596Y4686891D01*
G01X18236438Y4669873D01*
G01X18247868Y4658443D01*
G01X18259298Y4652601D01*
G01X18276316Y4652601D01*
G01X18287746Y4658443D01*
G01X18299176Y4669873D01*
G01X18346928Y4732611D02*
G01X18346928Y4652601D01*
G01X18346928Y4698321D02*
G01X18352770Y4715593D01*
G01X18364200Y4727023D01*
G01X18375630Y4732611D01*
G01X18392648Y4732611D01*
G01X4023251Y4192171D02*
G01X3966101Y4112161D01*
G01X4051953Y4112161D01*
G01X4023251Y4192171D02*
G01X4023251Y4072029D01*
G01X5380264Y4169311D02*
G01X5391694Y4174899D01*
G01X5408966Y4192171D01*
G01X5408966Y4072029D01*
G01X5456718Y4169311D02*
G01X5468148Y4174899D01*
G01X5485420Y4192171D01*
G01X5485420Y4072029D01*
G01X5590322Y4192171D02*
G01X5533172Y4112161D01*
G01X5619024Y4112161D01*
G01X5590322Y4192171D02*
G01X5590322Y4072029D01*
G01X5672618Y4100731D02*
G01X5666776Y4094889D01*
G01X5672618Y4089301D01*
G01X5678206Y4094889D01*
G01X5672618Y4100731D01*
G01X5731800Y4163469D02*
G01X5731800Y4169311D01*
G01X5737388Y4180741D01*
G01X5743230Y4186329D01*
G01X5754660Y4192171D01*
G01X5777520Y4192171D01*
G01X5788950Y4186329D01*
G01X5794538Y4180741D01*
G01X5800380Y4169311D01*
G01X5800380Y4157881D01*
G01X5794538Y4146451D01*
G01X5783108Y4129179D01*
G01X5725958Y4072029D01*
G01X5805968Y4072029D01*
G01X5853720Y4152039D02*
G01X5916712Y4072029D01*
G01X5916712Y4152039D02*
G01X5853720Y4072029D01*
G01X5964464Y4169311D02*
G01X5975894Y4174899D01*
G01X5993166Y4192171D01*
G01X5993166Y4072029D01*
G01X6040918Y4169311D02*
G01X6052348Y4174899D01*
G01X6069620Y4192171D01*
G01X6069620Y4072029D01*
G01X6174522Y4192171D02*
G01X6117372Y4112161D01*
G01X6203224Y4112161D01*
G01X6174522Y4192171D02*
G01X6174522Y4072029D01*
G01X6256818Y4100731D02*
G01X6250976Y4094889D01*
G01X6256818Y4089301D01*
G01X6262406Y4094889D01*
G01X6256818Y4100731D01*
G01X6316000Y4163469D02*
G01X6316000Y4169311D01*
G01X6321588Y4180741D01*
G01X6327430Y4186329D01*
G01X6338860Y4192171D01*
G01X6361720Y4192171D01*
G01X6373150Y4186329D01*
G01X6378738Y4180741D01*
G01X6384580Y4169311D01*
G01X6384580Y4157881D01*
G01X6378738Y4146451D01*
G01X6367308Y4129179D01*
G01X6310158Y4072029D01*
G01X6390168Y4072029D01*
G01X6437920Y4152039D02*
G01X6437920Y4072029D01*
G01X6437920Y4129179D02*
G01X6455192Y4146451D01*
G01X6466622Y4152039D01*
G01X6483640Y4152039D01*
G01X6495070Y4146451D01*
G01X6500912Y4129179D01*
G01X6500912Y4072029D01*
G01X6500912Y4129179D02*
G01X6517930Y4146451D01*
G01X6529360Y4152039D01*
G01X6546632Y4152039D01*
G01X6558062Y4146451D01*
G01X6563650Y4129179D01*
G01X6563650Y4072029D01*
G01X6611402Y4192171D02*
G01X6617244Y4186329D01*
G01X6622832Y4192171D01*
G01X6617244Y4197759D01*
G01X6611402Y4192171D01*
G01X6617244Y4152039D02*
G01X6617244Y4072029D01*
G01X6670584Y4192171D02*
G01X6670584Y4072029D01*
G01X6758468Y4215031D02*
G01X6747038Y4203601D01*
G01X6735608Y4186329D01*
G01X6724178Y4163469D01*
G01X6718336Y4135021D01*
G01X6718336Y4112161D01*
G01X6724178Y4083459D01*
G01X6735608Y4060599D01*
G01X6747038Y4043581D01*
G01X6758468Y4032151D01*
G01X6812062Y4163469D02*
G01X6812062Y4169311D01*
G01X6817650Y4180741D01*
G01X6823492Y4186329D01*
G01X6834922Y4192171D01*
G01X6857782Y4192171D01*
G01X6869212Y4186329D01*
G01X6874800Y4180741D01*
G01X6880642Y4169311D01*
G01X6880642Y4157881D01*
G01X6874800Y4146451D01*
G01X6863370Y4129179D01*
G01X6806220Y4072029D01*
G01X6886230Y4072029D01*
G01X6939824Y4100731D02*
G01X6933982Y4094889D01*
G01X6939824Y4089301D01*
G01X6945412Y4094889D01*
G01X6939824Y4100731D01*
G01X7067586Y4152039D02*
G01X7061744Y4135021D01*
G01X7050314Y4123591D01*
G01X7033296Y4117749D01*
G01X7027454Y4117749D01*
G01X7010436Y4123591D01*
G01X6999006Y4135021D01*
G01X6993164Y4152039D01*
G01X6993164Y4157881D01*
G01X6999006Y4174899D01*
G01X7010436Y4186329D01*
G01X7027454Y4192171D01*
G01X7033296Y4192171D01*
G01X7050314Y4186329D01*
G01X7061744Y4174899D01*
G01X7067586Y4152039D01*
G01X7067586Y4123591D01*
G01X7061744Y4094889D01*
G01X7050314Y4077871D01*
G01X7033296Y4072029D01*
G01X7021866Y4072029D01*
G01X7004594Y4077871D01*
G01X6999006Y4089301D01*
G01X7149628Y4192171D02*
G01X7132610Y4186329D01*
G01X7121180Y4169311D01*
G01X7115338Y4140609D01*
G01X7115338Y4123591D01*
G01X7121180Y4094889D01*
G01X7132610Y4077871D01*
G01X7149628Y4072029D01*
G01X7161058Y4072029D01*
G01X7178330Y4077871D01*
G01X7189760Y4094889D01*
G01X7195348Y4123591D01*
G01X7195348Y4140609D01*
G01X7189760Y4169311D01*
G01X7178330Y4186329D01*
G01X7161058Y4192171D01*
G01X7149628Y4192171D01*
G01X7277390Y4192171D02*
G01X7260372Y4186329D01*
G01X7248942Y4169311D01*
G01X7243100Y4140609D01*
G01X7243100Y4123591D01*
G01X7248942Y4094889D01*
G01X7260372Y4077871D01*
G01X7277390Y4072029D01*
G01X7288820Y4072029D01*
G01X7306092Y4077871D01*
G01X7317522Y4094889D01*
G01X7323110Y4123591D01*
G01X7323110Y4140609D01*
G01X7317522Y4169311D01*
G01X7306092Y4186329D01*
G01X7288820Y4192171D01*
G01X7277390Y4192171D01*
G01X7370862Y4152039D02*
G01X7433854Y4072029D01*
G01X7433854Y4152039D02*
G01X7370862Y4072029D01*
G01X7487448Y4163469D02*
G01X7487448Y4169311D01*
G01X7493036Y4180741D01*
G01X7498878Y4186329D01*
G01X7510308Y4192171D01*
G01X7533168Y4192171D01*
G01X7544598Y4186329D01*
G01X7550186Y4180741D01*
G01X7556028Y4169311D01*
G01X7556028Y4157881D01*
G01X7550186Y4146451D01*
G01X7538756Y4129179D01*
G01X7481606Y4072029D01*
G01X7561616Y4072029D01*
G01X7615210Y4100731D02*
G01X7609368Y4094889D01*
G01X7615210Y4089301D01*
G01X7620798Y4094889D01*
G01X7615210Y4100731D01*
G01X7742972Y4152039D02*
G01X7737130Y4135021D01*
G01X7725700Y4123591D01*
G01X7708682Y4117749D01*
G01X7702840Y4117749D01*
G01X7685822Y4123591D01*
G01X7674392Y4135021D01*
G01X7668550Y4152039D01*
G01X7668550Y4157881D01*
G01X7674392Y4174899D01*
G01X7685822Y4186329D01*
G01X7702840Y4192171D01*
G01X7708682Y4192171D01*
G01X7725700Y4186329D01*
G01X7737130Y4174899D01*
G01X7742972Y4152039D01*
G01X7742972Y4123591D01*
G01X7737130Y4094889D01*
G01X7725700Y4077871D01*
G01X7708682Y4072029D01*
G01X7697252Y4072029D01*
G01X7679980Y4077871D01*
G01X7674392Y4089301D01*
G01X7825014Y4192171D02*
G01X7807996Y4186329D01*
G01X7796566Y4169311D01*
G01X7790724Y4140609D01*
G01X7790724Y4123591D01*
G01X7796566Y4094889D01*
G01X7807996Y4077871D01*
G01X7825014Y4072029D01*
G01X7836444Y4072029D01*
G01X7853716Y4077871D01*
G01X7865146Y4094889D01*
G01X7870734Y4123591D01*
G01X7870734Y4140609D01*
G01X7865146Y4169311D01*
G01X7853716Y4186329D01*
G01X7836444Y4192171D01*
G01X7825014Y4192171D01*
G01X7952776Y4192171D02*
G01X7935758Y4186329D01*
G01X7924328Y4169311D01*
G01X7918486Y4140609D01*
G01X7918486Y4123591D01*
G01X7924328Y4094889D01*
G01X7935758Y4077871D01*
G01X7952776Y4072029D01*
G01X7964206Y4072029D01*
G01X7981478Y4077871D01*
G01X7992908Y4094889D01*
G01X7998496Y4123591D01*
G01X7998496Y4140609D01*
G01X7992908Y4169311D01*
G01X7981478Y4186329D01*
G01X7964206Y4192171D01*
G01X7952776Y4192171D01*
G01X8046248Y4152039D02*
G01X8046248Y4072029D01*
G01X8046248Y4129179D02*
G01X8063520Y4146451D01*
G01X8074950Y4152039D01*
G01X8091968Y4152039D01*
G01X8103398Y4146451D01*
G01X8109240Y4129179D01*
G01X8109240Y4072029D01*
G01X8109240Y4129179D02*
G01X8126258Y4146451D01*
G01X8137688Y4152039D01*
G01X8154960Y4152039D01*
G01X8166390Y4146451D01*
G01X8171978Y4129179D01*
G01X8171978Y4072029D01*
G01X8219730Y4152039D02*
G01X8219730Y4072029D01*
G01X8219730Y4129179D02*
G01X8237002Y4146451D01*
G01X8248432Y4152039D01*
G01X8265450Y4152039D01*
G01X8276880Y4146451D01*
G01X8282722Y4129179D01*
G01X8282722Y4072029D01*
G01X8282722Y4129179D02*
G01X8299740Y4146451D01*
G01X8311170Y4152039D01*
G01X8328442Y4152039D01*
G01X8339872Y4146451D01*
G01X8345460Y4129179D01*
G01X8345460Y4072029D01*
G01X8393212Y4215031D02*
G01X8404642Y4203601D01*
G01X8416072Y4186329D01*
G01X8427502Y4163469D01*
G01X8433344Y4135021D01*
G01X8433344Y4112161D01*
G01X8427502Y4083459D01*
G01X8416072Y4060599D01*
G01X8404642Y4043581D01*
G01X8393212Y4032151D01*
G01X9324521Y4192171D02*
G01X9324521Y4072029D01*
G01X9324521Y4192171D02*
G01X9376083Y4192171D01*
G01X9393101Y4186329D01*
G01X9398943Y4180741D01*
G01X9404531Y4169311D01*
G01X9404531Y4152039D01*
G01X9398943Y4140609D01*
G01X9393101Y4135021D01*
G01X9376083Y4129179D01*
G01X9324521Y4129179D01*
G01X9492415Y4192171D02*
G01X9492415Y4072029D01*
G01X9452283Y4192171D02*
G01X9532293Y4192171D01*
G01X9580045Y4192171D02*
G01X9580045Y4072029D01*
G01X9660055Y4192171D02*
G01X9660055Y4072029D01*
G01X9580045Y4135021D02*
G01X9660055Y4135021D01*
G01X10785929Y4192171D02*
G01X10785929Y4072029D01*
G01X10785929Y4192171D02*
G01X10837491Y4192171D01*
G01X10854509Y4186329D01*
G01X10860351Y4180741D01*
G01X10865939Y4169311D01*
G01X10865939Y4157881D01*
G01X10860351Y4146451D01*
G01X10854509Y4140609D01*
G01X10837491Y4135021D01*
G01X10785929Y4135021D01*
G01X10826061Y4135021D02*
G01X10865939Y4072029D01*
G01X10942393Y4152039D02*
G01X10930963Y4146451D01*
G01X10919533Y4135021D01*
G01X10913691Y4117749D01*
G01X10913691Y4106319D01*
G01X10919533Y4089301D01*
G01X10930963Y4077871D01*
G01X10942393Y4072029D01*
G01X10959411Y4072029D01*
G01X10970841Y4077871D01*
G01X10982271Y4089301D01*
G01X10988113Y4106319D01*
G01X10988113Y4117749D01*
G01X10982271Y4135021D01*
G01X10970841Y4146451D01*
G01X10959411Y4152039D01*
G01X10942393Y4152039D01*
G01X11035865Y4152039D02*
G01X11035865Y4094889D01*
G01X11041707Y4077871D01*
G01X11053137Y4072029D01*
G01X11070155Y4072029D01*
G01X11081585Y4077871D01*
G01X11098857Y4094889D01*
G01X11098857Y4152039D02*
G01X11098857Y4072029D01*
G01X11146609Y4152039D02*
G01X11146609Y4072029D01*
G01X11146609Y4129179D02*
G01X11163881Y4146451D01*
G01X11175311Y4152039D01*
G01X11192329Y4152039D01*
G01X11203759Y4146451D01*
G01X11209601Y4129179D01*
G01X11209601Y4072029D01*
G01X11325933Y4192171D02*
G01X11325933Y4072029D01*
G01X11325933Y4135021D02*
G01X11314503Y4146451D01*
G01X11303073Y4152039D01*
G01X11286055Y4152039D01*
G01X11274625Y4146451D01*
G01X11263195Y4135021D01*
G01X11257353Y4117749D01*
G01X11257353Y4106319D01*
G01X11263195Y4089301D01*
G01X11274625Y4077871D01*
G01X11286055Y4072029D01*
G01X11303073Y4072029D01*
G01X11314503Y4077871D01*
G01X11325933Y4089301D01*
G01X12217110Y4192171D02*
G01X12217110Y4072029D01*
G01X12217110Y4192171D02*
G01X12268672Y4192171D01*
G01X12285690Y4186329D01*
G01X12291532Y4180741D01*
G01X12297120Y4169311D01*
G01X12297120Y4152039D01*
G01X12291532Y4140609D01*
G01X12285690Y4135021D01*
G01X12268672Y4129179D01*
G01X12217110Y4129179D01*
G01X12413452Y4152039D02*
G01X12413452Y4072029D01*
G01X12413452Y4135021D02*
G01X12402022Y4146451D01*
G01X12390592Y4152039D01*
G01X12373574Y4152039D01*
G01X12362144Y4146451D01*
G01X12350714Y4135021D01*
G01X12344872Y4117749D01*
G01X12344872Y4106319D01*
G01X12350714Y4089301D01*
G01X12362144Y4077871D01*
G01X12373574Y4072029D01*
G01X12390592Y4072029D01*
G01X12402022Y4077871D01*
G01X12413452Y4089301D01*
G01X12529784Y4192171D02*
G01X12529784Y4072029D01*
G01X12529784Y4135021D02*
G01X12518354Y4146451D01*
G01X12506924Y4152039D01*
G01X12489906Y4152039D01*
G01X12478476Y4146451D01*
G01X12467046Y4135021D01*
G01X12461204Y4117749D01*
G01X12461204Y4106319D01*
G01X12467046Y4089301D01*
G01X12478476Y4077871D01*
G01X12489906Y4072029D01*
G01X12506924Y4072029D01*
G01X12518354Y4077871D01*
G01X12529784Y4089301D01*
G01X13886289Y4192171D02*
G01X13886289Y4072029D01*
G01X13886289Y4192171D02*
G01X13937851Y4192171D01*
G01X13954869Y4186329D01*
G01X13960711Y4180741D01*
G01X13966299Y4169311D01*
G01X13966299Y4157881D01*
G01X13960711Y4146451D01*
G01X13954869Y4140609D01*
G01X13937851Y4135021D01*
G01X13886289Y4135021D01*
G01X13926421Y4135021D02*
G01X13966299Y4072029D01*
G01X14042753Y4152039D02*
G01X14031323Y4146451D01*
G01X14019893Y4135021D01*
G01X14014051Y4117749D01*
G01X14014051Y4106319D01*
G01X14019893Y4089301D01*
G01X14031323Y4077871D01*
G01X14042753Y4072029D01*
G01X14059771Y4072029D01*
G01X14071201Y4077871D01*
G01X14082631Y4089301D01*
G01X14088473Y4106319D01*
G01X14088473Y4117749D01*
G01X14082631Y4135021D01*
G01X14071201Y4146451D01*
G01X14059771Y4152039D01*
G01X14042753Y4152039D01*
G01X14136225Y4152039D02*
G01X14136225Y4094889D01*
G01X14142067Y4077871D01*
G01X14153497Y4072029D01*
G01X14170515Y4072029D01*
G01X14181945Y4077871D01*
G01X14199217Y4094889D01*
G01X14199217Y4152039D02*
G01X14199217Y4072029D01*
G01X14246969Y4152039D02*
G01X14246969Y4072029D01*
G01X14246969Y4129179D02*
G01X14264241Y4146451D01*
G01X14275671Y4152039D01*
G01X14292689Y4152039D01*
G01X14304119Y4146451D01*
G01X14309961Y4129179D01*
G01X14309961Y4072029D01*
G01X14426293Y4192171D02*
G01X14426293Y4072029D01*
G01X14426293Y4135021D02*
G01X14414863Y4146451D01*
G01X14403433Y4152039D01*
G01X14386415Y4152039D01*
G01X14374985Y4146451D01*
G01X14363555Y4135021D01*
G01X14357713Y4117749D01*
G01X14357713Y4106319D01*
G01X14363555Y4089301D01*
G01X14374985Y4077871D01*
G01X14386415Y4072029D01*
G01X14403433Y4072029D01*
G01X14414863Y4077871D01*
G01X14426293Y4089301D01*
G01X15845790Y4192171D02*
G01X15845790Y4072029D01*
G01X15805658Y4192171D02*
G01X15885668Y4192171D01*
G01X15962122Y4152039D02*
G01X15950692Y4146451D01*
G01X15939262Y4135021D01*
G01X15933420Y4117749D01*
G01X15933420Y4106319D01*
G01X15939262Y4089301D01*
G01X15950692Y4077871D01*
G01X15962122Y4072029D01*
G01X15979140Y4072029D01*
G01X15990570Y4077871D01*
G01X16002000Y4089301D01*
G01X16007842Y4106319D01*
G01X16007842Y4117749D01*
G01X16002000Y4135021D01*
G01X15990570Y4146451D01*
G01X15979140Y4152039D01*
G01X15962122Y4152039D01*
G01X16055594Y4152039D02*
G01X16055594Y4032151D01*
G01X16055594Y4135021D02*
G01X16067024Y4146451D01*
G01X16078454Y4152039D01*
G01X16095726Y4152039D01*
G01X16107156Y4146451D01*
G01X16118586Y4135021D01*
G01X16124174Y4117749D01*
G01X16124174Y4106319D01*
G01X16118586Y4089301D01*
G01X16107156Y4077871D01*
G01X16095726Y4072029D01*
G01X16078454Y4072029D01*
G01X16067024Y4077871D01*
G01X16055594Y4089301D01*
G01X16299942Y4192171D02*
G01X16299942Y4072029D01*
G01X16299942Y4072029D02*
G01X16368522Y4072029D01*
G01X16484854Y4152039D02*
G01X16484854Y4072029D01*
G01X16484854Y4135021D02*
G01X16473424Y4146451D01*
G01X16461994Y4152039D01*
G01X16444976Y4152039D01*
G01X16433546Y4146451D01*
G01X16422116Y4135021D01*
G01X16416274Y4117749D01*
G01X16416274Y4106319D01*
G01X16422116Y4089301D01*
G01X16433546Y4077871D01*
G01X16444976Y4072029D01*
G01X16461994Y4072029D01*
G01X16473424Y4077871D01*
G01X16484854Y4089301D01*
G01X16538448Y4152039D02*
G01X16572738Y4072029D01*
G01X16607028Y4152039D02*
G01X16572738Y4072029D01*
G01X16561308Y4049169D01*
G01X16549878Y4037739D01*
G01X16538448Y4032151D01*
G01X16532606Y4032151D01*
G01X16654780Y4117749D02*
G01X16723360Y4117749D01*
G01X16723360Y4129179D01*
G01X16717772Y4140609D01*
G01X16711930Y4146451D01*
G01X16700500Y4152039D01*
G01X16683482Y4152039D01*
G01X16672052Y4146451D01*
G01X16660622Y4135021D01*
G01X16654780Y4117749D01*
G01X16654780Y4106319D01*
G01X16660622Y4089301D01*
G01X16672052Y4077871D01*
G01X16683482Y4072029D01*
G01X16700500Y4072029D01*
G01X16711930Y4077871D01*
G01X16723360Y4089301D01*
G01X16771112Y4152039D02*
G01X16771112Y4072029D01*
G01X16771112Y4117749D02*
G01X16776954Y4135021D01*
G01X16788384Y4146451D01*
G01X16799814Y4152039D01*
G01X16816832Y4152039D01*
G01X16864584Y4123591D02*
G01X16967454Y4123591D01*
G01X17015206Y4192171D02*
G01X17015206Y4072029D01*
G01X17015206Y4192171D02*
G01X17066768Y4192171D01*
G01X17083786Y4186329D01*
G01X17089628Y4180741D01*
G01X17095216Y4169311D01*
G01X17095216Y4157881D01*
G01X17089628Y4146451D01*
G01X17083786Y4140609D01*
G01X17066768Y4135021D01*
G01X17015206Y4135021D02*
G01X17066768Y4135021D01*
G01X17083786Y4129179D01*
G01X17089628Y4123591D01*
G01X17095216Y4112161D01*
G01X17095216Y4094889D01*
G01X17089628Y4083459D01*
G01X17083786Y4077871D01*
G01X17066768Y4072029D01*
G01X17015206Y4072029D01*
G01X17171670Y4152039D02*
G01X17160240Y4146451D01*
G01X17148810Y4135021D01*
G01X17142968Y4117749D01*
G01X17142968Y4106319D01*
G01X17148810Y4089301D01*
G01X17160240Y4077871D01*
G01X17171670Y4072029D01*
G01X17188688Y4072029D01*
G01X17200118Y4077871D01*
G01X17211548Y4089301D01*
G01X17217390Y4106319D01*
G01X17217390Y4117749D01*
G01X17211548Y4135021D01*
G01X17200118Y4146451D01*
G01X17188688Y4152039D01*
G01X17171670Y4152039D01*
G01X17282414Y4192171D02*
G01X17282414Y4094889D01*
G01X17288002Y4077871D01*
G01X17299432Y4072029D01*
G01X17310862Y4072029D01*
G01X17265142Y4152039D02*
G01X17305274Y4152039D01*
G01X17375886Y4192171D02*
G01X17375886Y4094889D01*
G01X17381474Y4077871D01*
G01X17392904Y4072029D01*
G01X17404334Y4072029D01*
G01X17358614Y4152039D02*
G01X17398746Y4152039D01*
G01X17480788Y4152039D02*
G01X17469358Y4146451D01*
G01X17457928Y4135021D01*
G01X17452086Y4117749D01*
G01X17452086Y4106319D01*
G01X17457928Y4089301D01*
G01X17469358Y4077871D01*
G01X17480788Y4072029D01*
G01X17497806Y4072029D01*
G01X17509236Y4077871D01*
G01X17520666Y4089301D01*
G01X17526508Y4106319D01*
G01X17526508Y4117749D01*
G01X17520666Y4135021D01*
G01X17509236Y4146451D01*
G01X17497806Y4152039D01*
G01X17480788Y4152039D01*
G01X17574260Y4152039D02*
G01X17574260Y4072029D01*
G01X17574260Y4129179D02*
G01X17591532Y4146451D01*
G01X17602962Y4152039D01*
G01X17619980Y4152039D01*
G01X17631410Y4146451D01*
G01X17637252Y4129179D01*
G01X17637252Y4072029D01*
G01X17637252Y4129179D02*
G01X17654270Y4146451D01*
G01X17665700Y4152039D01*
G01X17682972Y4152039D01*
G01X17694402Y4146451D01*
G01X17699990Y4129179D01*
G01X17699990Y4072029D01*
G01X17875758Y4192171D02*
G01X17875758Y4072029D01*
G01X17875758Y4072029D02*
G01X17944338Y4072029D01*
G01X18060670Y4152039D02*
G01X18060670Y4072029D01*
G01X18060670Y4135021D02*
G01X18049240Y4146451D01*
G01X18037810Y4152039D01*
G01X18020792Y4152039D01*
G01X18009362Y4146451D01*
G01X17997932Y4135021D01*
G01X17992090Y4117749D01*
G01X17992090Y4106319D01*
G01X17997932Y4089301D01*
G01X18009362Y4077871D01*
G01X18020792Y4072029D01*
G01X18037810Y4072029D01*
G01X18049240Y4077871D01*
G01X18060670Y4089301D01*
G01X18114264Y4152039D02*
G01X18148554Y4072029D01*
G01X18182844Y4152039D02*
G01X18148554Y4072029D01*
G01X18137124Y4049169D01*
G01X18125694Y4037739D01*
G01X18114264Y4032151D01*
G01X18108422Y4032151D01*
G01X18230596Y4117749D02*
G01X18299176Y4117749D01*
G01X18299176Y4129179D01*
G01X18293588Y4140609D01*
G01X18287746Y4146451D01*
G01X18276316Y4152039D01*
G01X18259298Y4152039D01*
G01X18247868Y4146451D01*
G01X18236438Y4135021D01*
G01X18230596Y4117749D01*
G01X18230596Y4106319D01*
G01X18236438Y4089301D01*
G01X18247868Y4077871D01*
G01X18259298Y4072029D01*
G01X18276316Y4072029D01*
G01X18287746Y4077871D01*
G01X18299176Y4089301D01*
G01X18346928Y4152039D02*
G01X18346928Y4072029D01*
G01X18346928Y4117749D02*
G01X18352770Y4135021D01*
G01X18364200Y4146451D01*
G01X18375630Y4152039D01*
G01X18392648Y4152039D01*
G01X4023251Y3611600D02*
G01X3966101Y3531590D01*
G01X4051953Y3531590D01*
G01X4023251Y3611600D02*
G01X4023251Y3491458D01*
G01X5391694Y3611600D02*
G01X5454686Y3611600D01*
G01X5420396Y3565880D01*
G01X5437414Y3565880D01*
G01X5448844Y3560038D01*
G01X5454686Y3554450D01*
G01X5460274Y3537178D01*
G01X5460274Y3525748D01*
G01X5454686Y3508730D01*
G01X5443256Y3497300D01*
G01X5425984Y3491458D01*
G01X5408966Y3491458D01*
G01X5391694Y3497300D01*
G01X5386106Y3502888D01*
G01X5380264Y3514318D01*
G01X5508026Y3588740D02*
G01X5519456Y3594328D01*
G01X5536728Y3611600D01*
G01X5536728Y3491458D01*
G01X5590322Y3520160D02*
G01X5584480Y3514318D01*
G01X5590322Y3508730D01*
G01X5595910Y3514318D01*
G01X5590322Y3520160D01*
G01X5712242Y3611600D02*
G01X5655092Y3611600D01*
G01X5649504Y3560038D01*
G01X5655092Y3565880D01*
G01X5672364Y3571468D01*
G01X5689382Y3571468D01*
G01X5706654Y3565880D01*
G01X5718084Y3554450D01*
G01X5723672Y3537178D01*
G01X5723672Y3525748D01*
G01X5718084Y3508730D01*
G01X5706654Y3497300D01*
G01X5689382Y3491458D01*
G01X5672364Y3491458D01*
G01X5655092Y3497300D01*
G01X5649504Y3502888D01*
G01X5643662Y3514318D01*
G01X5771424Y3571468D02*
G01X5834416Y3491458D01*
G01X5834416Y3571468D02*
G01X5771424Y3491458D01*
G01X5893598Y3611600D02*
G01X5956590Y3611600D01*
G01X5922300Y3565880D01*
G01X5939318Y3565880D01*
G01X5950748Y3560038D01*
G01X5956590Y3554450D01*
G01X5962178Y3537178D01*
G01X5962178Y3525748D01*
G01X5956590Y3508730D01*
G01X5945160Y3497300D01*
G01X5927888Y3491458D01*
G01X5910870Y3491458D01*
G01X5893598Y3497300D01*
G01X5888010Y3502888D01*
G01X5882168Y3514318D01*
G01X6009930Y3588740D02*
G01X6021360Y3594328D01*
G01X6038632Y3611600D01*
G01X6038632Y3491458D01*
G01X6092226Y3520160D02*
G01X6086384Y3514318D01*
G01X6092226Y3508730D01*
G01X6097814Y3514318D01*
G01X6092226Y3520160D01*
G01X6214146Y3611600D02*
G01X6156996Y3611600D01*
G01X6151408Y3560038D01*
G01X6156996Y3565880D01*
G01X6174268Y3571468D01*
G01X6191286Y3571468D01*
G01X6208558Y3565880D01*
G01X6219988Y3554450D01*
G01X6225576Y3537178D01*
G01X6225576Y3525748D01*
G01X6219988Y3508730D01*
G01X6208558Y3497300D01*
G01X6191286Y3491458D01*
G01X6174268Y3491458D01*
G01X6156996Y3497300D01*
G01X6151408Y3502888D01*
G01X6145566Y3514318D01*
G01X6273328Y3571468D02*
G01X6273328Y3491458D01*
G01X6273328Y3548608D02*
G01X6290600Y3565880D01*
G01X6302030Y3571468D01*
G01X6319048Y3571468D01*
G01X6330478Y3565880D01*
G01X6336320Y3548608D01*
G01X6336320Y3491458D01*
G01X6336320Y3548608D02*
G01X6353338Y3565880D01*
G01X6364768Y3571468D01*
G01X6382040Y3571468D01*
G01X6393470Y3565880D01*
G01X6399058Y3548608D01*
G01X6399058Y3491458D01*
G01X6446810Y3611600D02*
G01X6452652Y3605758D01*
G01X6458240Y3611600D01*
G01X6452652Y3617188D01*
G01X6446810Y3611600D01*
G01X6452652Y3571468D02*
G01X6452652Y3491458D01*
G01X6505992Y3611600D02*
G01X6505992Y3491458D01*
G01X6593876Y3634460D02*
G01X6582446Y3623030D01*
G01X6571016Y3605758D01*
G01X6559586Y3582898D01*
G01X6553744Y3554450D01*
G01X6553744Y3531590D01*
G01X6559586Y3502888D01*
G01X6571016Y3480028D01*
G01X6582446Y3463010D01*
G01X6593876Y3451580D01*
G01X6675918Y3611600D02*
G01X6658900Y3605758D01*
G01X6647470Y3588740D01*
G01X6641628Y3560038D01*
G01X6641628Y3543020D01*
G01X6647470Y3514318D01*
G01X6658900Y3497300D01*
G01X6675918Y3491458D01*
G01X6687348Y3491458D01*
G01X6704620Y3497300D01*
G01X6716050Y3514318D01*
G01X6721638Y3543020D01*
G01X6721638Y3560038D01*
G01X6716050Y3588740D01*
G01X6704620Y3605758D01*
G01X6687348Y3611600D01*
G01X6675918Y3611600D01*
G01X6775232Y3520160D02*
G01X6769390Y3514318D01*
G01X6775232Y3508730D01*
G01X6780820Y3514318D01*
G01X6775232Y3520160D01*
G01X6857274Y3611600D02*
G01X6840002Y3605758D01*
G01X6834414Y3594328D01*
G01X6834414Y3582898D01*
G01X6840002Y3571468D01*
G01X6851432Y3565880D01*
G01X6874292Y3560038D01*
G01X6891564Y3554450D01*
G01X6902994Y3543020D01*
G01X6908582Y3531590D01*
G01X6908582Y3514318D01*
G01X6902994Y3502888D01*
G01X6897152Y3497300D01*
G01X6880134Y3491458D01*
G01X6857274Y3491458D01*
G01X6840002Y3497300D01*
G01X6834414Y3502888D01*
G01X6828572Y3514318D01*
G01X6828572Y3531590D01*
G01X6834414Y3543020D01*
G01X6845844Y3554450D01*
G01X6862862Y3560038D01*
G01X6885722Y3565880D01*
G01X6897152Y3571468D01*
G01X6902994Y3582898D01*
G01X6902994Y3594328D01*
G01X6897152Y3605758D01*
G01X6880134Y3611600D01*
G01X6857274Y3611600D01*
G01X6990624Y3611600D02*
G01X6973606Y3605758D01*
G01X6962176Y3588740D01*
G01X6956334Y3560038D01*
G01X6956334Y3543020D01*
G01X6962176Y3514318D01*
G01X6973606Y3497300D01*
G01X6990624Y3491458D01*
G01X7002054Y3491458D01*
G01X7019326Y3497300D01*
G01X7030756Y3514318D01*
G01X7036344Y3543020D01*
G01X7036344Y3560038D01*
G01X7030756Y3588740D01*
G01X7019326Y3605758D01*
G01X7002054Y3611600D01*
G01X6990624Y3611600D01*
G01X7118386Y3611600D02*
G01X7101368Y3605758D01*
G01X7089938Y3588740D01*
G01X7084096Y3560038D01*
G01X7084096Y3543020D01*
G01X7089938Y3514318D01*
G01X7101368Y3497300D01*
G01X7118386Y3491458D01*
G01X7129816Y3491458D01*
G01X7147088Y3497300D01*
G01X7158518Y3514318D01*
G01X7164106Y3543020D01*
G01X7164106Y3560038D01*
G01X7158518Y3588740D01*
G01X7147088Y3605758D01*
G01X7129816Y3611600D01*
G01X7118386Y3611600D01*
G01X7211858Y3571468D02*
G01X7274850Y3491458D01*
G01X7274850Y3571468D02*
G01X7211858Y3491458D01*
G01X7356892Y3611600D02*
G01X7339874Y3605758D01*
G01X7328444Y3588740D01*
G01X7322602Y3560038D01*
G01X7322602Y3543020D01*
G01X7328444Y3514318D01*
G01X7339874Y3497300D01*
G01X7356892Y3491458D01*
G01X7368322Y3491458D01*
G01X7385594Y3497300D01*
G01X7397024Y3514318D01*
G01X7402612Y3543020D01*
G01X7402612Y3560038D01*
G01X7397024Y3588740D01*
G01X7385594Y3605758D01*
G01X7368322Y3611600D01*
G01X7356892Y3611600D01*
G01X7456206Y3520160D02*
G01X7450364Y3514318D01*
G01X7456206Y3508730D01*
G01X7461794Y3514318D01*
G01X7456206Y3520160D01*
G01X7538248Y3611600D02*
G01X7520976Y3605758D01*
G01X7515388Y3594328D01*
G01X7515388Y3582898D01*
G01X7520976Y3571468D01*
G01X7532406Y3565880D01*
G01X7555266Y3560038D01*
G01X7572538Y3554450D01*
G01X7583968Y3543020D01*
G01X7589556Y3531590D01*
G01X7589556Y3514318D01*
G01X7583968Y3502888D01*
G01X7578126Y3497300D01*
G01X7561108Y3491458D01*
G01X7538248Y3491458D01*
G01X7520976Y3497300D01*
G01X7515388Y3502888D01*
G01X7509546Y3514318D01*
G01X7509546Y3531590D01*
G01X7515388Y3543020D01*
G01X7526818Y3554450D01*
G01X7543836Y3560038D01*
G01X7566696Y3565880D01*
G01X7578126Y3571468D01*
G01X7583968Y3582898D01*
G01X7583968Y3594328D01*
G01X7578126Y3605758D01*
G01X7561108Y3611600D01*
G01X7538248Y3611600D01*
G01X7671598Y3611600D02*
G01X7654580Y3605758D01*
G01X7643150Y3588740D01*
G01X7637308Y3560038D01*
G01X7637308Y3543020D01*
G01X7643150Y3514318D01*
G01X7654580Y3497300D01*
G01X7671598Y3491458D01*
G01X7683028Y3491458D01*
G01X7700300Y3497300D01*
G01X7711730Y3514318D01*
G01X7717318Y3543020D01*
G01X7717318Y3560038D01*
G01X7711730Y3588740D01*
G01X7700300Y3605758D01*
G01X7683028Y3611600D01*
G01X7671598Y3611600D01*
G01X7799360Y3611600D02*
G01X7782342Y3605758D01*
G01X7770912Y3588740D01*
G01X7765070Y3560038D01*
G01X7765070Y3543020D01*
G01X7770912Y3514318D01*
G01X7782342Y3497300D01*
G01X7799360Y3491458D01*
G01X7810790Y3491458D01*
G01X7828062Y3497300D01*
G01X7839492Y3514318D01*
G01X7845080Y3543020D01*
G01X7845080Y3560038D01*
G01X7839492Y3588740D01*
G01X7828062Y3605758D01*
G01X7810790Y3611600D01*
G01X7799360Y3611600D01*
G01X7892832Y3571468D02*
G01X7892832Y3491458D01*
G01X7892832Y3548608D02*
G01X7910104Y3565880D01*
G01X7921534Y3571468D01*
G01X7938552Y3571468D01*
G01X7949982Y3565880D01*
G01X7955824Y3548608D01*
G01X7955824Y3491458D01*
G01X7955824Y3548608D02*
G01X7972842Y3565880D01*
G01X7984272Y3571468D01*
G01X8001544Y3571468D01*
G01X8012974Y3565880D01*
G01X8018562Y3548608D01*
G01X8018562Y3491458D01*
G01X8066314Y3571468D02*
G01X8066314Y3491458D01*
G01X8066314Y3548608D02*
G01X8083586Y3565880D01*
G01X8095016Y3571468D01*
G01X8112034Y3571468D01*
G01X8123464Y3565880D01*
G01X8129306Y3548608D01*
G01X8129306Y3491458D01*
G01X8129306Y3548608D02*
G01X8146324Y3565880D01*
G01X8157754Y3571468D01*
G01X8175026Y3571468D01*
G01X8186456Y3565880D01*
G01X8192044Y3548608D01*
G01X8192044Y3491458D01*
G01X8239796Y3634460D02*
G01X8251226Y3623030D01*
G01X8262656Y3605758D01*
G01X8274086Y3582898D01*
G01X8279928Y3554450D01*
G01X8279928Y3531590D01*
G01X8274086Y3502888D01*
G01X8262656Y3480028D01*
G01X8251226Y3463010D01*
G01X8239796Y3451580D01*
G01X9324521Y3611600D02*
G01X9324521Y3491458D01*
G01X9324521Y3611600D02*
G01X9376083Y3611600D01*
G01X9393101Y3605758D01*
G01X9398943Y3600170D01*
G01X9404531Y3588740D01*
G01X9404531Y3571468D01*
G01X9398943Y3560038D01*
G01X9393101Y3554450D01*
G01X9376083Y3548608D01*
G01X9324521Y3548608D01*
G01X9492415Y3611600D02*
G01X9492415Y3491458D01*
G01X9452283Y3611600D02*
G01X9532293Y3611600D01*
G01X9580045Y3611600D02*
G01X9580045Y3491458D01*
G01X9660055Y3611600D02*
G01X9660055Y3491458D01*
G01X9580045Y3554450D02*
G01X9660055Y3554450D01*
G01X10785929Y3611600D02*
G01X10785929Y3491458D01*
G01X10785929Y3611600D02*
G01X10837491Y3611600D01*
G01X10854509Y3605758D01*
G01X10860351Y3600170D01*
G01X10865939Y3588740D01*
G01X10865939Y3577310D01*
G01X10860351Y3565880D01*
G01X10854509Y3560038D01*
G01X10837491Y3554450D01*
G01X10785929Y3554450D01*
G01X10826061Y3554450D02*
G01X10865939Y3491458D01*
G01X10942393Y3571468D02*
G01X10930963Y3565880D01*
G01X10919533Y3554450D01*
G01X10913691Y3537178D01*
G01X10913691Y3525748D01*
G01X10919533Y3508730D01*
G01X10930963Y3497300D01*
G01X10942393Y3491458D01*
G01X10959411Y3491458D01*
G01X10970841Y3497300D01*
G01X10982271Y3508730D01*
G01X10988113Y3525748D01*
G01X10988113Y3537178D01*
G01X10982271Y3554450D01*
G01X10970841Y3565880D01*
G01X10959411Y3571468D01*
G01X10942393Y3571468D01*
G01X11035865Y3571468D02*
G01X11035865Y3514318D01*
G01X11041707Y3497300D01*
G01X11053137Y3491458D01*
G01X11070155Y3491458D01*
G01X11081585Y3497300D01*
G01X11098857Y3514318D01*
G01X11098857Y3571468D02*
G01X11098857Y3491458D01*
G01X11146609Y3571468D02*
G01X11146609Y3491458D01*
G01X11146609Y3548608D02*
G01X11163881Y3565880D01*
G01X11175311Y3571468D01*
G01X11192329Y3571468D01*
G01X11203759Y3565880D01*
G01X11209601Y3548608D01*
G01X11209601Y3491458D01*
G01X11325933Y3611600D02*
G01X11325933Y3491458D01*
G01X11325933Y3554450D02*
G01X11314503Y3565880D01*
G01X11303073Y3571468D01*
G01X11286055Y3571468D01*
G01X11274625Y3565880D01*
G01X11263195Y3554450D01*
G01X11257353Y3537178D01*
G01X11257353Y3525748D01*
G01X11263195Y3508730D01*
G01X11274625Y3497300D01*
G01X11286055Y3491458D01*
G01X11303073Y3491458D01*
G01X11314503Y3497300D01*
G01X11325933Y3508730D01*
G01X12217110Y3611600D02*
G01X12217110Y3491458D01*
G01X12217110Y3611600D02*
G01X12268672Y3611600D01*
G01X12285690Y3605758D01*
G01X12291532Y3600170D01*
G01X12297120Y3588740D01*
G01X12297120Y3571468D01*
G01X12291532Y3560038D01*
G01X12285690Y3554450D01*
G01X12268672Y3548608D01*
G01X12217110Y3548608D01*
G01X12413452Y3571468D02*
G01X12413452Y3491458D01*
G01X12413452Y3554450D02*
G01X12402022Y3565880D01*
G01X12390592Y3571468D01*
G01X12373574Y3571468D01*
G01X12362144Y3565880D01*
G01X12350714Y3554450D01*
G01X12344872Y3537178D01*
G01X12344872Y3525748D01*
G01X12350714Y3508730D01*
G01X12362144Y3497300D01*
G01X12373574Y3491458D01*
G01X12390592Y3491458D01*
G01X12402022Y3497300D01*
G01X12413452Y3508730D01*
G01X12529784Y3611600D02*
G01X12529784Y3491458D01*
G01X12529784Y3554450D02*
G01X12518354Y3565880D01*
G01X12506924Y3571468D01*
G01X12489906Y3571468D01*
G01X12478476Y3565880D01*
G01X12467046Y3554450D01*
G01X12461204Y3537178D01*
G01X12461204Y3525748D01*
G01X12467046Y3508730D01*
G01X12478476Y3497300D01*
G01X12489906Y3491458D01*
G01X12506924Y3491458D01*
G01X12518354Y3497300D01*
G01X12529784Y3508730D01*
G01X13886289Y3611600D02*
G01X13886289Y3491458D01*
G01X13886289Y3611600D02*
G01X13937851Y3611600D01*
G01X13954869Y3605758D01*
G01X13960711Y3600170D01*
G01X13966299Y3588740D01*
G01X13966299Y3577310D01*
G01X13960711Y3565880D01*
G01X13954869Y3560038D01*
G01X13937851Y3554450D01*
G01X13886289Y3554450D01*
G01X13926421Y3554450D02*
G01X13966299Y3491458D01*
G01X14042753Y3571468D02*
G01X14031323Y3565880D01*
G01X14019893Y3554450D01*
G01X14014051Y3537178D01*
G01X14014051Y3525748D01*
G01X14019893Y3508730D01*
G01X14031323Y3497300D01*
G01X14042753Y3491458D01*
G01X14059771Y3491458D01*
G01X14071201Y3497300D01*
G01X14082631Y3508730D01*
G01X14088473Y3525748D01*
G01X14088473Y3537178D01*
G01X14082631Y3554450D01*
G01X14071201Y3565880D01*
G01X14059771Y3571468D01*
G01X14042753Y3571468D01*
G01X14136225Y3571468D02*
G01X14136225Y3514318D01*
G01X14142067Y3497300D01*
G01X14153497Y3491458D01*
G01X14170515Y3491458D01*
G01X14181945Y3497300D01*
G01X14199217Y3514318D01*
G01X14199217Y3571468D02*
G01X14199217Y3491458D01*
G01X14246969Y3571468D02*
G01X14246969Y3491458D01*
G01X14246969Y3548608D02*
G01X14264241Y3565880D01*
G01X14275671Y3571468D01*
G01X14292689Y3571468D01*
G01X14304119Y3565880D01*
G01X14309961Y3548608D01*
G01X14309961Y3491458D01*
G01X14426293Y3611600D02*
G01X14426293Y3491458D01*
G01X14426293Y3554450D02*
G01X14414863Y3565880D01*
G01X14403433Y3571468D01*
G01X14386415Y3571468D01*
G01X14374985Y3565880D01*
G01X14363555Y3554450D01*
G01X14357713Y3537178D01*
G01X14357713Y3525748D01*
G01X14363555Y3508730D01*
G01X14374985Y3497300D01*
G01X14386415Y3491458D01*
G01X14403433Y3491458D01*
G01X14414863Y3497300D01*
G01X14426293Y3508730D01*
G01X15845790Y3611600D02*
G01X15845790Y3491458D01*
G01X15805658Y3611600D02*
G01X15885668Y3611600D01*
G01X15962122Y3571468D02*
G01X15950692Y3565880D01*
G01X15939262Y3554450D01*
G01X15933420Y3537178D01*
G01X15933420Y3525748D01*
G01X15939262Y3508730D01*
G01X15950692Y3497300D01*
G01X15962122Y3491458D01*
G01X15979140Y3491458D01*
G01X15990570Y3497300D01*
G01X16002000Y3508730D01*
G01X16007842Y3525748D01*
G01X16007842Y3537178D01*
G01X16002000Y3554450D01*
G01X15990570Y3565880D01*
G01X15979140Y3571468D01*
G01X15962122Y3571468D01*
G01X16055594Y3571468D02*
G01X16055594Y3451580D01*
G01X16055594Y3554450D02*
G01X16067024Y3565880D01*
G01X16078454Y3571468D01*
G01X16095726Y3571468D01*
G01X16107156Y3565880D01*
G01X16118586Y3554450D01*
G01X16124174Y3537178D01*
G01X16124174Y3525748D01*
G01X16118586Y3508730D01*
G01X16107156Y3497300D01*
G01X16095726Y3491458D01*
G01X16078454Y3491458D01*
G01X16067024Y3497300D01*
G01X16055594Y3508730D01*
G01X16299942Y3611600D02*
G01X16299942Y3491458D01*
G01X16299942Y3491458D02*
G01X16368522Y3491458D01*
G01X16484854Y3571468D02*
G01X16484854Y3491458D01*
G01X16484854Y3554450D02*
G01X16473424Y3565880D01*
G01X16461994Y3571468D01*
G01X16444976Y3571468D01*
G01X16433546Y3565880D01*
G01X16422116Y3554450D01*
G01X16416274Y3537178D01*
G01X16416274Y3525748D01*
G01X16422116Y3508730D01*
G01X16433546Y3497300D01*
G01X16444976Y3491458D01*
G01X16461994Y3491458D01*
G01X16473424Y3497300D01*
G01X16484854Y3508730D01*
G01X16538448Y3571468D02*
G01X16572738Y3491458D01*
G01X16607028Y3571468D02*
G01X16572738Y3491458D01*
G01X16561308Y3468598D01*
G01X16549878Y3457168D01*
G01X16538448Y3451580D01*
G01X16532606Y3451580D01*
G01X16654780Y3537178D02*
G01X16723360Y3537178D01*
G01X16723360Y3548608D01*
G01X16717772Y3560038D01*
G01X16711930Y3565880D01*
G01X16700500Y3571468D01*
G01X16683482Y3571468D01*
G01X16672052Y3565880D01*
G01X16660622Y3554450D01*
G01X16654780Y3537178D01*
G01X16654780Y3525748D01*
G01X16660622Y3508730D01*
G01X16672052Y3497300D01*
G01X16683482Y3491458D01*
G01X16700500Y3491458D01*
G01X16711930Y3497300D01*
G01X16723360Y3508730D01*
G01X16771112Y3571468D02*
G01X16771112Y3491458D01*
G01X16771112Y3537178D02*
G01X16776954Y3554450D01*
G01X16788384Y3565880D01*
G01X16799814Y3571468D01*
G01X16816832Y3571468D01*
G01X16864584Y3543020D02*
G01X16967454Y3543020D01*
G01X17015206Y3611600D02*
G01X17015206Y3491458D01*
G01X17015206Y3611600D02*
G01X17066768Y3611600D01*
G01X17083786Y3605758D01*
G01X17089628Y3600170D01*
G01X17095216Y3588740D01*
G01X17095216Y3577310D01*
G01X17089628Y3565880D01*
G01X17083786Y3560038D01*
G01X17066768Y3554450D01*
G01X17015206Y3554450D02*
G01X17066768Y3554450D01*
G01X17083786Y3548608D01*
G01X17089628Y3543020D01*
G01X17095216Y3531590D01*
G01X17095216Y3514318D01*
G01X17089628Y3502888D01*
G01X17083786Y3497300D01*
G01X17066768Y3491458D01*
G01X17015206Y3491458D01*
G01X17171670Y3571468D02*
G01X17160240Y3565880D01*
G01X17148810Y3554450D01*
G01X17142968Y3537178D01*
G01X17142968Y3525748D01*
G01X17148810Y3508730D01*
G01X17160240Y3497300D01*
G01X17171670Y3491458D01*
G01X17188688Y3491458D01*
G01X17200118Y3497300D01*
G01X17211548Y3508730D01*
G01X17217390Y3525748D01*
G01X17217390Y3537178D01*
G01X17211548Y3554450D01*
G01X17200118Y3565880D01*
G01X17188688Y3571468D01*
G01X17171670Y3571468D01*
G01X17282414Y3611600D02*
G01X17282414Y3514318D01*
G01X17288002Y3497300D01*
G01X17299432Y3491458D01*
G01X17310862Y3491458D01*
G01X17265142Y3571468D02*
G01X17305274Y3571468D01*
G01X17375886Y3611600D02*
G01X17375886Y3514318D01*
G01X17381474Y3497300D01*
G01X17392904Y3491458D01*
G01X17404334Y3491458D01*
G01X17358614Y3571468D02*
G01X17398746Y3571468D01*
G01X17480788Y3571468D02*
G01X17469358Y3565880D01*
G01X17457928Y3554450D01*
G01X17452086Y3537178D01*
G01X17452086Y3525748D01*
G01X17457928Y3508730D01*
G01X17469358Y3497300D01*
G01X17480788Y3491458D01*
G01X17497806Y3491458D01*
G01X17509236Y3497300D01*
G01X17520666Y3508730D01*
G01X17526508Y3525748D01*
G01X17526508Y3537178D01*
G01X17520666Y3554450D01*
G01X17509236Y3565880D01*
G01X17497806Y3571468D01*
G01X17480788Y3571468D01*
G01X17574260Y3571468D02*
G01X17574260Y3491458D01*
G01X17574260Y3548608D02*
G01X17591532Y3565880D01*
G01X17602962Y3571468D01*
G01X17619980Y3571468D01*
G01X17631410Y3565880D01*
G01X17637252Y3548608D01*
G01X17637252Y3491458D01*
G01X17637252Y3548608D02*
G01X17654270Y3565880D01*
G01X17665700Y3571468D01*
G01X17682972Y3571468D01*
G01X17694402Y3565880D01*
G01X17699990Y3548608D01*
G01X17699990Y3491458D01*
G01X17875758Y3611600D02*
G01X17875758Y3491458D01*
G01X17875758Y3491458D02*
G01X17944338Y3491458D01*
G01X18060670Y3571468D02*
G01X18060670Y3491458D01*
G01X18060670Y3554450D02*
G01X18049240Y3565880D01*
G01X18037810Y3571468D01*
G01X18020792Y3571468D01*
G01X18009362Y3565880D01*
G01X17997932Y3554450D01*
G01X17992090Y3537178D01*
G01X17992090Y3525748D01*
G01X17997932Y3508730D01*
G01X18009362Y3497300D01*
G01X18020792Y3491458D01*
G01X18037810Y3491458D01*
G01X18049240Y3497300D01*
G01X18060670Y3508730D01*
G01X18114264Y3571468D02*
G01X18148554Y3491458D01*
G01X18182844Y3571468D02*
G01X18148554Y3491458D01*
G01X18137124Y3468598D01*
G01X18125694Y3457168D01*
G01X18114264Y3451580D01*
G01X18108422Y3451580D01*
G01X18230596Y3537178D02*
G01X18299176Y3537178D01*
G01X18299176Y3548608D01*
G01X18293588Y3560038D01*
G01X18287746Y3565880D01*
G01X18276316Y3571468D01*
G01X18259298Y3571468D01*
G01X18247868Y3565880D01*
G01X18236438Y3554450D01*
G01X18230596Y3537178D01*
G01X18230596Y3525748D01*
G01X18236438Y3508730D01*
G01X18247868Y3497300D01*
G01X18259298Y3491458D01*
G01X18276316Y3491458D01*
G01X18287746Y3497300D01*
G01X18299176Y3508730D01*
G01X18346928Y3571468D02*
G01X18346928Y3491458D01*
G01X18346928Y3537178D02*
G01X18352770Y3554450D01*
G01X18364200Y3565880D01*
G01X18375630Y3571468D01*
G01X18392648Y3571468D01*
G01X4034681Y3013757D02*
G01X4029093Y3025187D01*
G01X4011821Y3031029D01*
G01X4000391Y3031029D01*
G01X3983373Y3025187D01*
G01X3971943Y3008169D01*
G01X3966101Y2979467D01*
G01X3966101Y2951019D01*
G01X3971943Y2928159D01*
G01X3983373Y2916729D01*
G01X4000391Y2910887D01*
G01X4006233Y2910887D01*
G01X4023251Y2916729D01*
G01X4034681Y2928159D01*
G01X4040523Y2945177D01*
G01X4040523Y2951019D01*
G01X4034681Y2968037D01*
G01X4023251Y2979467D01*
G01X4006233Y2985309D01*
G01X4000391Y2985309D01*
G01X3983373Y2979467D01*
G01X3971943Y2968037D01*
G01X3966101Y2951019D01*
G01X5391694Y3031029D02*
G01X5454686Y3031029D01*
G01X5420396Y2985309D01*
G01X5437414Y2985309D01*
G01X5448844Y2979467D01*
G01X5454686Y2973879D01*
G01X5460274Y2956607D01*
G01X5460274Y2945177D01*
G01X5454686Y2928159D01*
G01X5443256Y2916729D01*
G01X5425984Y2910887D01*
G01X5408966Y2910887D01*
G01X5391694Y2916729D01*
G01X5386106Y2922317D01*
G01X5380264Y2933747D01*
G01X5582448Y2990897D02*
G01X5576606Y2973879D01*
G01X5565176Y2962449D01*
G01X5548158Y2956607D01*
G01X5542316Y2956607D01*
G01X5525298Y2962449D01*
G01X5513868Y2973879D01*
G01X5508026Y2990897D01*
G01X5508026Y2996739D01*
G01X5513868Y3013757D01*
G01X5525298Y3025187D01*
G01X5542316Y3031029D01*
G01X5548158Y3031029D01*
G01X5565176Y3025187D01*
G01X5576606Y3013757D01*
G01X5582448Y2990897D01*
G01X5582448Y2962449D01*
G01X5576606Y2933747D01*
G01X5565176Y2916729D01*
G01X5548158Y2910887D01*
G01X5536728Y2910887D01*
G01X5519456Y2916729D01*
G01X5513868Y2928159D01*
G01X5636042Y2939589D02*
G01X5630200Y2933747D01*
G01X5636042Y2928159D01*
G01X5641630Y2933747D01*
G01X5636042Y2939589D01*
G01X5746532Y3031029D02*
G01X5689382Y2951019D01*
G01X5775234Y2951019D01*
G01X5746532Y3031029D02*
G01X5746532Y2910887D01*
G01X5822986Y2990897D02*
G01X5885978Y2910887D01*
G01X5885978Y2990897D02*
G01X5822986Y2910887D01*
G01X5945160Y3031029D02*
G01X6008152Y3031029D01*
G01X5973862Y2985309D01*
G01X5990880Y2985309D01*
G01X6002310Y2979467D01*
G01X6008152Y2973879D01*
G01X6013740Y2956607D01*
G01X6013740Y2945177D01*
G01X6008152Y2928159D01*
G01X5996722Y2916729D01*
G01X5979450Y2910887D01*
G01X5962432Y2910887D01*
G01X5945160Y2916729D01*
G01X5939572Y2922317D01*
G01X5933730Y2933747D01*
G01X6135914Y2990897D02*
G01X6130072Y2973879D01*
G01X6118642Y2962449D01*
G01X6101624Y2956607D01*
G01X6095782Y2956607D01*
G01X6078764Y2962449D01*
G01X6067334Y2973879D01*
G01X6061492Y2990897D01*
G01X6061492Y2996739D01*
G01X6067334Y3013757D01*
G01X6078764Y3025187D01*
G01X6095782Y3031029D01*
G01X6101624Y3031029D01*
G01X6118642Y3025187D01*
G01X6130072Y3013757D01*
G01X6135914Y2990897D01*
G01X6135914Y2962449D01*
G01X6130072Y2933747D01*
G01X6118642Y2916729D01*
G01X6101624Y2910887D01*
G01X6090194Y2910887D01*
G01X6072922Y2916729D01*
G01X6067334Y2928159D01*
G01X6189508Y2939589D02*
G01X6183666Y2933747D01*
G01X6189508Y2928159D01*
G01X6195096Y2933747D01*
G01X6189508Y2939589D01*
G01X6299998Y3031029D02*
G01X6242848Y2951019D01*
G01X6328700Y2951019D01*
G01X6299998Y3031029D02*
G01X6299998Y2910887D01*
G01X6376452Y2990897D02*
G01X6376452Y2910887D01*
G01X6376452Y2968037D02*
G01X6393724Y2985309D01*
G01X6405154Y2990897D01*
G01X6422172Y2990897D01*
G01X6433602Y2985309D01*
G01X6439444Y2968037D01*
G01X6439444Y2910887D01*
G01X6439444Y2968037D02*
G01X6456462Y2985309D01*
G01X6467892Y2990897D01*
G01X6485164Y2990897D01*
G01X6496594Y2985309D01*
G01X6502182Y2968037D01*
G01X6502182Y2910887D01*
G01X6549934Y3031029D02*
G01X6555776Y3025187D01*
G01X6561364Y3031029D01*
G01X6555776Y3036617D01*
G01X6549934Y3031029D01*
G01X6555776Y2990897D02*
G01X6555776Y2910887D01*
G01X6609116Y3031029D02*
G01X6609116Y2910887D01*
G01X6697000Y3053889D02*
G01X6685570Y3042459D01*
G01X6674140Y3025187D01*
G01X6662710Y3002327D01*
G01X6656868Y2973879D01*
G01X6656868Y2951019D01*
G01X6662710Y2922317D01*
G01X6674140Y2899457D01*
G01X6685570Y2882439D01*
G01X6697000Y2871009D01*
G01X6744752Y3008169D02*
G01X6756182Y3013757D01*
G01X6773454Y3031029D01*
G01X6773454Y2910887D01*
G01X6827048Y2939589D02*
G01X6821206Y2933747D01*
G01X6827048Y2928159D01*
G01X6832636Y2933747D01*
G01X6827048Y2939589D01*
G01X6914678Y3031029D02*
G01X6897660Y3025187D01*
G01X6886230Y3008169D01*
G01X6880388Y2979467D01*
G01X6880388Y2962449D01*
G01X6886230Y2933747D01*
G01X6897660Y2916729D01*
G01X6914678Y2910887D01*
G01X6926108Y2910887D01*
G01X6943380Y2916729D01*
G01X6954810Y2933747D01*
G01X6960398Y2962449D01*
G01X6960398Y2979467D01*
G01X6954810Y3008169D01*
G01X6943380Y3025187D01*
G01X6926108Y3031029D01*
G01X6914678Y3031029D01*
G01X7042440Y3031029D02*
G01X7025422Y3025187D01*
G01X7013992Y3008169D01*
G01X7008150Y2979467D01*
G01X7008150Y2962449D01*
G01X7013992Y2933747D01*
G01X7025422Y2916729D01*
G01X7042440Y2910887D01*
G01X7053870Y2910887D01*
G01X7071142Y2916729D01*
G01X7082572Y2933747D01*
G01X7088160Y2962449D01*
G01X7088160Y2979467D01*
G01X7082572Y3008169D01*
G01X7071142Y3025187D01*
G01X7053870Y3031029D01*
G01X7042440Y3031029D01*
G01X7170202Y3031029D02*
G01X7153184Y3025187D01*
G01X7141754Y3008169D01*
G01X7135912Y2979467D01*
G01X7135912Y2962449D01*
G01X7141754Y2933747D01*
G01X7153184Y2916729D01*
G01X7170202Y2910887D01*
G01X7181632Y2910887D01*
G01X7198904Y2916729D01*
G01X7210334Y2933747D01*
G01X7215922Y2962449D01*
G01X7215922Y2979467D01*
G01X7210334Y3008169D01*
G01X7198904Y3025187D01*
G01X7181632Y3031029D01*
G01X7170202Y3031029D01*
G01X7263674Y2990897D02*
G01X7326666Y2910887D01*
G01X7326666Y2990897D02*
G01X7263674Y2910887D01*
G01X7374418Y3008169D02*
G01X7385848Y3013757D01*
G01X7403120Y3031029D01*
G01X7403120Y2910887D01*
G01X7456714Y2939589D02*
G01X7450872Y2933747D01*
G01X7456714Y2928159D01*
G01X7462302Y2933747D01*
G01X7456714Y2939589D01*
G01X7544344Y3031029D02*
G01X7527326Y3025187D01*
G01X7515896Y3008169D01*
G01X7510054Y2979467D01*
G01X7510054Y2962449D01*
G01X7515896Y2933747D01*
G01X7527326Y2916729D01*
G01X7544344Y2910887D01*
G01X7555774Y2910887D01*
G01X7573046Y2916729D01*
G01X7584476Y2933747D01*
G01X7590064Y2962449D01*
G01X7590064Y2979467D01*
G01X7584476Y3008169D01*
G01X7573046Y3025187D01*
G01X7555774Y3031029D01*
G01X7544344Y3031029D01*
G01X7672106Y3031029D02*
G01X7655088Y3025187D01*
G01X7643658Y3008169D01*
G01X7637816Y2979467D01*
G01X7637816Y2962449D01*
G01X7643658Y2933747D01*
G01X7655088Y2916729D01*
G01X7672106Y2910887D01*
G01X7683536Y2910887D01*
G01X7700808Y2916729D01*
G01X7712238Y2933747D01*
G01X7717826Y2962449D01*
G01X7717826Y2979467D01*
G01X7712238Y3008169D01*
G01X7700808Y3025187D01*
G01X7683536Y3031029D01*
G01X7672106Y3031029D01*
G01X7799868Y3031029D02*
G01X7782850Y3025187D01*
G01X7771420Y3008169D01*
G01X7765578Y2979467D01*
G01X7765578Y2962449D01*
G01X7771420Y2933747D01*
G01X7782850Y2916729D01*
G01X7799868Y2910887D01*
G01X7811298Y2910887D01*
G01X7828570Y2916729D01*
G01X7840000Y2933747D01*
G01X7845588Y2962449D01*
G01X7845588Y2979467D01*
G01X7840000Y3008169D01*
G01X7828570Y3025187D01*
G01X7811298Y3031029D01*
G01X7799868Y3031029D01*
G01X7893340Y2990897D02*
G01X7893340Y2910887D01*
G01X7893340Y2968037D02*
G01X7910612Y2985309D01*
G01X7922042Y2990897D01*
G01X7939060Y2990897D01*
G01X7950490Y2985309D01*
G01X7956332Y2968037D01*
G01X7956332Y2910887D01*
G01X7956332Y2968037D02*
G01X7973350Y2985309D01*
G01X7984780Y2990897D01*
G01X8002052Y2990897D01*
G01X8013482Y2985309D01*
G01X8019070Y2968037D01*
G01X8019070Y2910887D01*
G01X8066822Y2990897D02*
G01X8066822Y2910887D01*
G01X8066822Y2968037D02*
G01X8084094Y2985309D01*
G01X8095524Y2990897D01*
G01X8112542Y2990897D01*
G01X8123972Y2985309D01*
G01X8129814Y2968037D01*
G01X8129814Y2910887D01*
G01X8129814Y2968037D02*
G01X8146832Y2985309D01*
G01X8158262Y2990897D01*
G01X8175534Y2990897D01*
G01X8186964Y2985309D01*
G01X8192552Y2968037D01*
G01X8192552Y2910887D01*
G01X8240304Y3053889D02*
G01X8251734Y3042459D01*
G01X8263164Y3025187D01*
G01X8274594Y3002327D01*
G01X8280436Y2973879D01*
G01X8280436Y2951019D01*
G01X8274594Y2922317D01*
G01X8263164Y2899457D01*
G01X8251734Y2882439D01*
G01X8240304Y2871009D01*
G01X9324521Y3031029D02*
G01X9324521Y2910887D01*
G01X9324521Y3031029D02*
G01X9376083Y3031029D01*
G01X9393101Y3025187D01*
G01X9398943Y3019599D01*
G01X9404531Y3008169D01*
G01X9404531Y2990897D01*
G01X9398943Y2979467D01*
G01X9393101Y2973879D01*
G01X9376083Y2968037D01*
G01X9324521Y2968037D01*
G01X9492415Y3031029D02*
G01X9492415Y2910887D01*
G01X9452283Y3031029D02*
G01X9532293Y3031029D01*
G01X9580045Y3031029D02*
G01X9580045Y2910887D01*
G01X9660055Y3031029D02*
G01X9660055Y2910887D01*
G01X9580045Y2973879D02*
G01X9660055Y2973879D01*
G01X10785929Y3031029D02*
G01X10785929Y2910887D01*
G01X10785929Y3031029D02*
G01X10837491Y3031029D01*
G01X10854509Y3025187D01*
G01X10860351Y3019599D01*
G01X10865939Y3008169D01*
G01X10865939Y2996739D01*
G01X10860351Y2985309D01*
G01X10854509Y2979467D01*
G01X10837491Y2973879D01*
G01X10785929Y2973879D01*
G01X10826061Y2973879D02*
G01X10865939Y2910887D01*
G01X10942393Y2990897D02*
G01X10930963Y2985309D01*
G01X10919533Y2973879D01*
G01X10913691Y2956607D01*
G01X10913691Y2945177D01*
G01X10919533Y2928159D01*
G01X10930963Y2916729D01*
G01X10942393Y2910887D01*
G01X10959411Y2910887D01*
G01X10970841Y2916729D01*
G01X10982271Y2928159D01*
G01X10988113Y2945177D01*
G01X10988113Y2956607D01*
G01X10982271Y2973879D01*
G01X10970841Y2985309D01*
G01X10959411Y2990897D01*
G01X10942393Y2990897D01*
G01X11035865Y2990897D02*
G01X11035865Y2933747D01*
G01X11041707Y2916729D01*
G01X11053137Y2910887D01*
G01X11070155Y2910887D01*
G01X11081585Y2916729D01*
G01X11098857Y2933747D01*
G01X11098857Y2990897D02*
G01X11098857Y2910887D01*
G01X11146609Y2990897D02*
G01X11146609Y2910887D01*
G01X11146609Y2968037D02*
G01X11163881Y2985309D01*
G01X11175311Y2990897D01*
G01X11192329Y2990897D01*
G01X11203759Y2985309D01*
G01X11209601Y2968037D01*
G01X11209601Y2910887D01*
G01X11325933Y3031029D02*
G01X11325933Y2910887D01*
G01X11325933Y2973879D02*
G01X11314503Y2985309D01*
G01X11303073Y2990897D01*
G01X11286055Y2990897D01*
G01X11274625Y2985309D01*
G01X11263195Y2973879D01*
G01X11257353Y2956607D01*
G01X11257353Y2945177D01*
G01X11263195Y2928159D01*
G01X11274625Y2916729D01*
G01X11286055Y2910887D01*
G01X11303073Y2910887D01*
G01X11314503Y2916729D01*
G01X11325933Y2928159D01*
G01X12217110Y3031029D02*
G01X12217110Y2910887D01*
G01X12217110Y3031029D02*
G01X12268672Y3031029D01*
G01X12285690Y3025187D01*
G01X12291532Y3019599D01*
G01X12297120Y3008169D01*
G01X12297120Y2990897D01*
G01X12291532Y2979467D01*
G01X12285690Y2973879D01*
G01X12268672Y2968037D01*
G01X12217110Y2968037D01*
G01X12413452Y2990897D02*
G01X12413452Y2910887D01*
G01X12413452Y2973879D02*
G01X12402022Y2985309D01*
G01X12390592Y2990897D01*
G01X12373574Y2990897D01*
G01X12362144Y2985309D01*
G01X12350714Y2973879D01*
G01X12344872Y2956607D01*
G01X12344872Y2945177D01*
G01X12350714Y2928159D01*
G01X12362144Y2916729D01*
G01X12373574Y2910887D01*
G01X12390592Y2910887D01*
G01X12402022Y2916729D01*
G01X12413452Y2928159D01*
G01X12529784Y3031029D02*
G01X12529784Y2910887D01*
G01X12529784Y2973879D02*
G01X12518354Y2985309D01*
G01X12506924Y2990897D01*
G01X12489906Y2990897D01*
G01X12478476Y2985309D01*
G01X12467046Y2973879D01*
G01X12461204Y2956607D01*
G01X12461204Y2945177D01*
G01X12467046Y2928159D01*
G01X12478476Y2916729D01*
G01X12489906Y2910887D01*
G01X12506924Y2910887D01*
G01X12518354Y2916729D01*
G01X12529784Y2928159D01*
G01X13886289Y3031029D02*
G01X13886289Y2910887D01*
G01X13886289Y3031029D02*
G01X13937851Y3031029D01*
G01X13954869Y3025187D01*
G01X13960711Y3019599D01*
G01X13966299Y3008169D01*
G01X13966299Y2996739D01*
G01X13960711Y2985309D01*
G01X13954869Y2979467D01*
G01X13937851Y2973879D01*
G01X13886289Y2973879D01*
G01X13926421Y2973879D02*
G01X13966299Y2910887D01*
G01X14042753Y2990897D02*
G01X14031323Y2985309D01*
G01X14019893Y2973879D01*
G01X14014051Y2956607D01*
G01X14014051Y2945177D01*
G01X14019893Y2928159D01*
G01X14031323Y2916729D01*
G01X14042753Y2910887D01*
G01X14059771Y2910887D01*
G01X14071201Y2916729D01*
G01X14082631Y2928159D01*
G01X14088473Y2945177D01*
G01X14088473Y2956607D01*
G01X14082631Y2973879D01*
G01X14071201Y2985309D01*
G01X14059771Y2990897D01*
G01X14042753Y2990897D01*
G01X14136225Y2990897D02*
G01X14136225Y2933747D01*
G01X14142067Y2916729D01*
G01X14153497Y2910887D01*
G01X14170515Y2910887D01*
G01X14181945Y2916729D01*
G01X14199217Y2933747D01*
G01X14199217Y2990897D02*
G01X14199217Y2910887D01*
G01X14246969Y2990897D02*
G01X14246969Y2910887D01*
G01X14246969Y2968037D02*
G01X14264241Y2985309D01*
G01X14275671Y2990897D01*
G01X14292689Y2990897D01*
G01X14304119Y2985309D01*
G01X14309961Y2968037D01*
G01X14309961Y2910887D01*
G01X14426293Y3031029D02*
G01X14426293Y2910887D01*
G01X14426293Y2973879D02*
G01X14414863Y2985309D01*
G01X14403433Y2990897D01*
G01X14386415Y2990897D01*
G01X14374985Y2985309D01*
G01X14363555Y2973879D01*
G01X14357713Y2956607D01*
G01X14357713Y2945177D01*
G01X14363555Y2928159D01*
G01X14374985Y2916729D01*
G01X14386415Y2910887D01*
G01X14403433Y2910887D01*
G01X14414863Y2916729D01*
G01X14426293Y2928159D01*
G01X15845790Y3031029D02*
G01X15845790Y2910887D01*
G01X15805658Y3031029D02*
G01X15885668Y3031029D01*
G01X15962122Y2990897D02*
G01X15950692Y2985309D01*
G01X15939262Y2973879D01*
G01X15933420Y2956607D01*
G01X15933420Y2945177D01*
G01X15939262Y2928159D01*
G01X15950692Y2916729D01*
G01X15962122Y2910887D01*
G01X15979140Y2910887D01*
G01X15990570Y2916729D01*
G01X16002000Y2928159D01*
G01X16007842Y2945177D01*
G01X16007842Y2956607D01*
G01X16002000Y2973879D01*
G01X15990570Y2985309D01*
G01X15979140Y2990897D01*
G01X15962122Y2990897D01*
G01X16055594Y2990897D02*
G01X16055594Y2871009D01*
G01X16055594Y2973879D02*
G01X16067024Y2985309D01*
G01X16078454Y2990897D01*
G01X16095726Y2990897D01*
G01X16107156Y2985309D01*
G01X16118586Y2973879D01*
G01X16124174Y2956607D01*
G01X16124174Y2945177D01*
G01X16118586Y2928159D01*
G01X16107156Y2916729D01*
G01X16095726Y2910887D01*
G01X16078454Y2910887D01*
G01X16067024Y2916729D01*
G01X16055594Y2928159D01*
G01X16299942Y3031029D02*
G01X16299942Y2910887D01*
G01X16299942Y2910887D02*
G01X16368522Y2910887D01*
G01X16484854Y2990897D02*
G01X16484854Y2910887D01*
G01X16484854Y2973879D02*
G01X16473424Y2985309D01*
G01X16461994Y2990897D01*
G01X16444976Y2990897D01*
G01X16433546Y2985309D01*
G01X16422116Y2973879D01*
G01X16416274Y2956607D01*
G01X16416274Y2945177D01*
G01X16422116Y2928159D01*
G01X16433546Y2916729D01*
G01X16444976Y2910887D01*
G01X16461994Y2910887D01*
G01X16473424Y2916729D01*
G01X16484854Y2928159D01*
G01X16538448Y2990897D02*
G01X16572738Y2910887D01*
G01X16607028Y2990897D02*
G01X16572738Y2910887D01*
G01X16561308Y2888027D01*
G01X16549878Y2876597D01*
G01X16538448Y2871009D01*
G01X16532606Y2871009D01*
G01X16654780Y2956607D02*
G01X16723360Y2956607D01*
G01X16723360Y2968037D01*
G01X16717772Y2979467D01*
G01X16711930Y2985309D01*
G01X16700500Y2990897D01*
G01X16683482Y2990897D01*
G01X16672052Y2985309D01*
G01X16660622Y2973879D01*
G01X16654780Y2956607D01*
G01X16654780Y2945177D01*
G01X16660622Y2928159D01*
G01X16672052Y2916729D01*
G01X16683482Y2910887D01*
G01X16700500Y2910887D01*
G01X16711930Y2916729D01*
G01X16723360Y2928159D01*
G01X16771112Y2990897D02*
G01X16771112Y2910887D01*
G01X16771112Y2956607D02*
G01X16776954Y2973879D01*
G01X16788384Y2985309D01*
G01X16799814Y2990897D01*
G01X16816832Y2990897D01*
G01X16864584Y2962449D02*
G01X16967454Y2962449D01*
G01X17015206Y3031029D02*
G01X17015206Y2910887D01*
G01X17015206Y3031029D02*
G01X17066768Y3031029D01*
G01X17083786Y3025187D01*
G01X17089628Y3019599D01*
G01X17095216Y3008169D01*
G01X17095216Y2996739D01*
G01X17089628Y2985309D01*
G01X17083786Y2979467D01*
G01X17066768Y2973879D01*
G01X17015206Y2973879D02*
G01X17066768Y2973879D01*
G01X17083786Y2968037D01*
G01X17089628Y2962449D01*
G01X17095216Y2951019D01*
G01X17095216Y2933747D01*
G01X17089628Y2922317D01*
G01X17083786Y2916729D01*
G01X17066768Y2910887D01*
G01X17015206Y2910887D01*
G01X17171670Y2990897D02*
G01X17160240Y2985309D01*
G01X17148810Y2973879D01*
G01X17142968Y2956607D01*
G01X17142968Y2945177D01*
G01X17148810Y2928159D01*
G01X17160240Y2916729D01*
G01X17171670Y2910887D01*
G01X17188688Y2910887D01*
G01X17200118Y2916729D01*
G01X17211548Y2928159D01*
G01X17217390Y2945177D01*
G01X17217390Y2956607D01*
G01X17211548Y2973879D01*
G01X17200118Y2985309D01*
G01X17188688Y2990897D01*
G01X17171670Y2990897D01*
G01X17282414Y3031029D02*
G01X17282414Y2933747D01*
G01X17288002Y2916729D01*
G01X17299432Y2910887D01*
G01X17310862Y2910887D01*
G01X17265142Y2990897D02*
G01X17305274Y2990897D01*
G01X17375886Y3031029D02*
G01X17375886Y2933747D01*
G01X17381474Y2916729D01*
G01X17392904Y2910887D01*
G01X17404334Y2910887D01*
G01X17358614Y2990897D02*
G01X17398746Y2990897D01*
G01X17480788Y2990897D02*
G01X17469358Y2985309D01*
G01X17457928Y2973879D01*
G01X17452086Y2956607D01*
G01X17452086Y2945177D01*
G01X17457928Y2928159D01*
G01X17469358Y2916729D01*
G01X17480788Y2910887D01*
G01X17497806Y2910887D01*
G01X17509236Y2916729D01*
G01X17520666Y2928159D01*
G01X17526508Y2945177D01*
G01X17526508Y2956607D01*
G01X17520666Y2973879D01*
G01X17509236Y2985309D01*
G01X17497806Y2990897D01*
G01X17480788Y2990897D01*
G01X17574260Y2990897D02*
G01X17574260Y2910887D01*
G01X17574260Y2968037D02*
G01X17591532Y2985309D01*
G01X17602962Y2990897D01*
G01X17619980Y2990897D01*
G01X17631410Y2985309D01*
G01X17637252Y2968037D01*
G01X17637252Y2910887D01*
G01X17637252Y2968037D02*
G01X17654270Y2985309D01*
G01X17665700Y2990897D01*
G01X17682972Y2990897D01*
G01X17694402Y2985309D01*
G01X17699990Y2968037D01*
G01X17699990Y2910887D01*
G01X17875758Y3031029D02*
G01X17875758Y2910887D01*
G01X17875758Y2910887D02*
G01X17944338Y2910887D01*
G01X18060670Y2990897D02*
G01X18060670Y2910887D01*
G01X18060670Y2973879D02*
G01X18049240Y2985309D01*
G01X18037810Y2990897D01*
G01X18020792Y2990897D01*
G01X18009362Y2985309D01*
G01X17997932Y2973879D01*
G01X17992090Y2956607D01*
G01X17992090Y2945177D01*
G01X17997932Y2928159D01*
G01X18009362Y2916729D01*
G01X18020792Y2910887D01*
G01X18037810Y2910887D01*
G01X18049240Y2916729D01*
G01X18060670Y2928159D01*
G01X18114264Y2990897D02*
G01X18148554Y2910887D01*
G01X18182844Y2990897D02*
G01X18148554Y2910887D01*
G01X18137124Y2888027D01*
G01X18125694Y2876597D01*
G01X18114264Y2871009D01*
G01X18108422Y2871009D01*
G01X18230596Y2956607D02*
G01X18299176Y2956607D01*
G01X18299176Y2968037D01*
G01X18293588Y2979467D01*
G01X18287746Y2985309D01*
G01X18276316Y2990897D01*
G01X18259298Y2990897D01*
G01X18247868Y2985309D01*
G01X18236438Y2973879D01*
G01X18230596Y2956607D01*
G01X18230596Y2945177D01*
G01X18236438Y2928159D01*
G01X18247868Y2916729D01*
G01X18259298Y2910887D01*
G01X18276316Y2910887D01*
G01X18287746Y2916729D01*
G01X18299176Y2928159D01*
G01X18346928Y2990897D02*
G01X18346928Y2910887D01*
G01X18346928Y2956607D02*
G01X18352770Y2973879D01*
G01X18364200Y2985309D01*
G01X18375630Y2990897D01*
G01X18392648Y2990897D01*
G01X3966101Y2427597D02*
G01X3977531Y2433185D01*
G01X3994803Y2450457D01*
G01X3994803Y2330315D01*
G01X4122565Y2450457D02*
G01X4065415Y2330315D01*
G01X4042555Y2450457D02*
G01X4122565Y2450457D01*
G01X4199019Y2450457D02*
G01X4181747Y2444615D01*
G01X4176159Y2433185D01*
G01X4176159Y2421755D01*
G01X4181747Y2410325D01*
G01X4193177Y2404737D01*
G01X4216037Y2398895D01*
G01X4233309Y2393307D01*
G01X4244739Y2381877D01*
G01X4250327Y2370447D01*
G01X4250327Y2353175D01*
G01X4244739Y2341745D01*
G01X4238897Y2336157D01*
G01X4221879Y2330315D01*
G01X4199019Y2330315D01*
G01X4181747Y2336157D01*
G01X4176159Y2341745D01*
G01X4170317Y2353175D01*
G01X4170317Y2370447D01*
G01X4176159Y2381877D01*
G01X4187589Y2393307D01*
G01X4204607Y2398895D01*
G01X4227467Y2404737D01*
G01X4238897Y2410325D01*
G01X4244739Y2421755D01*
G01X4244739Y2433185D01*
G01X4238897Y2444615D01*
G01X4221879Y2450457D01*
G01X4199019Y2450457D01*
G01X4372501Y2410325D02*
G01X4366659Y2393307D01*
G01X4355229Y2381877D01*
G01X4338211Y2376035D01*
G01X4332369Y2376035D01*
G01X4315351Y2381877D01*
G01X4303921Y2393307D01*
G01X4298079Y2410325D01*
G01X4298079Y2416167D01*
G01X4303921Y2433185D01*
G01X4315351Y2444615D01*
G01X4332369Y2450457D01*
G01X4338211Y2450457D01*
G01X4355229Y2444615D01*
G01X4366659Y2433185D01*
G01X4372501Y2410325D01*
G01X4372501Y2381877D01*
G01X4366659Y2353175D01*
G01X4355229Y2336157D01*
G01X4338211Y2330315D01*
G01X4326781Y2330315D01*
G01X4309509Y2336157D01*
G01X4303921Y2347587D01*
G01X5380264Y2427597D02*
G01X5391694Y2433185D01*
G01X5408966Y2450457D01*
G01X5408966Y2330315D01*
G01X5462560Y2421755D02*
G01X5462560Y2427597D01*
G01X5468148Y2439027D01*
G01X5473990Y2444615D01*
G01X5485420Y2450457D01*
G01X5508280Y2450457D01*
G01X5519710Y2444615D01*
G01X5525298Y2439027D01*
G01X5531140Y2427597D01*
G01X5531140Y2416167D01*
G01X5525298Y2404737D01*
G01X5513868Y2387465D01*
G01X5456718Y2330315D01*
G01X5536728Y2330315D01*
G01X5590322Y2359017D02*
G01X5584480Y2353175D01*
G01X5590322Y2347587D01*
G01X5595910Y2353175D01*
G01X5590322Y2359017D01*
G01X5677952Y2450457D02*
G01X5660934Y2444615D01*
G01X5649504Y2427597D01*
G01X5643662Y2398895D01*
G01X5643662Y2381877D01*
G01X5649504Y2353175D01*
G01X5660934Y2336157D01*
G01X5677952Y2330315D01*
G01X5689382Y2330315D01*
G01X5706654Y2336157D01*
G01X5718084Y2353175D01*
G01X5723672Y2381877D01*
G01X5723672Y2398895D01*
G01X5718084Y2427597D01*
G01X5706654Y2444615D01*
G01X5689382Y2450457D01*
G01X5677952Y2450457D01*
G01X5771424Y2410325D02*
G01X5771424Y2330315D01*
G01X5771424Y2387465D02*
G01X5788696Y2404737D01*
G01X5800126Y2410325D01*
G01X5817144Y2410325D01*
G01X5828574Y2404737D01*
G01X5834416Y2387465D01*
G01X5834416Y2330315D01*
G01X5834416Y2387465D02*
G01X5851434Y2404737D01*
G01X5862864Y2410325D01*
G01X5880136Y2410325D01*
G01X5891566Y2404737D01*
G01X5897154Y2387465D01*
G01X5897154Y2330315D01*
G01X5944906Y2450457D02*
G01X5950748Y2444615D01*
G01X5956336Y2450457D01*
G01X5950748Y2456045D01*
G01X5944906Y2450457D01*
G01X5950748Y2410325D02*
G01X5950748Y2330315D01*
G01X6004088Y2450457D02*
G01X6004088Y2330315D01*
G01X6091972Y2473317D02*
G01X6080542Y2461887D01*
G01X6069112Y2444615D01*
G01X6057682Y2421755D01*
G01X6051840Y2393307D01*
G01X6051840Y2370447D01*
G01X6057682Y2341745D01*
G01X6069112Y2318885D01*
G01X6080542Y2301867D01*
G01X6091972Y2290437D01*
G01X6174014Y2450457D02*
G01X6156996Y2444615D01*
G01X6145566Y2427597D01*
G01X6139724Y2398895D01*
G01X6139724Y2381877D01*
G01X6145566Y2353175D01*
G01X6156996Y2336157D01*
G01X6174014Y2330315D01*
G01X6185444Y2330315D01*
G01X6202716Y2336157D01*
G01X6214146Y2353175D01*
G01X6219734Y2381877D01*
G01X6219734Y2398895D01*
G01X6214146Y2427597D01*
G01X6202716Y2444615D01*
G01X6185444Y2450457D01*
G01X6174014Y2450457D01*
G01X6273328Y2359017D02*
G01X6267486Y2353175D01*
G01X6273328Y2347587D01*
G01X6278916Y2353175D01*
G01X6273328Y2359017D01*
G01X6338098Y2450457D02*
G01X6401090Y2450457D01*
G01X6366800Y2404737D01*
G01X6383818Y2404737D01*
G01X6395248Y2398895D01*
G01X6401090Y2393307D01*
G01X6406678Y2376035D01*
G01X6406678Y2364605D01*
G01X6401090Y2347587D01*
G01X6389660Y2336157D01*
G01X6372388Y2330315D01*
G01X6355370Y2330315D01*
G01X6338098Y2336157D01*
G01X6332510Y2341745D01*
G01X6326668Y2353175D01*
G01X6488720Y2450457D02*
G01X6471702Y2444615D01*
G01X6460272Y2427597D01*
G01X6454430Y2398895D01*
G01X6454430Y2381877D01*
G01X6460272Y2353175D01*
G01X6471702Y2336157D01*
G01X6488720Y2330315D01*
G01X6500150Y2330315D01*
G01X6517422Y2336157D01*
G01X6528852Y2353175D01*
G01X6534440Y2381877D01*
G01X6534440Y2398895D01*
G01X6528852Y2427597D01*
G01X6517422Y2444615D01*
G01X6500150Y2450457D01*
G01X6488720Y2450457D01*
G01X6650772Y2450457D02*
G01X6593622Y2450457D01*
G01X6588034Y2398895D01*
G01X6593622Y2404737D01*
G01X6610894Y2410325D01*
G01X6627912Y2410325D01*
G01X6645184Y2404737D01*
G01X6656614Y2393307D01*
G01X6662202Y2376035D01*
G01X6662202Y2364605D01*
G01X6656614Y2347587D01*
G01X6645184Y2336157D01*
G01X6627912Y2330315D01*
G01X6610894Y2330315D01*
G01X6593622Y2336157D01*
G01X6588034Y2341745D01*
G01X6582192Y2353175D01*
G01X6709954Y2410325D02*
G01X6709954Y2330315D01*
G01X6709954Y2387465D02*
G01X6727226Y2404737D01*
G01X6738656Y2410325D01*
G01X6755674Y2410325D01*
G01X6767104Y2404737D01*
G01X6772946Y2387465D01*
G01X6772946Y2330315D01*
G01X6772946Y2387465D02*
G01X6789964Y2404737D01*
G01X6801394Y2410325D01*
G01X6818666Y2410325D01*
G01X6830096Y2404737D01*
G01X6835684Y2387465D01*
G01X6835684Y2330315D01*
G01X6883436Y2410325D02*
G01X6883436Y2330315D01*
G01X6883436Y2387465D02*
G01X6900708Y2404737D01*
G01X6912138Y2410325D01*
G01X6929156Y2410325D01*
G01X6940586Y2404737D01*
G01X6946428Y2387465D01*
G01X6946428Y2330315D01*
G01X6946428Y2387465D02*
G01X6963446Y2404737D01*
G01X6974876Y2410325D01*
G01X6992148Y2410325D01*
G01X7003578Y2404737D01*
G01X7009166Y2387465D01*
G01X7009166Y2330315D01*
G01X7056918Y2473317D02*
G01X7068348Y2461887D01*
G01X7079778Y2444615D01*
G01X7091208Y2421755D01*
G01X7097050Y2393307D01*
G01X7097050Y2370447D01*
G01X7091208Y2341745D01*
G01X7079778Y2318885D01*
G01X7068348Y2301867D01*
G01X7056918Y2290437D01*
G01X9324521Y2450457D02*
G01X9324521Y2330315D01*
G01X9324521Y2450457D02*
G01X9376083Y2450457D01*
G01X9393101Y2444615D01*
G01X9398943Y2439027D01*
G01X9404531Y2427597D01*
G01X9404531Y2410325D01*
G01X9398943Y2398895D01*
G01X9393101Y2393307D01*
G01X9376083Y2387465D01*
G01X9324521Y2387465D01*
G01X9492415Y2450457D02*
G01X9492415Y2330315D01*
G01X9452283Y2450457D02*
G01X9532293Y2450457D01*
G01X9580045Y2450457D02*
G01X9580045Y2330315D01*
G01X9660055Y2450457D02*
G01X9660055Y2330315D01*
G01X9580045Y2393307D02*
G01X9660055Y2393307D01*
G01X10785929Y2450457D02*
G01X10785929Y2330315D01*
G01X10785929Y2450457D02*
G01X10837491Y2450457D01*
G01X10854509Y2444615D01*
G01X10860351Y2439027D01*
G01X10865939Y2427597D01*
G01X10865939Y2416167D01*
G01X10860351Y2404737D01*
G01X10854509Y2398895D01*
G01X10837491Y2393307D01*
G01X10785929Y2393307D01*
G01X10826061Y2393307D02*
G01X10865939Y2330315D01*
G01X10942393Y2410325D02*
G01X10930963Y2404737D01*
G01X10919533Y2393307D01*
G01X10913691Y2376035D01*
G01X10913691Y2364605D01*
G01X10919533Y2347587D01*
G01X10930963Y2336157D01*
G01X10942393Y2330315D01*
G01X10959411Y2330315D01*
G01X10970841Y2336157D01*
G01X10982271Y2347587D01*
G01X10988113Y2364605D01*
G01X10988113Y2376035D01*
G01X10982271Y2393307D01*
G01X10970841Y2404737D01*
G01X10959411Y2410325D01*
G01X10942393Y2410325D01*
G01X11035865Y2410325D02*
G01X11035865Y2353175D01*
G01X11041707Y2336157D01*
G01X11053137Y2330315D01*
G01X11070155Y2330315D01*
G01X11081585Y2336157D01*
G01X11098857Y2353175D01*
G01X11098857Y2410325D02*
G01X11098857Y2330315D01*
G01X11146609Y2410325D02*
G01X11146609Y2330315D01*
G01X11146609Y2387465D02*
G01X11163881Y2404737D01*
G01X11175311Y2410325D01*
G01X11192329Y2410325D01*
G01X11203759Y2404737D01*
G01X11209601Y2387465D01*
G01X11209601Y2330315D01*
G01X11325933Y2450457D02*
G01X11325933Y2330315D01*
G01X11325933Y2393307D02*
G01X11314503Y2404737D01*
G01X11303073Y2410325D01*
G01X11286055Y2410325D01*
G01X11274625Y2404737D01*
G01X11263195Y2393307D01*
G01X11257353Y2376035D01*
G01X11257353Y2364605D01*
G01X11263195Y2347587D01*
G01X11274625Y2336157D01*
G01X11286055Y2330315D01*
G01X11303073Y2330315D01*
G01X11314503Y2336157D01*
G01X11325933Y2347587D01*
G01X12217110Y2450457D02*
G01X12262830Y2330315D01*
G01X12308550Y2450457D02*
G01X12262830Y2330315D01*
G01X12356302Y2450457D02*
G01X12362144Y2444615D01*
G01X12367732Y2450457D01*
G01X12362144Y2456045D01*
G01X12356302Y2450457D01*
G01X12362144Y2410325D02*
G01X12362144Y2330315D01*
G01X12484064Y2410325D02*
G01X12484064Y2330315D01*
G01X12484064Y2393307D02*
G01X12472634Y2404737D01*
G01X12461204Y2410325D01*
G01X12444186Y2410325D01*
G01X12432756Y2404737D01*
G01X12421326Y2393307D01*
G01X12415484Y2376035D01*
G01X12415484Y2364605D01*
G01X12421326Y2347587D01*
G01X12432756Y2336157D01*
G01X12444186Y2330315D01*
G01X12461204Y2330315D01*
G01X12472634Y2336157D01*
G01X12484064Y2347587D01*
G01X15845790Y2450457D02*
G01X15845790Y2330315D01*
G01X15805658Y2450457D02*
G01X15885668Y2450457D01*
G01X15962122Y2410325D02*
G01X15950692Y2404737D01*
G01X15939262Y2393307D01*
G01X15933420Y2376035D01*
G01X15933420Y2364605D01*
G01X15939262Y2347587D01*
G01X15950692Y2336157D01*
G01X15962122Y2330315D01*
G01X15979140Y2330315D01*
G01X15990570Y2336157D01*
G01X16002000Y2347587D01*
G01X16007842Y2364605D01*
G01X16007842Y2376035D01*
G01X16002000Y2393307D01*
G01X15990570Y2404737D01*
G01X15979140Y2410325D01*
G01X15962122Y2410325D01*
G01X16055594Y2410325D02*
G01X16055594Y2290437D01*
G01X16055594Y2393307D02*
G01X16067024Y2404737D01*
G01X16078454Y2410325D01*
G01X16095726Y2410325D01*
G01X16107156Y2404737D01*
G01X16118586Y2393307D01*
G01X16124174Y2376035D01*
G01X16124174Y2364605D01*
G01X16118586Y2347587D01*
G01X16107156Y2336157D01*
G01X16095726Y2330315D01*
G01X16078454Y2330315D01*
G01X16067024Y2336157D01*
G01X16055594Y2347587D01*
G01X16299942Y2450457D02*
G01X16299942Y2330315D01*
G01X16299942Y2330315D02*
G01X16368522Y2330315D01*
G01X16484854Y2410325D02*
G01X16484854Y2330315D01*
G01X16484854Y2393307D02*
G01X16473424Y2404737D01*
G01X16461994Y2410325D01*
G01X16444976Y2410325D01*
G01X16433546Y2404737D01*
G01X16422116Y2393307D01*
G01X16416274Y2376035D01*
G01X16416274Y2364605D01*
G01X16422116Y2347587D01*
G01X16433546Y2336157D01*
G01X16444976Y2330315D01*
G01X16461994Y2330315D01*
G01X16473424Y2336157D01*
G01X16484854Y2347587D01*
G01X16538448Y2410325D02*
G01X16572738Y2330315D01*
G01X16607028Y2410325D02*
G01X16572738Y2330315D01*
G01X16561308Y2307455D01*
G01X16549878Y2296025D01*
G01X16538448Y2290437D01*
G01X16532606Y2290437D01*
G01X16654780Y2376035D02*
G01X16723360Y2376035D01*
G01X16723360Y2387465D01*
G01X16717772Y2398895D01*
G01X16711930Y2404737D01*
G01X16700500Y2410325D01*
G01X16683482Y2410325D01*
G01X16672052Y2404737D01*
G01X16660622Y2393307D01*
G01X16654780Y2376035D01*
G01X16654780Y2364605D01*
G01X16660622Y2347587D01*
G01X16672052Y2336157D01*
G01X16683482Y2330315D01*
G01X16700500Y2330315D01*
G01X16711930Y2336157D01*
G01X16723360Y2347587D01*
G01X16771112Y2410325D02*
G01X16771112Y2330315D01*
G01X16771112Y2376035D02*
G01X16776954Y2393307D01*
G01X16788384Y2404737D01*
G01X16799814Y2410325D01*
G01X16816832Y2410325D01*
G01X16864584Y2381877D02*
G01X16967454Y2381877D01*
G01X17015206Y2450457D02*
G01X17015206Y2330315D01*
G01X17015206Y2450457D02*
G01X17066768Y2450457D01*
G01X17083786Y2444615D01*
G01X17089628Y2439027D01*
G01X17095216Y2427597D01*
G01X17095216Y2416167D01*
G01X17089628Y2404737D01*
G01X17083786Y2398895D01*
G01X17066768Y2393307D01*
G01X17015206Y2393307D02*
G01X17066768Y2393307D01*
G01X17083786Y2387465D01*
G01X17089628Y2381877D01*
G01X17095216Y2370447D01*
G01X17095216Y2353175D01*
G01X17089628Y2341745D01*
G01X17083786Y2336157D01*
G01X17066768Y2330315D01*
G01X17015206Y2330315D01*
G01X17171670Y2410325D02*
G01X17160240Y2404737D01*
G01X17148810Y2393307D01*
G01X17142968Y2376035D01*
G01X17142968Y2364605D01*
G01X17148810Y2347587D01*
G01X17160240Y2336157D01*
G01X17171670Y2330315D01*
G01X17188688Y2330315D01*
G01X17200118Y2336157D01*
G01X17211548Y2347587D01*
G01X17217390Y2364605D01*
G01X17217390Y2376035D01*
G01X17211548Y2393307D01*
G01X17200118Y2404737D01*
G01X17188688Y2410325D01*
G01X17171670Y2410325D01*
G01X17282414Y2450457D02*
G01X17282414Y2353175D01*
G01X17288002Y2336157D01*
G01X17299432Y2330315D01*
G01X17310862Y2330315D01*
G01X17265142Y2410325D02*
G01X17305274Y2410325D01*
G01X17375886Y2450457D02*
G01X17375886Y2353175D01*
G01X17381474Y2336157D01*
G01X17392904Y2330315D01*
G01X17404334Y2330315D01*
G01X17358614Y2410325D02*
G01X17398746Y2410325D01*
G01X17480788Y2410325D02*
G01X17469358Y2404737D01*
G01X17457928Y2393307D01*
G01X17452086Y2376035D01*
G01X17452086Y2364605D01*
G01X17457928Y2347587D01*
G01X17469358Y2336157D01*
G01X17480788Y2330315D01*
G01X17497806Y2330315D01*
G01X17509236Y2336157D01*
G01X17520666Y2347587D01*
G01X17526508Y2364605D01*
G01X17526508Y2376035D01*
G01X17520666Y2393307D01*
G01X17509236Y2404737D01*
G01X17497806Y2410325D01*
G01X17480788Y2410325D01*
G01X17574260Y2410325D02*
G01X17574260Y2330315D01*
G01X17574260Y2387465D02*
G01X17591532Y2404737D01*
G01X17602962Y2410325D01*
G01X17619980Y2410325D01*
G01X17631410Y2404737D01*
G01X17637252Y2387465D01*
G01X17637252Y2330315D01*
G01X17637252Y2387465D02*
G01X17654270Y2404737D01*
G01X17665700Y2410325D01*
G01X17682972Y2410325D01*
G01X17694402Y2404737D01*
G01X17699990Y2387465D01*
G01X17699990Y2330315D01*
G01X17875758Y2450457D02*
G01X17875758Y2330315D01*
G01X17875758Y2330315D02*
G01X17944338Y2330315D01*
G01X18060670Y2410325D02*
G01X18060670Y2330315D01*
G01X18060670Y2393307D02*
G01X18049240Y2404737D01*
G01X18037810Y2410325D01*
G01X18020792Y2410325D01*
G01X18009362Y2404737D01*
G01X17997932Y2393307D01*
G01X17992090Y2376035D01*
G01X17992090Y2364605D01*
G01X17997932Y2347587D01*
G01X18009362Y2336157D01*
G01X18020792Y2330315D01*
G01X18037810Y2330315D01*
G01X18049240Y2336157D01*
G01X18060670Y2347587D01*
G01X18114264Y2410325D02*
G01X18148554Y2330315D01*
G01X18182844Y2410325D02*
G01X18148554Y2330315D01*
G01X18137124Y2307455D01*
G01X18125694Y2296025D01*
G01X18114264Y2290437D01*
G01X18108422Y2290437D01*
G01X18230596Y2376035D02*
G01X18299176Y2376035D01*
G01X18299176Y2387465D01*
G01X18293588Y2398895D01*
G01X18287746Y2404737D01*
G01X18276316Y2410325D01*
G01X18259298Y2410325D01*
G01X18247868Y2404737D01*
G01X18236438Y2393307D01*
G01X18230596Y2376035D01*
G01X18230596Y2364605D01*
G01X18236438Y2347587D01*
G01X18247868Y2336157D01*
G01X18259298Y2330315D01*
G01X18276316Y2330315D01*
G01X18287746Y2336157D01*
G01X18299176Y2347587D01*
G01X18346928Y2410325D02*
G01X18346928Y2330315D01*
G01X18346928Y2376035D02*
G01X18352770Y2393307D01*
G01X18364200Y2404737D01*
G01X18375630Y2410325D01*
G01X18392648Y2410325D01*

G04 Image Start*
G36*
G01X2801489Y4011559D02*
G01X2695876Y4023040D01*
G01X2653001Y3925834D01*
G01X2610126Y4023040D01*
G01X2504513Y4011559D01*
G01X2567276Y4097284D01*
G01X2527554Y4151539D01*
G01X2559046Y4151539D01*
G01X2598747Y4097284D01*
G01X2559046Y4043030D01*
G01X2625874Y4050294D01*
G01X2625874Y4050294D01*
G01X2653001Y3988801D01*
G01X2680128Y4050294D01*
G01X2746956Y4043030D01*
G01X2707255Y4097284D01*
G01X2746930Y4151513D01*
G01X2680103Y4144249D01*
G01X2653001Y4205768D01*
G01X2625874Y4144274D01*
G01X2559046Y4151539D01*
G01X2527554Y4151539D01*
G01X2504513Y4183009D01*
G01X2610151Y4171528D01*
G01X2653001Y4268734D01*
G01X2695876Y4171528D01*
G01X2801489Y4183009D01*
G01X2738726Y4097284D01*
G01X2801489Y4011559D01*
G37*
G36*
G01X2672496Y5125864D02*
G01X2664756Y5125275D01*
G01X2656913Y5125077D01*
G01X2649069Y5125275D01*
G01X2641329Y5125864D01*
G01X2633702Y5126833D01*
G01X2626197Y5128173D01*
G01X2611591Y5131928D01*
G01X2597589Y5137052D01*
G01X2584266Y5143469D01*
G01X2571701Y5151103D01*
G01X2559969Y5159875D01*
G01X2549147Y5169711D01*
G01X2539311Y5180533D01*
G01X2530538Y5192266D01*
G01X2522905Y5204831D01*
G01X2516488Y5218153D01*
G01X2511364Y5232155D01*
G01X2507609Y5246761D01*
G01X2506268Y5254266D01*
G01X2505299Y5261894D01*
G01X2504711Y5269634D01*
G01X2504513Y5277477D01*
G01X2529913Y5277477D01*
G01X2530570Y5264511D01*
G01X2532497Y5251914D01*
G01X2535632Y5239753D01*
G01X2539909Y5228090D01*
G01X2545263Y5216991D01*
G01X2551632Y5206520D01*
G01X2558950Y5196740D01*
G01X2567152Y5187717D01*
G01X2576175Y5179514D01*
G01X2585955Y5172196D01*
G01X2596427Y5165828D01*
G01X2607526Y5160473D01*
G01X2619188Y5156196D01*
G01X2631350Y5153062D01*
G01X2631350Y5153062D01*
G01X2643946Y5151134D01*
G01X2656913Y5150477D01*
G01X2669879Y5151134D01*
G01X2682475Y5153062D01*
G01X2694637Y5156196D01*
G01X2706299Y5160473D01*
G01X2717399Y5165828D01*
G01X2727870Y5172196D01*
G01X2737650Y5179514D01*
G01X2746673Y5187717D01*
G01X2754876Y5196740D01*
G01X2762193Y5206520D01*
G01X2768562Y5216991D01*
G01X2773917Y5228090D01*
G01X2778193Y5239753D01*
G01X2781328Y5251914D01*
G01X2783256Y5264511D01*
G01X2783913Y5277477D01*
G01X2783256Y5290444D01*
G01X2781328Y5303040D01*
G01X2778193Y5315201D01*
G01X2773917Y5326864D01*
G01X2768562Y5337963D01*
G01X2762193Y5348435D01*
G01X2754876Y5358214D01*
G01X2746673Y5367238D01*
G01X2737650Y5375440D01*
G01X2727870Y5382758D01*
G01X2717399Y5389126D01*
G01X2706299Y5394481D01*
G01X2694637Y5398758D01*
G01X2682475Y5401892D01*
G01X2669879Y5403820D01*
G01X2656913Y5404477D01*
G01X2643946Y5403820D01*
G01X2631350Y5401892D01*
G01X2619188Y5398758D01*
G01X2607526Y5394481D01*
G01X2596427Y5389126D01*
G01X2585955Y5382758D01*
G01X2576175Y5375440D01*
G01X2567152Y5367238D01*
G01X2558950Y5358214D01*
G01X2551632Y5348435D01*
G01X2545263Y5337963D01*
G01X2539909Y5326864D01*
G01X2535632Y5315201D01*
G01X2532497Y5303040D01*
G01X2530570Y5290444D01*
G01X2529913Y5277477D01*
G01X2504513Y5277477D01*
G01X2504711Y5285320D01*
G01X2505299Y5293060D01*
G01X2506268Y5300688D01*
G01X2507609Y5308193D01*
G01X2511364Y5322799D01*
G01X2516488Y5336801D01*
G01X2522905Y5350123D01*
G01X2530538Y5362689D01*
G01X2539311Y5374421D01*
G01X2549147Y5385243D01*
G01X2559969Y5395079D01*
G01X2571701Y5403852D01*
G01X2584266Y5411485D01*
G01X2597589Y5417902D01*
G01X2611591Y5423026D01*
G01X2626197Y5426781D01*
G01X2633702Y5428121D01*
G01X2641329Y5429090D01*
G01X2649069Y5429679D01*
G01X2656913Y5429877D01*
G01X2664756Y5429679D01*
G01X2672496Y5429090D01*
G01X2680123Y5428121D01*
G01X2687629Y5426781D01*
G01X2702234Y5423026D01*
G01X2716237Y5417902D01*
G01X2729559Y5411485D01*
G01X2742124Y5403852D01*
G01X2753856Y5395079D01*
G01X2764678Y5385243D01*
G01X2774514Y5374421D01*
G01X2783287Y5362689D01*
G01X2790920Y5350123D01*
G01X2797337Y5336801D01*
G01X2802462Y5322799D01*
G01X2806217Y5308193D01*
G01X2807557Y5300688D01*
G01X2808526Y5293060D01*
G01X2809114Y5285320D01*
G01X2809313Y5277477D01*
G01X2809114Y5269634D01*
G01X2808526Y5261894D01*
G01X2807557Y5254266D01*
G01X2806217Y5246761D01*
G01X2802462Y5232155D01*
G01X2797337Y5218153D01*
G01X2790920Y5204831D01*
G01X2783287Y5192266D01*
G01X2774514Y5180533D01*
G01X2764678Y5169711D01*
G01X2753856Y5159875D01*
G01X2742124Y5151103D01*
G01X2729559Y5143469D01*
G01X2716237Y5137052D01*
G01X2702234Y5131928D01*
G01X2687629Y5128173D01*
G01X2680123Y5126833D01*
G01X2672496Y5125864D01*
G37*
G36*
G01X2809313Y2885926D02*
G01X2726204Y2885926D01*
G01X2726204Y2802791D01*
G01X2587647Y2802791D01*
G01X2587647Y2885900D01*
G01X2504513Y2885900D01*
G01X2504513Y2999057D01*
G01X2529913Y2999057D01*
G01X2529913Y2911326D01*
G01X2613047Y2911326D01*
G01X2613047Y2828191D01*
G01X2613047Y2828191D01*
G01X2700778Y2828191D01*
G01X2700778Y2911300D01*
G01X2783913Y2911300D01*
G01X2783913Y2999057D01*
G01X2700778Y2999057D01*
G01X2700778Y3082191D01*
G01X2613047Y3082191D01*
G01X2613047Y2999057D01*
G01X2529913Y2999057D01*
G01X2504513Y2999057D01*
G01X2504513Y3024457D01*
G01X2587647Y3024457D01*
G01X2587647Y3107591D01*
G01X2726178Y3107591D01*
G01X2726178Y3024457D01*
G01X2809313Y3024457D01*
G01X2809313Y2885926D01*
G37*
G36*
G01X2809313Y3688163D02*
G01X2739285Y3535763D01*
G01X2809313Y3383363D01*
G01X2656913Y3453391D01*
G01X2504513Y3383363D01*
G01X2528275Y3435077D01*
G01X2556227Y3435077D01*
G01X2646295Y3476479D01*
G01X2656913Y3481356D01*
G01X2667530Y3476479D01*
G01X2757598Y3435077D01*
G01X2716196Y3525146D01*
G01X2711319Y3535763D01*
G01X2716196Y3546380D01*
G01X2757598Y3636448D01*
G01X2667530Y3595046D01*
G01X2656913Y3590170D01*
G01X2646295Y3595046D01*
G01X2556227Y3636448D01*
G01X2597629Y3546380D01*
G01X2602506Y3535763D01*
G01X2602506Y3535763D01*
G01X2597629Y3525146D01*
G01X2556227Y3435077D01*
G01X2528275Y3435077D01*
G01X2574540Y3535763D01*
G01X2504513Y3688163D01*
G01X2656913Y3618135D01*
G01X2809313Y3688163D01*
G37*
G36*
G01X2504513Y4849306D02*
G01X2809313Y4849306D01*
G01X2656913Y4585349D01*
G01X2519178Y4823906D01*
G01X2548505Y4823906D01*
G01X2656913Y4636149D01*
G01X2765320Y4823906D01*
G01X2765320Y4823906D01*
G01X2548505Y4823906D01*
G01X2519178Y4823906D01*
G01X2504513Y4849306D01*
G37*
G36*
G01X2504513Y6010449D02*
G01X2783913Y6010449D01*
G01X2783913Y5731049D01*
G01X2504513Y5731049D01*
G01X2504513Y5985049D01*
G01X2529913Y5985049D01*
G01X2529913Y5756449D01*
G01X2758513Y5756449D01*
G01X2758513Y5985049D01*
G01X2758513Y5985049D01*
G01X2529913Y5985049D01*
G01X2504513Y5985049D01*
G01X2504513Y6010449D01*
G37*
G36*
G01X2783913Y2247620D02*
G01X2682313Y2247620D01*
G01X2644213Y2323820D01*
G01X2606113Y2247620D01*
G01X2504513Y2247620D01*
G01X2504513Y2273020D01*
G01X2529913Y2273020D01*
G01X2590415Y2273020D01*
G01X2621480Y2335174D01*
G01X2644213Y2380614D01*
G01X2666946Y2335174D01*
G01X2698010Y2273020D01*
G01X2758513Y2273020D01*
G01X2758513Y2333523D01*
G01X2696359Y2364612D01*
G01X2650918Y2387320D01*
G01X2696359Y2410028D01*
G01X2758513Y2441117D01*
G01X2758513Y2501620D01*
G01X2698010Y2501620D01*
G01X2666946Y2439466D01*
G01X2644213Y2394026D01*
G01X2621480Y2439466D01*
G01X2590415Y2501620D01*
G01X2529913Y2501620D01*
G01X2529913Y2441117D01*
G01X2592066Y2410028D01*
G01X2637507Y2387320D01*
G01X2592066Y2364612D01*
G01X2529913Y2333523D01*
G01X2529913Y2273020D01*
G01X2529913Y2273020D01*
G01X2504513Y2273020D01*
G01X2504513Y2349220D01*
G01X2580713Y2387320D01*
G01X2504513Y2425420D01*
G01X2504513Y2527020D01*
G01X2606113Y2527020D01*
G01X2644213Y2450820D01*
G01X2682313Y2527020D01*
G01X2783913Y2527020D01*
G01X2783913Y2425420D01*
G01X2707713Y2387320D01*
G01X2783913Y2349220D01*
G01X2783913Y2247620D01*
G37*

G04 PolygonModel Start*
G54D18*
G01X2214227Y2091591D02*
G01X18983379Y2091591D01*
G01X2214227Y2672163D02*
G01X18983379Y2672163D01*
G01X2214227Y3252734D02*
G01X18983379Y3252734D01*
G01X2214227Y3833306D02*
G01X18983379Y3833306D01*
G01X2214227Y4413877D02*
G01X18983379Y4413877D01*
G01X2214227Y4994449D02*
G01X18983379Y4994449D01*
G01X2214227Y5575020D02*
G01X18983379Y5575020D01*
G01X2214227Y6155591D02*
G01X18983379Y6155591D01*
G01X2214227Y6736163D02*
G01X18983379Y6736163D01*
G01X2214227Y6736163D02*
G01X2214227Y2116991D01*
G01X3665655Y6736163D02*
G01X3665655Y2116991D01*
G01X5079819Y6736163D02*
G01X5079819Y2116991D01*
G01X9024076Y6736163D02*
G01X9024076Y2116991D01*
G01X10485483Y6736163D02*
G01X10485483Y2116991D01*
G01X11916664Y6736163D02*
G01X11916664Y2116991D01*
G01X13585843Y6736163D02*
G01X13585843Y2116991D01*
G01X15505212Y6736163D02*
G01X15505212Y2116991D01*
G01X18983379Y6736163D02*
G01X18983379Y2116991D01*

M02*

