G04 Layer: TopSilkscreenLayer*
G04 EasyEDA Pro v3.2.87, 2026-07-14 13:35:36*
G04 Gerber Generator version 0.3*
G04 Scale: 100 percent, Rotated: No, Reflected: No*
G04 Dimensions in millimeters*
G04 Leading zeros omitted, absolute positions, 4 integers and 5 decimals*
G04 Generated by one-click*
%FSLAX45Y45*%
%MOMM*%
%ADD10C,0.1524*%
%ADD11C,0.2032*%
%ADD12C,0.254*%
%ADD13C,0.15199*%
%ADD14C,0.127*%
%ADD15C,0.1565*%
%ADD16C,0.15001*%
%ADD17C,0.2*%
%ADD18C,0.6*%
%ADD19C,0.3*%
%ADD20C,0.12903*%
%ADD21C,0.5*%
%ADD22C,0.21999*%
%ADD23C,0.25001*%
G75*


G04 Text Start*
G54D10*
G01X-9412236Y154793D02*
G01X-9418586Y151745D01*
G01X-9424682Y145395D01*
G01X-9427730Y139299D01*
G01X-9427730Y126853D01*
G01X-9424682Y120757D01*
G01X-9418586Y114407D01*
G01X-9412236Y111359D01*
G01X-9403092Y108311D01*
G01X-9387598Y108311D01*
G01X-9378200Y111359D01*
G01X-9372104Y114407D01*
G01X-9365754Y120757D01*
G01X-9362706Y126853D01*
G01X-9362706Y139299D01*
G01X-9365754Y145395D01*
G01X-9372104Y151745D01*
G01X-9378200Y154793D01*
G01X-9387598Y154793D01*
G01X-9387598Y139299D02*
G01X-9387598Y154793D01*
G01X-9427730Y185019D02*
G01X-9362706Y185019D01*
G01X-9427730Y185019D02*
G01X-9362706Y228199D01*
G01X-9427730Y228199D02*
G01X-9362706Y228199D01*
G01X-9427730Y258425D02*
G01X-9362706Y258425D01*
G01X-9427730Y258425D02*
G01X-9427730Y280015D01*
G01X-9424682Y289159D01*
G01X-9418586Y295509D01*
G01X-9412236Y298557D01*
G01X-9403092Y301605D01*
G01X-9387598Y301605D01*
G01X-9378200Y298557D01*
G01X-9372104Y295509D01*
G01X-9365754Y289159D01*
G01X-9362706Y280015D01*
G01X-9362706Y258425D01*
G01X-9495696Y4904551D02*
G01X-9498998Y4910647D01*
G01X-9508142Y4920045D01*
G01X-9443118Y4920045D01*
G01X-9492648Y4953319D02*
G01X-9495696Y4953319D01*
G01X-9502046Y4956367D01*
G01X-9505094Y4959415D01*
G01X-9508142Y4965511D01*
G01X-9508142Y4977957D01*
G01X-9505094Y4984307D01*
G01X-9502046Y4987355D01*
G01X-9495696Y4990403D01*
G01X-9489600Y4990403D01*
G01X-9483504Y4987355D01*
G01X-9474106Y4981005D01*
G01X-9443118Y4950271D01*
G01X-9443118Y4993451D01*
G01X-9508142Y5023677D02*
G01X-9443118Y5048315D01*
G01X-9508142Y5073207D02*
G01X-9443118Y5048315D01*
G01X-9509025Y5213054D02*
G01X-9509025Y5182066D01*
G01X-9481339Y5179018D01*
G01X-9484387Y5182066D01*
G01X-9487435Y5191464D01*
G01X-9487435Y5200862D01*
G01X-9484387Y5210006D01*
G01X-9478037Y5216102D01*
G01X-9468893Y5219404D01*
G01X-9462543Y5219404D01*
G01X-9453399Y5216102D01*
G01X-9447049Y5210006D01*
G01X-9444001Y5200862D01*
G01X-9444001Y5191464D01*
G01X-9447049Y5182066D01*
G01X-9450351Y5179018D01*
G01X-9456447Y5175970D01*
G01X-9509025Y5249630D02*
G01X-9444001Y5274268D01*
G01X-9509025Y5299160D02*
G01X-9444001Y5274268D01*
G01X-9510027Y5398185D02*
G01X-9445003Y5423077D01*
G01X-9510027Y5447715D02*
G01X-9445003Y5423077D01*
G01X-9494533Y5524169D02*
G01X-9500883Y5521121D01*
G01X-9506979Y5515025D01*
G01X-9510027Y5508675D01*
G01X-9510027Y5496483D01*
G01X-9506979Y5490133D01*
G01X-9500883Y5484037D01*
G01X-9494533Y5480989D01*
G01X-9485389Y5477941D01*
G01X-9469895Y5477941D01*
G01X-9460497Y5480989D01*
G01X-9454401Y5484037D01*
G01X-9448051Y5490133D01*
G01X-9445003Y5496483D01*
G01X-9445003Y5508675D01*
G01X-9448051Y5515025D01*
G01X-9454401Y5521121D01*
G01X-9460497Y5524169D01*
G01X-9494533Y5600623D02*
G01X-9500883Y5597575D01*
G01X-9506979Y5591479D01*
G01X-9510027Y5585129D01*
G01X-9510027Y5572937D01*
G01X-9506979Y5566587D01*
G01X-9500883Y5560491D01*
G01X-9494533Y5557443D01*
G01X-9485389Y5554395D01*
G01X-9469895Y5554395D01*
G01X-9460497Y5557443D01*
G01X-9454401Y5560491D01*
G01X-9448051Y5566587D01*
G01X-9445003Y5572937D01*
G01X-9445003Y5585129D01*
G01X-9448051Y5591479D01*
G01X-9454401Y5597575D01*
G01X-9460497Y5600623D01*
G01X-9510545Y5707465D02*
G01X-9445521Y5682573D01*
G01X-9510545Y5707465D02*
G01X-9445521Y5732103D01*
G01X-9467365Y5691971D02*
G01X-9467365Y5722705D01*
G01X-9510545Y5762329D02*
G01X-9445521Y5786967D01*
G01X-9510545Y5811859D02*
G01X-9445521Y5786967D01*
G01X-9495051Y5888313D02*
G01X-9501401Y5885265D01*
G01X-9507497Y5879169D01*
G01X-9510545Y5872819D01*
G01X-9510545Y5860627D01*
G01X-9507497Y5854277D01*
G01X-9501401Y5848181D01*
G01X-9495051Y5845133D01*
G01X-9485907Y5842085D01*
G01X-9470413Y5842085D01*
G01X-9461015Y5845133D01*
G01X-9454919Y5848181D01*
G01X-9448569Y5854277D01*
G01X-9445521Y5860627D01*
G01X-9445521Y5872819D01*
G01X-9448569Y5879169D01*
G01X-9454919Y5885265D01*
G01X-9461015Y5888313D01*
G01X-9495051Y5964767D02*
G01X-9501401Y5961719D01*
G01X-9507497Y5955623D01*
G01X-9510545Y5949273D01*
G01X-9510545Y5937081D01*
G01X-9507497Y5930731D01*
G01X-9501401Y5924635D01*
G01X-9495051Y5921587D01*
G01X-9485907Y5918539D01*
G01X-9470413Y5918539D01*
G01X-9461015Y5921587D01*
G01X-9454919Y5924635D01*
G01X-9448569Y5930731D01*
G01X-9445521Y5937081D01*
G01X-9445521Y5949273D01*
G01X-9448569Y5955623D01*
G01X-9454919Y5961719D01*
G01X-9461015Y5964767D01*
G01X-7172960Y6388354D02*
G01X-7148068Y6323330D01*
G01X-7123430Y6388354D02*
G01X-7148068Y6323330D01*
G01X-7093204Y6388354D02*
G01X-7093204Y6323330D01*
G01X-7062978Y6388354D02*
G01X-7062978Y6323330D01*
G01X-7062978Y6388354D02*
G01X-7019798Y6323330D01*
G01X-7019798Y6388354D02*
G01X-7019798Y6323330D01*
G01X-6230620Y6385814D02*
G01X-6230620Y6320790D01*
G01X-6230620Y6385814D02*
G01X-6209030Y6385814D01*
G01X-6199632Y6382766D01*
G01X-6193536Y6376670D01*
G01X-6190488Y6370320D01*
G01X-6187186Y6361176D01*
G01X-6187186Y6345682D01*
G01X-6190488Y6336284D01*
G01X-6193536Y6330188D01*
G01X-6199632Y6323838D01*
G01X-6209030Y6320790D01*
G01X-6230620Y6320790D01*
G01X-6156960Y6385814D02*
G01X-6156960Y6339332D01*
G01X-6153912Y6330188D01*
G01X-6147816Y6323838D01*
G01X-6138418Y6320790D01*
G01X-6132322Y6320790D01*
G01X-6122924Y6323838D01*
G01X-6116828Y6330188D01*
G01X-6113780Y6339332D01*
G01X-6113780Y6385814D01*
G01X-6083554Y6385814D02*
G01X-6083554Y6320790D01*
G01X-6083554Y6385814D02*
G01X-6055868Y6385814D01*
G01X-6046470Y6382766D01*
G01X-6043422Y6379718D01*
G01X-6040374Y6373368D01*
G01X-6040374Y6367272D01*
G01X-6043422Y6361176D01*
G01X-6046470Y6358128D01*
G01X-6055868Y6354826D01*
G01X-6083554Y6354826D02*
G01X-6055868Y6354826D01*
G01X-6046470Y6351778D01*
G01X-6043422Y6348730D01*
G01X-6040374Y6342634D01*
G01X-6040374Y6333236D01*
G01X-6043422Y6327140D01*
G01X-6046470Y6323838D01*
G01X-6055868Y6320790D01*
G01X-6083554Y6320790D01*
G01X-5966968Y6376670D02*
G01X-5973064Y6382766D01*
G01X-5982462Y6385814D01*
G01X-5994908Y6385814D01*
G01X-6004052Y6382766D01*
G01X-6010148Y6376670D01*
G01X-6010148Y6370320D01*
G01X-6007100Y6364224D01*
G01X-6004052Y6361176D01*
G01X-5997956Y6358128D01*
G01X-5979414Y6351778D01*
G01X-5973064Y6348730D01*
G01X-5970016Y6345682D01*
G01X-5966968Y6339332D01*
G01X-5966968Y6330188D01*
G01X-5973064Y6323838D01*
G01X-5982462Y6320790D01*
G01X-5994908Y6320790D01*
G01X-6004052Y6323838D01*
G01X-6010148Y6330188D01*
G01X-167383Y5237363D02*
G01X-232407Y5212471D01*
G01X-167383Y5187833D02*
G01X-232407Y5212471D01*
G01X-167383Y5157607D02*
G01X-232407Y5157607D01*
G01X-167383Y5157607D02*
G01X-167383Y5129921D01*
G01X-170431Y5120523D01*
G01X-173479Y5117475D01*
G01X-179829Y5114427D01*
G01X-185925Y5114427D01*
G01X-192021Y5117475D01*
G01X-195069Y5120523D01*
G01X-198371Y5129921D01*
G01X-198371Y5157607D01*
G01X-198371Y5136017D02*
G01X-232407Y5114427D01*
G01X-167383Y5084201D02*
G01X-232407Y5084201D01*
G01X-167383Y5084201D02*
G01X-167383Y5044069D01*
G01X-198371Y5084201D02*
G01X-198371Y5059563D01*
G01X-232407Y5084201D02*
G01X-232407Y5044069D01*
G01X-167383Y5013843D02*
G01X-232407Y5013843D01*
G01X-167383Y5013843D02*
G01X-167383Y4973711D01*
G01X-198371Y5013843D02*
G01X-198371Y4989205D01*
G01X-172463Y4845949D02*
G01X-237487Y4845949D01*
G01X-172463Y4845949D02*
G01X-172463Y4805817D01*
G01X-203451Y4845949D02*
G01X-203451Y4821057D01*
G01X-172463Y4750953D02*
G01X-237487Y4775591D01*
G01X-172463Y4750953D02*
G01X-237487Y4726061D01*
G01X-215643Y4766447D02*
G01X-215643Y4735459D01*
G01X-172463Y4695835D02*
G01X-218945Y4695835D01*
G01X-228089Y4692787D01*
G01X-234439Y4686691D01*
G01X-237487Y4677293D01*
G01X-237487Y4671197D01*
G01X-234439Y4661799D01*
G01X-228089Y4655703D01*
G01X-218945Y4652655D01*
G01X-172463Y4652655D01*
G01X-172463Y4622429D02*
G01X-237487Y4622429D01*
G01X-237487Y4622429D02*
G01X-237487Y4585345D01*
G01X-172463Y4533529D02*
G01X-237487Y4533529D01*
G01X-172463Y4555119D02*
G01X-172463Y4511939D01*
G01X-160017Y4457075D02*
G01X-259077Y4478665D01*
G01X-160017Y4438533D02*
G01X-259077Y4460123D01*
G01X-200149Y4478665D02*
G01X-200149Y4435485D01*
G01X-218945Y4481713D02*
G01X-218945Y4438533D01*
G01X-187957Y3783721D02*
G01X-181607Y3786769D01*
G01X-175511Y3793119D01*
G01X-172463Y3799215D01*
G01X-172463Y3811661D01*
G01X-175511Y3817757D01*
G01X-181607Y3824107D01*
G01X-187957Y3827155D01*
G01X-197101Y3830203D01*
G01X-212595Y3830203D01*
G01X-221993Y3827155D01*
G01X-228089Y3824107D01*
G01X-234439Y3817757D01*
G01X-237487Y3811661D01*
G01X-237487Y3799215D01*
G01X-234439Y3793119D01*
G01X-228089Y3786769D01*
G01X-221993Y3783721D01*
G01X-172463Y3731905D02*
G01X-237487Y3731905D01*
G01X-172463Y3753495D02*
G01X-172463Y3710315D01*
G01X-172463Y3680089D02*
G01X-237487Y3680089D01*
G01X-172463Y3680089D02*
G01X-172463Y3652403D01*
G01X-175511Y3643005D01*
G01X-178559Y3639957D01*
G01X-184909Y3636909D01*
G01X-191005Y3636909D01*
G01X-197101Y3639957D01*
G01X-200149Y3643005D01*
G01X-203451Y3652403D01*
G01X-203451Y3680089D01*
G01X-203451Y3658499D02*
G01X-237487Y3636909D01*
G01X-172463Y3606683D02*
G01X-237487Y3606683D01*
G01X-237487Y3606683D02*
G01X-237487Y3569599D01*
G01X-184909Y3539373D02*
G01X-181607Y3533277D01*
G01X-172463Y3524133D01*
G01X-237487Y3524133D01*
G01X-172463Y4351411D02*
G01X-237487Y4351411D01*
G01X-172463Y4321185D02*
G01X-237487Y4296547D01*
G01X-172463Y4271655D02*
G01X-237487Y4296547D01*
G01X-172463Y4241429D02*
G01X-237487Y4241429D01*
G01X-172463Y4211203D02*
G01X-237487Y4211203D01*
G01X-172463Y4211203D02*
G01X-237487Y4168023D01*
G01X-172463Y4168023D02*
G01X-237487Y4168023D01*
G01X-172463Y4137797D02*
G01X-237487Y4137797D01*
G01X-172463Y4137797D02*
G01X-237487Y4113159D01*
G01X-172463Y4088267D02*
G01X-237487Y4113159D01*
G01X-172463Y4088267D02*
G01X-237487Y4088267D01*
G01X-172463Y4039499D02*
G01X-175511Y4045849D01*
G01X-181607Y4051945D01*
G01X-187957Y4054993D01*
G01X-197101Y4058041D01*
G01X-212595Y4058041D01*
G01X-221993Y4054993D01*
G01X-228089Y4051945D01*
G01X-234439Y4045849D01*
G01X-237487Y4039499D01*
G01X-237487Y4027307D01*
G01X-234439Y4020957D01*
G01X-228089Y4014861D01*
G01X-221993Y4011813D01*
G01X-212595Y4008511D01*
G01X-197101Y4008511D01*
G01X-187957Y4011813D01*
G01X-181607Y4014861D01*
G01X-175511Y4020957D01*
G01X-172463Y4027307D01*
G01X-172463Y4039499D01*
G01X-172463Y3978285D02*
G01X-237487Y3978285D01*
G01X-172463Y3978285D02*
G01X-237487Y3935105D01*
G01X-172463Y3935105D02*
G01X-237487Y3935105D01*
G01X-172463Y3329823D02*
G01X-237487Y3329823D01*
G01X-181607Y3256417D02*
G01X-175511Y3262513D01*
G01X-172463Y3271911D01*
G01X-172463Y3284357D01*
G01X-175511Y3293501D01*
G01X-181607Y3299597D01*
G01X-187957Y3299597D01*
G01X-194053Y3296549D01*
G01X-197101Y3293501D01*
G01X-200149Y3287405D01*
G01X-206499Y3268863D01*
G01X-209547Y3262513D01*
G01X-212595Y3259465D01*
G01X-218945Y3256417D01*
G01X-228089Y3256417D01*
G01X-234439Y3262513D01*
G01X-237487Y3271911D01*
G01X-237487Y3284357D01*
G01X-234439Y3293501D01*
G01X-228089Y3299597D01*
G01X-172463Y3226191D02*
G01X-237487Y3226191D01*
G01X-172463Y3226191D02*
G01X-237487Y3201553D01*
G01X-172463Y3176661D02*
G01X-237487Y3201553D01*
G01X-172463Y3176661D02*
G01X-237487Y3176661D01*
G01X-172463Y3127893D02*
G01X-175511Y3134243D01*
G01X-181607Y3140339D01*
G01X-187957Y3143387D01*
G01X-197101Y3146435D01*
G01X-212595Y3146435D01*
G01X-221993Y3143387D01*
G01X-228089Y3140339D01*
G01X-234439Y3134243D01*
G01X-237487Y3127893D01*
G01X-237487Y3115701D01*
G01X-234439Y3109351D01*
G01X-228089Y3103255D01*
G01X-221993Y3100207D01*
G01X-212595Y3096905D01*
G01X-197101Y3096905D01*
G01X-187957Y3100207D01*
G01X-181607Y3103255D01*
G01X-175511Y3109351D01*
G01X-172463Y3115701D01*
G01X-172463Y3127893D01*
G01X-172463Y3066679D02*
G01X-237487Y3066679D01*
G01X-172463Y3066679D02*
G01X-237487Y3023499D01*
G01X-172463Y3023499D02*
G01X-237487Y3023499D01*
G01X-5148834Y-3025140D02*
G01X-5083810Y-3000248D01*
G01X-5148834Y-2975610D02*
G01X-5083810Y-3000248D01*
G01X-5133340Y-2899156D02*
G01X-5139690Y-2902204D01*
G01X-5145786Y-2908300D01*
G01X-5148834Y-2914650D01*
G01X-5148834Y-2926842D01*
G01X-5145786Y-2933192D01*
G01X-5139690Y-2939288D01*
G01X-5133340Y-2942336D01*
G01X-5124196Y-2945384D01*
G01X-5108702Y-2945384D01*
G01X-5099304Y-2942336D01*
G01X-5093208Y-2939288D01*
G01X-5086858Y-2933192D01*
G01X-5083810Y-2926842D01*
G01X-5083810Y-2914650D01*
G01X-5086858Y-2908300D01*
G01X-5093208Y-2902204D01*
G01X-5099304Y-2899156D01*
G01X-5133340Y-2822702D02*
G01X-5139690Y-2825750D01*
G01X-5145786Y-2831846D01*
G01X-5148834Y-2838196D01*
G01X-5148834Y-2850388D01*
G01X-5145786Y-2856738D01*
G01X-5139690Y-2862834D01*
G01X-5133340Y-2865882D01*
G01X-5124196Y-2868930D01*
G01X-5108702Y-2868930D01*
G01X-5099304Y-2865882D01*
G01X-5093208Y-2862834D01*
G01X-5086858Y-2856738D01*
G01X-5083810Y-2850388D01*
G01X-5083810Y-2838196D01*
G01X-5086858Y-2831846D01*
G01X-5093208Y-2825750D01*
G01X-5099304Y-2822702D01*
G01X-5148834Y-2704592D02*
G01X-5145786Y-2710942D01*
G01X-5139690Y-2717038D01*
G01X-5133340Y-2720086D01*
G01X-5124196Y-2723134D01*
G01X-5108702Y-2723134D01*
G01X-5099304Y-2720086D01*
G01X-5093208Y-2717038D01*
G01X-5086858Y-2710942D01*
G01X-5083810Y-2704592D01*
G01X-5083810Y-2692400D01*
G01X-5086858Y-2686050D01*
G01X-5093208Y-2679954D01*
G01X-5099304Y-2676906D01*
G01X-5108702Y-2673604D01*
G01X-5124196Y-2673604D01*
G01X-5133340Y-2676906D01*
G01X-5139690Y-2679954D01*
G01X-5145786Y-2686050D01*
G01X-5148834Y-2692400D01*
G01X-5148834Y-2704592D01*
G01X-5148834Y-2643378D02*
G01X-5102352Y-2643378D01*
G01X-5093208Y-2640330D01*
G01X-5086858Y-2634234D01*
G01X-5083810Y-2624836D01*
G01X-5083810Y-2618740D01*
G01X-5086858Y-2609342D01*
G01X-5093208Y-2603246D01*
G01X-5102352Y-2600198D01*
G01X-5148834Y-2600198D01*
G01X-5148834Y-2548382D02*
G01X-5083810Y-2548382D01*
G01X-5148834Y-2569972D02*
G01X-5148834Y-2526792D01*
G01X-8436051Y3744163D02*
G01X-8439099Y3750513D01*
G01X-8445449Y3756609D01*
G01X-8451545Y3759657D01*
G01X-8463991Y3759657D01*
G01X-8470087Y3756609D01*
G01X-8476437Y3750513D01*
G01X-8479485Y3744163D01*
G01X-8482533Y3735019D01*
G01X-8482533Y3719525D01*
G01X-8479485Y3710127D01*
G01X-8476437Y3704031D01*
G01X-8470087Y3697681D01*
G01X-8463991Y3694633D01*
G01X-8451545Y3694633D01*
G01X-8445449Y3697681D01*
G01X-8439099Y3704031D01*
G01X-8436051Y3710127D01*
G01X-8375091Y3759657D02*
G01X-8405825Y3716477D01*
G01X-8359597Y3716477D01*
G01X-8375091Y3759657D02*
G01X-8375091Y3694633D01*
G54D11*
G01X-8750000Y4076405D02*
G01X-8750000Y4179275D01*
G01X-8698438Y4127713D02*
G01X-8801308Y4127713D01*
G01X-9282135Y1939996D02*
G01X-9385005Y1939996D01*
G01X-9333443Y1991558D02*
G01X-9333443Y1888688D01*
G54D10*
G01X-8465322Y1166960D02*
G01X-8468370Y1173310D01*
G01X-8474720Y1179406D01*
G01X-8480816Y1182454D01*
G01X-8493262Y1182454D01*
G01X-8499358Y1179406D01*
G01X-8505708Y1173310D01*
G01X-8508756Y1166960D01*
G01X-8511804Y1157816D01*
G01X-8511804Y1142322D01*
G01X-8508756Y1132924D01*
G01X-8505708Y1126828D01*
G01X-8499358Y1120478D01*
G01X-8493262Y1117430D01*
G01X-8480816Y1117430D01*
G01X-8474720Y1120478D01*
G01X-8468370Y1126828D01*
G01X-8465322Y1132924D01*
G01X-8404362Y1182454D02*
G01X-8435096Y1139274D01*
G01X-8388868Y1139274D01*
G01X-8404362Y1182454D02*
G01X-8404362Y1117430D01*
G01X-8352546Y1182454D02*
G01X-8318510Y1182454D01*
G01X-8337052Y1157816D01*
G01X-8327908Y1157816D01*
G01X-8321558Y1154768D01*
G01X-8318510Y1151466D01*
G01X-8315462Y1142322D01*
G01X-8315462Y1135972D01*
G01X-8318510Y1126828D01*
G01X-8324606Y1120478D01*
G01X-8334004Y1117430D01*
G01X-8343402Y1117430D01*
G01X-8352546Y1120478D01*
G01X-8355594Y1123780D01*
G01X-8358642Y1129876D01*
G54D11*
G01X-3664737Y-1980649D02*
G01X-3767607Y-1980649D01*
G01X-4821199Y-2006557D02*
G01X-4821199Y-1903687D01*
G01X-4769637Y-1955249D02*
G01X-4872507Y-1955249D01*
G01X-8628273Y5456162D02*
G01X-8525403Y5456162D01*
G01X-7471811Y5482070D02*
G01X-7471811Y5379200D01*
G01X-7523373Y5430762D02*
G01X-7420503Y5430762D01*
G54D10*
G01X-8620887Y4813757D02*
G01X-8620887Y4748733D01*
G01X-8620887Y4813757D02*
G01X-8599297Y4813757D01*
G01X-8589899Y4810709D01*
G01X-8583803Y4804613D01*
G01X-8580755Y4798263D01*
G01X-8577453Y4789119D01*
G01X-8577453Y4773625D01*
G01X-8580755Y4764227D01*
G01X-8583803Y4758131D01*
G01X-8589899Y4751781D01*
G01X-8599297Y4748733D01*
G01X-8620887Y4748733D01*
G01X-8510143Y4804613D02*
G01X-8513191Y4810709D01*
G01X-8522589Y4813757D01*
G01X-8528685Y4813757D01*
G01X-8538083Y4810709D01*
G01X-8544179Y4801311D01*
G01X-8547227Y4786071D01*
G01X-8547227Y4770577D01*
G01X-8544179Y4758131D01*
G01X-8538083Y4751781D01*
G01X-8528685Y4748733D01*
G01X-8525637Y4748733D01*
G01X-8516493Y4751781D01*
G01X-8510143Y4758131D01*
G01X-8507095Y4767275D01*
G01X-8507095Y4770577D01*
G01X-8510143Y4779721D01*
G01X-8516493Y4786071D01*
G01X-8525637Y4789119D01*
G01X-8528685Y4789119D01*
G01X-8538083Y4786071D01*
G01X-8544179Y4779721D01*
G01X-8547227Y4770577D01*
G01X-7112360Y1046446D02*
G01X-7112360Y1111470D01*
G01X-7112360Y1046446D02*
G01X-7133950Y1046446D01*
G01X-7143348Y1049494D01*
G01X-7149444Y1055590D01*
G01X-7152492Y1061940D01*
G01X-7155794Y1071084D01*
G01X-7155794Y1086578D01*
G01X-7152492Y1095976D01*
G01X-7149444Y1102072D01*
G01X-7143348Y1108422D01*
G01X-7133950Y1111470D01*
G01X-7112360Y1111470D01*
G01X-7201260Y1046446D02*
G01X-7192116Y1049494D01*
G01X-7189068Y1055590D01*
G01X-7189068Y1061940D01*
G01X-7192116Y1068036D01*
G01X-7198212Y1071084D01*
G01X-7210658Y1074132D01*
G01X-7220056Y1077434D01*
G01X-7226152Y1083530D01*
G01X-7229200Y1089626D01*
G01X-7229200Y1099024D01*
G01X-7226152Y1105120D01*
G01X-7223104Y1108422D01*
G01X-7213706Y1111470D01*
G01X-7201260Y1111470D01*
G01X-7192116Y1108422D01*
G01X-7189068Y1105120D01*
G01X-7186020Y1099024D01*
G01X-7186020Y1089626D01*
G01X-7189068Y1083530D01*
G01X-7195164Y1077434D01*
G01X-7204562Y1074132D01*
G01X-7216754Y1071084D01*
G01X-7223104Y1068036D01*
G01X-7226152Y1061940D01*
G01X-7226152Y1055590D01*
G01X-7223104Y1049494D01*
G01X-7213706Y1046446D01*
G01X-7201260Y1046446D01*
G01X-7555788Y3089003D02*
G01X-7558836Y3095099D01*
G01X-7564932Y3101449D01*
G01X-7571282Y3104497D01*
G01X-7580426Y3107545D01*
G01X-7595920Y3107545D01*
G01X-7605318Y3104497D01*
G01X-7611414Y3101449D01*
G01X-7617764Y3095099D01*
G01X-7620812Y3089003D01*
G01X-7620812Y3076557D01*
G01X-7617764Y3070461D01*
G01X-7611414Y3064111D01*
G01X-7605318Y3061063D01*
G01X-7595920Y3058015D01*
G01X-7580426Y3058015D01*
G01X-7571282Y3061063D01*
G01X-7564932Y3064111D01*
G01X-7558836Y3070461D01*
G01X-7555788Y3076557D01*
G01X-7555788Y3089003D01*
G01X-7608366Y3079605D02*
G01X-7626908Y3061063D01*
G01X-7568234Y3027789D02*
G01X-7564932Y3021693D01*
G01X-7555788Y3012549D01*
G01X-7620812Y3012549D01*
G01X-7571282Y2979275D02*
G01X-7568234Y2979275D01*
G01X-7561884Y2976227D01*
G01X-7558836Y2973179D01*
G01X-7555788Y2967083D01*
G01X-7555788Y2954637D01*
G01X-7558836Y2948287D01*
G01X-7561884Y2945239D01*
G01X-7568234Y2942191D01*
G01X-7574330Y2942191D01*
G01X-7580426Y2945239D01*
G01X-7589824Y2951589D01*
G01X-7620812Y2982323D01*
G01X-7620812Y2939143D01*
G01X-8592119Y-830709D02*
G01X-8657143Y-874143D01*
G01X-8592119Y-874143D02*
G01X-8657143Y-830709D01*
G01X-8604565Y-904369D02*
G01X-8601263Y-910465D01*
G01X-8592119Y-919609D01*
G01X-8657143Y-919609D01*
G01X-4697870Y-295021D02*
G01X-4700918Y-288671D01*
G01X-4707268Y-282575D01*
G01X-4713364Y-279527D01*
G01X-4725810Y-279527D01*
G01X-4731906Y-282575D01*
G01X-4738256Y-288671D01*
G01X-4741304Y-295021D01*
G01X-4744352Y-304165D01*
G01X-4744352Y-319659D01*
G01X-4741304Y-329057D01*
G01X-4738256Y-335153D01*
G01X-4731906Y-341503D01*
G01X-4725810Y-344551D01*
G01X-4713364Y-344551D01*
G01X-4707268Y-341503D01*
G01X-4700918Y-335153D01*
G01X-4697870Y-329057D01*
G01X-4630560Y-279527D02*
G01X-4661548Y-279527D01*
G01X-4664596Y-307213D01*
G01X-4661548Y-304165D01*
G01X-4652404Y-301117D01*
G01X-4643006Y-301117D01*
G01X-4633608Y-304165D01*
G01X-4627512Y-310515D01*
G01X-4624464Y-319659D01*
G01X-4624464Y-326009D01*
G01X-4627512Y-335153D01*
G01X-4633608Y-341503D01*
G01X-4643006Y-344551D01*
G01X-4652404Y-344551D01*
G01X-4661548Y-341503D01*
G01X-4664596Y-338201D01*
G01X-4667644Y-332105D01*
G01X-4554106Y-301117D02*
G01X-4557154Y-310515D01*
G01X-4563504Y-316611D01*
G01X-4572648Y-319659D01*
G01X-4575696Y-319659D01*
G01X-4585094Y-316611D01*
G01X-4591190Y-310515D01*
G01X-4594238Y-301117D01*
G01X-4594238Y-298069D01*
G01X-4591190Y-288671D01*
G01X-4585094Y-282575D01*
G01X-4575696Y-279527D01*
G01X-4572648Y-279527D01*
G01X-4563504Y-282575D01*
G01X-4557154Y-288671D01*
G01X-4554106Y-301117D01*
G01X-4554106Y-316611D01*
G01X-4557154Y-332105D01*
G01X-4563504Y-341503D01*
G01X-4572648Y-344551D01*
G01X-4578998Y-344551D01*
G01X-4588142Y-341503D01*
G01X-4591190Y-335153D01*
G01X-4444147Y4805157D02*
G01X-4444147Y4870181D01*
G01X-4444147Y4805157D02*
G01X-4472087Y4805157D01*
G01X-4481231Y4808205D01*
G01X-4484279Y4811253D01*
G01X-4487581Y4817603D01*
G01X-4487581Y4823699D01*
G01X-4484279Y4829795D01*
G01X-4481231Y4832843D01*
G01X-4472087Y4836145D01*
G01X-4444147Y4836145D01*
G01X-4465737Y4836145D02*
G01X-4487581Y4870181D01*
G01X-4517807Y4817603D02*
G01X-4523903Y4814301D01*
G01X-4533047Y4805157D01*
G01X-4533047Y4870181D01*
G01X-4603405Y4826747D02*
G01X-4600357Y4836145D01*
G01X-4594007Y4842241D01*
G01X-4584863Y4845289D01*
G01X-4581815Y4845289D01*
G01X-4572417Y4842241D01*
G01X-4566321Y4836145D01*
G01X-4563273Y4826747D01*
G01X-4563273Y4823699D01*
G01X-4566321Y4814301D01*
G01X-4572417Y4808205D01*
G01X-4581815Y4805157D01*
G01X-4584863Y4805157D01*
G01X-4594007Y4808205D01*
G01X-4600357Y4814301D01*
G01X-4603405Y4826747D01*
G01X-4603405Y4842241D01*
G01X-4600357Y4857735D01*
G01X-4594007Y4867133D01*
G01X-4584863Y4870181D01*
G01X-4578513Y4870181D01*
G01X-4569369Y4867133D01*
G01X-4566321Y4860783D01*
G04 Text End*

G04 PolygonModel Start*
G54D12*
G01X-8753135Y422040D02*
G01X-8673137Y422040D01*
G01X-8809180Y422086D02*
G01X-8889177Y422086D01*
G01X-8753135Y280072D02*
G01X-8673137Y280072D01*
G01X-8809180Y280120D02*
G01X-8889177Y280120D01*
G01X-8642162Y391057D02*
G01X-8642162Y311052D01*
G01X-8920155Y311106D02*
G01X-8920155Y391108D01*
G01X-8889172Y280120D02*
G02X-8920155Y311106I0J30983D01*
G01X-8920155Y391103D02*
G02X-8889172Y422086I30983J0D01*
G01X-8673142Y422040D02*
G02X-8642162Y391057I-3J-30983D01*
G01X-8642162Y311060D02*
G02X-8673142Y280072I-30983J-5D01*
G01X-3429523Y5859808D02*
G01X-3429523Y5779811D01*
G01X-3429477Y5915853D02*
G01X-3429477Y5995850D01*
G01X-3571491Y5859808D02*
G01X-3571491Y5779811D01*
G01X-3571443Y5915853D02*
G01X-3571443Y5995850D01*
G01X-3460506Y5748835D02*
G01X-3540511Y5748835D01*
G01X-3540457Y6026828D02*
G01X-3460455Y6026828D01*
G01X-3571443Y5995845D02*
G02X-3540457Y6026828I30983J0D01*
G01X-3460460Y6026828D02*
G02X-3429477Y5995845I0J-30983D01*
G01X-3429523Y5779816D02*
G02X-3460506Y5748835I-30983J3D01*
G01X-3540503Y5748835D02*
G02X-3571491Y5779816I-5J30983D01*
G54D10*
G01X-7821094Y4584522D02*
G01X-7821094Y4869764D01*
G01X-7836334Y4885004D02*
G01X-7999834Y4885004D01*
G01X-7999834Y4569282D02*
G01X-7836334Y4569282D01*
G01X-8318574Y4885004D02*
G01X-8155074Y4885004D01*
G01X-8155074Y4569282D02*
G01X-8318574Y4569282D01*
G01X-8333814Y4584522D02*
G01X-8333814Y4869764D01*
G01X-7836334Y4569282D02*
G03X-7821094Y4584522I0J15240D01*
G01X-7821094Y4869764D02*
G03X-7836334Y4885004I-15240J0D01*
G01X-8318574Y4569282D02*
G02X-8333814Y4584522I0J15240D01*
G01X-8333814Y4869764D02*
G02X-8318574Y4885004I15240J0D01*
G01X-7787973Y3586302D02*
G01X-7787973Y3871544D01*
G01X-7803213Y3886784D02*
G01X-7966713Y3886784D01*
G01X-7966713Y3571062D02*
G01X-7803213Y3571062D01*
G01X-8285452Y3886784D02*
G01X-8121952Y3886784D01*
G01X-8121952Y3571062D02*
G01X-8285452Y3571062D01*
G01X-8300692Y3586302D02*
G01X-8300692Y3871544D01*
G01X-7803213Y3571062D02*
G03X-7787973Y3586302I0J15240D01*
G01X-7787973Y3871544D02*
G03X-7803213Y3886784I-15240J0D01*
G01X-8285452Y3571062D02*
G02X-8300692Y3586302I0J15240D01*
G01X-8300692Y3871544D02*
G02X-8285452Y3886784I15240J0D01*
G54D13*
G01X-9655383Y3389182D02*
G01X-9655383Y3811297D01*
G01X-8610133Y4004823D02*
G01X-8610133Y4012321D01*
G01X-8610133Y3811297D02*
G01X-8610133Y3818796D01*
G01X-9655383Y4004823D02*
G01X-9655383Y4013405D01*
G01X-9655383Y3811297D02*
G01X-9655383Y3818796D01*
G01X-9655383Y4012321D02*
G01X-9655383Y4434385D01*
G01X-8610133Y4012321D02*
G01X-8610133Y4220773D01*
G01X-8610133Y3602807D02*
G01X-8610133Y3811297D01*
G54D10*
G01X-9655383Y4434385D02*
G01X-8823787Y4434385D01*
G01X-8823787Y4434385D02*
G01X-8610168Y4220773D01*
G01X-9655383Y3389182D02*
G01X-8823757Y3389182D01*
G01X-8823757Y3389182D02*
G01X-8610133Y3602807D01*
G54D12*
G01X-9067963Y2331641D02*
G01X-9067963Y2251644D01*
G01X-9067917Y2387686D02*
G01X-9067917Y2467684D01*
G01X-9209931Y2331641D02*
G01X-9209931Y2251644D01*
G01X-9209883Y2387686D02*
G01X-9209883Y2467684D01*
G01X-9098945Y2220669D02*
G01X-9178950Y2220669D01*
G01X-9178897Y2498662D02*
G01X-9098895Y2498662D01*
G01X-9209883Y2467679D02*
G02X-9178897Y2498662I30983J0D01*
G01X-9098900Y2498662D02*
G02X-9067917Y2467679I0J-30983D01*
G01X-9067963Y2251649D02*
G02X-9098945Y2220669I-30983J3D01*
G01X-9178943Y2220669D02*
G02X-9209931Y2251649I-5J30983D01*
G01X-6965154Y3429042D02*
G01X-6885157Y3429042D01*
G01X-7021200Y3429088D02*
G01X-7101197Y3429088D01*
G01X-6965154Y3287074D02*
G01X-6885157Y3287074D01*
G01X-7021200Y3287122D02*
G01X-7101197Y3287122D01*
G01X-6854182Y3398059D02*
G01X-6854182Y3318054D01*
G01X-7132175Y3318107D02*
G01X-7132175Y3398110D01*
G01X-7101192Y3287122D02*
G02X-7132175Y3318107I0J30983D01*
G01X-7132175Y3398105D02*
G02X-7101192Y3429088I30983J0D01*
G01X-6885162Y3429042D02*
G02X-6854182Y3398059I-3J-30983D01*
G01X-6854182Y3318062D02*
G02X-6885162Y3287074I-30983J-5D01*
G54D10*
G01X-7047720Y2930081D02*
G01X-7188721Y2930081D01*
G01X-7188721Y2749360D02*
G01X-7047720Y2749360D01*
G01X-7032480Y2764600D02*
G01X-7032480Y2914841D01*
G01X-7409960Y2930081D02*
G01X-7268959Y2930081D01*
G01X-7268959Y2749360D02*
G01X-7409960Y2749360D01*
G01X-7425200Y2764600D02*
G01X-7425200Y2914841D01*
G01X-7047720Y2749360D02*
G03X-7032480Y2764600I0J15240D01*
G01X-7032480Y2914841D02*
G03X-7047720Y2930081I-15240J0D01*
G01X-7409960Y2749360D02*
G02X-7425200Y2764600I0J15240D01*
G01X-7425200Y2914841D02*
G02X-7409960Y2930081I15240J0D01*
G54D13*
G01X-8594913Y1034613D02*
G01X-9017028Y1034613D01*
G01X-9210553Y2079863D02*
G01X-9218051Y2079863D01*
G01X-9017028Y2079863D02*
G01X-9024526Y2079863D01*
G01X-9210553Y1034613D02*
G01X-9219136Y1034613D01*
G01X-9017028Y1034613D02*
G01X-9024526Y1034613D01*
G01X-9218051Y1034613D02*
G01X-9640115Y1034613D01*
G01X-9218051Y2079863D02*
G01X-9426504Y2079863D01*
G01X-8808537Y2079863D02*
G01X-9017028Y2079863D01*
G54D10*
G01X-9640115Y1034613D02*
G01X-9640115Y1866209D01*
G01X-9640115Y1866209D02*
G01X-9426504Y2079828D01*
G01X-8594913Y1034613D02*
G01X-8594913Y1866239D01*
G01X-8594913Y1866239D02*
G01X-8808537Y2079863D01*
G01X-7585446Y1729892D02*
G01X-7870688Y1729892D01*
G01X-7885928Y1714652D02*
G01X-7885928Y1551153D01*
G01X-7570206Y1551153D02*
G01X-7570206Y1714652D01*
G01X-7885928Y1232413D02*
G01X-7885928Y1395913D01*
G01X-7570206Y1395913D02*
G01X-7570206Y1232413D01*
G01X-7585446Y1217173D02*
G01X-7870688Y1217173D01*
G01X-7570206Y1714652D02*
G03X-7585446Y1729892I-15240J0D01*
G01X-7870688Y1729892D02*
G03X-7885928Y1714652I0J-15240D01*
G01X-7570206Y1232413D02*
G02X-7585446Y1217173I-15240J0D01*
G01X-7870688Y1217173D02*
G02X-7885928Y1232413I0J15240D01*
G01X-7916408Y1729892D02*
G01X-8201650Y1729892D01*
G01X-8216890Y1714652D02*
G01X-8216890Y1551153D01*
G01X-7901168Y1551153D02*
G01X-7901168Y1714652D01*
G01X-8216890Y1232413D02*
G01X-8216890Y1395913D01*
G01X-7901168Y1395913D02*
G01X-7901168Y1232413D01*
G01X-7916408Y1217173D02*
G01X-8201650Y1217173D01*
G01X-7901168Y1714652D02*
G03X-7916408Y1729892I-15240J0D01*
G01X-8201650Y1729892D02*
G03X-8216890Y1714652I0J-15240D01*
G01X-7901168Y1232413D02*
G02X-7916408Y1217173I-15240J0D01*
G01X-8201650Y1217173D02*
G02X-8216890Y1232413I0J15240D01*
G01X-6482148Y-68457D02*
G01X-6482148Y-209458D01*
G01X-6301427Y-209458D02*
G01X-6301427Y-68457D01*
G01X-6316667Y-53217D02*
G01X-6466908Y-53217D01*
G01X-6482148Y-430697D02*
G01X-6482148Y-289696D01*
G01X-6301427Y-289696D02*
G01X-6301427Y-430697D01*
G01X-6316667Y-445937D02*
G01X-6466908Y-445937D01*
G01X-6301427Y-68457D02*
G03X-6316667Y-53217I-15240J0D01*
G01X-6466908Y-53217D02*
G03X-6482148Y-68457I0J-15240D01*
G01X-6301427Y-430697D02*
G02X-6316667Y-445937I-15240J0D01*
G01X-6466908Y-445937D02*
G02X-6482148Y-430697I0J15240D01*
G54D12*
G01X-6511330Y128804D02*
G01X-6511330Y48807D01*
G01X-6511284Y184849D02*
G01X-6511284Y264847D01*
G01X-6653298Y128804D02*
G01X-6653298Y48807D01*
G01X-6653250Y184849D02*
G01X-6653250Y264847D01*
G01X-6542313Y17832D02*
G01X-6622317Y17832D01*
G01X-6622264Y295824D02*
G01X-6542262Y295824D01*
G01X-6653250Y264841D02*
G02X-6622264Y295824I30983J0D01*
G01X-6542267Y295824D02*
G02X-6511284Y264841I0J-30983D01*
G01X-6511330Y48812D02*
G02X-6542313Y17832I-30983J3D01*
G01X-6622310Y17832D02*
G02X-6653298Y48812I-5J30983D01*
G54D10*
G01X-5080121Y-643860D02*
G01X-4794879Y-643860D01*
G01X-4779639Y-628620D02*
G01X-4779639Y-465120D01*
G01X-5095361Y-465120D02*
G01X-5095361Y-628620D01*
G01X-4779639Y-146380D02*
G01X-4779639Y-309880D01*
G01X-5095361Y-309880D02*
G01X-5095361Y-146380D01*
G01X-5080121Y-131140D02*
G01X-4794879Y-131140D01*
G01X-5095361Y-628620D02*
G03X-5080121Y-643860I15240J0D01*
G01X-4794879Y-643860D02*
G03X-4779639Y-628620I0J15240D01*
G01X-5095361Y-146380D02*
G02X-5080121Y-131140I15240J0D01*
G01X-4794879Y-131140D02*
G02X-4779639Y-146380I0J-15240D01*
G54D12*
G01X-5337525Y-198698D02*
G01X-5337525Y-118701D01*
G01X-5337570Y-254743D02*
G01X-5337570Y-334741D01*
G01X-5195556Y-198698D02*
G01X-5195556Y-118701D01*
G01X-5195605Y-254743D02*
G01X-5195605Y-334741D01*
G01X-5306542Y-87726D02*
G01X-5226537Y-87726D01*
G01X-5226590Y-365719D02*
G01X-5306592Y-365719D01*
G01X-5195605Y-334736D02*
G02X-5226590Y-365719I-30983J0D01*
G01X-5306587Y-365719D02*
G02X-5337570Y-334736I0J30983D01*
G01X-5337525Y-118706D02*
G02X-5306542Y-87726I30983J-3D01*
G01X-5226544Y-87726D02*
G02X-5195556Y-118706I5J-30983D01*
G54D10*
G01X-6482148Y337943D02*
G01X-6482148Y196942D01*
G01X-6301427Y196942D02*
G01X-6301427Y337943D01*
G01X-6316667Y353183D02*
G01X-6466908Y353183D01*
G01X-6482148Y-24297D02*
G01X-6482148Y116704D01*
G01X-6301427Y116704D02*
G01X-6301427Y-24297D01*
G01X-6316667Y-39537D02*
G01X-6466908Y-39537D01*
G01X-6301427Y337943D02*
G03X-6316667Y353183I-15240J0D01*
G01X-6466908Y353183D02*
G03X-6482148Y337943I0J-15240D01*
G01X-6301427Y-24297D02*
G02X-6316667Y-39537I-15240J0D01*
G01X-6466908Y-39537D02*
G02X-6482148Y-24297I0J15240D01*
G54D12*
G01X-6138947Y709610D02*
G01X-6138947Y789607D01*
G01X-6138993Y653565D02*
G01X-6138993Y573567D01*
G01X-5996979Y709610D02*
G01X-5996979Y789607D01*
G01X-5997027Y653565D02*
G01X-5997027Y573567D01*
G01X-6107964Y820582D02*
G01X-6027959Y820582D01*
G01X-6028013Y542589D02*
G01X-6108015Y542589D01*
G01X-5997027Y573572D02*
G02X-6028013Y542589I-30983J0D01*
G01X-6108010Y542589D02*
G02X-6138993Y573572I0J30983D01*
G01X-6138947Y789602D02*
G02X-6107964Y820582I30983J-3D01*
G01X-6027967Y820582D02*
G02X-5996979Y789602I5J-30983D01*
G54D10*
G01X-8155193Y493404D02*
G01X-8155193Y208162D01*
G01X-8139953Y192922D02*
G01X-7976453Y192922D01*
G01X-7976453Y508644D02*
G01X-8139953Y508644D01*
G01X-7657714Y192922D02*
G01X-7821213Y192922D01*
G01X-7821213Y508644D02*
G01X-7657714Y508644D01*
G01X-7642474Y493404D02*
G01X-7642474Y208162D01*
G01X-8139953Y508644D02*
G03X-8155193Y493404I0J-15240D01*
G01X-8155193Y208162D02*
G03X-8139953Y192922I15240J0D01*
G01X-7657714Y508644D02*
G02X-7642474Y493404I0J-15240D01*
G01X-7642474Y208162D02*
G02X-7657714Y192922I-15240J0D01*
G54D12*
G01X-8350172Y280125D02*
G01X-8430169Y280125D01*
G01X-8294127Y280080D02*
G01X-8214130Y280080D01*
G01X-8350172Y422094D02*
G01X-8430169Y422094D01*
G01X-8294127Y422045D02*
G01X-8214130Y422045D01*
G01X-8461145Y311108D02*
G01X-8461145Y391113D01*
G01X-8183152Y391060D02*
G01X-8183152Y311058D01*
G01X-8214135Y422045D02*
G02X-8183152Y391060I0J-30983D01*
G01X-8183152Y311063D02*
G02X-8214135Y280080I-30983J0D01*
G01X-8430164Y280125D02*
G02X-8461145Y311108I3J30983D01*
G01X-8461145Y391106D02*
G02X-8430164Y422094I30983J5D01*
G01X-9115072Y277225D02*
G01X-9195069Y277225D01*
G01X-9059027Y277180D02*
G01X-8979030Y277180D01*
G01X-9115072Y419193D02*
G01X-9195069Y419193D01*
G01X-9059027Y419145D02*
G01X-8979030Y419145D01*
G01X-9226045Y308208D02*
G01X-9226045Y388213D01*
G01X-8948052Y388160D02*
G01X-8948052Y308157D01*
G01X-8979035Y419145D02*
G02X-8948052Y388160I0J-30983D01*
G01X-8948052Y308162D02*
G02X-8979035Y277180I-30983J0D01*
G01X-9195064Y277225D02*
G02X-9226045Y308208I3J30983D01*
G01X-9226045Y388205D02*
G02X-9195064Y419193I30983J5D01*
G01X-8034456Y-995056D02*
G01X-8034456Y-1075053D01*
G01X-8034410Y-939011D02*
G01X-8034410Y-859014D01*
G01X-8176424Y-995056D02*
G01X-8176424Y-1075053D01*
G01X-8176376Y-939011D02*
G01X-8176376Y-859014D01*
G01X-8065439Y-1106029D02*
G01X-8145444Y-1106029D01*
G01X-8145390Y-828036D02*
G01X-8065388Y-828036D01*
G01X-8176376Y-859019D02*
G02X-8145390Y-828036I30983J0D01*
G01X-8065393Y-828036D02*
G02X-8034410Y-859019I0J-30983D01*
G01X-8034456Y-1075048D02*
G02X-8065439Y-1106029I-30983J3D01*
G01X-8145436Y-1106029D02*
G02X-8176424Y-1075048I-5J30983D01*
G01X-6937956Y-1046056D02*
G01X-6937956Y-1126053D01*
G01X-6937910Y-990011D02*
G01X-6937910Y-910013D01*
G01X-7079924Y-1046056D02*
G01X-7079924Y-1126053D01*
G01X-7079876Y-990011D02*
G01X-7079876Y-910013D01*
G01X-6968939Y-1157028D02*
G01X-7048944Y-1157028D01*
G01X-7048890Y-879036D02*
G01X-6968888Y-879036D01*
G01X-7079876Y-910018D02*
G02X-7048890Y-879036I30983J0D01*
G01X-6968893Y-879036D02*
G02X-6937910Y-910018I0J-30983D01*
G01X-6937956Y-1126048D02*
G02X-6968939Y-1157028I-30983J3D01*
G01X-7048936Y-1157028D02*
G02X-7079924Y-1126048I-5J30983D01*
G01X-8627671Y-1200046D02*
G01X-8707669Y-1200046D01*
G01X-8571626Y-1200092D02*
G01X-8491629Y-1200092D01*
G01X-8627671Y-1058078D02*
G01X-8707669Y-1058078D01*
G01X-8571626Y-1058126D02*
G01X-8491629Y-1058126D01*
G01X-8738644Y-1169063D02*
G01X-8738644Y-1089058D01*
G01X-8460651Y-1089111D02*
G01X-8460651Y-1169114D01*
G01X-8491634Y-1058126D02*
G02X-8460651Y-1089111I0J-30983D01*
G01X-8460651Y-1169109D02*
G02X-8491634Y-1200092I-30983J0D01*
G01X-8707664Y-1200046D02*
G02X-8738644Y-1169063I3J30983D01*
G01X-8738644Y-1089066D02*
G02X-8707664Y-1058078I30983J5D01*
G01X-8556334Y-1598731D02*
G01X-8476337Y-1598731D01*
G01X-8612379Y-1598685D02*
G01X-8692376Y-1598685D01*
G01X-8556334Y-1740699D02*
G01X-8476337Y-1740699D01*
G01X-8612379Y-1740651D02*
G01X-8692376Y-1740651D01*
G01X-8445361Y-1629714D02*
G01X-8445361Y-1709719D01*
G01X-8723354Y-1709666D02*
G01X-8723354Y-1629663D01*
G01X-8692371Y-1740651D02*
G02X-8723354Y-1709666I0J30983D01*
G01X-8723354Y-1629668D02*
G02X-8692371Y-1598685I30983J0D01*
G01X-8476342Y-1598731D02*
G02X-8445361Y-1629714I-3J-30983D01*
G01X-8445361Y-1709711D02*
G02X-8476342Y-1740699I-30983J-5D01*
G54D10*
G01X-7248779Y1729560D02*
G01X-7534021Y1729560D01*
G01X-7549261Y1714320D02*
G01X-7549261Y1550820D01*
G01X-7233539Y1550820D02*
G01X-7233539Y1714320D01*
G01X-7549261Y1232080D02*
G01X-7549261Y1395580D01*
G01X-7233539Y1395580D02*
G01X-7233539Y1232080D01*
G01X-7248779Y1216840D02*
G01X-7534021Y1216840D01*
G01X-7233539Y1714320D02*
G03X-7248779Y1729560I-15240J0D01*
G01X-7534021Y1729560D02*
G03X-7549261Y1714320I0J-15240D01*
G01X-7233539Y1232080D02*
G02X-7248779Y1216840I-15240J0D01*
G01X-7534021Y1216840D02*
G02X-7549261Y1232080I0J15240D01*
G54D12*
G01X-8087996Y-95136D02*
G01X-8087996Y-175133D01*
G01X-8087950Y-39091D02*
G01X-8087950Y40907D01*
G01X-8229964Y-95136D02*
G01X-8229964Y-175133D01*
G01X-8229916Y-39091D02*
G01X-8229916Y40907D01*
G01X-8118979Y-206108D02*
G01X-8198984Y-206108D01*
G01X-8198930Y71885D02*
G01X-8118928Y71885D01*
G01X-8229916Y40902D02*
G02X-8198930Y71885I30983J0D01*
G01X-8118933Y71885D02*
G02X-8087950Y40902I0J-30983D01*
G01X-8087996Y-175128D02*
G02X-8118979Y-206108I-30983J3D01*
G01X-8198976Y-206108D02*
G02X-8229964Y-175128I-5J30983D01*
G54D10*
G01X-8253212Y1729892D02*
G01X-8538454Y1729892D01*
G01X-8553694Y1714652D02*
G01X-8553694Y1551153D01*
G01X-8237972Y1551153D02*
G01X-8237972Y1714652D01*
G01X-8553694Y1232413D02*
G01X-8553694Y1395913D01*
G01X-8237972Y1395913D02*
G01X-8237972Y1232413D01*
G01X-8253212Y1217173D02*
G01X-8538454Y1217173D01*
G01X-8237972Y1714652D02*
G03X-8253212Y1729892I-15240J0D01*
G01X-8538454Y1729892D02*
G03X-8553694Y1714652I0J-15240D01*
G01X-8237972Y1232413D02*
G02X-8253212Y1217173I-15240J0D01*
G01X-8538454Y1217173D02*
G02X-8553694Y1232413I0J15240D01*
G54D12*
G01X-8316592Y-229861D02*
G01X-8236595Y-229861D01*
G01X-8372637Y-229815D02*
G01X-8452634Y-229815D01*
G01X-8316592Y-371829D02*
G01X-8236595Y-371829D01*
G01X-8372637Y-371781D02*
G01X-8452634Y-371781D01*
G01X-8205619Y-260844D02*
G01X-8205619Y-340848D01*
G01X-8483612Y-340795D02*
G01X-8483612Y-260793D01*
G01X-8452629Y-371781D02*
G02X-8483612Y-340795I0J30983D01*
G01X-8483612Y-260798D02*
G02X-8452629Y-229815I30983J0D01*
G01X-8236600Y-229861D02*
G02X-8205619Y-260844I-3J-30983D01*
G01X-8205619Y-340841D02*
G02X-8236600Y-371829I-30983J-5D01*
G01X-8317704Y-387961D02*
G01X-8237706Y-387961D01*
G01X-8373749Y-387915D02*
G01X-8453746Y-387915D01*
G01X-8317704Y-529929D02*
G01X-8237706Y-529929D01*
G01X-8373749Y-529881D02*
G01X-8453746Y-529881D01*
G01X-8206731Y-418944D02*
G01X-8206731Y-498948D01*
G01X-8484724Y-498895D02*
G01X-8484724Y-418893D01*
G01X-8453741Y-529881D02*
G02X-8484724Y-498895I0J30983D01*
G01X-8484724Y-418898D02*
G02X-8453741Y-387915I30983J0D01*
G01X-8237711Y-387961D02*
G02X-8206731Y-418944I-3J-30983D01*
G01X-8206731Y-498941D02*
G02X-8237711Y-529929I-30983J-5D01*
G01X-8177251Y-417004D02*
G01X-8177251Y-337007D01*
G01X-8177297Y-473050D02*
G01X-8177297Y-553047D01*
G01X-8035283Y-417004D02*
G01X-8035283Y-337007D01*
G01X-8035331Y-473050D02*
G01X-8035331Y-553047D01*
G01X-8146268Y-306032D02*
G01X-8066263Y-306032D01*
G01X-8066316Y-584025D02*
G01X-8146319Y-584025D01*
G01X-8035331Y-553042D02*
G02X-8066316Y-584025I-30983J0D01*
G01X-8146314Y-584025D02*
G02X-8177297Y-553042I0J30983D01*
G01X-8177251Y-337012D02*
G02X-8146268Y-306032I30983J-3D01*
G01X-8066271Y-306032D02*
G02X-8035283Y-337012I5J-30983D01*
G01X-8505311Y709610D02*
G01X-8505311Y789607D01*
G01X-8505356Y653565D02*
G01X-8505356Y573567D01*
G01X-8363342Y709610D02*
G01X-8363342Y789607D01*
G01X-8363391Y653565D02*
G01X-8363391Y573567D01*
G01X-8474328Y820582D02*
G01X-8394323Y820582D01*
G01X-8394376Y542589D02*
G01X-8474379Y542589D01*
G01X-8363391Y573572D02*
G02X-8394376Y542589I-30983J0D01*
G01X-8474373Y542589D02*
G02X-8505356Y573572I0J30983D01*
G01X-8505311Y789602D02*
G02X-8474328Y820582I30983J-3D01*
G01X-8394330Y820582D02*
G02X-8363342Y789602I5J-30983D01*
G01X-7439894Y-2298580D02*
G01X-7359897Y-2298580D01*
G01X-7495940Y-2298534D02*
G01X-7575937Y-2298534D01*
G01X-7439894Y-2440548D02*
G01X-7359897Y-2440548D01*
G01X-7495940Y-2440500D02*
G01X-7575937Y-2440500D01*
G01X-7328922Y-2329563D02*
G01X-7328922Y-2409568D01*
G01X-7606915Y-2409514D02*
G01X-7606915Y-2329512D01*
G01X-7575932Y-2440500D02*
G02X-7606915Y-2409514I0J30983D01*
G01X-7606915Y-2329517D02*
G02X-7575932Y-2298534I30983J0D01*
G01X-7359902Y-2298580D02*
G02X-7328922Y-2329563I-3J-30983D01*
G01X-7328922Y-2409560D02*
G02X-7359902Y-2440548I-30983J-5D01*
G01X-8731552Y-2907529D02*
G01X-8731552Y-2827531D01*
G01X-8731598Y-2963574D02*
G01X-8731598Y-3043571D01*
G01X-8589584Y-2907529D02*
G01X-8589584Y-2827531D01*
G01X-8589632Y-2963574D02*
G01X-8589632Y-3043571D01*
G01X-8700569Y-2796556D02*
G01X-8620564Y-2796556D01*
G01X-8620618Y-3074549D02*
G01X-8700620Y-3074549D01*
G01X-8589632Y-3043566D02*
G02X-8620618Y-3074549I-30983J0D01*
G01X-8700615Y-3074549D02*
G02X-8731598Y-3043566I0J30983D01*
G01X-8731552Y-2827536D02*
G02X-8700569Y-2796556I30983J-3D01*
G01X-8620572Y-2796556D02*
G02X-8589584Y-2827536I5J-30983D01*
G01X-9310736Y645284D02*
G01X-9310736Y565287D01*
G01X-9310690Y701329D02*
G01X-9310690Y781326D01*
G01X-9452704Y645284D02*
G01X-9452704Y565287D01*
G01X-9452656Y701329D02*
G01X-9452656Y781326D01*
G01X-9341719Y534311D02*
G01X-9421724Y534311D01*
G01X-9421670Y812304D02*
G01X-9341668Y812304D01*
G01X-9452656Y781321D02*
G02X-9421670Y812304I30983J0D01*
G01X-9341673Y812304D02*
G02X-9310690Y781321I0J-30983D01*
G01X-9310736Y565292D02*
G02X-9341719Y534311I-30983J3D01*
G01X-9421716Y534311D02*
G02X-9452704Y565292I-5J30983D01*
G01X-8257971Y-2091618D02*
G01X-8257971Y-2011621D01*
G01X-8258017Y-2147663D02*
G01X-8258017Y-2227661D01*
G01X-8116003Y-2091618D02*
G01X-8116003Y-2011621D01*
G01X-8116051Y-2147663D02*
G01X-8116051Y-2227661D01*
G01X-8226988Y-1980646D02*
G01X-8146983Y-1980646D01*
G01X-8147036Y-2258639D02*
G01X-8227039Y-2258639D01*
G01X-8116051Y-2227656D02*
G02X-8147036Y-2258639I-30983J0D01*
G01X-8227034Y-2258639D02*
G02X-8258017Y-2227656I0J30983D01*
G01X-8257971Y-2011626D02*
G02X-8226988Y-1980646I30983J-3D01*
G01X-8146991Y-1980646D02*
G02X-8116003Y-2011626I5J-30983D01*
G01X-7120931Y-2189199D02*
G01X-7120931Y-2109201D01*
G01X-7120976Y-2245244D02*
G01X-7120976Y-2325241D01*
G01X-6978962Y-2189199D02*
G01X-6978962Y-2109201D01*
G01X-6979011Y-2245244D02*
G01X-6979011Y-2325241D01*
G01X-7089948Y-2078226D02*
G01X-7009943Y-2078226D01*
G01X-7009996Y-2356219D02*
G01X-7089999Y-2356219D01*
G01X-6979011Y-2325236D02*
G02X-7009996Y-2356219I-30983J0D01*
G01X-7089993Y-2356219D02*
G02X-7120976Y-2325236I0J30983D01*
G01X-7120931Y-2109206D02*
G02X-7089948Y-2078226I30983J-3D01*
G01X-7009950Y-2078226D02*
G02X-6978962Y-2109206I5J-30983D01*
G01X-6531734Y-1828760D02*
G01X-6451737Y-1828760D01*
G01X-6587780Y-1828714D02*
G01X-6667777Y-1828714D01*
G01X-6531734Y-1970728D02*
G01X-6451737Y-1970728D01*
G01X-6587780Y-1970680D02*
G01X-6667777Y-1970680D01*
G01X-6420762Y-1859743D02*
G01X-6420762Y-1939748D01*
G01X-6698755Y-1939694D02*
G01X-6698755Y-1859692D01*
G01X-6667772Y-1970680D02*
G02X-6698755Y-1939694I0J30983D01*
G01X-6698755Y-1859697D02*
G02X-6667772Y-1828714I30983J0D01*
G01X-6451742Y-1828760D02*
G02X-6420762Y-1859743I-3J-30983D01*
G01X-6420762Y-1939740D02*
G02X-6451742Y-1970728I-30983J-5D01*
G01X-7471551Y-2902978D02*
G01X-7471551Y-2822981D01*
G01X-7471596Y-2959024D02*
G01X-7471596Y-3039021D01*
G01X-7329582Y-2902978D02*
G01X-7329582Y-2822981D01*
G01X-7329631Y-2959024D02*
G01X-7329631Y-3039021D01*
G01X-7440568Y-2792006D02*
G01X-7360563Y-2792006D01*
G01X-7360616Y-3069999D02*
G01X-7440619Y-3069999D01*
G01X-7329631Y-3039016D02*
G02X-7360616Y-3069999I-30983J0D01*
G01X-7440614Y-3069999D02*
G02X-7471596Y-3039016I0J30983D01*
G01X-7471551Y-2822986D02*
G02X-7440568Y-2792006I30983J-3D01*
G01X-7360570Y-2792006D02*
G02X-7329582Y-2822986I5J-30983D01*
G01X-8350172Y111826D02*
G01X-8430169Y111826D01*
G01X-8294127Y111780D02*
G01X-8214130Y111780D01*
G01X-8350172Y253794D02*
G01X-8430169Y253794D01*
G01X-8294127Y253745D02*
G01X-8214130Y253745D01*
G01X-8461145Y142808D02*
G01X-8461145Y222813D01*
G01X-8183152Y222760D02*
G01X-8183152Y142758D01*
G01X-8214135Y253745D02*
G02X-8183152Y222760I0J-30983D01*
G01X-8183152Y142763D02*
G02X-8214135Y111780I-30983J0D01*
G01X-8430164Y111826D02*
G02X-8461145Y142808I3J30983D01*
G01X-8461145Y222806D02*
G02X-8430164Y253794I30983J5D01*
G01X-4548711Y4640164D02*
G01X-4548711Y4720161D01*
G01X-4548757Y4584119D02*
G01X-4548757Y4504122D01*
G01X-4406743Y4640164D02*
G01X-4406743Y4720161D01*
G01X-4406791Y4584119D02*
G01X-4406791Y4504122D01*
G01X-4517728Y4751137D02*
G01X-4437723Y4751137D01*
G01X-4437777Y4473144D02*
G01X-4517779Y4473144D01*
G01X-4406791Y4504127D02*
G02X-4437777Y4473144I-30983J0D01*
G01X-4517774Y4473144D02*
G02X-4548757Y4504127I0J30983D01*
G01X-4548711Y4720156D02*
G02X-4517728Y4751137I30983J-3D01*
G01X-4437731Y4751137D02*
G02X-4406743Y4720156I5J-30983D01*
G01X-3429662Y4282357D02*
G01X-3349664Y4282357D01*
G01X-3485707Y4282403D02*
G01X-3565704Y4282403D01*
G01X-3429662Y4140389D02*
G01X-3349664Y4140389D01*
G01X-3485707Y4140437D02*
G01X-3565704Y4140437D01*
G01X-3318689Y4251374D02*
G01X-3318689Y4171369D01*
G01X-3596682Y4171423D02*
G01X-3596682Y4251425D01*
G01X-3565699Y4140437D02*
G02X-3596682Y4171423I0J30983D01*
G01X-3596682Y4251420D02*
G02X-3565699Y4282403I30983J0D01*
G01X-3349669Y4282357D02*
G02X-3318689Y4251374I-3J-30983D01*
G01X-3318689Y4171377D02*
G02X-3349669Y4140389I-30983J-5D01*
G01X-6531734Y-1610320D02*
G01X-6451737Y-1610320D01*
G01X-6587780Y-1610274D02*
G01X-6667777Y-1610274D01*
G01X-6531734Y-1752288D02*
G01X-6451737Y-1752288D01*
G01X-6587780Y-1752240D02*
G01X-6667777Y-1752240D01*
G01X-6420762Y-1641303D02*
G01X-6420762Y-1721308D01*
G01X-6698755Y-1721254D02*
G01X-6698755Y-1641252D01*
G01X-6667772Y-1752240D02*
G02X-6698755Y-1721254I0J30983D01*
G01X-6698755Y-1641257D02*
G02X-6667772Y-1610274I30983J0D01*
G01X-6451742Y-1610320D02*
G02X-6420762Y-1641303I-3J-30983D01*
G01X-6420762Y-1721300D02*
G02X-6451742Y-1752288I-30983J-5D01*
G01X-7906473Y-454274D02*
G01X-7986471Y-454274D01*
G01X-7850428Y-454320D02*
G01X-7770431Y-454320D01*
G01X-7906473Y-312306D02*
G01X-7986471Y-312306D01*
G01X-7850428Y-312354D02*
G01X-7770431Y-312354D01*
G01X-8017446Y-423292D02*
G01X-8017446Y-343287D01*
G01X-7739453Y-343340D02*
G01X-7739453Y-423342D01*
G01X-7770436Y-312354D02*
G02X-7739453Y-343340I0J-30983D01*
G01X-7739453Y-423337D02*
G02X-7770436Y-454320I-30983J0D01*
G01X-7986466Y-454274D02*
G02X-8017446Y-423292I3J30983D01*
G01X-8017446Y-343294D02*
G02X-7986466Y-312306I30983J5D01*
G01X-3489170Y-3251200D02*
G01X-3489170Y-1834660D01*
G01X-5039164Y-3251200D02*
G01X-5039164Y-1834660D01*
G01X-3489170Y-3251200D02*
G01X-5039164Y-3251200D01*
G01X-3809809Y-1443731D02*
G01X-3664809Y-1444493D01*
G01X-4537997Y-1439903D02*
G01X-3996545Y-1442748D01*
G01X-4870364Y-1438156D02*
G01X-4708294Y-1439007D01*
G01X-5038867Y-1840959D02*
G02X-4870364Y-1438156I599829J-14278D01*
G01X-3489467Y-1845760D02*
G03X-3657971Y-1442956I-599829J-14278D01*
G01X-8803840Y6726713D02*
G01X-8803840Y5310173D01*
G01X-7253846Y6726713D02*
G01X-7253846Y5310173D01*
G01X-8803840Y6726713D02*
G01X-7253846Y6726713D01*
G01X-8483201Y4919244D02*
G01X-8628202Y4920006D01*
G01X-7755013Y4915417D02*
G01X-8296465Y4918261D01*
G01X-7422647Y4913669D02*
G01X-7584717Y4914520D01*
G01X-7254143Y5316472D02*
G02X-7422647Y4913669I-599829J14278D01*
G01X-8803543Y5321273D02*
G03X-8635040Y4918470I599829J14278D01*
G54D14*
G01X-9023073Y-1790617D02*
G01X-9023073Y-1709337D01*
G01X-8946873Y-1709337D02*
G01X-8946873Y-1790617D01*
G01X-8946873Y-1546137D02*
G01X-8946873Y-1627417D01*
G01X-9023073Y-1627417D02*
G01X-9023073Y-1546137D01*
G01X-9046433Y-1801137D02*
G01X-9046433Y-1882417D01*
G01X-9122633Y-1882417D02*
G01X-9122633Y-1801137D01*
G01X-9122633Y-2045617D02*
G01X-9122633Y-1964337D01*
G01X-9046433Y-1964337D02*
G01X-9046433Y-2045617D01*
G54D12*
G01X-7735115Y3915763D02*
G01X-7735115Y4012648D01*
G01X-7735115Y3915763D02*
G01X-8455114Y3915763D01*
G01X-7735115Y4440877D02*
G01X-7735115Y4537763D01*
G01X-8247515Y4226763D02*
G01X-8044315Y4226763D01*
G01X-8095115Y4277563D02*
G01X-8095115Y4175963D01*
G01X-8095115Y4226763D02*
G01X-8095115Y4277563D01*
G01X-8196715Y4175963D02*
G01X-8095115Y4226763D01*
G01X-8196715Y4277563D02*
G01X-8196715Y4175963D01*
G01X-8095115Y4226763D02*
G01X-8196715Y4277563D01*
G01X-7735115Y4537763D02*
G01X-8455114Y4537763D01*
G01X-8455114Y3915763D02*
G01X-8455114Y4012648D01*
G01X-8455114Y4440877D02*
G01X-8455114Y4537763D01*
G01X-8093916Y4226763D02*
G01X-7992316Y4175963D01*
G01X-7992316Y4175963D02*
G01X-7992316Y4277563D01*
G01X-7992316Y4277563D02*
G01X-8093916Y4226763D01*
G01X-8093916Y4226763D02*
G01X-8093916Y4175963D01*
G01X-8093916Y4175963D02*
G01X-8093916Y4277563D01*
G01X-7941516Y4226763D02*
G01X-8144716Y4226763D01*
G54D10*
G01X-9384840Y2107019D02*
G01X-9660080Y2107019D01*
G01X-9660080Y2107019D02*
G01X-9660080Y2131319D01*
G01X-9384840Y2292261D02*
G01X-9660080Y2292261D01*
G01X-9660080Y2292261D02*
G01X-9660080Y2267961D01*
G01X-9425780Y2107019D02*
G01X-9425780Y2292261D01*
G36*
G01X-9392460Y2099399D02*
G01X-9392460Y2136399D01*
G01X-9361980Y2136399D01*
G01X-9361980Y2099399D01*
G01X-9392460Y2099399D01*
G37*
G36*
G01X-9392460Y2299881D02*
G01X-9361980Y2299881D01*
G01X-9361980Y2262881D01*
G01X-9392460Y2262881D01*
G01X-9392460Y2299881D01*
G37*
G01X-7568019Y3813000D02*
G01X-7568019Y3537760D01*
G01X-7568019Y3537760D02*
G01X-7592319Y3537760D01*
G01X-7753261Y3813000D02*
G01X-7753261Y3537760D01*
G01X-7753261Y3537760D02*
G01X-7728961Y3537760D01*
G01X-7568019Y3772060D02*
G01X-7753261Y3772060D01*
G36*
G01X-7560399Y3805380D02*
G01X-7597399Y3805380D01*
G01X-7597399Y3835860D01*
G01X-7560399Y3835860D01*
G01X-7560399Y3805380D01*
G37*
G36*
G01X-7760881Y3805380D02*
G01X-7760881Y3835860D01*
G01X-7723881Y3835860D01*
G01X-7723881Y3805380D01*
G01X-7760881Y3805380D01*
G37*
G01X-4390949Y65250D02*
G01X-4390949Y-207490D01*
G01X-4532790Y-207493D02*
G01X-4065956Y-207493D01*
G01X-4535040Y65248D02*
G01X-4066553Y63500D01*
G01X-4066550Y-207493D02*
G01X-4066550Y-172443D01*
G01X-4066550Y55877D02*
G01X-4066550Y20828D01*
G36*
G01X-4498213Y72868D02*
G01X-4498213Y25118D01*
G01X-4543933Y25118D01*
G01X-4543933Y72868D01*
G01X-4498213Y72868D01*
G37*
G36*
G01X-4496943Y-215113D02*
G01X-4542663Y-215113D01*
G01X-4542663Y-167363D01*
G01X-4496943Y-167363D01*
G01X-4496943Y-215113D01*
G37*
G54D12*
G01X-8558456Y-3247679D02*
G01X-7974256Y-3247679D01*
G01X-8558456Y-2638079D02*
G01X-7974256Y-2638079D01*
G01X-8566368Y-2815993D02*
G01X-8566368Y-2800999D01*
G01X-7966366Y-2815993D02*
G01X-7966366Y-3069764D01*
G01X-8566368Y-2815993D02*
G01X-8566368Y-3069764D01*
G01X-7294906Y-3235797D02*
G01X-6710706Y-3235797D01*
G01X-7294906Y-2626197D02*
G01X-6710706Y-2626197D01*
G01X-7302818Y-2804111D02*
G01X-7302818Y-2789118D01*
G01X-6702817Y-2804111D02*
G01X-6702817Y-3057883D01*
G01X-7302818Y-2804111D02*
G01X-7302818Y-3057883D01*
G54D16*
G01X-5044222Y445842D02*
G01X-5044222Y444851D01*
G01X-5044222Y444851D02*
G01X-5077224Y411841D01*
G01X-5112225Y445842D02*
G01X-5111224Y445842D01*
G01X-5111224Y445842D02*
G01X-5077224Y411841D01*
G01X-5112225Y445842D02*
G01X-5044222Y445842D01*
G01X-5152228Y447846D02*
G01X-5152228Y562852D01*
G01X-5002215Y447846D02*
G01X-5002215Y562852D01*
G01X-5152223Y562852D02*
G01X-5004224Y562852D01*
G01X-5001987Y409845D02*
G01X-5001987Y304834D01*
G01X-5041997Y274839D02*
G01X-5031994Y274839D01*
G01X-5031994Y274839D02*
G01X-5001987Y304834D01*
G01X-5111989Y274839D02*
G01X-5041997Y274839D01*
G01X-5111989Y274839D02*
G01X-5122004Y274839D01*
G01X-5122004Y274839D02*
G01X-5151999Y304834D01*
G01X-5151999Y409845D02*
G01X-5151999Y304834D01*
G01X-5077224Y445842D02*
G01X-5077224Y411841D01*
G01X-9094181Y-1055320D02*
G01X-9093191Y-1055320D01*
G01X-9093191Y-1055320D02*
G01X-9060181Y-1088322D01*
G01X-9094181Y-1123324D02*
G01X-9094181Y-1122323D01*
G01X-9094181Y-1122323D02*
G01X-9060181Y-1088322D01*
G01X-9094181Y-1123324D02*
G01X-9094181Y-1055320D01*
G01X-9096186Y-1163326D02*
G01X-9211192Y-1163326D01*
G01X-9096186Y-1013314D02*
G01X-9211192Y-1013314D01*
G01X-9211192Y-1163321D02*
G01X-9211192Y-1015323D01*
G01X-9058185Y-1013085D02*
G01X-8953173Y-1013085D01*
G01X-8923178Y-1053095D02*
G01X-8923178Y-1043093D01*
G01X-8923178Y-1043093D02*
G01X-8953173Y-1013085D01*
G01X-8923178Y-1123087D02*
G01X-8923178Y-1053095D01*
G01X-8923178Y-1123087D02*
G01X-8923178Y-1133103D01*
G01X-8923178Y-1133103D02*
G01X-8953173Y-1163097D01*
G01X-9058185Y-1163097D02*
G01X-8953173Y-1163097D01*
G01X-9094181Y-1088322D02*
G01X-9060181Y-1088322D01*
G01X-8133546Y654400D02*
G01X-8133546Y655391D01*
G01X-8133546Y655391D02*
G01X-8100544Y688401D01*
G01X-8065543Y654400D02*
G01X-8066543Y654400D01*
G01X-8066543Y654400D02*
G01X-8100544Y688401D01*
G01X-8065543Y654400D02*
G01X-8133546Y654400D01*
G01X-8025540Y652396D02*
G01X-8025540Y537390D01*
G01X-8175553Y652396D02*
G01X-8175553Y537390D01*
G01X-8025545Y537390D02*
G01X-8173543Y537390D01*
G01X-8175781Y690397D02*
G01X-8175781Y795408D01*
G01X-8135771Y825403D02*
G01X-8145774Y825403D01*
G01X-8145774Y825403D02*
G01X-8175781Y795408D01*
G01X-8065779Y825403D02*
G01X-8135771Y825403D01*
G01X-8065779Y825403D02*
G01X-8055764Y825403D01*
G01X-8055764Y825403D02*
G01X-8025769Y795408D01*
G01X-8025769Y690397D02*
G01X-8025769Y795408D01*
G01X-8100544Y654400D02*
G01X-8100544Y688401D01*
G01X-8866894Y132948D02*
G01X-8867884Y132948D01*
G01X-8867884Y132948D02*
G01X-8900894Y165950D01*
G01X-8866894Y200952D02*
G01X-8866894Y199951D01*
G01X-8866894Y199951D02*
G01X-8900894Y165950D01*
G01X-8866894Y200952D02*
G01X-8866894Y132948D01*
G01X-8864890Y240954D02*
G01X-8749883Y240954D01*
G01X-8864890Y90942D02*
G01X-8749883Y90942D01*
G01X-8749883Y240949D02*
G01X-8749883Y92951D01*
G01X-8902890Y90713D02*
G01X-9007902Y90713D01*
G01X-9037897Y130723D02*
G01X-9037897Y120721D01*
G01X-9037897Y120721D02*
G01X-9007902Y90713D01*
G01X-9037897Y200715D02*
G01X-9037897Y130723D01*
G01X-9037897Y200715D02*
G01X-9037897Y210731D01*
G01X-9037897Y210731D02*
G01X-9007902Y240725D01*
G01X-8902890Y240725D02*
G01X-9007902Y240725D01*
G01X-8866894Y165950D02*
G01X-8900894Y165950D01*
G54D12*
G01X-1656080Y337820D02*
G01X-2722880Y337820D01*
G01X-1630680Y566420D02*
G01X-1630680Y1177407D01*
G01X-2748272Y566425D02*
G01X-2748272Y1177407D01*
G01X-2987594Y1709420D02*
G01X-3599180Y1709420D01*
G01X-1987596Y1709420D02*
G01X-2391364Y1709420D01*
G01X-1891365Y-1008380D02*
G01X-779780Y-1008380D01*
G01X-779780Y-1008380D02*
G01X-779780Y1709420D01*
G01X-779780Y1709420D02*
G01X-1391366Y1709420D01*
G01X-3599180Y-1008380D02*
G01X-2487595Y-1008380D01*
G01X-3599180Y-1008380D02*
G01X-3599180Y1709420D01*
G01X-2748272Y566425D02*
G03X-2468872Y566420I139700J-3D01*
G01X-2468872Y566420D02*
G03X-2189475Y566420I139699J596D01*
G01X-2189475Y566420D02*
G03X-1910077Y566420I139699J596D01*
G01X-1910077Y566420D02*
G03X-1630680Y566420I139699J596D01*
G01X-8271673Y57343D02*
G01X-8271673Y-192659D01*
G01X-8533293Y57343D02*
G01X-8533293Y-192659D01*
G54D16*
G01X-5930929Y-300565D02*
G01X-6045930Y-300565D01*
G01X-5930929Y-450577D02*
G01X-6045930Y-450577D01*
G01X-6045930Y-300578D02*
G01X-6045930Y-448568D01*
G01X-5892928Y-450814D02*
G01X-5787911Y-450814D01*
G01X-5757917Y-410804D02*
G01X-5757917Y-420806D01*
G01X-5757917Y-420806D02*
G01X-5787911Y-450814D01*
G01X-5757917Y-340804D02*
G01X-5757917Y-410804D01*
G01X-5757917Y-340804D02*
G01X-5757917Y-330796D01*
G01X-5757917Y-330796D02*
G01X-5787911Y-300801D01*
G01X-5892928Y-300801D02*
G01X-5787911Y-300801D01*
G01X-5914630Y-413773D02*
G01X-5914630Y-337573D01*
G01X-5914630Y-375035D02*
G01X-5889230Y-375035D01*
G54D12*
G01X-9755365Y513298D02*
G01X-9755365Y495503D01*
G01X-9640768Y635200D02*
G01X-9640768Y660600D01*
G01X-9589968Y635200D02*
G01X-9589968Y660600D01*
G01X-9589968Y686000D02*
G01X-9589968Y711400D01*
G01X-9475371Y833302D02*
G01X-9475371Y513298D01*
G01X-9755365Y513298D02*
G01X-9755365Y833302D01*
G54D10*
G01X-2618170Y3192327D02*
G01X-2593400Y3192327D01*
G01X-2593400Y3192327D02*
G01X-2593400Y2562087D01*
G01X-2593400Y2562087D02*
G01X-2618170Y2562087D01*
G01X-3098870Y3192327D02*
G01X-3123640Y3192327D01*
G01X-3123640Y3192327D02*
G01X-3123640Y2562087D01*
G01X-3123640Y2562087D02*
G01X-3098870Y2562087D01*
G01X-2219390Y3995672D02*
G01X-2194620Y3995672D01*
G01X-2194620Y3995672D02*
G01X-2194620Y3365432D01*
G01X-2194620Y3365432D02*
G01X-2219390Y3365432D01*
G01X-2700090Y3995672D02*
G01X-2724860Y3995672D01*
G01X-2724860Y3995672D02*
G01X-2724860Y3365432D01*
G01X-2724860Y3365432D02*
G01X-2700090Y3365432D01*
G54D12*
G01X-9729531Y2396538D02*
G01X-9744906Y2396538D01*
G01X-9744906Y2396538D02*
G01X-9744906Y2432042D01*
G01X-9602531Y2396538D02*
G01X-9633301Y2396538D01*
G01X-9475531Y2396538D02*
G01X-9506301Y2396538D01*
G01X-9348531Y2396538D02*
G01X-9379301Y2396538D01*
G01X-9236906Y2432042D02*
G01X-9236916Y2432042D01*
G01X-9236916Y2432042D02*
G01X-9236916Y2396538D01*
G01X-9236916Y2396538D02*
G01X-9252301Y2396538D01*
G01X-9734022Y2976537D02*
G01X-9744906Y2976537D01*
G01X-9744906Y2976537D02*
G01X-9744906Y2940042D01*
G01X-9604022Y2976537D02*
G01X-9627794Y2976537D01*
G01X-9474022Y2976537D02*
G01X-9507794Y2976537D01*
G01X-9354022Y2976537D02*
G01X-9377794Y2976537D01*
G01X-9236906Y2940042D02*
G01X-9236916Y2940042D01*
G01X-9236916Y2940042D02*
G01X-9236916Y2976537D01*
G01X-9236916Y2976537D02*
G01X-9247795Y2976537D01*
G01X-9744906Y2432042D02*
G01X-9744906Y2940042D01*
G01X-9236906Y2432042D02*
G01X-9236906Y2940042D01*
G54D10*
G01X-7076603Y2977337D02*
G01X-6931361Y2977337D01*
G01X-6931361Y2977337D02*
G01X-6931361Y3080499D01*
G01X-7076603Y3282579D02*
G01X-6931361Y3282579D01*
G01X-6931361Y3282579D02*
G01X-6931361Y3179417D01*
G01X-7076603Y3084418D02*
G01X-7076603Y3175497D01*
G54D13*
G01X-7536103Y2875585D02*
G01X-7536103Y2666708D01*
G01X-8551341Y2875585D02*
G01X-8551341Y2666708D01*
G54D10*
G01X-7536103Y2875585D02*
G01X-8551341Y2875585D01*
G01X-8572614Y2983195D02*
G01X-8429119Y2983195D01*
G01X-8429119Y2983195D02*
G01X-8429119Y3374513D01*
G01X-8429119Y3374513D02*
G01X-8572614Y3374513D01*
G01X-9072852Y2983195D02*
G01X-9216346Y2983195D01*
G01X-9216346Y2983195D02*
G01X-9216346Y3374513D01*
G01X-9216346Y3374513D02*
G01X-9072852Y3374513D01*
G01X-9031971Y2747640D02*
G01X-9031971Y2876133D01*
G01X-9031971Y2876133D02*
G01X-9215389Y2876133D01*
G01X-9215389Y2876133D02*
G01X-9215389Y2747640D01*
G01X-9031971Y2652400D02*
G01X-9031971Y2523907D01*
G01X-9031971Y2523907D02*
G01X-9215389Y2523907D01*
G01X-9215389Y2523907D02*
G01X-9215389Y2652400D01*
G01X-7072835Y3799835D02*
G01X-7201329Y3799835D01*
G01X-7201329Y3799835D02*
G01X-7201329Y3616416D01*
G01X-7201329Y3616416D02*
G01X-7072835Y3616416D01*
G01X-6977595Y3799835D02*
G01X-6849102Y3799835D01*
G01X-6849102Y3799835D02*
G01X-6849102Y3616416D01*
G01X-6849102Y3616416D02*
G01X-6977595Y3616416D01*
G01X-6977595Y3433583D02*
G01X-6849102Y3433583D01*
G01X-6849102Y3433583D02*
G01X-6849102Y3617001D01*
G01X-6849102Y3617001D02*
G01X-6977595Y3617001D01*
G01X-7072835Y3433583D02*
G01X-7201329Y3433583D01*
G01X-7201329Y3433583D02*
G01X-7201329Y3617001D01*
G01X-7201329Y3617001D02*
G01X-7072835Y3617001D01*
G01X-7163440Y2539731D02*
G01X-7034947Y2539731D01*
G01X-7034947Y2539731D02*
G01X-7034947Y2723149D01*
G01X-7034947Y2723149D02*
G01X-7163440Y2723149D01*
G01X-7258680Y2539731D02*
G01X-7387173Y2539731D01*
G01X-7387173Y2539731D02*
G01X-7387173Y2723149D01*
G01X-7387173Y2723149D02*
G01X-7258680Y2723149D01*
G01X-6653427Y-284578D02*
G01X-6653427Y-380466D01*
G01X-6653427Y-380466D02*
G01X-6521307Y-380466D01*
G01X-6521307Y-380466D02*
G01X-6521307Y-284578D01*
G01X-6653427Y-199336D02*
G01X-6653427Y-103448D01*
G01X-6653427Y-103448D02*
G01X-6521307Y-103448D01*
G01X-6521307Y-103448D02*
G01X-6521307Y-199336D01*
G01X-9138798Y-1184049D02*
G01X-9267291Y-1184049D01*
G01X-9267291Y-1184049D02*
G01X-9267291Y-1367468D01*
G01X-9267291Y-1367468D02*
G01X-9138798Y-1367468D01*
G01X-9043558Y-1184049D02*
G01X-8915064Y-1184049D01*
G01X-8915064Y-1184049D02*
G01X-8915064Y-1367468D01*
G01X-8915064Y-1367468D02*
G01X-9043558Y-1367468D01*
G01X-5358276Y55863D02*
G01X-5358276Y-72631D01*
G01X-5358276Y-72631D02*
G01X-5174858Y-72631D01*
G01X-5174858Y-72631D02*
G01X-5174858Y55863D01*
G01X-5358276Y151103D02*
G01X-5358276Y279596D01*
G01X-5358276Y279596D02*
G01X-5174858Y279596D01*
G01X-5174858Y279596D02*
G01X-5174858Y151103D01*
G01X-6558868Y507363D02*
G01X-6654756Y507363D01*
G01X-6654756Y507363D02*
G01X-6654756Y375243D01*
G01X-6654756Y375243D02*
G01X-6558868Y375243D01*
G01X-6473626Y507363D02*
G01X-6377738Y507363D01*
G01X-6377738Y507363D02*
G01X-6377738Y375243D01*
G01X-6377738Y375243D02*
G01X-6473626Y375243D01*
G01X-8623983Y2764210D02*
G01X-8623983Y2907705D01*
G01X-8623983Y2907705D02*
G01X-9015301Y2907705D01*
G01X-9015301Y2907705D02*
G01X-9015301Y2764210D01*
G01X-8623983Y2263973D02*
G01X-8623983Y2120478D01*
G01X-8623983Y2120478D02*
G01X-9015301Y2120478D01*
G01X-9015301Y2120478D02*
G01X-9015301Y2263973D01*
G01X-5020610Y133784D02*
G01X-5020610Y229672D01*
G01X-5020610Y229672D02*
G01X-5152731Y229672D01*
G01X-5152731Y229672D02*
G01X-5152731Y133784D01*
G01X-5020610Y48542D02*
G01X-5020610Y-47346D01*
G01X-5020610Y-47346D02*
G01X-5152731Y-47346D01*
G01X-5152731Y-47346D02*
G01X-5152731Y48542D01*
G01X-8200902Y718639D02*
G01X-8200902Y814527D01*
G01X-8200902Y814527D02*
G01X-8333022Y814527D01*
G01X-8333022Y814527D02*
G01X-8333022Y718639D01*
G01X-8200902Y633397D02*
G01X-8200902Y537509D01*
G01X-8200902Y537509D02*
G01X-8333022Y537509D01*
G01X-8333022Y537509D02*
G01X-8333022Y633397D01*
G01X-4355648Y3772033D02*
G01X-4355648Y3900527D01*
G01X-4355648Y3900527D02*
G01X-4539067Y3900527D01*
G01X-4539067Y3900527D02*
G01X-4539067Y3772033D01*
G01X-4355648Y3676794D02*
G01X-4355648Y3548300D01*
G01X-4355648Y3548300D02*
G01X-4539067Y3548300D01*
G01X-4539067Y3548300D02*
G01X-4539067Y3676794D01*
G01X-8858014Y57852D02*
G01X-8986507Y57852D01*
G01X-8986507Y57852D02*
G01X-8986507Y-125566D01*
G01X-8986507Y-125566D02*
G01X-8858014Y-125566D01*
G01X-8762774Y57852D02*
G01X-8634280Y57852D01*
G01X-8634280Y57852D02*
G01X-8634280Y-125566D01*
G01X-8634280Y-125566D02*
G01X-8762774Y-125566D01*
G01X-8485273Y350044D02*
G01X-8485273Y445932D01*
G01X-8485273Y445932D02*
G01X-8617393Y445932D01*
G01X-8617393Y445932D02*
G01X-8617393Y350044D01*
G01X-8485273Y264802D02*
G01X-8485273Y168914D01*
G01X-8485273Y168914D02*
G01X-8617393Y168914D01*
G01X-8617393Y168914D02*
G01X-8617393Y264802D01*
G01X-5552534Y253731D02*
G01X-5424040Y253731D01*
G01X-5424040Y253731D02*
G01X-5424040Y437149D01*
G01X-5424040Y437149D02*
G01X-5552534Y437149D01*
G01X-5647774Y253731D02*
G01X-5776267Y253731D01*
G01X-5776267Y253731D02*
G01X-5776267Y437149D01*
G01X-5776267Y437149D02*
G01X-5647774Y437149D01*
G01X-6266768Y507363D02*
G01X-6362656Y507363D01*
G01X-6362656Y507363D02*
G01X-6362656Y375243D01*
G01X-6362656Y375243D02*
G01X-6266768Y375243D01*
G01X-6181526Y507363D02*
G01X-6085638Y507363D01*
G01X-6085638Y507363D02*
G01X-6085638Y375243D01*
G01X-6085638Y375243D02*
G01X-6181526Y375243D01*
G01X-5887733Y248900D02*
G01X-5791845Y248900D01*
G01X-5791845Y248900D02*
G01X-5791845Y381020D01*
G01X-5791845Y381020D02*
G01X-5887733Y381020D01*
G01X-5972975Y248900D02*
G01X-6068863Y248900D01*
G01X-6068863Y248900D02*
G01X-6068863Y381020D01*
G01X-6068863Y381020D02*
G01X-5972975Y381020D01*
G01X-5834538Y718639D02*
G01X-5834538Y814527D01*
G01X-5834538Y814527D02*
G01X-5966659Y814527D01*
G01X-5966659Y814527D02*
G01X-5966659Y718639D01*
G01X-5834538Y633397D02*
G01X-5834538Y537509D01*
G01X-5834538Y537509D02*
G01X-5966659Y537509D01*
G01X-5966659Y537509D02*
G01X-5966659Y633397D01*
G01X-6516256Y-1405667D02*
G01X-6420369Y-1405667D01*
G01X-6420369Y-1405667D02*
G01X-6420369Y-1273546D01*
G01X-6420369Y-1273546D02*
G01X-6516256Y-1273546D01*
G01X-6601499Y-1405667D02*
G01X-6697386Y-1405667D01*
G01X-6697386Y-1405667D02*
G01X-6697386Y-1273546D01*
G01X-6697386Y-1273546D02*
G01X-6601499Y-1273546D01*
G01X-7528291Y-414880D02*
G01X-7528291Y-286387D01*
G01X-7528291Y-286387D02*
G01X-7711709Y-286387D01*
G01X-7711709Y-286387D02*
G01X-7711709Y-414880D01*
G01X-7528291Y-510120D02*
G01X-7528291Y-638613D01*
G01X-7528291Y-638613D02*
G01X-7711709Y-638613D01*
G01X-7711709Y-638613D02*
G01X-7711709Y-510120D01*
G01X-7485993Y-90316D02*
G01X-7485993Y5572D01*
G01X-7485993Y5572D02*
G01X-7618114Y5572D01*
G01X-7618114Y5572D02*
G01X-7618114Y-90316D01*
G01X-7485993Y-175558D02*
G01X-7485993Y-271446D01*
G01X-7485993Y-271446D02*
G01X-7618114Y-271446D01*
G01X-7618114Y-271446D02*
G01X-7618114Y-175558D01*
G01X-5602759Y-288684D02*
G01X-5731252Y-288684D01*
G01X-5731252Y-288684D02*
G01X-5731252Y-472103D01*
G01X-5731252Y-472103D02*
G01X-5602759Y-472103D01*
G01X-5507519Y-288684D02*
G01X-5379025Y-288684D01*
G01X-5379025Y-288684D02*
G01X-5379025Y-472103D01*
G01X-5379025Y-472103D02*
G01X-5507519Y-472103D01*
G01X-1820742Y3594963D02*
G01X-1820742Y3451471D01*
G01X-1820742Y3451471D02*
G01X-1505020Y3451471D01*
G01X-1505020Y3451471D02*
G01X-1505020Y3594963D01*
G01X-1820742Y3960205D02*
G01X-1820742Y4103697D01*
G01X-1820742Y4103697D02*
G01X-1505020Y4103697D01*
G01X-1505020Y4103697D02*
G01X-1505020Y3960205D01*
G01X-6502192Y-2417437D02*
G01X-6406304Y-2417437D01*
G01X-6406304Y-2417437D02*
G01X-6406304Y-2285317D01*
G01X-6406304Y-2285317D02*
G01X-6502192Y-2285317D01*
G01X-6587434Y-2417437D02*
G01X-6683322Y-2417437D01*
G01X-6683322Y-2417437D02*
G01X-6683322Y-2285317D01*
G01X-6683322Y-2285317D02*
G01X-6587434Y-2285317D01*
G01X-6512052Y-2181678D02*
G01X-6416164Y-2181678D01*
G01X-6416164Y-2181678D02*
G01X-6416164Y-2049557D01*
G01X-6416164Y-2049557D02*
G01X-6512052Y-2049557D01*
G01X-6597294Y-2181678D02*
G01X-6693182Y-2181678D01*
G01X-6693182Y-2181678D02*
G01X-6693182Y-2049557D01*
G01X-6693182Y-2049557D02*
G01X-6597294Y-2049557D01*
G01X-3872941Y3497600D02*
G01X-3968829Y3497600D01*
G01X-3968829Y3497600D02*
G01X-3968829Y3365480D01*
G01X-3968829Y3365480D02*
G01X-3872941Y3365480D01*
G01X-3787699Y3497600D02*
G01X-3691811Y3497600D01*
G01X-3691811Y3497600D02*
G01X-3691811Y3365480D01*
G01X-3691811Y3365480D02*
G01X-3787699Y3365480D01*
G01X-3630473Y6246909D02*
G01X-3630473Y6375402D01*
G01X-3630473Y6375402D02*
G01X-3813891Y6375402D01*
G01X-3813891Y6375402D02*
G01X-3813891Y6246909D01*
G01X-3630473Y6151669D02*
G01X-3630473Y6023175D01*
G01X-3630473Y6023175D02*
G01X-3813891Y6023175D01*
G01X-3813891Y6023175D02*
G01X-3813891Y6151669D01*
G01X-3829373Y6246909D02*
G01X-3829373Y6375402D01*
G01X-3829373Y6375402D02*
G01X-4012791Y6375402D01*
G01X-4012791Y6375402D02*
G01X-4012791Y6246909D01*
G01X-3829373Y6151669D02*
G01X-3829373Y6023175D01*
G01X-3829373Y6023175D02*
G01X-4012791Y6023175D01*
G01X-4012791Y6023175D02*
G01X-4012791Y6151669D01*
G01X-7273514Y-2511299D02*
G01X-7273514Y-2607186D01*
G01X-7273514Y-2607186D02*
G01X-7141393Y-2607186D01*
G01X-7141393Y-2607186D02*
G01X-7141393Y-2511299D01*
G01X-7273514Y-2426056D02*
G01X-7273514Y-2330169D01*
G01X-7273514Y-2330169D02*
G01X-7141393Y-2330169D01*
G01X-7141393Y-2330169D02*
G01X-7141393Y-2426056D01*
G01X-7279620Y-660959D02*
G01X-7279620Y-565071D01*
G01X-7279620Y-565071D02*
G01X-7411740Y-565071D01*
G01X-7411740Y-565071D02*
G01X-7411740Y-660959D01*
G01X-7279620Y-746201D02*
G01X-7279620Y-842089D01*
G01X-7279620Y-842089D02*
G01X-7411740Y-842089D01*
G01X-7411740Y-842089D02*
G01X-7411740Y-746201D01*
G01X-7119600Y-660959D02*
G01X-7119600Y-565071D01*
G01X-7119600Y-565071D02*
G01X-7251720Y-565071D01*
G01X-7251720Y-565071D02*
G01X-7251720Y-660959D01*
G01X-7119600Y-746201D02*
G01X-7119600Y-842089D01*
G01X-7119600Y-842089D02*
G01X-7251720Y-842089D01*
G01X-7251720Y-842089D02*
G01X-7251720Y-746201D01*
G01X-2977361Y5194761D02*
G01X-3120854Y5194761D01*
G01X-3120854Y5194761D02*
G01X-3120854Y4879039D01*
G01X-3120854Y4879039D02*
G01X-2977361Y4879039D01*
G01X-2612119Y5194761D02*
G01X-2468627Y5194761D01*
G01X-2468627Y5194761D02*
G01X-2468627Y4879039D01*
G01X-2468627Y4879039D02*
G01X-2612119Y4879039D01*
G01X-3390338Y4955751D02*
G01X-3390338Y4601471D01*
G01X-3390338Y4601471D02*
G01X-4375579Y4601471D01*
G01X-4375579Y4601471D02*
G01X-4375579Y4955751D01*
G01X-4375579Y4955751D02*
G01X-3390338Y4955751D01*
G54D12*
G01X-8028934Y-1068838D02*
G01X-8028934Y-1068841D01*
G01X-8028934Y-1068841D02*
G01X-8115812Y-1155719D01*
G01X-7115814Y-2068836D02*
G01X-7115814Y-1981958D01*
G01X-7115814Y-2068836D02*
G01X-7202695Y-2068836D01*
G01X-7202695Y-1068838D02*
G01X-7115814Y-1068838D01*
G01X-7115814Y-1068838D02*
G01X-7115814Y-1155719D01*
G01X-8115812Y-1155719D02*
G01X-8115812Y-1068838D01*
G01X-8115812Y-1068838D02*
G01X-8028934Y-1068838D01*
G01X-8028934Y-2068836D02*
G01X-8115812Y-2068836D01*
G01X-8115812Y-2068836D02*
G01X-8115812Y-1981955D01*
G54D17*
G01X-7190813Y-1143837D02*
G01X-8040814Y-1143837D01*
G01X-8040814Y-1143837D02*
G01X-8040814Y-1993838D01*
G01X-8040814Y-1993838D02*
G01X-7190813Y-1993838D01*
G01X-7190813Y-1993838D02*
G01X-7190813Y-1143837D01*
G54D18*
G01X-7918327Y-1238891D02*
G03X-7978340Y-1239145I-30006J-254D01*
G03X-7918327Y-1239399I30007J0D01*
G54D19*
G01X-8164811Y-1132711D02*
G03X-8194818Y-1132838I-15003J-127D01*
G03X-8164811Y-1132965I15003J0D01*
G36*
G01X-8115812Y-1155719D02*
G01X-8115812Y-1068838D01*
G01X-8028934Y-1068838D01*
G01X-8115812Y-1155716D01*
G01X-8115812Y-1155719D01*
G37*
G54D12*
G01X-9166502Y538024D02*
G01X-9012502Y538024D01*
G01X-9170507Y859822D02*
G01X-9010505Y859817D01*
G01X-9186507Y655624D02*
G01X-9186507Y744003D01*
G01X-8618908Y853929D02*
G01X-8798911Y853929D01*
G01X-8618908Y738930D02*
G01X-8618908Y658928D01*
G01X-8618908Y543927D02*
G01X-8798911Y543927D01*
G01X-7743863Y2483D02*
G01X-7743863Y-177519D01*
G01X-8053865Y2483D02*
G01X-8053865Y-177519D01*
G54D20*
G01X-6066715Y-272003D02*
G01X-5911714Y-272003D01*
G01X-6066715Y227996D02*
G01X-5666716Y227996D01*
G01X-6066715Y-272003D02*
G01X-6066715Y227996D01*
G01X-5666716Y-272003D02*
G01X-5666716Y227996D01*
G01X-5666716Y-272003D02*
G01X-5829215Y-272003D01*
G01X-5911714Y-272003D02*
G02X-5829123Y-271939I41295J32D01*
G54D10*
G01X-6902673Y3825004D02*
G01X-7177912Y3825004D01*
G01X-7177912Y3825004D02*
G01X-7177912Y3849304D01*
G01X-6902673Y4010246D02*
G01X-7177912Y4010246D01*
G01X-7177912Y4010246D02*
G01X-7177912Y3985946D01*
G01X-6943612Y3825004D02*
G01X-6943612Y4010246D01*
G36*
G01X-6910293Y3817384D02*
G01X-6910293Y3854384D01*
G01X-6879813Y3854384D01*
G01X-6879813Y3817384D01*
G01X-6910293Y3817384D01*
G37*
G36*
G01X-6910293Y4017866D02*
G01X-6879813Y4017866D01*
G01X-6879813Y3980866D01*
G01X-6910293Y3980866D01*
G01X-6910293Y4017866D01*
G37*
G01X-8589453Y-1323188D02*
G01X-8589453Y-1475588D01*
G01X-8665653Y-1399388D02*
G01X-8513253Y-1399388D01*
G01X-7791761Y914989D02*
G01X-7791761Y773989D01*
G01X-7611040Y773989D02*
G01X-7611040Y914989D01*
G01X-7626280Y930229D02*
G01X-7776521Y930229D01*
G01X-7791761Y552749D02*
G01X-7791761Y693750D01*
G01X-7611040Y693750D02*
G01X-7611040Y552749D01*
G01X-7626280Y537509D02*
G01X-7776521Y537509D01*
G01X-7611040Y914989D02*
G03X-7626280Y930229I-15240J0D01*
G01X-7776521Y930229D02*
G03X-7791761Y914989I0J-15240D01*
G01X-7611040Y552749D02*
G02X-7626280Y537509I-15240J0D01*
G01X-7776521Y537509D02*
G02X-7791761Y552749I0J15240D01*
G01X-7585800Y914989D02*
G01X-7585800Y773989D01*
G01X-7405079Y773989D02*
G01X-7405079Y914989D01*
G01X-7420319Y930229D02*
G01X-7570560Y930229D01*
G01X-7585800Y552749D02*
G01X-7585800Y693750D01*
G01X-7405079Y693750D02*
G01X-7405079Y552749D01*
G01X-7420319Y537509D02*
G01X-7570560Y537509D01*
G01X-7405079Y914989D02*
G03X-7420319Y930229I-15240J0D01*
G01X-7570560Y930229D02*
G03X-7585800Y914989I0J-15240D01*
G01X-7405079Y552749D02*
G02X-7420319Y537509I-15240J0D01*
G01X-7570560Y537509D02*
G02X-7585800Y552749I0J15240D01*
G01X-7199118Y585251D02*
G01X-7199118Y726252D01*
G01X-7379839Y726252D02*
G01X-7379839Y585251D01*
G01X-7364599Y570011D02*
G01X-7214358Y570011D01*
G01X-7199118Y947491D02*
G01X-7199118Y806490D01*
G01X-7379839Y806490D02*
G01X-7379839Y947491D01*
G01X-7364599Y962731D02*
G01X-7214358Y962731D01*
G01X-7379839Y585251D02*
G03X-7364599Y570011I15240J0D01*
G01X-7214358Y570011D02*
G03X-7199118Y585251I0J15240D01*
G01X-7379839Y947491D02*
G02X-7364599Y962731I15240J0D01*
G01X-7214358Y962731D02*
G02X-7199118Y947491I0J-15240D01*
G01X-6967917Y947491D02*
G01X-6967917Y806490D01*
G01X-6787196Y806490D02*
G01X-6787196Y947491D01*
G01X-6802436Y962731D02*
G01X-6952677Y962731D01*
G01X-6967917Y585251D02*
G01X-6967917Y726252D01*
G01X-6787196Y726252D02*
G01X-6787196Y585251D01*
G01X-6802436Y570011D02*
G01X-6952677Y570011D01*
G01X-6787196Y947491D02*
G03X-6802436Y962731I-15240J0D01*
G01X-6952677Y962731D02*
G03X-6967917Y947491I0J-15240D01*
G01X-6787196Y585251D02*
G02X-6802436Y570011I-15240J0D01*
G01X-6952677Y570011D02*
G02X-6967917Y585251I0J15240D01*
G01X-6993157Y585251D02*
G01X-6993157Y726252D01*
G01X-7173878Y726252D02*
G01X-7173878Y585251D01*
G01X-7158638Y570011D02*
G01X-7008397Y570011D01*
G01X-6993157Y947491D02*
G01X-6993157Y806490D01*
G01X-7173878Y806490D02*
G01X-7173878Y947491D01*
G01X-7158638Y962731D02*
G01X-7008397Y962731D01*
G01X-7173878Y585251D02*
G03X-7158638Y570011I15240J0D01*
G01X-7008397Y570011D02*
G03X-6993157Y585251I0J15240D01*
G01X-7173878Y947491D02*
G02X-7158638Y962731I15240J0D01*
G01X-7008397Y962731D02*
G02X-6993157Y947491I0J-15240D01*
G01X-6761956Y947491D02*
G01X-6761956Y806490D01*
G01X-6581235Y806490D02*
G01X-6581235Y947491D01*
G01X-6596475Y962731D02*
G01X-6746716Y962731D01*
G01X-6761956Y585251D02*
G01X-6761956Y726252D01*
G01X-6581235Y726252D02*
G01X-6581235Y585251D01*
G01X-6596475Y570011D02*
G01X-6746716Y570011D01*
G01X-6581235Y947491D02*
G03X-6596475Y962731I-15240J0D01*
G01X-6746716Y962731D02*
G03X-6761956Y947491I0J-15240D01*
G01X-6581235Y585251D02*
G02X-6596475Y570011I-15240J0D01*
G01X-6746716Y570011D02*
G02X-6761956Y585251I0J15240D01*
G01X-6555995Y914989D02*
G01X-6555995Y773989D01*
G01X-6375274Y773989D02*
G01X-6375274Y914989D01*
G01X-6390514Y930229D02*
G01X-6540755Y930229D01*
G01X-6555995Y552749D02*
G01X-6555995Y693750D01*
G01X-6375274Y693750D02*
G01X-6375274Y552749D01*
G01X-6390514Y537509D02*
G01X-6540755Y537509D01*
G01X-6375274Y914989D02*
G03X-6390514Y930229I-15240J0D01*
G01X-6540755Y930229D02*
G03X-6555995Y914989I0J-15240D01*
G01X-6375274Y552749D02*
G02X-6390514Y537509I-15240J0D01*
G01X-6540755Y537509D02*
G02X-6555995Y552749I0J15240D01*
G01X-6350034Y914989D02*
G01X-6350034Y773989D01*
G01X-6169313Y773989D02*
G01X-6169313Y914989D01*
G01X-6184553Y930229D02*
G01X-6334794Y930229D01*
G01X-6350034Y552749D02*
G01X-6350034Y693750D01*
G01X-6169313Y693750D02*
G01X-6169313Y552749D01*
G01X-6184553Y537509D02*
G01X-6334794Y537509D01*
G01X-6169313Y914989D02*
G03X-6184553Y930229I-15240J0D01*
G01X-6334794Y930229D02*
G03X-6350034Y914989I0J-15240D01*
G01X-6169313Y552749D02*
G02X-6184553Y537509I-15240J0D01*
G01X-6334794Y537509D02*
G02X-6350034Y552749I0J15240D01*
G54D12*
G01X-9734654Y-1388551D02*
G01X-9734654Y-2347874D01*
G01X-9314654Y-2307859D02*
G01X-9314654Y-2460993D01*
G01X-9314654Y-2460993D02*
G01X-9456541Y-2460993D01*
G01X-9734654Y-1388551D02*
G01X-9734654Y-1374114D01*
G01X-9436544Y-1260993D02*
G01X-9456541Y-1260993D01*
G01X-9314654Y-1432872D02*
G01X-9314654Y-1260993D01*
G01X-9314654Y-1260993D02*
G01X-9436544Y-1260993D01*
G01X-9314654Y-1557870D02*
G01X-9314654Y-1539100D01*
G01X-9314654Y-1682871D02*
G01X-9314654Y-1664098D01*
G01X-9314654Y-1807870D02*
G01X-9314654Y-1789099D01*
G01X-9314654Y-1932871D02*
G01X-9314654Y-1914098D01*
G01X-9314654Y-2057872D02*
G01X-9314654Y-2039099D01*
G01X-9314654Y-2182858D02*
G01X-9314654Y-2164100D01*
G01X-9314654Y-2307859D02*
G01X-9314654Y-2289086D01*
G36*
G01X-9714664Y-1438490D02*
G01X-9634659Y-1478485D01*
G01X-9714659Y-1518485D01*
G01X-9714664Y-1438490D01*
G37*
G54D14*
G01X-9150773Y-2209717D02*
G01X-9150773Y-2128437D01*
G01X-9074573Y-2128437D02*
G01X-9074573Y-2209717D01*
G54D10*
G01X-8462721Y-2057380D02*
G01X-8558609Y-2057380D01*
G01X-8558609Y-2057380D02*
G01X-8558609Y-2189500D01*
G01X-8558609Y-2189500D02*
G01X-8462721Y-2189500D01*
G01X-8377479Y-2057380D02*
G01X-8281591Y-2057380D01*
G01X-8281591Y-2057380D02*
G01X-8281591Y-2189500D01*
G01X-8281591Y-2189500D02*
G01X-8377479Y-2189500D01*
G54D12*
G01X-4708119Y5140742D02*
G01X-4788116Y5140742D01*
G01X-4652074Y5140697D02*
G01X-4572077Y5140697D01*
G01X-4708119Y5282711D02*
G01X-4788116Y5282711D01*
G01X-4652074Y5282662D02*
G01X-4572077Y5282662D01*
G01X-4819092Y5171725D02*
G01X-4819092Y5251730D01*
G01X-4541099Y5251677D02*
G01X-4541099Y5171674D01*
G01X-4572082Y5282662D02*
G02X-4541099Y5251677I0J-30983D01*
G01X-4541099Y5171680D02*
G02X-4572082Y5140697I-30983J0D01*
G01X-4788111Y5140742D02*
G02X-4819092Y5171725I3J30983D01*
G01X-4819092Y5251723D02*
G02X-4788111Y5282711I30983J5D01*
G01X-9765017Y-969912D02*
G01X-9765017Y45961D01*
G01X-9158973Y-969912D02*
G01X-9158973Y-677142D01*
G01X-9158973Y-500911D02*
G01X-9158973Y-423144D01*
G01X-9158973Y-246914D02*
G01X-9158973Y45961D01*
G01X-9765017Y-969912D02*
G01X-9758159Y-969912D01*
G01X-9321787Y-969912D02*
G01X-9158973Y-969912D01*
G01X-9765017Y45961D02*
G01X-9758159Y45961D01*
G01X-9321787Y45961D02*
G01X-9158973Y45961D01*
G54D10*
G01X-3014421Y3370600D02*
G01X-3110309Y3370600D01*
G01X-3110309Y3370600D02*
G01X-3110309Y3238480D01*
G01X-3110309Y3238480D02*
G01X-3014421Y3238480D01*
G01X-2929179Y3370600D02*
G01X-2833291Y3370600D01*
G01X-2833291Y3370600D02*
G01X-2833291Y3238480D01*
G01X-2833291Y3238480D02*
G01X-2929179Y3238480D01*
G01X-2132761Y5494065D02*
G01X-2132761Y5589952D01*
G01X-2132761Y5589952D02*
G01X-2264882Y5589952D01*
G01X-2264882Y5589952D02*
G01X-2264882Y5494065D01*
G01X-2132761Y5408823D02*
G01X-2132761Y5312935D01*
G01X-2132761Y5312935D02*
G01X-2264882Y5312935D01*
G01X-2264882Y5312935D02*
G01X-2264882Y5408823D01*
G54D12*
G01X-3036220Y5437480D02*
G01X-2596221Y5437480D01*
G01X-3036220Y5217480D02*
G01X-2596221Y5217480D01*
G01X-3036220Y5437480D02*
G01X-3036220Y5217480D01*
G01X-2596221Y5437480D02*
G01X-2596221Y5217480D01*
G01X-2942281Y5437480D02*
G01X-2942281Y5217480D01*
G01X-4626795Y6221635D02*
G01X-4626795Y6141638D01*
G01X-4626749Y6277680D02*
G01X-4626749Y6357678D01*
G01X-4768763Y6221635D02*
G01X-4768763Y6141638D01*
G01X-4768715Y6277680D02*
G01X-4768715Y6357678D01*
G01X-4657778Y6110663D02*
G01X-4737782Y6110663D01*
G01X-4737729Y6388655D02*
G01X-4657727Y6388655D01*
G01X-4768715Y6357673D02*
G02X-4737729Y6388655I30983J0D01*
G01X-4657732Y6388655D02*
G02X-4626749Y6357673I0J-30983D01*
G01X-4626795Y6141643D02*
G02X-4657778Y6110663I-30983J3D01*
G01X-4737775Y6110663D02*
G02X-4768763Y6141643I-5J30983D01*
G54D10*
G01X-4135666Y3885854D02*
G01X-4135666Y3744854D01*
G01X-3954945Y3744854D02*
G01X-3954945Y3885854D01*
G01X-3970185Y3901094D02*
G01X-4120426Y3901094D01*
G01X-4135666Y3523614D02*
G01X-4135666Y3664615D01*
G01X-3954945Y3664615D02*
G01X-3954945Y3523614D01*
G01X-3970185Y3508374D02*
G01X-4120426Y3508374D01*
G01X-3954945Y3885854D02*
G03X-3970185Y3901094I-15240J0D01*
G01X-4120426Y3901094D02*
G03X-4135666Y3885854I0J-15240D01*
G01X-3954945Y3523614D02*
G02X-3970185Y3508374I-15240J0D01*
G01X-4120426Y3508374D02*
G02X-4135666Y3523614I0J15240D01*
G01X-3751471Y3770341D02*
G01X-3751471Y3898835D01*
G01X-3751471Y3898835D02*
G01X-3934890Y3898835D01*
G01X-3934890Y3898835D02*
G01X-3934890Y3770341D01*
G01X-3751471Y3675102D02*
G01X-3751471Y3546608D01*
G01X-3751471Y3546608D02*
G01X-3934890Y3546608D01*
G01X-3934890Y3546608D02*
G01X-3934890Y3675102D01*
G01X-5046340Y4224289D02*
G01X-5174833Y4224289D01*
G01X-5174833Y4224289D02*
G01X-5174833Y4040871D01*
G01X-5174833Y4040871D02*
G01X-5046340Y4040871D01*
G01X-4951100Y4224289D02*
G01X-4822607Y4224289D01*
G01X-4822607Y4224289D02*
G01X-4822607Y4040871D01*
G01X-4822607Y4040871D02*
G01X-4951100Y4040871D01*
G01X-5046340Y4430029D02*
G01X-5174833Y4430029D01*
G01X-5174833Y4430029D02*
G01X-5174833Y4246611D01*
G01X-5174833Y4246611D02*
G01X-5046340Y4246611D01*
G01X-4951100Y4430029D02*
G01X-4822607Y4430029D01*
G01X-4822607Y4430029D02*
G01X-4822607Y4246611D01*
G01X-4822607Y4246611D02*
G01X-4951100Y4246611D01*
G54D12*
G01X-4696473Y-899160D02*
G01X-4594873Y-899160D01*
G01X-4645673Y-822960D02*
G01X-4645673Y-975360D01*
G36*
G01X-3883673Y-543560D02*
G01X-3756673Y-746760D01*
G01X-3731273Y-848360D01*
G01X-3756673Y-1000760D01*
G01X-3807473Y-1153160D01*
G01X-3883673Y-1254760D01*
G01X-3883673Y-543560D01*
G37*
G01X-5613479Y-1010757D02*
G01X-5693476Y-1010757D01*
G01X-5557434Y-1010803D02*
G01X-5477436Y-1010803D01*
G01X-5613479Y-868789D02*
G01X-5693476Y-868789D01*
G01X-5557434Y-868837D02*
G01X-5477436Y-868837D01*
G01X-5724451Y-979775D02*
G01X-5724451Y-899770D01*
G01X-5446458Y-899823D02*
G01X-5446458Y-979825D01*
G01X-5477441Y-868837D02*
G02X-5446458Y-899823I0J-30983D01*
G01X-5446458Y-979820D02*
G02X-5477441Y-1010803I-30983J0D01*
G01X-5693471Y-1010757D02*
G02X-5724451Y-979775I3J30983D01*
G01X-5724451Y-899777D02*
G02X-5693471Y-868789I30983J5D01*
G54D10*
G01X-2167551Y3679235D02*
G01X-1894811Y3679235D01*
G01X-1894809Y3537394D02*
G01X-1894809Y4004228D01*
G01X-2167549Y3535143D02*
G01X-2165801Y4003631D01*
G01X-1894809Y4003634D02*
G01X-1929858Y4003634D01*
G01X-2158179Y4003634D02*
G01X-2123129Y4003634D01*
G36*
G01X-2175169Y3571971D02*
G01X-2127419Y3571971D01*
G01X-2127419Y3526251D01*
G01X-2175169Y3526251D01*
G01X-2175169Y3571971D01*
G37*
G36*
G01X-1887189Y3573241D02*
G01X-1887189Y3527521D01*
G01X-1934938Y3527521D01*
G01X-1934938Y3573241D01*
G01X-1887189Y3573241D01*
G37*
G01X-3186190Y4406411D02*
G01X-2913450Y4406411D01*
G01X-2913448Y4264570D02*
G01X-2913448Y4731404D01*
G01X-3186188Y4262319D02*
G01X-3184440Y4730807D01*
G01X-2913448Y4730809D02*
G01X-2948497Y4730809D01*
G01X-3176818Y4730809D02*
G01X-3141768Y4730809D01*
G36*
G01X-3193808Y4299147D02*
G01X-3146058Y4299147D01*
G01X-3146058Y4253427D01*
G01X-3193808Y4253427D01*
G01X-3193808Y4299147D01*
G37*
G36*
G01X-2905828Y4300417D02*
G01X-2905828Y4254697D01*
G01X-2953577Y4254697D01*
G01X-2953577Y4300417D01*
G01X-2905828Y4300417D01*
G37*
G01X-4897646Y3720484D02*
G01X-4897646Y3624597D01*
G01X-4897646Y3624597D02*
G01X-4765526Y3624597D01*
G01X-4765526Y3624597D02*
G01X-4765526Y3720484D01*
G01X-4897646Y3805726D02*
G01X-4897646Y3901614D01*
G01X-4897646Y3901614D02*
G01X-4765526Y3901614D01*
G01X-4765526Y3901614D02*
G01X-4765526Y3805726D01*
G01X-5768980Y-2476769D02*
G01X-5640487Y-2476769D01*
G01X-5640487Y-2476769D02*
G01X-5640487Y-2293351D01*
G01X-5640487Y-2293351D02*
G01X-5768980Y-2293351D01*
G01X-5864220Y-2476769D02*
G01X-5992713Y-2476769D01*
G01X-5992713Y-2476769D02*
G01X-5992713Y-2293351D01*
G01X-5992713Y-2293351D02*
G01X-5864220Y-2293351D01*
G54D12*
G01X-5786120Y-1554480D02*
G01X-5786120Y-1275080D01*
G01X-5786120Y-2037080D02*
G01X-5786120Y-1757319D01*
G01X-5379720Y-2037080D02*
G01X-5786120Y-2037080D01*
G01X-5379720Y-1275080D02*
G01X-5379720Y-2037080D01*
G01X-5786120Y-1275080D02*
G01X-5379720Y-1275080D01*
G01X-5786120Y-1753509D02*
G03X-5786120Y-1557929I0J97790D01*
G36*
G01X-5763019Y-1960880D02*
G02X-5656819Y-1960880I53100J367D01*
G02X-5763019Y-1960880I-53100J-367D01*
G37*
G54D10*
G01X-3160872Y6097635D02*
G01X-3160872Y5812393D01*
G01X-3145632Y5797153D02*
G01X-2982132Y5797153D01*
G01X-2982132Y6112875D02*
G01X-3145632Y6112875D01*
G01X-2663392Y5797153D02*
G01X-2826892Y5797153D01*
G01X-2826892Y6112875D02*
G01X-2663392Y6112875D01*
G01X-2648152Y6097635D02*
G01X-2648152Y5812393D01*
G01X-3145632Y6112875D02*
G03X-3160872Y6097635I0J-15240D01*
G01X-3160872Y5812393D02*
G03X-3145632Y5797153I15240J0D01*
G01X-2663392Y6112875D02*
G02X-2648152Y6097635I0J-15240D01*
G01X-2648152Y5812393D02*
G02X-2663392Y5797153I-15240J0D01*
G01X-2446925Y5494941D02*
G01X-2446925Y5780183D01*
G01X-2462165Y5795423D02*
G01X-2625665Y5795423D01*
G01X-2625665Y5479701D02*
G01X-2462165Y5479701D01*
G01X-2944404Y5795423D02*
G01X-2780904Y5795423D01*
G01X-2780904Y5479701D02*
G01X-2944404Y5479701D01*
G01X-2959644Y5494941D02*
G01X-2959644Y5780183D01*
G01X-2462165Y5479701D02*
G03X-2446925Y5494941I0J15240D01*
G01X-2446925Y5780183D02*
G03X-2462165Y5795423I-15240J0D01*
G01X-2944404Y5479701D02*
G02X-2959644Y5494941I0J15240D01*
G01X-2959644Y5780183D02*
G02X-2944404Y5795423I15240J0D01*
G01X-4631431Y2830476D02*
G01X-4346189Y2830476D01*
G01X-4330949Y2845716D02*
G01X-4330949Y3009216D01*
G01X-4646671Y3009216D02*
G01X-4646671Y2845716D01*
G01X-4330949Y3327956D02*
G01X-4330949Y3164456D01*
G01X-4646671Y3164456D02*
G01X-4646671Y3327956D01*
G01X-4631431Y3343196D02*
G01X-4346189Y3343196D01*
G01X-4646671Y2845716D02*
G03X-4631431Y2830476I15240J0D01*
G01X-4346189Y2830476D02*
G03X-4330949Y2845716I0J15240D01*
G01X-4646671Y3327956D02*
G02X-4631431Y3343196I15240J0D01*
G01X-4346189Y3343196D02*
G02X-4330949Y3327956I0J-15240D01*
G01X-4300761Y2830314D02*
G01X-4015519Y2830314D01*
G01X-4000279Y2845554D02*
G01X-4000279Y3009054D01*
G01X-4316001Y3009054D02*
G01X-4316001Y2845554D01*
G01X-4000279Y3327793D02*
G01X-4000279Y3164294D01*
G01X-4316001Y3164294D02*
G01X-4316001Y3327793D01*
G01X-4300761Y3343033D02*
G01X-4015519Y3343033D01*
G01X-4316001Y2845554D02*
G03X-4300761Y2830314I15240J0D01*
G01X-4015519Y2830314D02*
G03X-4000279Y2845554I0J15240D01*
G01X-4316001Y3327793D02*
G02X-4300761Y3343033I15240J0D01*
G01X-4015519Y3343033D02*
G02X-4000279Y3327793I0J-15240D01*
G01X-4962931Y2830476D02*
G01X-4677689Y2830476D01*
G01X-4662449Y2845716D02*
G01X-4662449Y3009216D01*
G01X-4978171Y3009216D02*
G01X-4978171Y2845716D01*
G01X-4662449Y3327956D02*
G01X-4662449Y3164456D01*
G01X-4978171Y3164456D02*
G01X-4978171Y3327956D01*
G01X-4962931Y3343196D02*
G01X-4677689Y3343196D01*
G01X-4978171Y2845716D02*
G03X-4962931Y2830476I15240J0D01*
G01X-4677689Y2830476D02*
G03X-4662449Y2845716I0J15240D01*
G01X-4978171Y3327956D02*
G02X-4962931Y3343196I15240J0D01*
G01X-4677689Y3343196D02*
G02X-4662449Y3327956I0J-15240D01*
G01X-3972423Y2828106D02*
G01X-3687181Y2828106D01*
G01X-3671941Y2843346D02*
G01X-3671941Y3006846D01*
G01X-3987663Y3006846D02*
G01X-3987663Y2843346D01*
G01X-3671941Y3325585D02*
G01X-3671941Y3162085D01*
G01X-3987663Y3162085D02*
G01X-3987663Y3325585D01*
G01X-3972423Y3340825D02*
G01X-3687181Y3340825D01*
G01X-3987663Y2843346D02*
G03X-3972423Y2828106I15240J0D01*
G01X-3687181Y2828106D02*
G03X-3671941Y2843346I0J15240D01*
G01X-3987663Y3325585D02*
G02X-3972423Y3340825I15240J0D01*
G01X-3687181Y3340825D02*
G02X-3671941Y3325585I0J-15240D01*
G54D12*
G01X-3200563Y6355001D02*
G01X-3200563Y6275004D01*
G01X-3200517Y6411046D02*
G01X-3200517Y6491044D01*
G01X-3342531Y6355001D02*
G01X-3342531Y6275004D01*
G01X-3342483Y6411046D02*
G01X-3342483Y6491044D01*
G01X-3231545Y6244029D02*
G01X-3311550Y6244029D01*
G01X-3311497Y6522022D02*
G01X-3231495Y6522022D01*
G01X-3342483Y6491039D02*
G02X-3311497Y6522022I30983J0D01*
G01X-3231500Y6522022D02*
G02X-3200517Y6491039I0J-30983D01*
G01X-3200563Y6275009D02*
G02X-3231545Y6244029I-30983J3D01*
G01X-3311543Y6244029D02*
G02X-3342531Y6275009I-5J30983D01*
G54D10*
G01X-4654571Y5679614D02*
G01X-4750458Y5679614D01*
G01X-4750458Y5679614D02*
G01X-4750458Y5547493D01*
G01X-4750458Y5547493D02*
G01X-4654571Y5547493D01*
G01X-4569328Y5679614D02*
G01X-4473441Y5679614D01*
G01X-4473441Y5679614D02*
G01X-4473441Y5547493D01*
G01X-4473441Y5547493D02*
G01X-4569328Y5547493D01*
G01X-4695269Y5531862D02*
G01X-4823763Y5531862D01*
G01X-4823763Y5531862D02*
G01X-4823763Y5348444D01*
G01X-4823763Y5348444D02*
G01X-4695269Y5348444D01*
G01X-4600029Y5531862D02*
G01X-4471536Y5531862D01*
G01X-4471536Y5531862D02*
G01X-4471536Y5348444D01*
G01X-4471536Y5348444D02*
G01X-4600029Y5348444D01*
G01X-4410639Y492839D02*
G01X-4554134Y492839D01*
G01X-4554134Y492839D02*
G01X-4554134Y101521D01*
G01X-4554134Y101521D02*
G01X-4410639Y101521D01*
G01X-3910401Y492839D02*
G01X-3766906Y492839D01*
G01X-3766906Y492839D02*
G01X-3766906Y101521D01*
G01X-3766906Y101521D02*
G01X-3910401Y101521D01*
G01X-5011341Y2873939D02*
G01X-5011341Y3017434D01*
G01X-5011341Y3017434D02*
G01X-5402659Y3017434D01*
G01X-5402659Y3017434D02*
G01X-5402659Y2873939D01*
G01X-5011341Y2373701D02*
G01X-5011341Y2230206D01*
G01X-5011341Y2230206D02*
G01X-5402659Y2230206D01*
G01X-5402659Y2230206D02*
G01X-5402659Y2373701D01*
G01X-7994340Y-2393351D02*
G01X-8122834Y-2393351D01*
G01X-8122834Y-2393351D02*
G01X-8122834Y-2576769D01*
G01X-8122834Y-2576769D02*
G01X-7994340Y-2576769D01*
G01X-7899100Y-2393351D02*
G01X-7770607Y-2393351D01*
G01X-7770607Y-2393351D02*
G01X-7770607Y-2576769D01*
G01X-7770607Y-2576769D02*
G01X-7899100Y-2576769D01*
G01X-4268393Y6245669D02*
G01X-4268393Y6374162D01*
G01X-4268393Y6374162D02*
G01X-4451812Y6374162D01*
G01X-4451812Y6374162D02*
G01X-4451812Y6245669D01*
G01X-4268393Y6150429D02*
G01X-4268393Y6021935D01*
G01X-4268393Y6021935D02*
G01X-4451812Y6021935D01*
G01X-4451812Y6021935D02*
G01X-4451812Y6150429D01*
G01X-7010131Y2409820D02*
G01X-7010131Y2538313D01*
G01X-7010131Y2538313D02*
G01X-7193549Y2538313D01*
G01X-7193549Y2538313D02*
G01X-7193549Y2409820D01*
G01X-7010131Y2314580D02*
G01X-7010131Y2186087D01*
G01X-7010131Y2186087D02*
G01X-7193549Y2186087D01*
G01X-7193549Y2186087D02*
G01X-7193549Y2314580D01*
G01X-7817001Y761243D02*
G01X-7817001Y889736D01*
G01X-7817001Y889736D02*
G01X-8000420Y889736D01*
G01X-8000420Y889736D02*
G01X-8000420Y761243D01*
G01X-7817001Y666003D02*
G01X-7817001Y537509D01*
G01X-7817001Y537509D02*
G01X-8000420Y537509D01*
G01X-8000420Y537509D02*
G01X-8000420Y666003D01*
G01X-8754044Y-2781737D02*
G01X-8754044Y-2653244D01*
G01X-8754044Y-2653244D02*
G01X-8937462Y-2653244D01*
G01X-8937462Y-2653244D02*
G01X-8937462Y-2781737D01*
G01X-8754044Y-2876977D02*
G01X-8754044Y-3005471D01*
G01X-8754044Y-3005471D02*
G01X-8937462Y-3005471D01*
G01X-8937462Y-3005471D02*
G01X-8937462Y-2876977D01*
G01X-7617729Y153040D02*
G01X-7617729Y24547D01*
G01X-7617729Y24547D02*
G01X-7434311Y24547D01*
G01X-7434311Y24547D02*
G01X-7434311Y153040D01*
G01X-7617729Y248280D02*
G01X-7617729Y376773D01*
G01X-7617729Y376773D02*
G01X-7434311Y376773D01*
G01X-7434311Y376773D02*
G01X-7434311Y248280D01*
G01X-4336210Y3675102D02*
G01X-4336210Y3546608D01*
G01X-4336210Y3546608D02*
G01X-4152791Y3546608D01*
G01X-4152791Y3546608D02*
G01X-4152791Y3675102D01*
G01X-4336210Y3770341D02*
G01X-4336210Y3898835D01*
G01X-4336210Y3898835D02*
G01X-4152791Y3898835D01*
G01X-4152791Y3898835D02*
G01X-4152791Y3770341D01*
G01X-2936122Y6158106D02*
G01X-2807628Y6158106D01*
G01X-2807628Y6158106D02*
G01X-2807628Y6341525D01*
G01X-2807628Y6341525D02*
G01X-2936122Y6341525D01*
G01X-3031361Y6158106D02*
G01X-3159855Y6158106D01*
G01X-3159855Y6158106D02*
G01X-3159855Y6341525D01*
G01X-3159855Y6341525D02*
G01X-3031361Y6341525D01*
G01X-7772620Y-668291D02*
G01X-7901113Y-668291D01*
G01X-7901113Y-668291D02*
G01X-7901113Y-851709D01*
G01X-7901113Y-851709D02*
G01X-7772620Y-851709D01*
G01X-7677380Y-668291D02*
G01X-7548887Y-668291D01*
G01X-7548887Y-668291D02*
G01X-7548887Y-851709D01*
G01X-7548887Y-851709D02*
G01X-7677380Y-851709D01*
G01X-4254345Y6149016D02*
G01X-4254345Y6020523D01*
G01X-4254345Y6020523D02*
G01X-4070926Y6020523D01*
G01X-4070926Y6020523D02*
G01X-4070926Y6149016D01*
G01X-4254345Y6244256D02*
G01X-4254345Y6372750D01*
G01X-4254345Y6372750D02*
G01X-4070926Y6372750D01*
G01X-4070926Y6372750D02*
G01X-4070926Y6244256D01*
G01X-4560577Y3773917D02*
G01X-4560577Y3902410D01*
G01X-4560577Y3902410D02*
G01X-4743996Y3902410D01*
G01X-4743996Y3902410D02*
G01X-4743996Y3773917D01*
G01X-4560577Y3678677D02*
G01X-4560577Y3550183D01*
G01X-4560577Y3550183D02*
G01X-4743996Y3550183D01*
G01X-4743996Y3550183D02*
G01X-4743996Y3678677D01*
G01X-7496744Y-2769037D02*
G01X-7496744Y-2640544D01*
G01X-7496744Y-2640544D02*
G01X-7680162Y-2640544D01*
G01X-7680162Y-2640544D02*
G01X-7680162Y-2769037D01*
G01X-7496744Y-2864277D02*
G01X-7496744Y-2992771D01*
G01X-7496744Y-2992771D02*
G01X-7680162Y-2992771D01*
G01X-7680162Y-2992771D02*
G01X-7680162Y-2864277D01*
G54D12*
G01X-4924956Y3735766D02*
G01X-4924956Y3655769D01*
G01X-4924911Y3791812D02*
G01X-4924911Y3871809D01*
G01X-5066925Y3735766D02*
G01X-5066925Y3655769D01*
G01X-5066876Y3791812D02*
G01X-5066876Y3871809D01*
G01X-4955939Y3624794D02*
G01X-5035944Y3624794D01*
G01X-5035891Y3902787D02*
G01X-4955888Y3902787D01*
G01X-5066876Y3871804D02*
G02X-5035891Y3902787I30983J0D01*
G01X-4955894Y3902787D02*
G02X-4924911Y3871804I0J-30983D01*
G01X-4924956Y3655774D02*
G02X-4955939Y3624794I-30983J3D01*
G01X-5035937Y3624794D02*
G02X-5066925Y3655774I-5J30983D01*
G54D10*
G01X-4582972Y3997699D02*
G01X-4582972Y4146198D01*
G01X-4801494Y4146198D02*
G01X-4801494Y3997699D01*
G01X-4786254Y3982459D02*
G01X-4598212Y3982459D01*
G01X-4582972Y4479938D02*
G01X-4582972Y4331440D01*
G01X-4801494Y4331440D02*
G01X-4801494Y4479938D01*
G01X-4786254Y4495178D02*
G01X-4598212Y4495178D01*
G01X-4801494Y3997699D02*
G03X-4786254Y3982459I15240J0D01*
G01X-4598212Y3982459D02*
G03X-4582972Y3997699I0J15240D01*
G01X-4801494Y4479938D02*
G02X-4786254Y4495178I15240J0D01*
G01X-4598212Y4495178D02*
G02X-4582972Y4479938I0J-15240D01*
G01X-3639062Y6004049D02*
G01X-3780063Y6004049D01*
G01X-3780063Y5823328D02*
G01X-3639062Y5823328D01*
G01X-3623822Y5838568D02*
G01X-3623822Y5988809D01*
G01X-4001302Y6004049D02*
G01X-3860301Y6004049D01*
G01X-3860301Y5823328D02*
G01X-4001302Y5823328D01*
G01X-4016542Y5838568D02*
G01X-4016542Y5988809D01*
G01X-3639062Y5823328D02*
G03X-3623822Y5838568I0J15240D01*
G01X-3623822Y5988809D02*
G03X-3639062Y6004049I-15240J0D01*
G01X-4001302Y5823328D02*
G02X-4016542Y5838568I0J15240D01*
G01X-4016542Y5988809D02*
G02X-4001302Y6004049I15240J0D01*
G01X-2936880Y6359891D02*
G01X-2808387Y6359891D01*
G01X-2808387Y6359891D02*
G01X-2808387Y6543309D01*
G01X-2808387Y6543309D02*
G01X-2936880Y6543309D01*
G01X-3032120Y6359891D02*
G01X-3160613Y6359891D01*
G01X-3160613Y6359891D02*
G01X-3160613Y6543309D01*
G01X-3160613Y6543309D02*
G01X-3032120Y6543309D01*
G01X-4471672Y6292275D02*
G01X-4471672Y6388163D01*
G01X-4471672Y6388163D02*
G01X-4603792Y6388163D01*
G01X-4603792Y6388163D02*
G01X-4603792Y6292275D01*
G01X-4471672Y6207033D02*
G01X-4471672Y6111145D01*
G01X-4471672Y6111145D02*
G01X-4603792Y6111145D01*
G01X-4603792Y6111145D02*
G01X-4603792Y6207033D01*
G01X-3151759Y3586221D02*
G01X-3151759Y3729713D01*
G01X-3151759Y3729713D02*
G01X-3467481Y3729713D01*
G01X-3467481Y3729713D02*
G01X-3467481Y3586221D01*
G01X-3151759Y3220979D02*
G01X-3151759Y3077487D01*
G01X-3151759Y3077487D02*
G01X-3467481Y3077487D01*
G01X-3467481Y3077487D02*
G01X-3467481Y3220979D01*
G54D12*
G01X-6697980Y1988833D02*
G01X-6697980Y1887233D01*
G01X-6621780Y1938033D02*
G01X-6774180Y1938033D01*
G36*
G01X-6342380Y1176033D02*
G01X-6545580Y1049033D01*
G01X-6647180Y1023633D01*
G01X-6799580Y1049033D01*
G01X-6951980Y1099833D01*
G01X-7053580Y1176033D01*
G01X-6342380Y1176033D01*
G37*
G01X-5669280Y1991373D02*
G01X-5669280Y1889773D01*
G01X-5593080Y1940573D02*
G01X-5745480Y1940573D01*
G36*
G01X-5313680Y1178573D02*
G01X-5516880Y1051573D01*
G01X-5618480Y1026173D01*
G01X-5770880Y1051573D01*
G01X-5923280Y1102373D01*
G01X-6024880Y1178573D01*
G01X-5313680Y1178573D01*
G37*
G54D10*
G01X-4667880Y5103129D02*
G01X-4796373Y5103129D01*
G01X-4796373Y5103129D02*
G01X-4796373Y4919711D01*
G01X-4796373Y4919711D02*
G01X-4667880Y4919711D01*
G01X-4572640Y5103129D02*
G01X-4444147Y5103129D01*
G01X-4444147Y5103129D02*
G01X-4444147Y4919711D01*
G01X-4444147Y4919711D02*
G01X-4572640Y4919711D01*
G01X-6521336Y-1562388D02*
G01X-6425449Y-1562388D01*
G01X-6425449Y-1562388D02*
G01X-6425449Y-1430267D01*
G01X-6425449Y-1430267D02*
G01X-6521336Y-1430267D01*
G01X-6606579Y-1562388D02*
G01X-6702466Y-1562388D01*
G01X-6702466Y-1562388D02*
G01X-6702466Y-1430267D01*
G01X-6702466Y-1430267D02*
G01X-6606579Y-1430267D01*
G01X-1806120Y4136235D02*
G01X-1520878Y4136235D01*
G01X-1505638Y4151475D02*
G01X-1505638Y4314975D01*
G01X-1821360Y4314975D02*
G01X-1821360Y4151475D01*
G01X-1505638Y4633715D02*
G01X-1505638Y4470215D01*
G01X-1821360Y4470215D02*
G01X-1821360Y4633715D01*
G01X-1806120Y4648955D02*
G01X-1520878Y4648955D01*
G01X-1821360Y4151475D02*
G03X-1806120Y4136235I15240J0D01*
G01X-1520878Y4136235D02*
G03X-1505638Y4151475I0J15240D01*
G01X-1821360Y4633715D02*
G02X-1806120Y4648955I15240J0D01*
G01X-1520878Y4648955D02*
G02X-1505638Y4633715I0J-15240D01*
G54D12*
G01X-6726074Y-275830D02*
G01X-6726074Y384166D01*
G01X-7386073Y-275830D02*
G01X-7386073Y384166D01*
G01X-7386073Y384166D02*
G01X-7254188Y384166D01*
G01X-6857958Y-275830D02*
G01X-6726074Y-275830D01*
G01X-7386073Y-275830D02*
G01X-7254188Y-275830D01*
G01X-6857958Y384166D02*
G01X-6726074Y384166D01*
G01X-5552046Y-3167168D02*
G01X-5552046Y-2977165D01*
G01X-5552046Y-2977165D02*
G01X-5365620Y-2977165D01*
G01X-5365620Y-2977165D02*
G01X-5355623Y-2977165D01*
G01X-5355623Y-2977165D02*
G01X-5355623Y-3167168D01*
G01X-5902033Y-3167168D02*
G01X-5902033Y-2977165D01*
G01X-5902033Y-2977165D02*
G01X-5715607Y-2977165D01*
G01X-5715607Y-2977165D02*
G01X-5705607Y-2977165D01*
G01X-5705607Y-2977165D02*
G01X-5705607Y-3167168D01*
G01X-5285608Y-2517166D02*
G01X-5285608Y-3167168D01*
G01X-5285608Y-2591804D02*
G01X-5235608Y-2591804D01*
G01X-5235608Y-2591804D02*
G01X-5235608Y-2648954D01*
G01X-5235608Y-2648954D02*
G01X-5285608Y-2648954D01*
G01X-5985612Y-2517169D02*
G01X-5285608Y-2517169D01*
G01X-5985612Y-3167168D02*
G01X-5285608Y-3167168D01*
G01X-5985614Y-2517166D02*
G01X-5985614Y-3167168D01*
G01X-5985612Y-3116502D02*
G01X-6035611Y-3116502D01*
G01X-6035611Y-3116502D02*
G01X-6035611Y-3059352D01*
G01X-6035611Y-3059352D02*
G01X-5985612Y-3059352D01*
G01X-5985612Y-2682162D02*
G01X-5285608Y-2682162D01*
G36*
G01X-5805607Y-3007165D02*
G01X-5755607Y-3067165D01*
G01X-5855607Y-3067165D01*
G01X-5805607Y-3007165D01*
G37*
G36*
G01X-5820608Y-3067168D02*
G01X-5790608Y-3067168D01*
G01X-5790608Y-3147168D01*
G01X-5820608Y-3147168D01*
G01X-5820608Y-3067168D01*
G37*
G36*
G01X-5470622Y-3067168D02*
G01X-5440622Y-3067168D01*
G01X-5440622Y-3147168D01*
G01X-5470622Y-3147168D01*
G01X-5470622Y-3067168D01*
G37*
G36*
G01X-5455620Y-3007165D02*
G01X-5405620Y-3067165D01*
G01X-5505620Y-3067165D01*
G01X-5455620Y-3007165D01*
G37*

G04 Circle Start*
G01X-8119937Y-3146079D02*
G03X-8006348Y-3146079I56794J0D01*
G03X-8119937Y-3146079I-56794J0D01*
G01X-8113841Y-2745775D02*
G03X-8000252Y-2745775I56794J0D01*
G03X-8113841Y-2745775I-56794J0D01*
G01X-8520241Y-3152175D02*
G03X-8406652Y-3152175I56794J0D01*
G03X-8520241Y-3152175I-56794J0D01*
G01X-8526337Y-2739679D02*
G03X-8412748Y-2739679I56794J0D01*
G03X-8526337Y-2739679I-56794J0D01*
G01X-8437209Y-2942879D02*
G03X-8095477Y-2942879I170866J0D01*
G03X-8437209Y-2942879I-170866J0D01*
G01X-6856388Y-3134197D02*
G03X-6742799Y-3134197I56794J0D01*
G03X-6856388Y-3134197I-56794J0D01*
G01X-6850292Y-2733893D02*
G03X-6736703Y-2733893I56794J0D01*
G03X-6850292Y-2733893I-56794J0D01*
G01X-7256692Y-3140293D02*
G03X-7143103Y-3140293I56794J0D01*
G03X-7256692Y-3140293I-56794J0D01*
G01X-7262788Y-2727797D02*
G03X-7149199Y-2727797I56794J0D01*
G03X-7262788Y-2727797I-56794J0D01*
G01X-7173659Y-2930997D02*
G03X-6831927Y-2930997I170866J0D01*
G03X-7173659Y-2930997I-170866J0D01*
G54D21*
G01X-1350874Y1798320D02*
G03X-1300886Y1798320I24994J0D01*
G03X-1350874Y1798320I-24994J0D01*
G54D12*
G01X-9780473Y457403D02*
G03X-9755073Y457403I12700J0D01*
G03X-9780473Y457403I-12700J0D01*
G01X-9691573Y673290D02*
G03X-9539173Y673290I76200J0D01*
G03X-9691573Y673290I-76200J0D01*
G54D22*
G01X-2615519Y3232807D02*
G03X-2593522Y3232807I10998J0D01*
G03X-2615519Y3232807I-10998J0D01*
G01X-2216739Y4036152D02*
G03X-2194742Y4036152I10998J0D01*
G03X-2216739Y4036152I-10998J0D01*
G54D23*
G01X-9752414Y2353538D02*
G03X-9727415Y2353538I12499J0D01*
G03X-9752414Y2353538I-12499J0D01*
G54D19*
G01X-3413084Y5065936D02*
G03X-3383061Y5065936I15011J0D01*
G03X-3413084Y5065936I-15011J0D01*
G01X-3475467Y4880516D02*
G03X-3445444Y4880516I15011J0D01*
G03X-3475467Y4880516I-15011J0D01*
G54D12*
G01X-8950709Y540010D02*
G03X-8937907Y540010I6401J0D01*
G03X-8950709Y540010I-6401J0D01*
G01X-8836155Y854183D02*
G03X-8835647Y854183I254J0D01*
G03X-8836155Y854183I-254J0D01*
G01X-8076653Y-227217D02*
G03X-8051253Y-227217I12700J0D01*
G03X-8076653Y-227217I-12700J0D01*
G01X-5736269Y-234278D02*
G03X-5701267Y-234278I17501J0D01*
G03X-5736269Y-234278I-17501J0D01*
G54D19*
G01X-9271662Y-1407505D02*
G03X-9241640Y-1407505I15011J0D01*
G03X-9271662Y-1407505I-15011J0D01*
G54D12*
G01X-8863475Y-752077D02*
G03X-8801473Y-752077I31001J0D01*
G03X-8863475Y-752077I-31001J0D01*
G01X-4739272Y-899160D02*
G03X-3739274Y-899160I499999J0D01*
G03X-4739272Y-899160I-499999J0D01*
G01X-7197979Y1531633D02*
G03X-6197981Y1531633I499999J0D01*
G03X-7197979Y1531633I-499999J0D01*
G01X-6169279Y1534173D02*
G03X-5169281Y1534173I499999J0D01*
G03X-6169279Y1534173I-499999J0D01*
G04 Circle End*

M02*

