G04 Layer: BottomPasteMaskLayer*
G04 EasyEDA Pro v3.2.87, 2026-07-14 13:35:36*
G04 Gerber Generator version 0.3*
G04 Scale: 100 percent, Rotated: No, Reflected: No*
G04 Dimensions in millimeters*
G04 Leading zeros omitted, absolute positions, 4 integers and 5 decimals*
G04 Generated by one-click*
%FSLAX45Y45*%
%MOMM*%
%ADD10C,0.254*%
%ADD11C,0.4612*%
G75*


G04 PolygonModel Start*
G36*
G01X-6197382Y1699110D02*
G01X-6128281Y1699110D01*
G01X-6118281Y1709110D01*
G01X-6118281Y1744701D01*
G01X-6108281Y1754701D01*
G01X-6036480Y1754701D01*
G01X-6026480Y1744701D01*
G01X-6026480Y1709110D01*
G01X-6016480Y1699110D01*
G01X-5947380Y1699110D01*
G01X-5937380Y1709110D01*
G01X-5937380Y1852610D01*
G01X-5947380Y1862610D01*
G01X-6197382Y1862610D01*
G01X-6207382Y1852610D01*
G01X-6207382Y1709110D01*
G01X-6197382Y1699110D01*
G37*
G36*
G01X-6197382Y1559111D02*
G01X-6207382Y1549111D01*
G01X-6207382Y1405611D01*
G01X-6197382Y1395611D01*
G01X-5947380Y1395611D01*
G01X-5937380Y1405611D01*
G01X-5937380Y1549111D01*
G01X-5947380Y1559111D01*
G01X-6016480Y1559111D01*
G01X-6026480Y1549111D01*
G01X-6026480Y1513520D01*
G01X-6036480Y1503520D01*
G01X-6108281Y1503520D01*
G01X-6118281Y1513520D01*
G01X-6118281Y1549111D01*
G01X-6128281Y1559111D01*
G01X-6197382Y1559111D01*
G37*
G36*
G01X-6528344Y1699110D02*
G01X-6459243Y1699110D01*
G01X-6449243Y1709110D01*
G01X-6449243Y1744701D01*
G01X-6439243Y1754701D01*
G01X-6367442Y1754701D01*
G01X-6357442Y1744701D01*
G01X-6357442Y1709110D01*
G01X-6347442Y1699110D01*
G01X-6278342Y1699110D01*
G01X-6268342Y1709110D01*
G01X-6268342Y1852610D01*
G01X-6278342Y1862610D01*
G01X-6528344Y1862610D01*
G01X-6538344Y1852610D01*
G01X-6538344Y1709110D01*
G01X-6528344Y1699110D01*
G37*
G36*
G01X-6528344Y1559111D02*
G01X-6538344Y1549111D01*
G01X-6538344Y1405611D01*
G01X-6528344Y1395611D01*
G01X-6278342Y1395611D01*
G01X-6268342Y1405611D01*
G01X-6268342Y1549111D01*
G01X-6278342Y1559111D01*
G01X-6347442Y1559111D01*
G01X-6357442Y1549111D01*
G01X-6357442Y1513520D01*
G01X-6367442Y1503520D01*
G01X-6439243Y1503520D01*
G01X-6449243Y1513520D01*
G01X-6449243Y1549111D01*
G01X-6459243Y1559111D01*
G01X-6528344Y1559111D01*
G37*
G36*
G01X-7316506Y1699110D02*
G01X-7247405Y1699110D01*
G01X-7237405Y1709110D01*
G01X-7237405Y1744701D01*
G01X-7227405Y1754701D01*
G01X-7155604Y1754701D01*
G01X-7145604Y1744701D01*
G01X-7145604Y1709110D01*
G01X-7135604Y1699110D01*
G01X-7066504Y1699110D01*
G01X-7056504Y1709110D01*
G01X-7056504Y1852610D01*
G01X-7066504Y1862610D01*
G01X-7316506Y1862610D01*
G01X-7326506Y1852610D01*
G01X-7326506Y1709110D01*
G01X-7316506Y1699110D01*
G37*
G36*
G01X-7316506Y1559111D02*
G01X-7326506Y1549111D01*
G01X-7326506Y1405611D01*
G01X-7316506Y1395611D01*
G01X-7066504Y1395611D01*
G01X-7056504Y1405611D01*
G01X-7056504Y1549111D01*
G01X-7066504Y1559111D01*
G01X-7135604Y1559111D01*
G01X-7145604Y1549111D01*
G01X-7145604Y1513520D01*
G01X-7155604Y1503520D01*
G01X-7227405Y1503520D01*
G01X-7237405Y1513520D01*
G01X-7237405Y1549111D01*
G01X-7247405Y1559111D01*
G01X-7316506Y1559111D01*
G37*
G36*
G01X-7647468Y1699110D02*
G01X-7578367Y1699110D01*
G01X-7568367Y1709110D01*
G01X-7568367Y1744701D01*
G01X-7558367Y1754701D01*
G01X-7486566Y1754701D01*
G01X-7476566Y1744701D01*
G01X-7476566Y1709110D01*
G01X-7466566Y1699110D01*
G01X-7397466Y1699110D01*
G01X-7387466Y1709110D01*
G01X-7387466Y1852610D01*
G01X-7397466Y1862610D01*
G01X-7647468Y1862610D01*
G01X-7657468Y1852610D01*
G01X-7657468Y1709110D01*
G01X-7647468Y1699110D01*
G37*
G36*
G01X-7647468Y1559111D02*
G01X-7657468Y1549111D01*
G01X-7657468Y1405611D01*
G01X-7647468Y1395611D01*
G01X-7397466Y1395611D01*
G01X-7387466Y1405611D01*
G01X-7387466Y1549111D01*
G01X-7397466Y1559111D01*
G01X-7466566Y1559111D01*
G01X-7476566Y1549111D01*
G01X-7476566Y1513520D01*
G01X-7486566Y1503520D01*
G01X-7558367Y1503520D01*
G01X-7568367Y1513520D01*
G01X-7568367Y1549111D01*
G01X-7578367Y1559111D01*
G01X-7647468Y1559111D01*
G37*
G36*
G01X-7980970Y1699110D02*
G01X-7911869Y1699110D01*
G01X-7901869Y1709110D01*
G01X-7901869Y1744701D01*
G01X-7891869Y1754701D01*
G01X-7820068Y1754701D01*
G01X-7810068Y1744701D01*
G01X-7810068Y1709110D01*
G01X-7800068Y1699110D01*
G01X-7730968Y1699110D01*
G01X-7720968Y1709110D01*
G01X-7720968Y1852610D01*
G01X-7730968Y1862610D01*
G01X-7980970Y1862610D01*
G01X-7990970Y1852610D01*
G01X-7990970Y1709110D01*
G01X-7980970Y1699110D01*
G37*
G36*
G01X-7980970Y1559111D02*
G01X-7990970Y1549111D01*
G01X-7990970Y1405611D01*
G01X-7980970Y1395611D01*
G01X-7730968Y1395611D01*
G01X-7720968Y1405611D01*
G01X-7720968Y1549111D01*
G01X-7730968Y1559111D01*
G01X-7800068Y1559111D01*
G01X-7810068Y1549111D01*
G01X-7810068Y1513520D01*
G01X-7820068Y1503520D01*
G01X-7891869Y1503520D01*
G01X-7901869Y1513520D01*
G01X-7901869Y1549111D01*
G01X-7911869Y1559111D01*
G01X-7980970Y1559111D01*
G37*
G36*
G01X-8311932Y1699110D02*
G01X-8242831Y1699110D01*
G01X-8232831Y1709110D01*
G01X-8232831Y1744701D01*
G01X-8222831Y1754701D01*
G01X-8151030Y1754701D01*
G01X-8141030Y1744701D01*
G01X-8141030Y1709110D01*
G01X-8131030Y1699110D01*
G01X-8061930Y1699110D01*
G01X-8051930Y1709110D01*
G01X-8051930Y1852610D01*
G01X-8061930Y1862610D01*
G01X-8311932Y1862610D01*
G01X-8321932Y1852610D01*
G01X-8321932Y1709110D01*
G01X-8311932Y1699110D01*
G37*
G36*
G01X-8311932Y1559111D02*
G01X-8321932Y1549111D01*
G01X-8321932Y1405611D01*
G01X-8311932Y1395611D01*
G01X-8061930Y1395611D01*
G01X-8051930Y1405611D01*
G01X-8051930Y1549111D01*
G01X-8061930Y1559111D01*
G01X-8131030Y1559111D01*
G01X-8141030Y1549111D01*
G01X-8141030Y1513520D01*
G01X-8151030Y1503520D01*
G01X-8222831Y1503520D01*
G01X-8232831Y1513520D01*
G01X-8232831Y1549111D01*
G01X-8242831Y1559111D01*
G01X-8311932Y1559111D01*
G37*
G36*
G01X-8642246Y1701013D02*
G01X-8573145Y1701013D01*
G01X-8563145Y1711013D01*
G01X-8563145Y1746603D01*
G01X-8553145Y1756603D01*
G01X-8481344Y1756603D01*
G01X-8471344Y1746603D01*
G01X-8471344Y1711013D01*
G01X-8461344Y1701013D01*
G01X-8392244Y1701013D01*
G01X-8382244Y1711013D01*
G01X-8382244Y1854512D01*
G01X-8392244Y1864512D01*
G01X-8642246Y1864512D01*
G01X-8652246Y1854512D01*
G01X-8652246Y1711013D01*
G01X-8642246Y1701013D01*
G37*
G36*
G01X-8642246Y1561013D02*
G01X-8652246Y1551013D01*
G01X-8652246Y1407513D01*
G01X-8642246Y1397513D01*
G01X-8392244Y1397513D01*
G01X-8382244Y1407513D01*
G01X-8382244Y1551013D01*
G01X-8392244Y1561013D01*
G01X-8461344Y1561013D01*
G01X-8471344Y1551013D01*
G01X-8471344Y1515422D01*
G01X-8481344Y1505422D01*
G01X-8553145Y1505422D01*
G01X-8563145Y1515422D01*
G01X-8563145Y1551013D01*
G01X-8573145Y1561013D01*
G01X-8642246Y1561013D01*
G37*
G36*
G01X-4552879Y-348219D02*
G01X-4552879Y-254173D01*
G01X-4562879Y-244173D01*
G01X-4586486Y-244173D01*
G01X-4596486Y-234173D01*
G01X-4596486Y-136667D01*
G01X-4586486Y-126667D01*
G01X-4562879Y-126667D01*
G01X-4552879Y-116667D01*
G01X-4552879Y-22621D01*
G01X-4562879Y-12621D01*
G01X-4671134Y-12621D01*
G01X-4681134Y-22621D01*
G01X-4681134Y-348219D01*
G01X-4671134Y-358219D01*
G01X-4562879Y-358219D01*
G01X-4552879Y-348219D01*
G37*
G36*
G01X-4067881Y-348219D02*
G01X-4057881Y-358219D01*
G01X-3949626Y-358219D01*
G01X-3939626Y-348219D01*
G01X-3939626Y-22621D01*
G01X-3949626Y-12621D01*
G01X-4057881Y-12621D01*
G01X-4067881Y-22621D01*
G01X-4067881Y-116667D01*
G01X-4057881Y-126667D01*
G01X-4034274Y-126667D01*
G01X-4024274Y-136667D01*
G01X-4024274Y-234173D01*
G01X-4034274Y-244173D01*
G01X-4057881Y-244173D01*
G01X-4067881Y-254173D01*
G01X-4067881Y-348219D01*
G37*
G36*
G01X-4307154Y-1293656D02*
G01X-4307154Y-1224555D01*
G01X-4317154Y-1214555D01*
G01X-4352745Y-1214555D01*
G01X-4362745Y-1204555D01*
G01X-4362745Y-1132755D01*
G01X-4352745Y-1122755D01*
G01X-4317154Y-1122755D01*
G01X-4307154Y-1112755D01*
G01X-4307154Y-1043654D01*
G01X-4317154Y-1033654D01*
G01X-4460654Y-1033654D01*
G01X-4470654Y-1043654D01*
G01X-4470654Y-1293656D01*
G01X-4460654Y-1303656D01*
G01X-4317154Y-1303656D01*
G01X-4307154Y-1293656D01*
G37*
G36*
G01X-4167154Y-1293656D02*
G01X-4157154Y-1303656D01*
G01X-4013655Y-1303656D01*
G01X-4003655Y-1293656D01*
G01X-4003655Y-1043654D01*
G01X-4013655Y-1033654D01*
G01X-4157154Y-1033654D01*
G01X-4167154Y-1043654D01*
G01X-4167154Y-1112755D01*
G01X-4157154Y-1122755D01*
G01X-4121564Y-1122755D01*
G01X-4111564Y-1132755D01*
G01X-4111564Y-1204555D01*
G01X-4121564Y-1214555D01*
G01X-4157154Y-1214555D01*
G01X-4167154Y-1224555D01*
G01X-4167154Y-1293656D01*
G37*
G36*
G01X-4306720Y-739681D02*
G01X-4306720Y-670580D01*
G01X-4316720Y-660580D01*
G01X-4352310Y-660580D01*
G01X-4362310Y-650580D01*
G01X-4362310Y-578780D01*
G01X-4352310Y-568780D01*
G01X-4316720Y-568780D01*
G01X-4306720Y-558780D01*
G01X-4306720Y-489679D01*
G01X-4316720Y-479679D01*
G01X-4460220Y-479679D01*
G01X-4470220Y-489679D01*
G01X-4470220Y-739681D01*
G01X-4460220Y-749681D01*
G01X-4316720Y-749681D01*
G01X-4306720Y-739681D01*
G37*
G36*
G01X-4166720Y-739681D02*
G01X-4156720Y-749681D01*
G01X-4013220Y-749681D01*
G01X-4003220Y-739681D01*
G01X-4003220Y-489679D01*
G01X-4013220Y-479679D01*
G01X-4156720Y-479679D01*
G01X-4166720Y-489679D01*
G01X-4166720Y-558780D01*
G01X-4156720Y-568780D01*
G01X-4121130Y-568780D01*
G01X-4111130Y-578780D01*
G01X-4111130Y-650580D01*
G01X-4121130Y-660580D01*
G01X-4156720Y-660580D01*
G01X-4166720Y-670580D01*
G01X-4166720Y-739681D01*
G37*

G04 Pad Start*
G04 Pad End*
G54D10*

M02*

