G04 Layer: TopPasteMaskLayer*
G04 EasyEDA Pro v3.2.87, 2026-07-14 13:35:36*
G04 Gerber Generator version 0.3*
G04 Scale: 100 percent, Rotated: No, Reflected: No*
G04 Dimensions in millimeters*
G04 Leading zeros omitted, absolute positions, 4 integers and 5 decimals*
G04 Generated by one-click*
%FSLAX45Y45*%
%MOMM*%
%ADD10R,0.8X0.9*%
%ADD11R,0.9X0.8*%
%ADD12R,4.19999X1.5*%
%ADD13R,1.5X4.19999*%
%ADD14R,0.4X0.5*%
%ADD15R,3.02999X3.82001*%
%ADD16R,0.91001X1.21999*%
%ADD17R,1.2278X0.91001*%
%ADD18R,1.21999X0.91001*%
%ADD19R,2.04638X1.62001*%
%ADD20R,1.6X1.2*%
%ADD21R,0.8X0.8*%
%ADD22R,5.49999X7.00001*%
%ADD23R,2.2X1.0*%
%ADD24R,0.8X1.0*%
%ADD25R,0.9X1.2*%
%ADD26R,1.25001X0.7*%
%ADD27R,1.5X3.49999*%
%ADD28R,10.4X9.00001*%
%ADD29O,0.343X1.7465*%
%ADD30R,5.49999X2.99999*%
%ADD31O,0.3X2.0*%
%ADD32O,2.0X0.3*%
%ADD33R,1.1X0.7*%
%ADD34R,1.0X0.6*%
%ADD35R,0.6X1.1*%
%ADD36O,1.6X0.6*%
%ADD37R,2.49999X3.19999*%
%ADD38R,1.2X1.4*%
%ADD39R,1.7X0.6*%
%ADD40R,2.69999X1.0*%
%ADD41C,1.27*%
%ADD42R,4.49999X1.3*%
%ADD43R,3.89999X1.8*%
%ADD44R,1.62001X2.04638*%
%ADD45R,0.75997X1.8*%
%ADD46R,3.49999X2.35001*%
G75*


G04 PolygonModel Start*
G36*
G01X-8007454Y4602142D02*
G01X-8007454Y4671242D01*
G01X-7997454Y4681242D01*
G01X-7961864Y4681242D01*
G01X-7951864Y4691242D01*
G01X-7951864Y4763043D01*
G01X-7961864Y4773043D01*
G01X-7997454Y4773043D01*
G01X-8007454Y4783043D01*
G01X-8007454Y4852144D01*
G01X-7997454Y4862144D01*
G01X-7853954Y4862144D01*
G01X-7843954Y4852144D01*
G01X-7843954Y4602142D01*
G01X-7853954Y4592142D01*
G01X-7997454Y4592142D01*
G01X-8007454Y4602142D01*
G37*
G36*
G01X-8147454Y4602142D02*
G01X-8157454Y4592142D01*
G01X-8300954Y4592142D01*
G01X-8310954Y4602142D01*
G01X-8310954Y4852144D01*
G01X-8300954Y4862144D01*
G01X-8157454Y4862144D01*
G01X-8147454Y4852144D01*
G01X-8147454Y4783043D01*
G01X-8157454Y4773043D01*
G01X-8193044Y4773043D01*
G01X-8203044Y4763043D01*
G01X-8203044Y4691242D01*
G01X-8193044Y4681242D01*
G01X-8157454Y4681242D01*
G01X-8147454Y4671242D01*
G01X-8147454Y4602142D01*
G37*
G36*
G01X-7974333Y3603922D02*
G01X-7974333Y3673022D01*
G01X-7964333Y3683022D01*
G01X-7928742Y3683022D01*
G01X-7918742Y3693022D01*
G01X-7918742Y3764823D01*
G01X-7928742Y3774823D01*
G01X-7964333Y3774823D01*
G01X-7974333Y3784823D01*
G01X-7974333Y3853924D01*
G01X-7964333Y3863924D01*
G01X-7820833Y3863924D01*
G01X-7810833Y3853924D01*
G01X-7810833Y3603922D01*
G01X-7820833Y3593922D01*
G01X-7964333Y3593922D01*
G01X-7974333Y3603922D01*
G37*
G36*
G01X-8114332Y3603922D02*
G01X-8124332Y3593922D01*
G01X-8267832Y3593922D01*
G01X-8277832Y3603922D01*
G01X-8277832Y3853924D01*
G01X-8267832Y3863924D01*
G01X-8124332Y3863924D01*
G01X-8114332Y3853924D01*
G01X-8114332Y3784823D01*
G01X-8124332Y3774823D01*
G01X-8159923Y3774823D01*
G01X-8169923Y3764823D01*
G01X-8169923Y3693022D01*
G01X-8159923Y3683022D01*
G01X-8124332Y3683022D01*
G01X-8114332Y3673022D01*
G01X-8114332Y3603922D01*
G37*
G36*
G01X-7399337Y2775720D02*
G01X-7399337Y2903718D01*
G01X-7394336Y2908719D01*
G01X-7279335Y2908719D01*
G01X-7274336Y2903718D01*
G01X-7273834Y2862715D01*
G01X-7318835Y2862715D01*
G01X-7318835Y2817716D01*
G01X-7274834Y2817716D01*
G01X-7274336Y2775720D01*
G01X-7279335Y2770718D01*
G01X-7394336Y2770718D01*
G01X-7399337Y2775720D01*
G37*
G36*
G01X-7058342Y2903720D02*
G01X-7058342Y2775722D01*
G01X-7063344Y2770721D01*
G01X-7178345Y2770721D01*
G01X-7183344Y2775722D01*
G01X-7183846Y2816725D01*
G01X-7138845Y2816725D01*
G01X-7138845Y2861724D01*
G01X-7182846Y2861724D01*
G01X-7183344Y2903720D01*
G01X-7178345Y2908722D01*
G01X-7063344Y2908722D01*
G01X-7058342Y2903720D01*
G37*
G36*
G01X-7603066Y1543533D02*
G01X-7672166Y1543533D01*
G01X-7682166Y1553533D01*
G01X-7682166Y1589123D01*
G01X-7692166Y1599123D01*
G01X-7763967Y1599123D01*
G01X-7773967Y1589123D01*
G01X-7773967Y1553533D01*
G01X-7783967Y1543533D01*
G01X-7853068Y1543533D01*
G01X-7863068Y1553533D01*
G01X-7863068Y1697032D01*
G01X-7853068Y1707032D01*
G01X-7603066Y1707032D01*
G01X-7593066Y1697032D01*
G01X-7593066Y1553533D01*
G01X-7603066Y1543533D01*
G37*
G36*
G01X-7603066Y1403533D02*
G01X-7593066Y1393533D01*
G01X-7593066Y1250033D01*
G01X-7603066Y1240033D01*
G01X-7853068Y1240033D01*
G01X-7863068Y1250033D01*
G01X-7863068Y1393533D01*
G01X-7853068Y1403533D01*
G01X-7783967Y1403533D01*
G01X-7773967Y1393533D01*
G01X-7773967Y1357942D01*
G01X-7763967Y1347942D01*
G01X-7692166Y1347942D01*
G01X-7682166Y1357942D01*
G01X-7682166Y1393533D01*
G01X-7672166Y1403533D01*
G01X-7603066Y1403533D01*
G37*
G36*
G01X-7934028Y1543533D02*
G01X-8003128Y1543533D01*
G01X-8013128Y1553533D01*
G01X-8013128Y1589123D01*
G01X-8023128Y1599123D01*
G01X-8094929Y1599123D01*
G01X-8104929Y1589123D01*
G01X-8104929Y1553533D01*
G01X-8114929Y1543533D01*
G01X-8184030Y1543533D01*
G01X-8194030Y1553533D01*
G01X-8194030Y1697032D01*
G01X-8184030Y1707032D01*
G01X-7934028Y1707032D01*
G01X-7924028Y1697032D01*
G01X-7924028Y1553533D01*
G01X-7934028Y1543533D01*
G37*
G36*
G01X-7934028Y1403533D02*
G01X-7924028Y1393533D01*
G01X-7924028Y1250033D01*
G01X-7934028Y1240033D01*
G01X-8184030Y1240033D01*
G01X-8194030Y1250033D01*
G01X-8194030Y1393533D01*
G01X-8184030Y1403533D01*
G01X-8114929Y1403533D01*
G01X-8104929Y1393533D01*
G01X-8104929Y1357942D01*
G01X-8094929Y1347942D01*
G01X-8023128Y1347942D01*
G01X-8013128Y1357942D01*
G01X-8013128Y1393533D01*
G01X-8003128Y1403533D01*
G01X-7934028Y1403533D01*
G37*
G36*
G01X-6327787Y-420075D02*
G01X-6455785Y-420075D01*
G01X-6460786Y-415073D01*
G01X-6460786Y-300072D01*
G01X-6455785Y-295074D01*
G01X-6414782Y-294571D01*
G01X-6414782Y-339572D01*
G01X-6369783Y-339572D01*
G01X-6369783Y-295571D01*
G01X-6327787Y-295074D01*
G01X-6322785Y-300072D01*
G01X-6322785Y-415073D01*
G01X-6327787Y-420075D01*
G37*
G36*
G01X-6455787Y-79080D02*
G01X-6327789Y-79080D01*
G01X-6322788Y-84081D01*
G01X-6322788Y-199082D01*
G01X-6327789Y-204081D01*
G01X-6368792Y-204584D01*
G01X-6368792Y-159582D01*
G01X-6413791Y-159582D01*
G01X-6413791Y-203583D01*
G01X-6455787Y-204081D01*
G01X-6460789Y-199082D01*
G01X-6460789Y-84081D01*
G01X-6455787Y-79080D01*
G37*
G36*
G01X-5062501Y-457500D02*
G01X-4993400Y-457500D01*
G01X-4983400Y-467500D01*
G01X-4983400Y-503090D01*
G01X-4973400Y-513090D01*
G01X-4901600Y-513090D01*
G01X-4891600Y-503090D01*
G01X-4891600Y-467500D01*
G01X-4881600Y-457500D01*
G01X-4812499Y-457500D01*
G01X-4802499Y-467500D01*
G01X-4802499Y-611000D01*
G01X-4812499Y-621000D01*
G01X-5062501Y-621000D01*
G01X-5072501Y-611000D01*
G01X-5072501Y-467500D01*
G01X-5062501Y-457500D01*
G37*
G36*
G01X-5062501Y-317500D02*
G01X-5072501Y-307500D01*
G01X-5072501Y-164000D01*
G01X-5062501Y-154000D01*
G01X-4812499Y-154000D01*
G01X-4802499Y-164000D01*
G01X-4802499Y-307500D01*
G01X-4812499Y-317500D01*
G01X-4881600Y-317500D01*
G01X-4891600Y-307500D01*
G01X-4891600Y-271910D01*
G01X-4901600Y-261910D01*
G01X-4973400Y-261910D01*
G01X-4983400Y-271910D01*
G01X-4983400Y-307500D01*
G01X-4993400Y-317500D01*
G01X-5062501Y-317500D01*
G37*
G36*
G01X-6327787Y-13675D02*
G01X-6455785Y-13675D01*
G01X-6460786Y-8673D01*
G01X-6460786Y106328D01*
G01X-6455785Y111326D01*
G01X-6414782Y111829D01*
G01X-6414782Y66828D01*
G01X-6369783Y66828D01*
G01X-6369783Y110829D01*
G01X-6327787Y111326D01*
G01X-6322785Y106328D01*
G01X-6322785Y-8673D01*
G01X-6327787Y-13675D01*
G37*
G36*
G01X-6455787Y327320D02*
G01X-6327789Y327320D01*
G01X-6322788Y322319D01*
G01X-6322788Y207318D01*
G01X-6327789Y202319D01*
G01X-6368792Y201816D01*
G01X-6368792Y246818D01*
G01X-6413791Y246818D01*
G01X-6413791Y202817D01*
G01X-6455787Y202319D01*
G01X-6460789Y207318D01*
G01X-6460789Y322319D01*
G01X-6455787Y327320D01*
G37*
G36*
G01X-7968833Y475784D02*
G01X-7968833Y406683D01*
G01X-7978833Y396683D01*
G01X-8014424Y396683D01*
G01X-8024424Y386683D01*
G01X-8024424Y314883D01*
G01X-8014424Y304883D01*
G01X-7978833Y304883D01*
G01X-7968833Y294883D01*
G01X-7968833Y225782D01*
G01X-7978833Y215782D01*
G01X-8122333Y215782D01*
G01X-8132333Y225782D01*
G01X-8132333Y475784D01*
G01X-8122333Y485784D01*
G01X-7978833Y485784D01*
G01X-7968833Y475784D01*
G37*
G36*
G01X-7828833Y475784D02*
G01X-7818833Y485784D01*
G01X-7675334Y485784D01*
G01X-7665334Y475784D01*
G01X-7665334Y225782D01*
G01X-7675334Y215782D01*
G01X-7818833Y215782D01*
G01X-7828833Y225782D01*
G01X-7828833Y294883D01*
G01X-7818833Y304883D01*
G01X-7783243Y304883D01*
G01X-7773243Y314883D01*
G01X-7773243Y386683D01*
G01X-7783243Y396683D01*
G01X-7818833Y396683D01*
G01X-7828833Y406683D01*
G01X-7828833Y475784D01*
G37*
G36*
G01X-7266399Y1543200D02*
G01X-7335500Y1543200D01*
G01X-7345500Y1553200D01*
G01X-7345500Y1588790D01*
G01X-7355500Y1598790D01*
G01X-7427300Y1598790D01*
G01X-7437300Y1588790D01*
G01X-7437300Y1553200D01*
G01X-7447300Y1543200D01*
G01X-7516401Y1543200D01*
G01X-7526401Y1553200D01*
G01X-7526401Y1696700D01*
G01X-7516401Y1706700D01*
G01X-7266399Y1706700D01*
G01X-7256399Y1696700D01*
G01X-7256399Y1553200D01*
G01X-7266399Y1543200D01*
G37*
G36*
G01X-7266399Y1403200D02*
G01X-7256399Y1393200D01*
G01X-7256399Y1249700D01*
G01X-7266399Y1239700D01*
G01X-7516401Y1239700D01*
G01X-7526401Y1249700D01*
G01X-7526401Y1393200D01*
G01X-7516401Y1403200D01*
G01X-7447300Y1403200D01*
G01X-7437300Y1393200D01*
G01X-7437300Y1357610D01*
G01X-7427300Y1347610D01*
G01X-7355500Y1347610D01*
G01X-7345500Y1357610D01*
G01X-7345500Y1393200D01*
G01X-7335500Y1403200D01*
G01X-7266399Y1403200D01*
G37*
G36*
G01X-8270832Y1543533D02*
G01X-8339932Y1543533D01*
G01X-8349932Y1553533D01*
G01X-8349932Y1589123D01*
G01X-8359932Y1599123D01*
G01X-8431733Y1599123D01*
G01X-8441733Y1589123D01*
G01X-8441733Y1553533D01*
G01X-8451733Y1543533D01*
G01X-8520834Y1543533D01*
G01X-8530834Y1553533D01*
G01X-8530834Y1697032D01*
G01X-8520834Y1707032D01*
G01X-8270832Y1707032D01*
G01X-8260832Y1697032D01*
G01X-8260832Y1553533D01*
G01X-8270832Y1543533D01*
G37*
G36*
G01X-8270832Y1403533D02*
G01X-8260832Y1393533D01*
G01X-8260832Y1250033D01*
G01X-8270832Y1240033D01*
G01X-8520834Y1240033D01*
G01X-8530834Y1250033D01*
G01X-8530834Y1393533D01*
G01X-8520834Y1403533D01*
G01X-8451733Y1403533D01*
G01X-8441733Y1393533D01*
G01X-8441733Y1357942D01*
G01X-8431733Y1347942D01*
G01X-8359932Y1347942D01*
G01X-8349932Y1357942D01*
G01X-8349932Y1393533D01*
G01X-8339932Y1403533D01*
G01X-8270832Y1403533D01*
G37*
G36*
G01X-3013834Y3117529D02*
G01X-3083938Y3117529D01*
G01X-3083938Y3209731D01*
G01X-3014342Y3209731D01*
G01X-3014342Y3209477D01*
G01X-3013834Y3117529D01*
G37*
G36*
G01X-2886834Y3117529D02*
G01X-2956938Y3117529D01*
G01X-2956938Y3209731D01*
G01X-2887342Y3209731D01*
G01X-2887342Y3209477D01*
G01X-2886834Y3117529D01*
G37*
G36*
G01X-2759834Y3117529D02*
G01X-2829938Y3117529D01*
G01X-2829938Y3209731D01*
G01X-2760342Y3209731D01*
G01X-2760342Y3209477D01*
G01X-2759834Y3117529D01*
G37*
G36*
G01X-2632834Y3117529D02*
G01X-2702938Y3117529D01*
G01X-2702938Y3209731D01*
G01X-2633342Y3209731D01*
G01X-2633342Y3209477D01*
G01X-2632834Y3117529D01*
G37*
G36*
G01X-2633723Y2617195D02*
G01X-2633022Y2544396D01*
G01X-2702920Y2544396D01*
G01X-2703022Y2606796D01*
G01X-2760022Y2606595D01*
G01X-2760121Y2544396D01*
G01X-2830022Y2544396D01*
G01X-2830022Y2606694D01*
G01X-2887019Y2606694D01*
G01X-2887019Y2544396D01*
G01X-2957019Y2544396D01*
G01X-2957019Y2606694D01*
G01X-3014019Y2606595D01*
G01X-3014121Y2544396D01*
G01X-3084019Y2544396D01*
G01X-3083564Y2617195D01*
G01X-3083564Y3007186D01*
G01X-2633631Y3007186D01*
G01X-2633723Y2617195D01*
G37*
G36*
G01X-2615054Y3920875D02*
G01X-2685158Y3920875D01*
G01X-2685158Y4013077D01*
G01X-2615562Y4013077D01*
G01X-2615562Y4012823D01*
G01X-2615054Y3920875D01*
G37*
G36*
G01X-2488054Y3920875D02*
G01X-2558158Y3920875D01*
G01X-2558158Y4013077D01*
G01X-2488562Y4013077D01*
G01X-2488562Y4012823D01*
G01X-2488054Y3920875D01*
G37*
G36*
G01X-2361054Y3920875D02*
G01X-2431158Y3920875D01*
G01X-2431158Y4013077D01*
G01X-2361562Y4013077D01*
G01X-2361562Y4012823D01*
G01X-2361054Y3920875D01*
G37*
G36*
G01X-2234054Y3920875D02*
G01X-2304158Y3920875D01*
G01X-2304158Y4013077D01*
G01X-2234562Y4013077D01*
G01X-2234562Y4012823D01*
G01X-2234054Y3920875D01*
G37*
G36*
G01X-2234943Y3420540D02*
G01X-2234242Y3347741D01*
G01X-2304140Y3347741D01*
G01X-2304242Y3410142D01*
G01X-2361242Y3409941D01*
G01X-2361341Y3347741D01*
G01X-2431242Y3347741D01*
G01X-2431242Y3410040D01*
G01X-2488239Y3410040D01*
G01X-2488239Y3347741D01*
G01X-2558239Y3347741D01*
G01X-2558239Y3410040D01*
G01X-2615239Y3409941D01*
G01X-2615341Y3347741D01*
G01X-2685239Y3347741D01*
G01X-2684784Y3420540D01*
G01X-2684784Y3810532D01*
G01X-2234851Y3810532D01*
G01X-2234943Y3420540D01*
G37*
G36*
G01X-9325414Y2366035D02*
G01X-9325414Y2466035D01*
G01X-9275415Y2466035D01*
G01X-9275415Y2366035D01*
G01X-9325414Y2366035D01*
G37*
G36*
G01X-9452414Y2366035D02*
G01X-9452414Y2466035D01*
G01X-9402415Y2466035D01*
G01X-9402415Y2366035D01*
G01X-9452414Y2366035D01*
G37*
G36*
G01X-9579414Y2366035D02*
G01X-9579414Y2466035D01*
G01X-9529415Y2466035D01*
G01X-9529415Y2366035D01*
G01X-9579414Y2366035D01*
G37*
G36*
G01X-9706414Y2366035D02*
G01X-9706414Y2466035D01*
G01X-9656415Y2466035D01*
G01X-9656415Y2366035D01*
G01X-9706414Y2366035D01*
G37*
G36*
G01X-9270916Y3006036D02*
G01X-9270916Y2597238D01*
G01X-9270916Y2596037D01*
G01X-9710915Y2596037D01*
G01X-9710915Y3006036D01*
G01X-9650915Y3006036D01*
G01X-9650915Y2946036D01*
G01X-9580916Y2946036D01*
G01X-9580916Y3006036D01*
G01X-9530916Y3006036D01*
G01X-9530916Y2946036D01*
G01X-9450916Y2946036D01*
G01X-9450916Y3006036D01*
G01X-9400916Y3006036D01*
G01X-9400916Y2946036D01*
G01X-9330916Y2946036D01*
G01X-9330916Y3006036D01*
G01X-9270916Y3006036D01*
G37*
G36*
G01X-8580234Y3016055D02*
G01X-8580234Y3110101D01*
G01X-8570234Y3120101D01*
G01X-8546627Y3120101D01*
G01X-8536627Y3130101D01*
G01X-8536627Y3227607D01*
G01X-8546627Y3237607D01*
G01X-8570234Y3237607D01*
G01X-8580234Y3247607D01*
G01X-8580234Y3341653D01*
G01X-8570234Y3351653D01*
G01X-8461979Y3351653D01*
G01X-8451979Y3341653D01*
G01X-8451979Y3016055D01*
G01X-8461979Y3006055D01*
G01X-8570234Y3006055D01*
G01X-8580234Y3016055D01*
G37*
G36*
G01X-9065232Y3016055D02*
G01X-9075232Y3006055D01*
G01X-9183486Y3006055D01*
G01X-9193486Y3016055D01*
G01X-9193486Y3341653D01*
G01X-9183486Y3351653D01*
G01X-9075232Y3351653D01*
G01X-9065232Y3341653D01*
G01X-9065232Y3247607D01*
G01X-9075232Y3237607D01*
G01X-9098838Y3237607D01*
G01X-9108838Y3227607D01*
G01X-9108838Y3130101D01*
G01X-9098838Y3120101D01*
G01X-9075232Y3120101D01*
G01X-9065232Y3110101D01*
G01X-9065232Y3016055D01*
G37*
G36*
G01X-9059680Y2530018D02*
G01X-9187678Y2530018D01*
G01X-9192679Y2535019D01*
G01X-9192679Y2650020D01*
G01X-9187678Y2655019D01*
G01X-9146675Y2655522D01*
G01X-9146675Y2610521D01*
G01X-9101676Y2610521D01*
G01X-9101676Y2654521D01*
G01X-9059680Y2655019D01*
G01X-9054678Y2650020D01*
G01X-9054678Y2535019D01*
G01X-9059680Y2530018D01*
G37*
G36*
G01X-9059680Y2745019D02*
G01X-9101676Y2745021D01*
G01X-9101676Y2789519D01*
G01X-9146675Y2789519D01*
G01X-9146675Y2745522D01*
G01X-9187678Y2745019D01*
G01X-9192679Y2750020D01*
G01X-9192679Y2865018D01*
G01X-9187678Y2870020D01*
G01X-9059680Y2870020D01*
G01X-9054678Y2865018D01*
G01X-9054678Y2750020D01*
G01X-9059680Y2745019D01*
G37*
G36*
G01X-6855213Y3772126D02*
G01X-6855213Y3644128D01*
G01X-6860214Y3639127D01*
G01X-6975215Y3639127D01*
G01X-6980214Y3644128D01*
G01X-6980717Y3685131D01*
G01X-6935716Y3685131D01*
G01X-6935716Y3730130D01*
G01X-6979716Y3730130D01*
G01X-6980214Y3772126D01*
G01X-6975215Y3777127D01*
G01X-6860214Y3777127D01*
G01X-6855213Y3772126D01*
G37*
G36*
G01X-7070214Y3772126D02*
G01X-7070216Y3730130D01*
G01X-7114715Y3730130D01*
G01X-7114715Y3685131D01*
G01X-7070717Y3685131D01*
G01X-7070214Y3644128D01*
G01X-7075215Y3639127D01*
G01X-7190214Y3639127D01*
G01X-7195215Y3644128D01*
G01X-7195215Y3772126D01*
G01X-7190214Y3777127D01*
G01X-7075215Y3777127D01*
G01X-7070214Y3772126D01*
G37*
G36*
G01X-7195218Y3461292D02*
G01X-7195218Y3589290D01*
G01X-7190216Y3594291D01*
G01X-7075215Y3594291D01*
G01X-7070216Y3589290D01*
G01X-7069714Y3548287D01*
G01X-7114715Y3548287D01*
G01X-7114715Y3503288D01*
G01X-7070714Y3503288D01*
G01X-7070216Y3461292D01*
G01X-7075215Y3456291D01*
G01X-7190216Y3456291D01*
G01X-7195218Y3461292D01*
G37*
G36*
G01X-6980217Y3461292D02*
G01X-6980214Y3503288D01*
G01X-6935716Y3503288D01*
G01X-6935716Y3548287D01*
G01X-6979714Y3548287D01*
G01X-6980217Y3589290D01*
G01X-6975215Y3594291D01*
G01X-6860217Y3594291D01*
G01X-6855216Y3589290D01*
G01X-6855216Y3461292D01*
G01X-6860217Y3456291D01*
G01X-6975215Y3456291D01*
G01X-6980217Y3461292D01*
G37*
G36*
G01X-7381062Y2567440D02*
G01X-7381062Y2695438D01*
G01X-7376061Y2700439D01*
G01X-7261060Y2700439D01*
G01X-7256061Y2695438D01*
G01X-7255558Y2654435D01*
G01X-7300559Y2654435D01*
G01X-7300559Y2609436D01*
G01X-7256559Y2609436D01*
G01X-7256061Y2567440D01*
G01X-7261060Y2562438D01*
G01X-7376061Y2562438D01*
G01X-7381062Y2567440D01*
G37*
G36*
G01X-7166061Y2567440D02*
G01X-7166059Y2609436D01*
G01X-7121561Y2609436D01*
G01X-7121561Y2654435D01*
G01X-7165558Y2654435D01*
G01X-7166061Y2695438D01*
G01X-7161060Y2700439D01*
G01X-7046062Y2700439D01*
G01X-7041060Y2695438D01*
G01X-7041060Y2567440D01*
G01X-7046062Y2562438D01*
G01X-7161060Y2562438D01*
G01X-7166061Y2567440D01*
G37*
G36*
G01X-6542368Y-361459D02*
G01X-6547370Y-366458D01*
G01X-6627370Y-366458D01*
G01X-6632368Y-361459D01*
G01X-6632368Y-281459D01*
G01X-6627370Y-276458D01*
G01X-6603166Y-276458D01*
G01X-6603166Y-313458D01*
G01X-6570166Y-313458D01*
G01X-6570166Y-276458D01*
G01X-6547370Y-276458D01*
G01X-6542368Y-281459D01*
G01X-6542368Y-361459D01*
G37*
G36*
G01X-6632366Y-122455D02*
G01X-6627364Y-117456D01*
G01X-6547365Y-117456D01*
G01X-6542366Y-122455D01*
G01X-6542366Y-202455D01*
G01X-6547365Y-207456D01*
G01X-6571568Y-207456D01*
G01X-6571568Y-170456D01*
G01X-6604568Y-170456D01*
G01X-6604568Y-207456D01*
G01X-6627364Y-207456D01*
G01X-6632366Y-202455D01*
G01X-6632366Y-122455D01*
G37*
G36*
G01X-8921175Y-1211758D02*
G01X-8921175Y-1339757D01*
G01X-8926177Y-1344758D01*
G01X-9041178Y-1344758D01*
G01X-9046176Y-1339757D01*
G01X-9046679Y-1298753D01*
G01X-9001678Y-1298753D01*
G01X-9001678Y-1253755D01*
G01X-9045679Y-1253755D01*
G01X-9046176Y-1211758D01*
G01X-9041178Y-1206757D01*
G01X-8926177Y-1206757D01*
G01X-8921175Y-1211758D01*
G37*
G36*
G01X-9136176Y-1211758D02*
G01X-9136179Y-1253755D01*
G01X-9180677Y-1253755D01*
G01X-9180677Y-1298753D01*
G01X-9136679Y-1298753D01*
G01X-9136176Y-1339757D01*
G01X-9141178Y-1344758D01*
G01X-9256176Y-1344758D01*
G01X-9261177Y-1339757D01*
G01X-9261177Y-1211758D01*
G01X-9256176Y-1206757D01*
G01X-9141178Y-1206757D01*
G01X-9136176Y-1211758D01*
G37*
G36*
G01X-5330567Y273485D02*
G01X-5202569Y273485D01*
G01X-5197568Y268484D01*
G01X-5197568Y153483D01*
G01X-5202569Y148484D01*
G01X-5243572Y147981D01*
G01X-5243572Y192982D01*
G01X-5288571Y192982D01*
G01X-5288571Y148982D01*
G01X-5330567Y148484D01*
G01X-5335569Y153483D01*
G01X-5335569Y268484D01*
G01X-5330567Y273485D01*
G37*
G36*
G01X-5330567Y58484D02*
G01X-5288571Y58482D01*
G01X-5288571Y13983D01*
G01X-5243572Y13983D01*
G01X-5243572Y57981D01*
G01X-5202569Y58484D01*
G01X-5197568Y53483D01*
G01X-5197568Y-61515D01*
G01X-5202569Y-66517D01*
G01X-5330567Y-66517D01*
G01X-5335569Y-61515D01*
G01X-5335569Y53483D01*
G01X-5330567Y58484D01*
G37*
G36*
G01X-6635749Y396304D02*
G01X-6640748Y401306D01*
G01X-6640748Y481305D01*
G01X-6635749Y486304D01*
G01X-6555749Y486304D01*
G01X-6550748Y481305D01*
G01X-6550748Y457102D01*
G01X-6587748Y457102D01*
G01X-6587748Y424102D01*
G01X-6550748Y424102D01*
G01X-6550748Y401306D01*
G01X-6555749Y396304D01*
G01X-6635749Y396304D01*
G37*
G36*
G01X-6396745Y486302D02*
G01X-6391746Y481300D01*
G01X-6391746Y401300D01*
G01X-6396745Y396302D01*
G01X-6476745Y396302D01*
G01X-6481746Y401300D01*
G01X-6481746Y425504D01*
G01X-6444746Y425504D01*
G01X-6444746Y458504D01*
G01X-6481746Y458504D01*
G01X-6481746Y481300D01*
G01X-6476745Y486302D01*
G01X-6396745Y486302D01*
G37*
G36*
G01X-8656843Y2756590D02*
G01X-8750889Y2756590D01*
G01X-8760889Y2766590D01*
G01X-8760889Y2790197D01*
G01X-8770889Y2800197D01*
G01X-8868395Y2800197D01*
G01X-8878395Y2790197D01*
G01X-8878395Y2766590D01*
G01X-8888395Y2756590D01*
G01X-8982441Y2756590D01*
G01X-8992441Y2766590D01*
G01X-8992441Y2874845D01*
G01X-8982441Y2884845D01*
G01X-8656843Y2884845D01*
G01X-8646843Y2874845D01*
G01X-8646843Y2766590D01*
G01X-8656843Y2756590D01*
G37*
G36*
G01X-8656843Y2271593D02*
G01X-8646843Y2261593D01*
G01X-8646843Y2153338D01*
G01X-8656843Y2143338D01*
G01X-8982441Y2143338D01*
G01X-8992441Y2153338D01*
G01X-8992441Y2261593D01*
G01X-8982441Y2271593D01*
G01X-8888395Y2271593D01*
G01X-8878395Y2261593D01*
G01X-8878395Y2237986D01*
G01X-8868395Y2227986D01*
G01X-8770889Y2227986D01*
G01X-8760889Y2237986D01*
G01X-8760889Y2261593D01*
G01X-8750889Y2271593D01*
G01X-8656843Y2271593D01*
G37*
G36*
G01X-5131669Y210665D02*
G01X-5126668Y215664D01*
G01X-5046668Y215664D01*
G01X-5041669Y210665D01*
G01X-5041669Y130665D01*
G01X-5046668Y125664D01*
G01X-5070872Y125664D01*
G01X-5070872Y162664D01*
G01X-5103871Y162664D01*
G01X-5103871Y125664D01*
G01X-5126668Y125664D01*
G01X-5131669Y130665D01*
G01X-5131669Y210665D01*
G37*
G36*
G01X-5041672Y-28339D02*
G01X-5046673Y-33338D01*
G01X-5126673Y-33338D01*
G01X-5131672Y-28339D01*
G01X-5131672Y51661D01*
G01X-5126673Y56662D01*
G01X-5102469Y56662D01*
G01X-5102469Y19662D01*
G01X-5069470Y19662D01*
G01X-5069470Y56662D01*
G01X-5046673Y56662D01*
G01X-5041672Y51661D01*
G01X-5041672Y-28339D01*
G37*
G36*
G01X-8311961Y795520D02*
G01X-8306960Y800519D01*
G01X-8226960Y800519D01*
G01X-8221961Y795520D01*
G01X-8221961Y715520D01*
G01X-8226960Y710519D01*
G01X-8251163Y710519D01*
G01X-8251163Y747519D01*
G01X-8284163Y747519D01*
G01X-8284163Y710519D01*
G01X-8306960Y710519D01*
G01X-8311961Y715520D01*
G01X-8311961Y795520D01*
G37*
G36*
G01X-8221963Y556516D02*
G01X-8226965Y551518D01*
G01X-8306965Y551518D01*
G01X-8311963Y556516D01*
G01X-8311963Y636516D01*
G01X-8306965Y641517D01*
G01X-8282761Y641517D01*
G01X-8282761Y604517D01*
G01X-8249761Y604517D01*
G01X-8249761Y641517D01*
G01X-8226965Y641517D01*
G01X-8221963Y636516D01*
G01X-8221963Y556516D01*
G37*
G36*
G01X-4383357Y3554411D02*
G01X-4511355Y3554411D01*
G01X-4516356Y3559412D01*
G01X-4516356Y3674414D01*
G01X-4511355Y3679412D01*
G01X-4470352Y3679915D01*
G01X-4470352Y3634914D01*
G01X-4425353Y3634914D01*
G01X-4425353Y3678914D01*
G01X-4383357Y3679412D01*
G01X-4378356Y3674414D01*
G01X-4378356Y3559412D01*
G01X-4383357Y3554411D01*
G37*
G36*
G01X-4383357Y3769412D02*
G01X-4425353Y3769415D01*
G01X-4425353Y3813913D01*
G01X-4470352Y3813913D01*
G01X-4470352Y3769915D01*
G01X-4511355Y3769412D01*
G01X-4516356Y3774413D01*
G01X-4516356Y3889412D01*
G01X-4511355Y3894413D01*
G01X-4383357Y3894413D01*
G01X-4378356Y3889412D01*
G01X-4378356Y3774413D01*
G01X-4383357Y3769412D01*
G37*
G36*
G01X-8640391Y30143D02*
G01X-8640391Y-97855D01*
G01X-8645393Y-102856D01*
G01X-8760394Y-102856D01*
G01X-8765392Y-97855D01*
G01X-8765895Y-56852D01*
G01X-8720894Y-56852D01*
G01X-8720894Y-11853D01*
G01X-8764895Y-11853D01*
G01X-8765392Y30143D01*
G01X-8760394Y35145D01*
G01X-8645393Y35145D01*
G01X-8640391Y30143D01*
G37*
G36*
G01X-8855392Y30143D02*
G01X-8855395Y-11853D01*
G01X-8899893Y-11853D01*
G01X-8899893Y-56852D01*
G01X-8855895Y-56852D01*
G01X-8855392Y-97855D01*
G01X-8860394Y-102856D01*
G01X-8975392Y-102856D01*
G01X-8980393Y-97855D01*
G01X-8980393Y30143D01*
G01X-8975392Y35145D01*
G01X-8860394Y35145D01*
G01X-8855392Y30143D01*
G37*
G36*
G01X-8596332Y426925D02*
G01X-8591331Y431923D01*
G01X-8511331Y431923D01*
G01X-8506332Y426925D01*
G01X-8506332Y346925D01*
G01X-8511331Y341924D01*
G01X-8535534Y341924D01*
G01X-8535534Y378924D01*
G01X-8568534Y378924D01*
G01X-8568534Y341924D01*
G01X-8591331Y341924D01*
G01X-8596332Y346925D01*
G01X-8596332Y426925D01*
G37*
G36*
G01X-8506335Y187921D02*
G01X-8511336Y182922D01*
G01X-8591336Y182922D01*
G01X-8596334Y187921D01*
G01X-8596334Y267921D01*
G01X-8591336Y272922D01*
G01X-8567132Y272922D01*
G01X-8567132Y235922D01*
G01X-8534132Y235922D01*
G01X-8534132Y272922D01*
G01X-8511336Y272922D01*
G01X-8506335Y267921D01*
G01X-8506335Y187921D01*
G37*
G36*
G01X-5770156Y281440D02*
G01X-5770156Y409438D01*
G01X-5765155Y414439D01*
G01X-5650154Y414439D01*
G01X-5645155Y409438D01*
G01X-5644652Y368435D01*
G01X-5689653Y368435D01*
G01X-5689653Y323436D01*
G01X-5645653Y323436D01*
G01X-5645155Y281440D01*
G01X-5650154Y276438D01*
G01X-5765155Y276438D01*
G01X-5770156Y281440D01*
G37*
G36*
G01X-5555155Y281440D02*
G01X-5555153Y323436D01*
G01X-5510654Y323436D01*
G01X-5510654Y368435D01*
G01X-5554652Y368435D01*
G01X-5555155Y409438D01*
G01X-5550154Y414439D01*
G01X-5435155Y414439D01*
G01X-5430154Y409438D01*
G01X-5430154Y281440D01*
G01X-5435155Y276438D01*
G01X-5550154Y276438D01*
G01X-5555155Y281440D01*
G37*
G36*
G01X-6343649Y396304D02*
G01X-6348648Y401306D01*
G01X-6348648Y481305D01*
G01X-6343649Y486304D01*
G01X-6263649Y486304D01*
G01X-6258648Y481305D01*
G01X-6258648Y457102D01*
G01X-6295648Y457102D01*
G01X-6295648Y424102D01*
G01X-6258648Y424102D01*
G01X-6258648Y401306D01*
G01X-6263649Y396304D01*
G01X-6343649Y396304D01*
G37*
G36*
G01X-6104645Y486302D02*
G01X-6099646Y481300D01*
G01X-6099646Y401300D01*
G01X-6104645Y396302D01*
G01X-6184645Y396302D01*
G01X-6189646Y401300D01*
G01X-6189646Y425504D01*
G01X-6152646Y425504D01*
G01X-6152646Y458504D01*
G01X-6189646Y458504D01*
G01X-6189646Y481300D01*
G01X-6184645Y486302D01*
G01X-6104645Y486302D01*
G37*
G36*
G01X-5810852Y359959D02*
G01X-5805853Y354957D01*
G01X-5805853Y274958D01*
G01X-5810852Y269959D01*
G01X-5890852Y269959D01*
G01X-5895853Y274958D01*
G01X-5895853Y299161D01*
G01X-5858853Y299161D01*
G01X-5858853Y332161D01*
G01X-5895853Y332161D01*
G01X-5895853Y354957D01*
G01X-5890852Y359959D01*
G01X-5810852Y359959D01*
G37*
G36*
G01X-6049856Y269961D02*
G01X-6054855Y274963D01*
G01X-6054855Y354962D01*
G01X-6049856Y359961D01*
G01X-5969856Y359961D01*
G01X-5964855Y354962D01*
G01X-5964855Y330759D01*
G01X-6001855Y330759D01*
G01X-6001855Y297759D01*
G01X-5964855Y297759D01*
G01X-5964855Y274963D01*
G01X-5969856Y269961D01*
G01X-6049856Y269961D01*
G37*
G36*
G01X-5945597Y795520D02*
G01X-5940596Y800519D01*
G01X-5860596Y800519D01*
G01X-5855598Y795520D01*
G01X-5855598Y715520D01*
G01X-5860596Y710519D01*
G01X-5884800Y710519D01*
G01X-5884800Y747519D01*
G01X-5917800Y747519D01*
G01X-5917800Y710519D01*
G01X-5940596Y710519D01*
G01X-5945597Y715520D01*
G01X-5945597Y795520D01*
G37*
G36*
G01X-5855600Y556516D02*
G01X-5860601Y551518D01*
G01X-5940601Y551518D01*
G01X-5945600Y556516D01*
G01X-5945600Y636516D01*
G01X-5940601Y641517D01*
G01X-5916398Y641517D01*
G01X-5916398Y604517D01*
G01X-5883398Y604517D01*
G01X-5883398Y641517D01*
G01X-5860601Y641517D01*
G01X-5855600Y636516D01*
G01X-5855600Y556516D01*
G37*
G36*
G01X-6439375Y-1294608D02*
G01X-6434377Y-1299609D01*
G01X-6434377Y-1379609D01*
G01X-6439375Y-1384608D01*
G01X-6519375Y-1384608D01*
G01X-6524377Y-1379609D01*
G01X-6524377Y-1355405D01*
G01X-6487376Y-1355405D01*
G01X-6487376Y-1322406D01*
G01X-6524377Y-1322406D01*
G01X-6524377Y-1299609D01*
G01X-6519375Y-1294608D01*
G01X-6439375Y-1294608D01*
G37*
G36*
G01X-6678379Y-1384605D02*
G01X-6683378Y-1379604D01*
G01X-6683378Y-1299604D01*
G01X-6678379Y-1294605D01*
G01X-6598379Y-1294605D01*
G01X-6593378Y-1299604D01*
G01X-6593378Y-1323808D01*
G01X-6630378Y-1323808D01*
G01X-6630378Y-1356808D01*
G01X-6593378Y-1356808D01*
G01X-6593378Y-1379604D01*
G01X-6598379Y-1384605D01*
G01X-6678379Y-1384605D01*
G37*
G36*
G01X-7556000Y-632502D02*
G01X-7683998Y-632502D01*
G01X-7688999Y-627501D01*
G01X-7688999Y-512500D01*
G01X-7683998Y-507501D01*
G01X-7642995Y-506998D01*
G01X-7642995Y-551999D01*
G01X-7597996Y-551999D01*
G01X-7597996Y-507999D01*
G01X-7556000Y-507501D01*
G01X-7550998Y-512500D01*
G01X-7550998Y-627501D01*
G01X-7556000Y-632502D01*
G37*
G36*
G01X-7556000Y-417501D02*
G01X-7597996Y-417499D01*
G01X-7597996Y-373001D01*
G01X-7642995Y-373001D01*
G01X-7642995Y-416998D01*
G01X-7683998Y-417501D01*
G01X-7688999Y-412500D01*
G01X-7688999Y-297502D01*
G01X-7683998Y-292500D01*
G01X-7556000Y-292500D01*
G01X-7550998Y-297502D01*
G01X-7550998Y-412500D01*
G01X-7556000Y-417501D01*
G37*
G36*
G01X-7597052Y-13435D02*
G01X-7592051Y-8436D01*
G01X-7512051Y-8436D01*
G01X-7507052Y-13435D01*
G01X-7507052Y-93435D01*
G01X-7512051Y-98436D01*
G01X-7536254Y-98436D01*
G01X-7536254Y-61436D01*
G01X-7569254Y-61436D01*
G01X-7569254Y-98436D01*
G01X-7592051Y-98436D01*
G01X-7597052Y-93435D01*
G01X-7597052Y-13435D01*
G37*
G36*
G01X-7507055Y-252439D02*
G01X-7512056Y-257438D01*
G01X-7592056Y-257438D01*
G01X-7597054Y-252439D01*
G01X-7597054Y-172439D01*
G01X-7592056Y-167438D01*
G01X-7567852Y-167438D01*
G01X-7567852Y-204438D01*
G01X-7534852Y-204438D01*
G01X-7534852Y-167438D01*
G01X-7512056Y-167438D01*
G01X-7507055Y-172439D01*
G01X-7507055Y-252439D01*
G37*
G36*
G01X-5385137Y-316393D02*
G01X-5385137Y-444391D01*
G01X-5390138Y-449393D01*
G01X-5505139Y-449393D01*
G01X-5510138Y-444391D01*
G01X-5510640Y-403388D01*
G01X-5465639Y-403388D01*
G01X-5465639Y-358389D01*
G01X-5509640Y-358389D01*
G01X-5510138Y-316393D01*
G01X-5505139Y-311392D01*
G01X-5390138Y-311392D01*
G01X-5385137Y-316393D01*
G37*
G36*
G01X-5600137Y-316393D02*
G01X-5600140Y-358389D01*
G01X-5644638Y-358389D01*
G01X-5644638Y-403388D01*
G01X-5600640Y-403388D01*
G01X-5600137Y-444391D01*
G01X-5605139Y-449393D01*
G01X-5720137Y-449393D01*
G01X-5725138Y-444391D01*
G01X-5725138Y-316393D01*
G01X-5720137Y-311392D01*
G01X-5605139Y-311392D01*
G01X-5600137Y-316393D01*
G37*
G36*
G01X-1787882Y3602583D02*
G01X-1718782Y3602583D01*
G01X-1708782Y3592583D01*
G01X-1708782Y3568979D01*
G01X-1698782Y3558979D01*
G01X-1626981Y3558979D01*
G01X-1616981Y3568979D01*
G01X-1616981Y3592583D01*
G01X-1606981Y3602583D01*
G01X-1537880Y3602583D01*
G01X-1527880Y3592583D01*
G01X-1527880Y3484331D01*
G01X-1537880Y3474331D01*
G01X-1787882Y3474331D01*
G01X-1797882Y3484331D01*
G01X-1797882Y3592583D01*
G01X-1787882Y3602583D01*
G37*
G36*
G01X-1787882Y3952585D02*
G01X-1797882Y3962585D01*
G01X-1797882Y4070837D01*
G01X-1787882Y4080837D01*
G01X-1537880Y4080837D01*
G01X-1527880Y4070837D01*
G01X-1527880Y3962585D01*
G01X-1537880Y3952585D01*
G01X-1606981Y3952585D01*
G01X-1616981Y3962585D01*
G01X-1616981Y3986189D01*
G01X-1626981Y3996189D01*
G01X-1698782Y3996189D01*
G01X-1708782Y3986189D01*
G01X-1708782Y3962585D01*
G01X-1718782Y3952585D01*
G01X-1787882Y3952585D01*
G37*
G36*
G01X-6425311Y-2306378D02*
G01X-6420313Y-2311380D01*
G01X-6420313Y-2391380D01*
G01X-6425311Y-2396378D01*
G01X-6505311Y-2396378D01*
G01X-6510312Y-2391380D01*
G01X-6510312Y-2367176D01*
G01X-6473312Y-2367176D01*
G01X-6473312Y-2334176D01*
G01X-6510312Y-2334176D01*
G01X-6510312Y-2311380D01*
G01X-6505311Y-2306378D01*
G01X-6425311Y-2306378D01*
G37*
G36*
G01X-6664315Y-2396376D02*
G01X-6669314Y-2391374D01*
G01X-6669314Y-2311375D01*
G01X-6664315Y-2306376D01*
G01X-6584315Y-2306376D01*
G01X-6579314Y-2311375D01*
G01X-6579314Y-2335578D01*
G01X-6616314Y-2335578D01*
G01X-6616314Y-2368578D01*
G01X-6579314Y-2368578D01*
G01X-6579314Y-2391374D01*
G01X-6584315Y-2396376D01*
G01X-6664315Y-2396376D01*
G37*
G36*
G01X-6435171Y-2070619D02*
G01X-6430173Y-2075620D01*
G01X-6430173Y-2155620D01*
G01X-6435171Y-2160618D01*
G01X-6515171Y-2160618D01*
G01X-6520172Y-2155620D01*
G01X-6520172Y-2131416D01*
G01X-6483172Y-2131416D01*
G01X-6483172Y-2098416D01*
G01X-6520172Y-2098416D01*
G01X-6520172Y-2075620D01*
G01X-6515171Y-2070619D01*
G01X-6435171Y-2070619D01*
G37*
G36*
G01X-6674175Y-2160616D02*
G01X-6679174Y-2155615D01*
G01X-6679174Y-2075615D01*
G01X-6674175Y-2070616D01*
G01X-6594175Y-2070616D01*
G01X-6589174Y-2075615D01*
G01X-6589174Y-2099819D01*
G01X-6626174Y-2099819D01*
G01X-6626174Y-2132818D01*
G01X-6589174Y-2132818D01*
G01X-6589174Y-2155615D01*
G01X-6594175Y-2160616D01*
G01X-6674175Y-2160616D01*
G37*
G36*
G01X-3949822Y3386541D02*
G01X-3954821Y3391543D01*
G01X-3954821Y3471542D01*
G01X-3949822Y3476541D01*
G01X-3869822Y3476541D01*
G01X-3864821Y3471542D01*
G01X-3864821Y3447339D01*
G01X-3901821Y3447339D01*
G01X-3901821Y3414339D01*
G01X-3864821Y3414339D01*
G01X-3864821Y3391543D01*
G01X-3869822Y3386541D01*
G01X-3949822Y3386541D01*
G37*
G36*
G01X-3710818Y3476539D02*
G01X-3705819Y3471537D01*
G01X-3705819Y3391538D01*
G01X-3710818Y3386539D01*
G01X-3790818Y3386539D01*
G01X-3795819Y3391538D01*
G01X-3795819Y3415741D01*
G01X-3758819Y3415741D01*
G01X-3758819Y3448741D01*
G01X-3795819Y3448741D01*
G01X-3795819Y3471537D01*
G01X-3790818Y3476539D01*
G01X-3710818Y3476539D01*
G37*
G36*
G01X-3658182Y6029287D02*
G01X-3786180Y6029287D01*
G01X-3791181Y6034288D01*
G01X-3791181Y6149289D01*
G01X-3786180Y6154288D01*
G01X-3745177Y6154791D01*
G01X-3745177Y6109789D01*
G01X-3700178Y6109789D01*
G01X-3700178Y6153790D01*
G01X-3658182Y6154288D01*
G01X-3653180Y6149289D01*
G01X-3653180Y6034288D01*
G01X-3658182Y6029287D01*
G37*
G36*
G01X-3658182Y6244287D02*
G01X-3700178Y6244290D01*
G01X-3700178Y6288788D01*
G01X-3745177Y6288788D01*
G01X-3745177Y6244790D01*
G01X-3786180Y6244287D01*
G01X-3791181Y6249289D01*
G01X-3791181Y6364287D01*
G01X-3786180Y6369289D01*
G01X-3658182Y6369289D01*
G01X-3653180Y6364287D01*
G01X-3653180Y6249289D01*
G01X-3658182Y6244287D01*
G37*
G36*
G01X-3857082Y6029287D02*
G01X-3985080Y6029287D01*
G01X-3990081Y6034288D01*
G01X-3990081Y6149289D01*
G01X-3985080Y6154288D01*
G01X-3944077Y6154791D01*
G01X-3944077Y6109789D01*
G01X-3899078Y6109789D01*
G01X-3899078Y6153790D01*
G01X-3857082Y6154288D01*
G01X-3852080Y6149289D01*
G01X-3852080Y6034288D01*
G01X-3857082Y6029287D01*
G37*
G36*
G01X-3857082Y6244287D02*
G01X-3899078Y6244290D01*
G01X-3899078Y6288788D01*
G01X-3944077Y6288788D01*
G01X-3944077Y6244790D01*
G01X-3985080Y6244287D01*
G01X-3990081Y6249289D01*
G01X-3990081Y6364287D01*
G01X-3985080Y6369289D01*
G01X-3857082Y6369289D01*
G01X-3852080Y6364287D01*
G01X-3852080Y6249289D01*
G01X-3857082Y6244287D01*
G37*
G36*
G01X-7162455Y-2588179D02*
G01X-7167456Y-2593178D01*
G01X-7247456Y-2593178D01*
G01X-7252454Y-2588179D01*
G01X-7252454Y-2508179D01*
G01X-7247456Y-2503178D01*
G01X-7223252Y-2503178D01*
G01X-7223252Y-2540178D01*
G01X-7190252Y-2540178D01*
G01X-7190252Y-2503178D01*
G01X-7167456Y-2503178D01*
G01X-7162455Y-2508179D01*
G01X-7162455Y-2588179D01*
G37*
G36*
G01X-7252452Y-2349175D02*
G01X-7247451Y-2344177D01*
G01X-7167451Y-2344177D01*
G01X-7162452Y-2349175D01*
G01X-7162452Y-2429175D01*
G01X-7167451Y-2434176D01*
G01X-7191654Y-2434176D01*
G01X-7191654Y-2397176D01*
G01X-7224654Y-2397176D01*
G01X-7224654Y-2434176D01*
G01X-7247451Y-2434176D01*
G01X-7252452Y-2429175D01*
G01X-7252452Y-2349175D01*
G37*
G36*
G01X-7390679Y-584078D02*
G01X-7385677Y-579079D01*
G01X-7305678Y-579079D01*
G01X-7300679Y-584078D01*
G01X-7300679Y-664078D01*
G01X-7305678Y-669079D01*
G01X-7329881Y-669079D01*
G01X-7329881Y-632079D01*
G01X-7362881Y-632079D01*
G01X-7362881Y-669079D01*
G01X-7385677Y-669079D01*
G01X-7390679Y-664078D01*
G01X-7390679Y-584078D01*
G37*
G36*
G01X-7300681Y-823082D02*
G01X-7305683Y-828081D01*
G01X-7385682Y-828081D01*
G01X-7390681Y-823082D01*
G01X-7390681Y-743082D01*
G01X-7385682Y-738081D01*
G01X-7361479Y-738081D01*
G01X-7361479Y-775081D01*
G01X-7328479Y-775081D01*
G01X-7328479Y-738081D01*
G01X-7305683Y-738081D01*
G01X-7300681Y-743082D01*
G01X-7300681Y-823082D01*
G37*
G36*
G01X-7230659Y-584078D02*
G01X-7225657Y-579079D01*
G01X-7145658Y-579079D01*
G01X-7140659Y-584078D01*
G01X-7140659Y-664078D01*
G01X-7145658Y-669079D01*
G01X-7169861Y-669079D01*
G01X-7169861Y-632079D01*
G01X-7202861Y-632079D01*
G01X-7202861Y-669079D01*
G01X-7225657Y-669079D01*
G01X-7230659Y-664078D01*
G01X-7230659Y-584078D01*
G37*
G36*
G01X-7140661Y-823082D02*
G01X-7145663Y-828081D01*
G01X-7225662Y-828081D01*
G01X-7230661Y-823082D01*
G01X-7230661Y-743082D01*
G01X-7225662Y-738081D01*
G01X-7201459Y-738081D01*
G01X-7201459Y-775081D01*
G01X-7168459Y-775081D01*
G01X-7168459Y-738081D01*
G01X-7145663Y-738081D01*
G01X-7140661Y-743082D01*
G01X-7140661Y-823082D01*
G37*
G36*
G01X-2969741Y5161901D02*
G01X-2969741Y5092800D01*
G01X-2979741Y5082800D01*
G01X-3003346Y5082800D01*
G01X-3013346Y5072800D01*
G01X-3013346Y5000999D01*
G01X-3003346Y4990999D01*
G01X-2979741Y4990999D01*
G01X-2969741Y4980999D01*
G01X-2969741Y4911899D01*
G01X-2979741Y4901899D01*
G01X-3087994Y4901899D01*
G01X-3097994Y4911899D01*
G01X-3097994Y5161901D01*
G01X-3087994Y5171901D01*
G01X-2979741Y5171901D01*
G01X-2969741Y5161901D01*
G37*
G36*
G01X-2619739Y5161901D02*
G01X-2609740Y5171901D01*
G01X-2501487Y5171901D01*
G01X-2491487Y5161901D01*
G01X-2491487Y4911899D01*
G01X-2501487Y4901899D01*
G01X-2609740Y4901899D01*
G01X-2619739Y4911899D01*
G01X-2619739Y4980999D01*
G01X-2609740Y4990999D01*
G01X-2586135Y4990999D01*
G01X-2576135Y5000999D01*
G01X-2576135Y5072800D01*
G01X-2586135Y5082800D01*
G01X-2609740Y5082800D01*
G01X-2619739Y5092800D01*
G01X-2619739Y5161901D01*
G37*
G36*
G01X-7637400Y563372D02*
G01X-7765398Y563372D01*
G01X-7770400Y568373D01*
G01X-7770400Y683374D01*
G01X-7765398Y688373D01*
G01X-7724395Y688876D01*
G01X-7724395Y643875D01*
G01X-7679397Y643875D01*
G01X-7679397Y687875D01*
G01X-7637400Y688373D01*
G01X-7632399Y683374D01*
G01X-7632399Y568373D01*
G01X-7637400Y563372D01*
G37*
G36*
G01X-7765401Y904367D02*
G01X-7637403Y904367D01*
G01X-7632402Y899365D01*
G01X-7632402Y784364D01*
G01X-7637403Y779366D01*
G01X-7678406Y778863D01*
G01X-7678406Y823864D01*
G01X-7723405Y823864D01*
G01X-7723405Y779864D01*
G01X-7765401Y779366D01*
G01X-7770402Y784364D01*
G01X-7770402Y899365D01*
G01X-7765401Y904367D01*
G37*
G36*
G01X-7431439Y563372D02*
G01X-7559438Y563372D01*
G01X-7564439Y568373D01*
G01X-7564439Y683374D01*
G01X-7559438Y688373D01*
G01X-7518434Y688876D01*
G01X-7518434Y643875D01*
G01X-7473436Y643875D01*
G01X-7473436Y687875D01*
G01X-7431439Y688373D01*
G01X-7426438Y683374D01*
G01X-7426438Y568373D01*
G01X-7431439Y563372D01*
G37*
G36*
G01X-7559440Y904367D02*
G01X-7431442Y904367D01*
G01X-7426441Y899365D01*
G01X-7426441Y784364D01*
G01X-7431442Y779366D01*
G01X-7472445Y778863D01*
G01X-7472445Y823864D01*
G01X-7517444Y823864D01*
G01X-7517444Y779864D01*
G01X-7559440Y779366D01*
G01X-7564441Y784364D01*
G01X-7564441Y899365D01*
G01X-7559440Y904367D01*
G37*
G36*
G01X-7353479Y936868D02*
G01X-7225481Y936868D01*
G01X-7220480Y931867D01*
G01X-7220480Y816866D01*
G01X-7225481Y811867D01*
G01X-7266484Y811364D01*
G01X-7266484Y856366D01*
G01X-7311483Y856366D01*
G01X-7311483Y812365D01*
G01X-7353479Y811867D01*
G01X-7358480Y816866D01*
G01X-7358480Y931867D01*
G01X-7353479Y936868D01*
G37*
G36*
G01X-7225478Y595873D02*
G01X-7353477Y595873D01*
G01X-7358478Y600875D01*
G01X-7358478Y715876D01*
G01X-7353477Y720874D01*
G01X-7312473Y721377D01*
G01X-7312473Y676376D01*
G01X-7267475Y676376D01*
G01X-7267475Y720377D01*
G01X-7225478Y720874D01*
G01X-7220477Y715876D01*
G01X-7220477Y600875D01*
G01X-7225478Y595873D01*
G37*
G36*
G01X-6813556Y595873D02*
G01X-6941555Y595873D01*
G01X-6946556Y600875D01*
G01X-6946556Y715876D01*
G01X-6941555Y720874D01*
G01X-6900551Y721377D01*
G01X-6900551Y676376D01*
G01X-6855553Y676376D01*
G01X-6855553Y720377D01*
G01X-6813556Y720874D01*
G01X-6808555Y715876D01*
G01X-6808555Y600875D01*
G01X-6813556Y595873D01*
G37*
G36*
G01X-6941557Y936868D02*
G01X-6813559Y936868D01*
G01X-6808558Y931867D01*
G01X-6808558Y816866D01*
G01X-6813559Y811867D01*
G01X-6854562Y811364D01*
G01X-6854562Y856366D01*
G01X-6899561Y856366D01*
G01X-6899561Y812365D01*
G01X-6941557Y811867D01*
G01X-6946558Y816866D01*
G01X-6946558Y931867D01*
G01X-6941557Y936868D01*
G37*
G36*
G01X-7147518Y936868D02*
G01X-7019520Y936868D01*
G01X-7014519Y931867D01*
G01X-7014519Y816866D01*
G01X-7019520Y811867D01*
G01X-7060523Y811364D01*
G01X-7060523Y856366D01*
G01X-7105522Y856366D01*
G01X-7105522Y812365D01*
G01X-7147518Y811867D01*
G01X-7152519Y816866D01*
G01X-7152519Y931867D01*
G01X-7147518Y936868D01*
G37*
G36*
G01X-7019517Y595873D02*
G01X-7147516Y595873D01*
G01X-7152517Y600875D01*
G01X-7152517Y715876D01*
G01X-7147516Y720874D01*
G01X-7106512Y721377D01*
G01X-7106512Y676376D01*
G01X-7061514Y676376D01*
G01X-7061514Y720377D01*
G01X-7019517Y720874D01*
G01X-7014516Y715876D01*
G01X-7014516Y600875D01*
G01X-7019517Y595873D01*
G37*
G36*
G01X-6607595Y595873D02*
G01X-6735594Y595873D01*
G01X-6740595Y600875D01*
G01X-6740595Y715876D01*
G01X-6735594Y720874D01*
G01X-6694590Y721377D01*
G01X-6694590Y676376D01*
G01X-6649592Y676376D01*
G01X-6649592Y720377D01*
G01X-6607595Y720874D01*
G01X-6602594Y715876D01*
G01X-6602594Y600875D01*
G01X-6607595Y595873D01*
G37*
G36*
G01X-6735596Y936868D02*
G01X-6607598Y936868D01*
G01X-6602597Y931867D01*
G01X-6602597Y816866D01*
G01X-6607598Y811867D01*
G01X-6648601Y811364D01*
G01X-6648601Y856366D01*
G01X-6693600Y856366D01*
G01X-6693600Y812365D01*
G01X-6735596Y811867D01*
G01X-6740597Y816866D01*
G01X-6740597Y931867D01*
G01X-6735596Y936868D01*
G37*
G36*
G01X-6401634Y563372D02*
G01X-6529633Y563372D01*
G01X-6534634Y568373D01*
G01X-6534634Y683374D01*
G01X-6529633Y688373D01*
G01X-6488629Y688876D01*
G01X-6488629Y643875D01*
G01X-6443631Y643875D01*
G01X-6443631Y687875D01*
G01X-6401634Y688373D01*
G01X-6396633Y683374D01*
G01X-6396633Y568373D01*
G01X-6401634Y563372D01*
G37*
G36*
G01X-6529635Y904367D02*
G01X-6401637Y904367D01*
G01X-6396636Y899365D01*
G01X-6396636Y784364D01*
G01X-6401637Y779366D01*
G01X-6442640Y778863D01*
G01X-6442640Y823864D01*
G01X-6487639Y823864D01*
G01X-6487639Y779864D01*
G01X-6529635Y779366D01*
G01X-6534636Y784364D01*
G01X-6534636Y899365D01*
G01X-6529635Y904367D01*
G37*
G36*
G01X-6195673Y563372D02*
G01X-6323671Y563372D01*
G01X-6328673Y568373D01*
G01X-6328673Y683374D01*
G01X-6323671Y688373D01*
G01X-6282668Y688876D01*
G01X-6282668Y643875D01*
G01X-6237670Y643875D01*
G01X-6237670Y687875D01*
G01X-6195673Y688373D01*
G01X-6190672Y683374D01*
G01X-6190672Y568373D01*
G01X-6195673Y563372D01*
G37*
G36*
G01X-6323674Y904367D02*
G01X-6195676Y904367D01*
G01X-6190674Y899365D01*
G01X-6190674Y784364D01*
G01X-6195676Y779366D01*
G01X-6236679Y778863D01*
G01X-6236679Y823864D01*
G01X-6281678Y823864D01*
G01X-6281678Y779864D01*
G01X-6323674Y779366D01*
G01X-6328675Y784364D01*
G01X-6328675Y899365D01*
G01X-6323674Y904367D01*
G37*
G36*
G01X-8539602Y-2168439D02*
G01X-8544601Y-2163437D01*
G01X-8544601Y-2083438D01*
G01X-8539602Y-2078439D01*
G01X-8459602Y-2078439D01*
G01X-8454601Y-2083438D01*
G01X-8454601Y-2107641D01*
G01X-8491601Y-2107641D01*
G01X-8491601Y-2140641D01*
G01X-8454601Y-2140641D01*
G01X-8454601Y-2163437D01*
G01X-8459602Y-2168439D01*
G01X-8539602Y-2168439D01*
G37*
G36*
G01X-8300598Y-2078441D02*
G01X-8295599Y-2083443D01*
G01X-8295599Y-2163442D01*
G01X-8300598Y-2168441D01*
G01X-8380598Y-2168441D01*
G01X-8385599Y-2163442D01*
G01X-8385599Y-2139239D01*
G01X-8348599Y-2139239D01*
G01X-8348599Y-2106239D01*
G01X-8385599Y-2106239D01*
G01X-8385599Y-2083443D01*
G01X-8380598Y-2078441D01*
G01X-8300598Y-2078441D01*
G37*
G36*
G01X-3091302Y3259541D02*
G01X-3096301Y3264543D01*
G01X-3096301Y3344542D01*
G01X-3091302Y3349541D01*
G01X-3011302Y3349541D01*
G01X-3006301Y3344542D01*
G01X-3006301Y3320339D01*
G01X-3043301Y3320339D01*
G01X-3043301Y3287339D01*
G01X-3006301Y3287339D01*
G01X-3006301Y3264543D01*
G01X-3011302Y3259541D01*
G01X-3091302Y3259541D01*
G37*
G36*
G01X-2852298Y3349539D02*
G01X-2847299Y3344537D01*
G01X-2847299Y3264538D01*
G01X-2852298Y3259539D01*
G01X-2932298Y3259539D01*
G01X-2937299Y3264538D01*
G01X-2937299Y3288741D01*
G01X-2900299Y3288741D01*
G01X-2900299Y3321741D01*
G01X-2937299Y3321741D01*
G01X-2937299Y3344537D01*
G01X-2932298Y3349539D01*
G01X-2852298Y3349539D01*
G37*
G36*
G01X-2243820Y5570946D02*
G01X-2238819Y5575944D01*
G01X-2158819Y5575944D01*
G01X-2153820Y5570946D01*
G01X-2153820Y5490946D01*
G01X-2158819Y5485945D01*
G01X-2183023Y5485945D01*
G01X-2183023Y5522945D01*
G01X-2216022Y5522945D01*
G01X-2216022Y5485945D01*
G01X-2238819Y5485945D01*
G01X-2243820Y5490946D01*
G01X-2243820Y5570946D01*
G37*
G36*
G01X-2153823Y5331942D02*
G01X-2158824Y5326943D01*
G01X-2238824Y5326943D01*
G01X-2243823Y5331942D01*
G01X-2243823Y5411942D01*
G01X-2238824Y5416943D01*
G01X-2214620Y5416943D01*
G01X-2214620Y5379943D01*
G01X-2181620Y5379943D01*
G01X-2181620Y5416943D01*
G01X-2158824Y5416943D01*
G01X-2153823Y5411942D01*
G01X-2153823Y5331942D01*
G37*
G36*
G01X-3981305Y3534237D02*
G01X-4109304Y3534237D01*
G01X-4114305Y3539238D01*
G01X-4114305Y3654239D01*
G01X-4109304Y3659238D01*
G01X-4068300Y3659741D01*
G01X-4068300Y3614740D01*
G01X-4023302Y3614740D01*
G01X-4023302Y3658740D01*
G01X-3981305Y3659238D01*
G01X-3976304Y3654239D01*
G01X-3976304Y3539238D01*
G01X-3981305Y3534237D01*
G37*
G36*
G01X-4109306Y3875232D02*
G01X-3981308Y3875232D01*
G01X-3976307Y3870231D01*
G01X-3976307Y3755229D01*
G01X-3981308Y3750231D01*
G01X-4022311Y3749728D01*
G01X-4022311Y3794729D01*
G01X-4067310Y3794729D01*
G01X-4067310Y3750729D01*
G01X-4109306Y3750231D01*
G01X-4114307Y3755229D01*
G01X-4114307Y3870231D01*
G01X-4109306Y3875232D01*
G37*
G36*
G01X-3779180Y3552719D02*
G01X-3907178Y3552719D01*
G01X-3912179Y3557721D01*
G01X-3912179Y3672722D01*
G01X-3907178Y3677720D01*
G01X-3866175Y3678223D01*
G01X-3866175Y3633222D01*
G01X-3821176Y3633222D01*
G01X-3821176Y3677223D01*
G01X-3779180Y3677720D01*
G01X-3774179Y3672722D01*
G01X-3774179Y3557721D01*
G01X-3779180Y3552719D01*
G37*
G36*
G01X-3779180Y3767720D02*
G01X-3821176Y3767723D01*
G01X-3821176Y3812221D01*
G01X-3866175Y3812221D01*
G01X-3866175Y3768223D01*
G01X-3907178Y3767720D01*
G01X-3912179Y3772721D01*
G01X-3912179Y3887720D01*
G01X-3907178Y3892721D01*
G01X-3779180Y3892721D01*
G01X-3774179Y3887720D01*
G01X-3774179Y3772721D01*
G01X-3779180Y3767720D01*
G37*
G36*
G01X-4818720Y4196580D02*
G01X-4818720Y4068582D01*
G01X-4823719Y4063581D01*
G01X-4943719Y4063581D01*
G01X-4948720Y4068582D01*
G01X-4948720Y4112580D01*
G01X-4908720Y4112580D01*
G01X-4908720Y4152583D01*
G01X-4948720Y4152583D01*
G01X-4948720Y4196580D01*
G01X-4943719Y4201582D01*
G01X-4823719Y4201582D01*
G01X-4818720Y4196580D01*
G37*
G36*
G01X-5048720Y4196580D02*
G01X-5048720Y4152583D01*
G01X-5088720Y4152583D01*
G01X-5088720Y4112580D01*
G01X-5048720Y4112580D01*
G01X-5048720Y4068582D01*
G01X-5053721Y4063581D01*
G01X-5173721Y4063581D01*
G01X-5178720Y4068582D01*
G01X-5178720Y4196580D01*
G01X-5173721Y4201582D01*
G01X-5053721Y4201582D01*
G01X-5048720Y4196580D01*
G37*
G36*
G01X-4818720Y4402320D02*
G01X-4818720Y4274322D01*
G01X-4823719Y4269321D01*
G01X-4943719Y4269321D01*
G01X-4948720Y4274322D01*
G01X-4948720Y4318320D01*
G01X-4908720Y4318320D01*
G01X-4908720Y4358323D01*
G01X-4948720Y4358323D01*
G01X-4948720Y4402320D01*
G01X-4943719Y4407322D01*
G01X-4823719Y4407322D01*
G01X-4818720Y4402320D01*
G37*
G36*
G01X-5048720Y4402320D02*
G01X-5048720Y4358323D01*
G01X-5088720Y4358323D01*
G01X-5088720Y4318320D01*
G01X-5048720Y4318320D01*
G01X-5048720Y4274322D01*
G01X-5053721Y4269321D01*
G01X-5173721Y4269321D01*
G01X-5178720Y4274322D01*
G01X-5178720Y4402320D01*
G01X-5173721Y4407322D01*
G01X-5053721Y4407322D01*
G01X-5048720Y4402320D01*
G37*
G36*
G01X-4786587Y3643603D02*
G01X-4791589Y3638605D01*
G01X-4871588Y3638605D01*
G01X-4876587Y3643603D01*
G01X-4876587Y3723603D01*
G01X-4871588Y3728604D01*
G01X-4847385Y3728604D01*
G01X-4847385Y3691604D01*
G01X-4814385Y3691604D01*
G01X-4814385Y3728604D01*
G01X-4791589Y3728604D01*
G01X-4786587Y3723603D01*
G01X-4786587Y3643603D01*
G37*
G36*
G01X-4876585Y3882607D02*
G01X-4871583Y3887606D01*
G01X-4791584Y3887606D01*
G01X-4786585Y3882607D01*
G01X-4786585Y3802607D01*
G01X-4791584Y3797606D01*
G01X-4815787Y3797606D01*
G01X-4815787Y3834606D01*
G01X-4848787Y3834606D01*
G01X-4848787Y3797606D01*
G01X-4871583Y3797606D01*
G01X-4876585Y3802607D01*
G01X-4876585Y3882607D01*
G37*
G36*
G01X-5986602Y-2449060D02*
G01X-5986602Y-2321062D01*
G01X-5981601Y-2316061D01*
G01X-5866600Y-2316061D01*
G01X-5861601Y-2321062D01*
G01X-5861098Y-2362065D01*
G01X-5906099Y-2362065D01*
G01X-5906099Y-2407064D01*
G01X-5862099Y-2407064D01*
G01X-5861601Y-2449060D01*
G01X-5866600Y-2454062D01*
G01X-5981601Y-2454062D01*
G01X-5986602Y-2449060D01*
G37*
G36*
G01X-5771601Y-2449060D02*
G01X-5771599Y-2407064D01*
G01X-5727101Y-2407064D01*
G01X-5727101Y-2362065D01*
G01X-5771098Y-2362065D01*
G01X-5771601Y-2321062D01*
G01X-5766600Y-2316061D01*
G01X-5651602Y-2316061D01*
G01X-5646600Y-2321062D01*
G01X-5646600Y-2449060D01*
G01X-5651602Y-2454062D01*
G01X-5766600Y-2454062D01*
G01X-5771601Y-2449060D01*
G37*
G36*
G01X-2974512Y6080015D02*
G01X-2974512Y6010914D01*
G01X-2984512Y6000914D01*
G01X-3020102Y6000914D01*
G01X-3030102Y5990914D01*
G01X-3030102Y5919114D01*
G01X-3020102Y5909114D01*
G01X-2984512Y5909114D01*
G01X-2974512Y5899114D01*
G01X-2974512Y5830013D01*
G01X-2984512Y5820013D01*
G01X-3128012Y5820013D01*
G01X-3138012Y5830013D01*
G01X-3138012Y6080015D01*
G01X-3128012Y6090015D01*
G01X-2984512Y6090015D01*
G01X-2974512Y6080015D01*
G37*
G36*
G01X-2834512Y6080015D02*
G01X-2824512Y6090015D01*
G01X-2681012Y6090015D01*
G01X-2671012Y6080015D01*
G01X-2671012Y5830013D01*
G01X-2681012Y5820013D01*
G01X-2824512Y5820013D01*
G01X-2834512Y5830013D01*
G01X-2834512Y5899114D01*
G01X-2824512Y5909114D01*
G01X-2788922Y5909114D01*
G01X-2778922Y5919114D01*
G01X-2778922Y5990914D01*
G01X-2788922Y6000914D01*
G01X-2824512Y6000914D01*
G01X-2834512Y6010914D01*
G01X-2834512Y6080015D01*
G37*
G36*
G01X-2633285Y5512561D02*
G01X-2633285Y5581662D01*
G01X-2623285Y5591662D01*
G01X-2587694Y5591662D01*
G01X-2577694Y5601662D01*
G01X-2577694Y5673462D01*
G01X-2587694Y5683462D01*
G01X-2623285Y5683462D01*
G01X-2633285Y5693462D01*
G01X-2633285Y5762563D01*
G01X-2623285Y5772563D01*
G01X-2479785Y5772563D01*
G01X-2469785Y5762563D01*
G01X-2469785Y5512561D01*
G01X-2479785Y5502561D01*
G01X-2623285Y5502561D01*
G01X-2633285Y5512561D01*
G37*
G36*
G01X-2773284Y5512561D02*
G01X-2783284Y5502561D01*
G01X-2926784Y5502561D01*
G01X-2936784Y5512561D01*
G01X-2936784Y5762563D01*
G01X-2926784Y5772563D01*
G01X-2783284Y5772563D01*
G01X-2773284Y5762563D01*
G01X-2773284Y5693462D01*
G01X-2783284Y5683462D01*
G01X-2818875Y5683462D01*
G01X-2828875Y5673462D01*
G01X-2828875Y5601662D01*
G01X-2818875Y5591662D01*
G01X-2783284Y5591662D01*
G01X-2773284Y5581662D01*
G01X-2773284Y5512561D01*
G37*
G36*
G01X-4613811Y3016836D02*
G01X-4544710Y3016836D01*
G01X-4534710Y3006836D01*
G01X-4534710Y2971246D01*
G01X-4524710Y2961246D01*
G01X-4452909Y2961246D01*
G01X-4442909Y2971246D01*
G01X-4442909Y3006836D01*
G01X-4432909Y3016836D01*
G01X-4363809Y3016836D01*
G01X-4353809Y3006836D01*
G01X-4353809Y2863336D01*
G01X-4363809Y2853336D01*
G01X-4613811Y2853336D01*
G01X-4623811Y2863336D01*
G01X-4623811Y3006836D01*
G01X-4613811Y3016836D01*
G37*
G36*
G01X-4613811Y3156836D02*
G01X-4623811Y3166836D01*
G01X-4623811Y3310336D01*
G01X-4613811Y3320336D01*
G01X-4363809Y3320336D01*
G01X-4353809Y3310336D01*
G01X-4353809Y3166836D01*
G01X-4363809Y3156836D01*
G01X-4432909Y3156836D01*
G01X-4442909Y3166836D01*
G01X-4442909Y3202426D01*
G01X-4452909Y3212426D01*
G01X-4524710Y3212426D01*
G01X-4534710Y3202426D01*
G01X-4534710Y3166836D01*
G01X-4544710Y3156836D01*
G01X-4613811Y3156836D01*
G37*
G36*
G01X-4283141Y3016674D02*
G01X-4214041Y3016674D01*
G01X-4204041Y3006674D01*
G01X-4204041Y2971083D01*
G01X-4194041Y2961083D01*
G01X-4122240Y2961083D01*
G01X-4112240Y2971083D01*
G01X-4112240Y3006674D01*
G01X-4102240Y3016674D01*
G01X-4033139Y3016674D01*
G01X-4023139Y3006674D01*
G01X-4023139Y2863174D01*
G01X-4033139Y2853174D01*
G01X-4283141Y2853174D01*
G01X-4293141Y2863174D01*
G01X-4293141Y3006674D01*
G01X-4283141Y3016674D01*
G37*
G36*
G01X-4283141Y3156674D02*
G01X-4293141Y3166674D01*
G01X-4293141Y3310173D01*
G01X-4283141Y3320173D01*
G01X-4033139Y3320173D01*
G01X-4023139Y3310173D01*
G01X-4023139Y3166674D01*
G01X-4033139Y3156674D01*
G01X-4102240Y3156674D01*
G01X-4112240Y3166674D01*
G01X-4112240Y3202264D01*
G01X-4122240Y3212264D01*
G01X-4194041Y3212264D01*
G01X-4204041Y3202264D01*
G01X-4204041Y3166674D01*
G01X-4214041Y3156674D01*
G01X-4283141Y3156674D01*
G37*
G36*
G01X-4945311Y3016836D02*
G01X-4876210Y3016836D01*
G01X-4866210Y3006836D01*
G01X-4866210Y2971246D01*
G01X-4856210Y2961246D01*
G01X-4784409Y2961246D01*
G01X-4774409Y2971246D01*
G01X-4774409Y3006836D01*
G01X-4764409Y3016836D01*
G01X-4695309Y3016836D01*
G01X-4685309Y3006836D01*
G01X-4685309Y2863336D01*
G01X-4695309Y2853336D01*
G01X-4945311Y2853336D01*
G01X-4955311Y2863336D01*
G01X-4955311Y3006836D01*
G01X-4945311Y3016836D01*
G37*
G36*
G01X-4945311Y3156836D02*
G01X-4955311Y3166836D01*
G01X-4955311Y3310336D01*
G01X-4945311Y3320336D01*
G01X-4695309Y3320336D01*
G01X-4685309Y3310336D01*
G01X-4685309Y3166836D01*
G01X-4695309Y3156836D01*
G01X-4764409Y3156836D01*
G01X-4774409Y3166836D01*
G01X-4774409Y3202426D01*
G01X-4784409Y3212426D01*
G01X-4856210Y3212426D01*
G01X-4866210Y3202426D01*
G01X-4866210Y3166836D01*
G01X-4876210Y3156836D01*
G01X-4945311Y3156836D01*
G37*
G36*
G01X-3954803Y3014466D02*
G01X-3885702Y3014466D01*
G01X-3875702Y3004466D01*
G01X-3875702Y2968875D01*
G01X-3865702Y2958875D01*
G01X-3793901Y2958875D01*
G01X-3783901Y2968875D01*
G01X-3783901Y3004466D01*
G01X-3773902Y3014466D01*
G01X-3704801Y3014466D01*
G01X-3694801Y3004466D01*
G01X-3694801Y2860966D01*
G01X-3704801Y2850966D01*
G01X-3954803Y2850966D01*
G01X-3964803Y2860966D01*
G01X-3964803Y3004466D01*
G01X-3954803Y3014466D01*
G37*
G36*
G01X-3954803Y3154465D02*
G01X-3964803Y3164465D01*
G01X-3964803Y3307965D01*
G01X-3954803Y3317965D01*
G01X-3704801Y3317965D01*
G01X-3694801Y3307965D01*
G01X-3694801Y3164465D01*
G01X-3704801Y3154465D01*
G01X-3773902Y3154465D01*
G01X-3783901Y3164465D01*
G01X-3783901Y3200056D01*
G01X-3793901Y3210056D01*
G01X-3865702Y3210056D01*
G01X-3875702Y3200056D01*
G01X-3875702Y3164465D01*
G01X-3885702Y3154465D01*
G01X-3954803Y3154465D01*
G37*
G36*
G01X-4731451Y5568555D02*
G01X-4736450Y5573556D01*
G01X-4736450Y5653556D01*
G01X-4731451Y5658555D01*
G01X-4651451Y5658555D01*
G01X-4646450Y5653556D01*
G01X-4646450Y5629352D01*
G01X-4683450Y5629352D01*
G01X-4683450Y5596353D01*
G01X-4646450Y5596353D01*
G01X-4646450Y5573556D01*
G01X-4651451Y5568555D01*
G01X-4731451Y5568555D01*
G37*
G36*
G01X-4492447Y5658552D02*
G01X-4487449Y5653551D01*
G01X-4487449Y5573551D01*
G01X-4492447Y5568552D01*
G01X-4572447Y5568552D01*
G01X-4577449Y5573551D01*
G01X-4577449Y5597755D01*
G01X-4540448Y5597755D01*
G01X-4540448Y5630754D01*
G01X-4577449Y5630754D01*
G01X-4577449Y5653551D01*
G01X-4572447Y5658552D01*
G01X-4492447Y5658552D01*
G37*
G36*
G01X-4477647Y5504154D02*
G01X-4477647Y5376155D01*
G01X-4482648Y5371154D01*
G01X-4597649Y5371154D01*
G01X-4602648Y5376155D01*
G01X-4603151Y5417159D01*
G01X-4558150Y5417159D01*
G01X-4558150Y5462157D01*
G01X-4602150Y5462157D01*
G01X-4602648Y5504154D01*
G01X-4597649Y5509155D01*
G01X-4482648Y5509155D01*
G01X-4477647Y5504154D01*
G37*
G36*
G01X-4692648Y5504154D02*
G01X-4692651Y5462157D01*
G01X-4737149Y5462157D01*
G01X-4737149Y5417159D01*
G01X-4693151Y5417159D01*
G01X-4692648Y5376155D01*
G01X-4697649Y5371154D01*
G01X-4812648Y5371154D01*
G01X-4817649Y5376155D01*
G01X-4817649Y5504154D01*
G01X-4812648Y5509155D01*
G01X-4697649Y5509155D01*
G01X-4692648Y5504154D01*
G37*
G36*
G01X-4403019Y459979D02*
G01X-4403019Y365933D01*
G01X-4413019Y355933D01*
G01X-4436626Y355933D01*
G01X-4446626Y345933D01*
G01X-4446626Y248427D01*
G01X-4436626Y238427D01*
G01X-4413019Y238427D01*
G01X-4403019Y228427D01*
G01X-4403019Y134381D01*
G01X-4413019Y124381D01*
G01X-4521274Y124381D01*
G01X-4531274Y134381D01*
G01X-4531274Y459979D01*
G01X-4521274Y469979D01*
G01X-4413019Y469979D01*
G01X-4403019Y459979D01*
G37*
G36*
G01X-3918021Y459979D02*
G01X-3908021Y469979D01*
G01X-3799766Y469979D01*
G01X-3789766Y459979D01*
G01X-3789766Y134381D01*
G01X-3799766Y124381D01*
G01X-3908021Y124381D01*
G01X-3918021Y134381D01*
G01X-3918021Y228427D01*
G01X-3908021Y238427D01*
G01X-3884414Y238427D01*
G01X-3874414Y248427D01*
G01X-3874414Y345933D01*
G01X-3884414Y355933D01*
G01X-3908021Y355933D01*
G01X-3918021Y365933D01*
G01X-3918021Y459979D01*
G37*
G36*
G01X-5044201Y2866319D02*
G01X-5138247Y2866319D01*
G01X-5148247Y2876319D01*
G01X-5148247Y2899926D01*
G01X-5158247Y2909926D01*
G01X-5255753Y2909926D01*
G01X-5265753Y2899926D01*
G01X-5265753Y2876319D01*
G01X-5275753Y2866319D01*
G01X-5369799Y2866319D01*
G01X-5379799Y2876319D01*
G01X-5379799Y2984574D01*
G01X-5369799Y2994574D01*
G01X-5044201Y2994574D01*
G01X-5034201Y2984574D01*
G01X-5034201Y2876319D01*
G01X-5044201Y2866319D01*
G37*
G36*
G01X-5044201Y2381321D02*
G01X-5034201Y2371321D01*
G01X-5034201Y2263066D01*
G01X-5044201Y2253066D01*
G01X-5369799Y2253066D01*
G01X-5379799Y2263066D01*
G01X-5379799Y2371321D01*
G01X-5369799Y2381321D01*
G01X-5275753Y2381321D01*
G01X-5265753Y2371321D01*
G01X-5265753Y2347714D01*
G01X-5255753Y2337714D01*
G01X-5158247Y2337714D01*
G01X-5148247Y2347714D01*
G01X-5148247Y2371321D01*
G01X-5138247Y2381321D01*
G01X-5044201Y2381321D01*
G37*
G36*
G01X-7776718Y-2421059D02*
G01X-7776718Y-2549058D01*
G01X-7781719Y-2554059D01*
G01X-7896720Y-2554059D01*
G01X-7901719Y-2549058D01*
G01X-7902222Y-2508054D01*
G01X-7857221Y-2508054D01*
G01X-7857221Y-2463056D01*
G01X-7901221Y-2463056D01*
G01X-7901719Y-2421059D01*
G01X-7896720Y-2416058D01*
G01X-7781719Y-2416058D01*
G01X-7776718Y-2421059D01*
G37*
G36*
G01X-7991719Y-2421059D02*
G01X-7991721Y-2463056D01*
G01X-8036220Y-2463056D01*
G01X-8036220Y-2508054D01*
G01X-7992222Y-2508054D01*
G01X-7991719Y-2549058D01*
G01X-7996720Y-2554059D01*
G01X-8111719Y-2554059D01*
G01X-8116720Y-2549058D01*
G01X-8116720Y-2421059D01*
G01X-8111719Y-2416058D01*
G01X-7996720Y-2416058D01*
G01X-7991719Y-2421059D01*
G37*
G36*
G01X-4296102Y6028047D02*
G01X-4424100Y6028047D01*
G01X-4429101Y6033048D01*
G01X-4429101Y6148049D01*
G01X-4424100Y6153048D01*
G01X-4383097Y6153551D01*
G01X-4383097Y6108549D01*
G01X-4338098Y6108549D01*
G01X-4338098Y6152550D01*
G01X-4296102Y6153048D01*
G01X-4291101Y6148049D01*
G01X-4291101Y6033048D01*
G01X-4296102Y6028047D01*
G37*
G36*
G01X-4296102Y6243047D02*
G01X-4338098Y6243050D01*
G01X-4338098Y6287548D01*
G01X-4383097Y6287548D01*
G01X-4383097Y6243550D01*
G01X-4424100Y6243047D01*
G01X-4429101Y6248049D01*
G01X-4429101Y6363047D01*
G01X-4424100Y6368048D01*
G01X-4296102Y6368048D01*
G01X-4291101Y6363047D01*
G01X-4291101Y6248049D01*
G01X-4296102Y6243047D01*
G37*
G36*
G01X-7037840Y2192198D02*
G01X-7165838Y2192198D01*
G01X-7170839Y2197199D01*
G01X-7170839Y2312200D01*
G01X-7165838Y2317199D01*
G01X-7124835Y2317702D01*
G01X-7124835Y2272701D01*
G01X-7079836Y2272701D01*
G01X-7079836Y2316701D01*
G01X-7037840Y2317199D01*
G01X-7032838Y2312200D01*
G01X-7032838Y2197199D01*
G01X-7037840Y2192198D01*
G37*
G36*
G01X-7037840Y2407199D02*
G01X-7079836Y2407201D01*
G01X-7079836Y2451699D01*
G01X-7124835Y2451699D01*
G01X-7124835Y2407702D01*
G01X-7165838Y2407199D01*
G01X-7170839Y2412200D01*
G01X-7170839Y2527198D01*
G01X-7165838Y2532200D01*
G01X-7037840Y2532200D01*
G01X-7032838Y2527198D01*
G01X-7032838Y2412200D01*
G01X-7037840Y2407199D01*
G37*
G36*
G01X-7844710Y543621D02*
G01X-7972708Y543621D01*
G01X-7977709Y548622D01*
G01X-7977709Y663623D01*
G01X-7972708Y668622D01*
G01X-7931705Y669125D01*
G01X-7931705Y624123D01*
G01X-7886706Y624123D01*
G01X-7886706Y668124D01*
G01X-7844710Y668622D01*
G01X-7839709Y663623D01*
G01X-7839709Y548622D01*
G01X-7844710Y543621D01*
G37*
G36*
G01X-7844710Y758622D02*
G01X-7886706Y758624D01*
G01X-7886706Y803122D01*
G01X-7931705Y803122D01*
G01X-7931705Y759124D01*
G01X-7972708Y758622D01*
G01X-7977709Y763623D01*
G01X-7977709Y878621D01*
G01X-7972708Y883623D01*
G01X-7844710Y883623D01*
G01X-7839709Y878621D01*
G01X-7839709Y763623D01*
G01X-7844710Y758622D01*
G37*
G36*
G01X-8781753Y-2999360D02*
G01X-8909751Y-2999360D01*
G01X-8914752Y-2994358D01*
G01X-8914752Y-2879357D01*
G01X-8909751Y-2874358D01*
G01X-8868748Y-2873856D01*
G01X-8868748Y-2918857D01*
G01X-8823749Y-2918857D01*
G01X-8823749Y-2874856D01*
G01X-8781753Y-2874358D01*
G01X-8776752Y-2879357D01*
G01X-8776752Y-2994358D01*
G01X-8781753Y-2999360D01*
G37*
G36*
G01X-8781753Y-2784359D02*
G01X-8823749Y-2784356D01*
G01X-8823749Y-2739858D01*
G01X-8868748Y-2739858D01*
G01X-8868748Y-2783856D01*
G01X-8909751Y-2784359D01*
G01X-8914752Y-2779357D01*
G01X-8914752Y-2664359D01*
G01X-8909751Y-2659358D01*
G01X-8781753Y-2659358D01*
G01X-8776752Y-2664359D01*
G01X-8776752Y-2779357D01*
G01X-8781753Y-2784359D01*
G37*
G36*
G01X-7590020Y370662D02*
G01X-7462022Y370662D01*
G01X-7457021Y365661D01*
G01X-7457021Y250660D01*
G01X-7462022Y245661D01*
G01X-7503025Y245158D01*
G01X-7503025Y290159D01*
G01X-7548024Y290159D01*
G01X-7548024Y246159D01*
G01X-7590020Y245661D01*
G01X-7595022Y250660D01*
G01X-7595022Y365661D01*
G01X-7590020Y370662D01*
G37*
G36*
G01X-7590020Y155661D02*
G01X-7548024Y155659D01*
G01X-7548024Y111161D01*
G01X-7503025Y111161D01*
G01X-7503025Y155158D01*
G01X-7462022Y155661D01*
G01X-7457021Y150660D01*
G01X-7457021Y35662D01*
G01X-7462022Y30660D01*
G01X-7590020Y30660D01*
G01X-7595022Y35662D01*
G01X-7595022Y150660D01*
G01X-7590020Y155661D01*
G37*
G36*
G01X-4308501Y3892724D02*
G01X-4180502Y3892724D01*
G01X-4175501Y3887722D01*
G01X-4175501Y3772721D01*
G01X-4180502Y3767723D01*
G01X-4221506Y3767220D01*
G01X-4221506Y3812221D01*
G01X-4266504Y3812221D01*
G01X-4266504Y3768221D01*
G01X-4308501Y3767723D01*
G01X-4313502Y3772721D01*
G01X-4313502Y3887722D01*
G01X-4308501Y3892724D01*
G37*
G36*
G01X-4308501Y3677723D02*
G01X-4266504Y3677720D01*
G01X-4266504Y3633222D01*
G01X-4221506Y3633222D01*
G01X-4221506Y3677220D01*
G01X-4180502Y3677723D01*
G01X-4175501Y3672722D01*
G01X-4175501Y3557723D01*
G01X-4180502Y3552722D01*
G01X-4308501Y3552722D01*
G01X-4313502Y3557723D01*
G01X-4313502Y3672722D01*
G01X-4308501Y3677723D01*
G37*
G36*
G01X-3153744Y6185815D02*
G01X-3153744Y6313813D01*
G01X-3148742Y6318815D01*
G01X-3033741Y6318815D01*
G01X-3028743Y6313813D01*
G01X-3028240Y6272810D01*
G01X-3073241Y6272810D01*
G01X-3073241Y6227812D01*
G01X-3029241Y6227812D01*
G01X-3028743Y6185815D01*
G01X-3033741Y6180814D01*
G01X-3148742Y6180814D01*
G01X-3153744Y6185815D01*
G37*
G36*
G01X-2938743Y6185815D02*
G01X-2938740Y6227812D01*
G01X-2894242Y6227812D01*
G01X-2894242Y6272810D01*
G01X-2938240Y6272810D01*
G01X-2938743Y6313813D01*
G01X-2933742Y6318815D01*
G01X-2818743Y6318815D01*
G01X-2813742Y6313813D01*
G01X-2813742Y6185815D01*
G01X-2818743Y6180814D01*
G01X-2933742Y6180814D01*
G01X-2938743Y6185815D01*
G37*
G36*
G01X-7554998Y-696000D02*
G01X-7554998Y-823998D01*
G01X-7559999Y-828999D01*
G01X-7675000Y-828999D01*
G01X-7679999Y-823998D01*
G01X-7680502Y-782995D01*
G01X-7635501Y-782995D01*
G01X-7635501Y-737996D01*
G01X-7679501Y-737996D01*
G01X-7679999Y-696000D01*
G01X-7675000Y-690998D01*
G01X-7559999Y-690998D01*
G01X-7554998Y-696000D01*
G37*
G36*
G01X-7769999Y-696000D02*
G01X-7770001Y-737996D01*
G01X-7814499Y-737996D01*
G01X-7814499Y-782995D01*
G01X-7770502Y-782995D01*
G01X-7769999Y-823998D01*
G01X-7775000Y-828999D01*
G01X-7889998Y-828999D01*
G01X-7895000Y-823998D01*
G01X-7895000Y-696000D01*
G01X-7889998Y-690998D01*
G01X-7775000Y-690998D01*
G01X-7769999Y-696000D01*
G37*
G36*
G01X-4226636Y6366639D02*
G01X-4098637Y6366639D01*
G01X-4093636Y6361637D01*
G01X-4093636Y6246636D01*
G01X-4098637Y6241638D01*
G01X-4139641Y6241135D01*
G01X-4139641Y6286136D01*
G01X-4184639Y6286136D01*
G01X-4184639Y6242135D01*
G01X-4226636Y6241638D01*
G01X-4231637Y6246636D01*
G01X-4231637Y6361637D01*
G01X-4226636Y6366639D01*
G37*
G36*
G01X-4226636Y6151638D02*
G01X-4184639Y6151635D01*
G01X-4184639Y6107137D01*
G01X-4139641Y6107137D01*
G01X-4139641Y6151135D01*
G01X-4098637Y6151638D01*
G01X-4093636Y6146636D01*
G01X-4093636Y6031638D01*
G01X-4098637Y6026637D01*
G01X-4226636Y6026637D01*
G01X-4231637Y6031638D01*
G01X-4231637Y6146636D01*
G01X-4226636Y6151638D01*
G37*
G36*
G01X-4588286Y3556295D02*
G01X-4716284Y3556295D01*
G01X-4721285Y3561296D01*
G01X-4721285Y3676297D01*
G01X-4716284Y3681296D01*
G01X-4675281Y3681799D01*
G01X-4675281Y3636797D01*
G01X-4630282Y3636797D01*
G01X-4630282Y3680798D01*
G01X-4588286Y3681296D01*
G01X-4583285Y3676297D01*
G01X-4583285Y3561296D01*
G01X-4588286Y3556295D01*
G37*
G36*
G01X-4588286Y3771295D02*
G01X-4630282Y3771298D01*
G01X-4630282Y3815796D01*
G01X-4675281Y3815796D01*
G01X-4675281Y3771798D01*
G01X-4716284Y3771295D01*
G01X-4721285Y3776297D01*
G01X-4721285Y3891295D01*
G01X-4716284Y3896297D01*
G01X-4588286Y3896297D01*
G01X-4583285Y3891295D01*
G01X-4583285Y3776297D01*
G01X-4588286Y3771295D01*
G37*
G36*
G01X-7524453Y-2986660D02*
G01X-7652451Y-2986660D01*
G01X-7657452Y-2981658D01*
G01X-7657452Y-2866657D01*
G01X-7652451Y-2861658D01*
G01X-7611448Y-2861156D01*
G01X-7611448Y-2906157D01*
G01X-7566449Y-2906157D01*
G01X-7566449Y-2862156D01*
G01X-7524453Y-2861658D01*
G01X-7519452Y-2866657D01*
G01X-7519452Y-2981658D01*
G01X-7524453Y-2986660D01*
G37*
G36*
G01X-7524453Y-2771659D02*
G01X-7566449Y-2771656D01*
G01X-7566449Y-2727158D01*
G01X-7611448Y-2727158D01*
G01X-7611448Y-2771156D01*
G01X-7652451Y-2771659D01*
G01X-7657452Y-2766657D01*
G01X-7657452Y-2651659D01*
G01X-7652451Y-2646658D01*
G01X-7524453Y-2646658D01*
G01X-7519452Y-2651659D01*
G01X-7519452Y-2766657D01*
G01X-7524453Y-2771659D01*
G37*
G36*
G01X-4768634Y4153818D02*
G01X-4731608Y4153818D01*
G01X-4721608Y4143818D01*
G01X-4721608Y4113328D01*
G01X-4711608Y4103328D01*
G01X-4672858Y4103328D01*
G01X-4662858Y4113328D01*
G01X-4662858Y4143818D01*
G01X-4652858Y4153818D01*
G01X-4615832Y4153818D01*
G01X-4605832Y4143818D01*
G01X-4605832Y4015319D01*
G01X-4615832Y4005319D01*
G01X-4768634Y4005319D01*
G01X-4778634Y4015319D01*
G01X-4778634Y4143818D01*
G01X-4768634Y4153818D01*
G37*
G36*
G01X-4768634Y4323820D02*
G01X-4778634Y4333820D01*
G01X-4778634Y4462318D01*
G01X-4768634Y4472318D01*
G01X-4615832Y4472318D01*
G01X-4605832Y4462318D01*
G01X-4605832Y4333820D01*
G01X-4615832Y4323820D01*
G01X-4652858Y4323820D01*
G01X-4662858Y4333820D01*
G01X-4662858Y4364310D01*
G01X-4672858Y4374310D01*
G01X-4711608Y4374310D01*
G01X-4721608Y4364310D01*
G01X-4721608Y4333820D01*
G01X-4731608Y4323820D01*
G01X-4768634Y4323820D01*
G37*
G36*
G01X-3990679Y5849689D02*
G01X-3990679Y5977687D01*
G01X-3985678Y5982688D01*
G01X-3870677Y5982688D01*
G01X-3865678Y5977687D01*
G01X-3865175Y5936684D01*
G01X-3910177Y5936684D01*
G01X-3910177Y5891685D01*
G01X-3866176Y5891685D01*
G01X-3865678Y5849689D01*
G01X-3870677Y5844687D01*
G01X-3985678Y5844687D01*
G01X-3990679Y5849689D01*
G37*
G36*
G01X-3649684Y5977689D02*
G01X-3649684Y5849691D01*
G01X-3654686Y5844690D01*
G01X-3769687Y5844690D01*
G01X-3774685Y5849691D01*
G01X-3775188Y5890694D01*
G01X-3730187Y5890694D01*
G01X-3730187Y5935693D01*
G01X-3774188Y5935693D01*
G01X-3774685Y5977689D01*
G01X-3769687Y5982691D01*
G01X-3654686Y5982691D01*
G01X-3649684Y5977689D01*
G37*
G36*
G01X-3154502Y6387600D02*
G01X-3154502Y6515598D01*
G01X-3149501Y6520599D01*
G01X-3034500Y6520599D01*
G01X-3029501Y6515598D01*
G01X-3028998Y6474595D01*
G01X-3073999Y6474595D01*
G01X-3073999Y6429596D01*
G01X-3029999Y6429596D01*
G01X-3029501Y6387600D01*
G01X-3034500Y6382598D01*
G01X-3149501Y6382598D01*
G01X-3154502Y6387600D01*
G37*
G36*
G01X-2939501Y6387600D02*
G01X-2939499Y6429596D01*
G01X-2895001Y6429596D01*
G01X-2895001Y6474595D01*
G01X-2938998Y6474595D01*
G01X-2939501Y6515598D01*
G01X-2934500Y6520599D01*
G01X-2819502Y6520599D01*
G01X-2814500Y6515598D01*
G01X-2814500Y6387600D01*
G01X-2819502Y6382598D01*
G01X-2934500Y6382598D01*
G01X-2939501Y6387600D01*
G37*
G36*
G01X-4582731Y6369156D02*
G01X-4577729Y6374155D01*
G01X-4497730Y6374155D01*
G01X-4492731Y6369156D01*
G01X-4492731Y6289156D01*
G01X-4497730Y6284155D01*
G01X-4521933Y6284155D01*
G01X-4521933Y6321155D01*
G01X-4554933Y6321155D01*
G01X-4554933Y6284155D01*
G01X-4577729Y6284155D01*
G01X-4582731Y6289156D01*
G01X-4582731Y6369156D01*
G37*
G36*
G01X-4492733Y6130152D02*
G01X-4497735Y6125153D01*
G01X-4577735Y6125153D01*
G01X-4582733Y6130152D01*
G01X-4582733Y6210152D01*
G01X-4577735Y6215153D01*
G01X-4553531Y6215153D01*
G01X-4553531Y6178153D01*
G01X-4520531Y6178153D01*
G01X-4520531Y6215153D01*
G01X-4497735Y6215153D01*
G01X-4492733Y6210152D01*
G01X-4492733Y6130152D01*
G37*
G36*
G01X-3184619Y3578601D02*
G01X-3253720Y3578601D01*
G01X-3263720Y3588601D01*
G01X-3263720Y3612205D01*
G01X-3273720Y3622205D01*
G01X-3345520Y3622205D01*
G01X-3355520Y3612205D01*
G01X-3355520Y3588601D01*
G01X-3365520Y3578601D01*
G01X-3434621Y3578601D01*
G01X-3444621Y3588601D01*
G01X-3444621Y3696853D01*
G01X-3434621Y3706853D01*
G01X-3184619Y3706853D01*
G01X-3174619Y3696853D01*
G01X-3174619Y3588601D01*
G01X-3184619Y3578601D01*
G37*
G36*
G01X-3184619Y3228599D02*
G01X-3174619Y3218599D01*
G01X-3174619Y3110347D01*
G01X-3184619Y3100347D01*
G01X-3434621Y3100347D01*
G01X-3444621Y3110347D01*
G01X-3444621Y3218599D01*
G01X-3434621Y3228599D01*
G01X-3365520Y3228599D01*
G01X-3355520Y3218599D01*
G01X-3355520Y3194995D01*
G01X-3345520Y3184995D01*
G01X-3273720Y3184995D01*
G01X-3263720Y3194995D01*
G01X-3263720Y3218599D01*
G01X-3253720Y3228599D01*
G01X-3184619Y3228599D01*
G37*
G36*
G01X-4450258Y5075420D02*
G01X-4450258Y4947422D01*
G01X-4455259Y4942421D01*
G01X-4570260Y4942421D01*
G01X-4575259Y4947422D01*
G01X-4575762Y4988425D01*
G01X-4530761Y4988425D01*
G01X-4530761Y5033424D01*
G01X-4574761Y5033424D01*
G01X-4575259Y5075420D01*
G01X-4570260Y5080422D01*
G01X-4455259Y5080422D01*
G01X-4450258Y5075420D01*
G37*
G36*
G01X-4665259Y5075420D02*
G01X-4665261Y5033424D01*
G01X-4709759Y5033424D01*
G01X-4709759Y4988425D01*
G01X-4665762Y4988425D01*
G01X-4665259Y4947422D01*
G01X-4670260Y4942421D01*
G01X-4785258Y4942421D01*
G01X-4790260Y4947422D01*
G01X-4790260Y5075420D01*
G01X-4785258Y5080422D01*
G01X-4670260Y5080422D01*
G01X-4665259Y5075420D01*
G37*
G36*
G01X-6444455Y-1451329D02*
G01X-6439457Y-1456330D01*
G01X-6439457Y-1536330D01*
G01X-6444455Y-1541328D01*
G01X-6524455Y-1541328D01*
G01X-6529457Y-1536330D01*
G01X-6529457Y-1512126D01*
G01X-6492456Y-1512126D01*
G01X-6492456Y-1479126D01*
G01X-6529457Y-1479126D01*
G01X-6529457Y-1456330D01*
G01X-6524455Y-1451329D01*
G01X-6444455Y-1451329D01*
G37*
G36*
G01X-6683459Y-1541326D02*
G01X-6688458Y-1536325D01*
G01X-6688458Y-1456325D01*
G01X-6683459Y-1451326D01*
G01X-6603459Y-1451326D01*
G01X-6598458Y-1456325D01*
G01X-6598458Y-1480528D01*
G01X-6635458Y-1480528D01*
G01X-6635458Y-1513528D01*
G01X-6598458Y-1513528D01*
G01X-6598458Y-1536325D01*
G01X-6603459Y-1541326D01*
G01X-6683459Y-1541326D01*
G37*
G36*
G01X-1788500Y4322595D02*
G01X-1719399Y4322595D01*
G01X-1709399Y4312595D01*
G01X-1709399Y4277005D01*
G01X-1699399Y4267005D01*
G01X-1627598Y4267005D01*
G01X-1617598Y4277005D01*
G01X-1617598Y4312595D01*
G01X-1607599Y4322595D01*
G01X-1538498Y4322595D01*
G01X-1528498Y4312595D01*
G01X-1528498Y4169095D01*
G01X-1538498Y4159095D01*
G01X-1788500Y4159095D01*
G01X-1798500Y4169095D01*
G01X-1798500Y4312595D01*
G01X-1788500Y4322595D01*
G37*
G36*
G01X-1788500Y4462595D02*
G01X-1798500Y4472595D01*
G01X-1798500Y4616095D01*
G01X-1788500Y4626095D01*
G01X-1538498Y4626095D01*
G01X-1528498Y4616095D01*
G01X-1528498Y4472595D01*
G01X-1538498Y4462595D01*
G01X-1607599Y4462595D01*
G01X-1617598Y4472595D01*
G01X-1617598Y4508185D01*
G01X-1627598Y4518185D01*
G01X-1699399Y4518185D01*
G01X-1709399Y4508185D01*
G01X-1709399Y4472595D01*
G01X-1719399Y4462595D01*
G01X-1788500Y4462595D01*
G37*

G04 Pad Start*
G54D10*
G01X-8851156Y351083D03*
G01X-8711151Y351083D03*
G54D11*
G01X-3500480Y5957829D03*
G01X-3500480Y5817824D03*
G54D12*
G01X-8712764Y3911813D03*
G01X-9552767Y3911813D03*
G54D11*
G01X-9138920Y2429662D03*
G01X-9138920Y2289658D03*
G54D10*
G01X-7063176Y3358084D03*
G01X-6923171Y3358084D03*
G54D13*
G01X-9117543Y1977232D03*
G01X-9117543Y1137229D03*
G54D11*
G01X-6582287Y226825D03*
G01X-6582287Y86821D03*
G01X-5266567Y-296719D03*
G01X-5266567Y-156715D03*
G01X-6067990Y611589D03*
G01X-6067990Y751593D03*
G54D10*
G01X-8252151Y351083D03*
G01X-8392156Y351083D03*
G01X-9017051Y348183D03*
G01X-9157056Y348183D03*
G54D11*
G01X-8105413Y-897035D03*
G01X-8105413Y-1037040D03*
G01X-7008913Y-948035D03*
G01X-7008913Y-1088039D03*
G54D10*
G01X-8529650Y-1129088D03*
G01X-8669655Y-1129088D03*
G01X-8654355Y-1669689D03*
G01X-8514350Y-1669689D03*
G54D11*
G01X-8158953Y2885D03*
G01X-8158953Y-137119D03*
G54D10*
G01X-8414613Y-300818D03*
G01X-8274608Y-300818D03*
G01X-8415725Y-458918D03*
G01X-8275720Y-458918D03*
G54D11*
G01X-8106293Y-515026D03*
G01X-8106293Y-375021D03*
G01X-8434353Y611589D03*
G01X-8434353Y751593D03*
G54D10*
G01X-7537916Y-2369537D03*
G01X-7397911Y-2369537D03*
G54D11*
G01X-8660595Y-3005550D03*
G01X-8660595Y-2865545D03*
G01X-9381693Y743305D03*
G01X-9381693Y603300D03*
G01X-8187013Y-2189640D03*
G01X-8187013Y-2049635D03*
G01X-7049973Y-2287220D03*
G01X-7049973Y-2147215D03*
G54D10*
G01X-6629756Y-1899717D03*
G01X-6489751Y-1899717D03*
G54D11*
G01X-7400593Y-3001000D03*
G01X-7400593Y-2860995D03*
G54D10*
G01X-8252151Y182783D03*
G01X-8392156Y182783D03*
G54D11*
G01X-4477754Y4542143D03*
G01X-4477754Y4682148D03*
G54D10*
G01X-3527683Y4211400D03*
G01X-3387678Y4211400D03*
G01X-6629756Y-1681277D03*
G01X-6489751Y-1681277D03*
G01X-7808452Y-383317D03*
G01X-7948457Y-383317D03*
G54D14*
G01X-8984973Y-1795697D03*
G01X-8984973Y-1704257D03*
G01X-8984973Y-1541057D03*
G01X-8984973Y-1632497D03*
G01X-9084533Y-1796057D03*
G01X-9084533Y-1887497D03*
G01X-9084533Y-2050697D03*
G01X-9084533Y-1959257D03*
G54D15*
G01X-7751610Y4226763D03*
G01X-8438604Y4226763D03*
G54D16*
G01X-9685970Y2199640D03*
G01X-9358950Y2199640D03*
G54D18*
G01X-7660640Y3511870D03*
G01X-7660640Y3838890D03*
G54D19*
G01X-4042042Y-70180D03*
G01X-4522838Y-72060D03*
G54D20*
G01X-8649832Y-2717885D03*
G01X-8649832Y-3167872D03*
G01X-7882854Y-3167872D03*
G01X-7882854Y-2717885D03*
G01X-7386282Y-2706004D03*
G01X-7386282Y-3155990D03*
G01X-6619304Y-3155990D03*
G01X-6619304Y-2706004D03*
G54D21*
G01X-5076233Y348903D03*
G01X-5076919Y498702D03*
G01X-8997242Y-1087332D03*
G01X-9147041Y-1088018D03*
G01X-8101534Y751339D03*
G01X-8100849Y601540D03*
G01X-8963833Y164960D03*
G01X-8814034Y165646D03*
G54D22*
G01X-1689481Y1550518D03*
G01X-2689479Y1550518D03*
G01X-2189480Y-849478D03*
G54D23*
G01X-8403753Y27930D03*
G01X-8403753Y-162164D03*
G54D24*
G01X-5986821Y-375868D03*
G01X-5826928Y-376580D03*
G54D25*
G01X-9690379Y823302D03*
G01X-9540367Y823302D03*
G01X-9540367Y523303D03*
G01X-9690379Y523303D03*
G54D26*
G01X-7103982Y3224954D03*
G01X-7103982Y3034962D03*
G01X-6903982Y3129958D03*
G54D27*
G01X-7789722Y3244235D03*
G01X-8297722Y3244235D03*
G54D28*
G01X-8043722Y2198695D03*
G54D29*
G01X-4305462Y4491286D03*
G01X-4240464Y4491286D03*
G01X-4175465Y4491286D03*
G01X-4110467Y4491286D03*
G01X-4045468Y4491286D03*
G01X-3980469Y4491286D03*
G01X-3915471Y4491286D03*
G01X-3850472Y4491286D03*
G01X-3785448Y4491286D03*
G01X-3720450Y4491286D03*
G01X-3655451Y4491286D03*
G01X-3590452Y4491286D03*
G01X-3525454Y4491286D03*
G01X-3460455Y4491286D03*
G01X-4305462Y5065936D03*
G01X-4240464Y5065936D03*
G01X-4175465Y5065936D03*
G01X-4110467Y5065936D03*
G01X-4045468Y5065936D03*
G01X-3980469Y5065936D03*
G01X-3915471Y5065936D03*
G01X-3850472Y5065936D03*
G01X-3785448Y5065936D03*
G01X-3720450Y5065936D03*
G01X-3655451Y5065936D03*
G01X-3590452Y5065936D03*
G01X-3525454Y5065936D03*
G01X-3460455Y5065936D03*
G54D30*
G01X-3882959Y4778611D03*
G54D31*
G01X-7990819Y-993857D03*
G01X-7940806Y-993857D03*
G01X-7890819Y-993857D03*
G01X-7840807Y-993857D03*
G01X-7790819Y-993857D03*
G01X-7740807Y-993857D03*
G01X-7690820Y-993857D03*
G01X-7640807Y-993857D03*
G01X-7590820Y-993857D03*
G01X-7540807Y-993857D03*
G01X-7490820Y-993857D03*
G01X-7440807Y-993857D03*
G01X-7390820Y-993857D03*
G01X-7340808Y-993857D03*
G01X-7290820Y-993857D03*
G01X-7240808Y-993857D03*
G54D32*
G01X-7040834Y-1193831D03*
G01X-7040834Y-1243844D03*
G01X-7040834Y-1293831D03*
G01X-7040834Y-1343844D03*
G01X-7040834Y-1393831D03*
G01X-7040834Y-1443844D03*
G01X-7040834Y-1493831D03*
G01X-7040834Y-1543843D03*
G01X-7040834Y-1593831D03*
G01X-7040834Y-1643843D03*
G01X-7040834Y-1693830D03*
G01X-7040834Y-1743843D03*
G01X-7040834Y-1793830D03*
G01X-7040834Y-1843843D03*
G01X-7040834Y-1893830D03*
G01X-7040834Y-1943843D03*
G54D31*
G01X-7240808Y-2143817D03*
G01X-7290820Y-2143817D03*
G01X-7340808Y-2143817D03*
G01X-7390820Y-2143817D03*
G01X-7440807Y-2143817D03*
G01X-7490820Y-2143817D03*
G01X-7540807Y-2143817D03*
G01X-7590820Y-2143817D03*
G01X-7640807Y-2143817D03*
G01X-7690820Y-2143817D03*
G01X-7740807Y-2143817D03*
G01X-7790819Y-2143817D03*
G01X-7840807Y-2143817D03*
G01X-7890819Y-2143817D03*
G01X-7940806Y-2143817D03*
G01X-7990819Y-2143817D03*
G54D32*
G01X-8190793Y-1943843D03*
G01X-8190793Y-1893830D03*
G01X-8190793Y-1843843D03*
G01X-8190793Y-1793830D03*
G01X-8190793Y-1743843D03*
G01X-8190793Y-1693830D03*
G01X-8190793Y-1643843D03*
G01X-8190793Y-1593831D03*
G01X-8190793Y-1543843D03*
G01X-8190793Y-1493831D03*
G01X-8190793Y-1443844D03*
G01X-8190793Y-1393831D03*
G01X-8190793Y-1343844D03*
G01X-8190793Y-1293831D03*
G01X-8190793Y-1243844D03*
G01X-8190793Y-1193831D03*
G54D33*
G01X-8960513Y603815D03*
G01X-8960513Y698811D03*
G01X-8960513Y794010D03*
G01X-9219314Y794010D03*
G01X-9219314Y604018D03*
G54D34*
G01X-8578903Y793919D03*
G01X-8578903Y603927D03*
G01X-8838923Y603927D03*
G01X-8838923Y698923D03*
G01X-8838923Y793919D03*
G54D35*
G01X-7803857Y-222518D03*
G01X-7898853Y-222518D03*
G01X-7993849Y-222518D03*
G01X-7993849Y47484D03*
G01X-7898853Y47484D03*
G01X-7803857Y47484D03*
G54D36*
G01X-6166722Y-212511D03*
G01X-5566724Y-212511D03*
G01X-6166722Y-85511D03*
G01X-6166722Y41489D03*
G01X-6166722Y168489D03*
G01X-5566724Y-85511D03*
G01X-5566724Y41489D03*
G01X-5566724Y168489D03*
G54D37*
G01X-5866723Y-22011D03*
G54D16*
G01X-7203802Y3917625D03*
G01X-6876782Y3917625D03*
G54D38*
G01X-8674454Y-1289381D03*
G01X-8674454Y-1509396D03*
G01X-8504452Y-1509396D03*
G01X-8504452Y-1289381D03*
G54D39*
G01X-9274660Y-2235977D03*
G01X-9274660Y-1485991D03*
G01X-9274660Y-1610984D03*
G01X-9274660Y-1735978D03*
G01X-9274660Y-1860971D03*
G01X-9274660Y-1985990D03*
G01X-9274660Y-2110983D03*
G54D40*
G01X-9614664Y-1301003D03*
G01X-9614664Y-2420990D03*
G54D14*
G01X-9112673Y-2214797D03*
G01X-9112673Y-2123357D03*
G54D41*
G01X-7089303Y6601134D03*
G01X-9693906Y5817806D03*
G01X-9693906Y5532818D03*
G01X-9615166Y197294D03*
G01X-9693906Y5247830D03*
G01X-6109848Y6601134D03*
G01X-9693906Y4962842D03*
G01X-5097041Y-3173190D03*
G01X89639Y3670840D03*
G54D10*
G01X-4610098Y5211700D03*
G01X-4750103Y5211700D03*
G54D42*
G01X-9004973Y-589014D03*
G01X-9004973Y-335039D03*
G54D43*
G01X-9539973Y-909079D03*
G01X-9539973Y-15075D03*
G54D41*
G01X94719Y5102130D03*
G01X89639Y4148995D03*
G01X89639Y4625245D03*
G01X89639Y3194590D03*
G01X-3448072Y5439394D03*
G54D11*
G01X-4697752Y6319656D03*
G01X-4697752Y6179652D03*
G54D10*
G01X-5515458Y-939800D03*
G01X-5655462Y-939800D03*
G54D44*
G01X-2032121Y4028142D03*
G01X-2030242Y3547345D03*
G01X-3050760Y4755318D03*
G01X-3048881Y4274521D03*
G54D45*
G01X-5709920Y-1136091D03*
G01X-5582920Y-1136091D03*
G01X-5455920Y-1136091D03*
G01X-5709920Y-2176069D03*
G01X-5582920Y-2176069D03*
G01X-5455920Y-2176069D03*
G54D11*
G01X-3271520Y6453022D03*
G01X-3271520Y6313018D03*
G01X-4995914Y3833788D03*
G01X-4995914Y3693783D03*
G54D46*
G01X-7056073Y-230839D03*
G01X-7056073Y339162D03*
G04 Pad End*

M02*

