*
*
G04 PADS 9.4.1 Build Number: 494907 generated Gerber (RS-274-X) file*
G04 PC Version=2.1*
*
%IN "DC1831A-2.pcb"*%
*
%MOIN*%
*
%FSLAX35Y35*%
*
*
*
*
G04 PC Standard Apertures*
*
*
G04 Thermal Relief Aperture macro.*
%AMTER*
1,1,$1,0,0*
1,0,$1-$2,0,0*
21,0,$3,$4,0,0,45*
21,0,$3,$4,0,0,135*
%
*
*
G04 Annular Aperture macro.*
%AMANN*
1,1,$1,0,0*
1,0,$2,0,0*
%
*
*
G04 Odd Aperture macro.*
%AMODD*
1,1,$1,0,0*
1,0,$1-0.005,0,0*
%
*
*
G04 PC Custom Aperture Macros*
*
*
*
*
*
*
G04 PC Aperture Table*
*
%ADD011C,0.01*%
%ADD037R,0.06X0.1*%
%ADD043C,0.001*%
%ADD162C,0.006*%
%ADD174R,0.04803X0.02756*%
%ADD175R,0.02756X0.04803*%
%ADD186R,0.16535X0.07874*%
%ADD189R,0.125X0.15748*%
%ADD190R,0.125X0.07087*%
*
*
*
*
G04 PC Circuitry*
G04 Layer Name DC1831A-2.pcb - circuitry*
%LPD*%
*
*
G04 PC Custom Flashes*
G04 Layer Name DC1831A-2.pcb - flashes*
%LPD*%
*
*
G04 PC Circuitry*
G04 Layer Name DC1831A-2.pcb - circuitry*
%LPD*%
*
G54D11*
G01X2000700Y1480313D02*
Y1473750D01*
X2003427*
X2005473Y1480313D02*
Y1473750D01*
X2007518Y1480313D02*
Y1473750D01*
Y1480313D02*
X2010700Y1473750D01*
Y1480313D02*
Y1473750D01*
X2012745Y1480313D02*
Y1473750D01*
Y1480313D02*
X2015700D01*
X2012745Y1477188D02*
X2014564D01*
X2012745Y1473750D02*
X2015700D01*
X2019564Y1480313D02*
X2017745Y1473750D01*
X2019564Y1480313D02*
X2021382Y1473750D01*
X2018427Y1475938D02*
X2020700D01*
X2023427Y1480313D02*
Y1473750D01*
Y1480313D02*
X2025473D01*
X2025473D02*
X2026155Y1480000D01*
X2026382Y1479688*
X2026382D02*
X2026609Y1479063D01*
X2026609D02*
Y1478438D01*
X2026609D02*
X2026382Y1477813D01*
X2026382D02*
X2026155Y1477500D01*
X2025473Y1477188*
X2025473D02*
X2023427D01*
X2025018D02*
X2026609Y1473750D01*
X2035473Y1480313D02*
Y1473750D01*
X2033882Y1480313D02*
X2037064D01*
X2039109D02*
Y1473750D01*
Y1480313D02*
X2042064D01*
X2039109Y1477188D02*
X2040927D01*
X2039109Y1473750D02*
X2042064D01*
X2047518Y1478750D02*
X2047291Y1479375D01*
X2046836Y1480000*
X2046382Y1480313*
X2046382D02*
X2045473D01*
X2045473D02*
X2045018Y1480000D01*
X2044564Y1479375*
X2044336Y1478750*
X2044109Y1477813*
X2044109D02*
Y1476250D01*
X2044336Y1475313*
X2044336D02*
X2044564Y1474688D01*
X2044564D02*
X2045018Y1474063D01*
X2045018D02*
X2045473Y1473750D01*
X2046382*
X2046836Y1474063*
X2046836D02*
X2047291Y1474688D01*
X2047291D02*
X2047518Y1475313D01*
X2049564Y1480313D02*
Y1473750D01*
X2052745Y1480313D02*
Y1473750D01*
X2049564Y1477188D02*
X2052745D01*
X2054791Y1480313D02*
Y1473750D01*
Y1480313D02*
X2057973Y1473750D01*
Y1480313D02*
Y1473750D01*
X2061382Y1480313D02*
X2060927Y1480000D01*
X2060473Y1479375*
X2060245Y1478750*
X2060018Y1477813*
X2060018D02*
Y1476250D01*
X2060245Y1475313*
X2060245D02*
X2060473Y1474688D01*
X2060473D02*
X2060927Y1474063D01*
X2060927D02*
X2061382Y1473750D01*
X2062291*
X2062745Y1474063*
X2062745D02*
X2063200Y1474688D01*
X2063200D02*
X2063427Y1475313D01*
X2063427D02*
X2063655Y1476250D01*
Y1477813*
X2063655D02*
X2063427Y1478750D01*
X2063200Y1479375*
X2062745Y1480000*
X2062291Y1480313*
X2062291D02*
X2061382D01*
X2065700D02*
Y1473750D01*
X2068427*
X2071836Y1480313D02*
X2071382Y1480000D01*
X2070927Y1479375*
X2070700Y1478750*
X2070473Y1477813*
X2070473D02*
Y1476250D01*
X2070700Y1475313*
X2070700D02*
X2070927Y1474688D01*
X2070927D02*
X2071382Y1474063D01*
X2071382D02*
X2071836Y1473750D01*
X2072745*
X2073200Y1474063*
X2073200D02*
X2073655Y1474688D01*
X2073655D02*
X2073882Y1475313D01*
X2073882D02*
X2074109Y1476250D01*
Y1477813*
X2074109D02*
X2073882Y1478750D01*
X2073655Y1479375*
X2073200Y1480000*
X2072745Y1480313*
X2072745D02*
X2071836D01*
X2079564Y1478750D02*
X2079336Y1479375D01*
X2078882Y1480000*
X2078427Y1480313*
X2078427D02*
X2077518D01*
X2077518D02*
X2077064Y1480000D01*
X2076609Y1479375*
X2076382Y1478750*
X2076155Y1477813*
X2076155D02*
Y1476250D01*
X2076382Y1475313*
X2076382D02*
X2076609Y1474688D01*
X2076609D02*
X2077064Y1474063D01*
X2077064D02*
X2077518Y1473750D01*
X2078427*
X2078882Y1474063*
X2078882D02*
X2079336Y1474688D01*
X2079336D02*
X2079564Y1475313D01*
X2079564D02*
Y1476250D01*
X2078427D02*
X2079564D01*
X2081609Y1480313D02*
X2083427Y1477188D01*
X2083427D02*
Y1473750D01*
X2085245Y1480313D02*
X2083427Y1477188D01*
X2000700Y1467813D02*
Y1461250D01*
Y1467813D02*
X2002291D01*
X2002291D02*
X2002973Y1467500D01*
X2003427Y1466875*
X2003655Y1466250*
X2003882Y1465313*
X2003882D02*
Y1463750D01*
X2003655Y1462813*
X2003655D02*
X2003427Y1462188D01*
X2003427D02*
X2002973Y1461563D01*
X2002973D02*
X2002291Y1461250D01*
X2000700*
X2009336Y1466250D02*
X2009109Y1466875D01*
X2008655Y1467500*
X2008200Y1467813*
X2008200D02*
X2007291D01*
X2007291D02*
X2006836Y1467500D01*
X2006382Y1466875*
X2006155Y1466250*
X2005927Y1465313*
X2005927D02*
Y1463750D01*
X2006155Y1462813*
X2006155D02*
X2006382Y1462188D01*
X2006382D02*
X2006836Y1461563D01*
X2006836D02*
X2007291Y1461250D01*
X2008200*
X2008655Y1461563*
X2008655D02*
X2009109Y1462188D01*
X2009109D02*
X2009336Y1462813D01*
X2011382Y1466563D02*
X2011836Y1466875D01*
X2012518Y1467813*
X2012518D02*
Y1461250D01*
X2015700Y1467813D02*
X2015018Y1467500D01*
X2014791Y1466875*
Y1466250*
X2015018Y1465625*
X2015473Y1465313*
X2015473D02*
X2016382Y1465000D01*
X2017064Y1464688*
X2017064D02*
X2017518Y1464063D01*
X2017518D02*
X2017745Y1463438D01*
X2017745D02*
Y1462500D01*
X2017518Y1461875*
X2017291Y1461563*
X2017291D02*
X2016609Y1461250D01*
X2015700*
X2015018Y1461563*
X2015018D02*
X2014791Y1461875D01*
X2014564Y1462500*
Y1463438*
X2014564D02*
X2014791Y1464063D01*
X2014791D02*
X2015245Y1464688D01*
X2015245D02*
X2015927Y1465000D01*
X2016836Y1465313*
X2016836D02*
X2017291Y1465625D01*
X2017518Y1466250*
Y1466875*
X2017291Y1467500*
X2016609Y1467813*
X2016609D02*
X2015700D01*
X2020245D02*
X2022745D01*
X2022745D02*
X2021382Y1465313D01*
X2021382D02*
X2022064D01*
X2022064D02*
X2022518Y1465000D01*
X2022745Y1464688*
X2022745D02*
X2022973Y1463750D01*
Y1463125*
X2022745Y1462188*
X2022745D02*
X2022291Y1461563D01*
X2022291D02*
X2021609Y1461250D01*
X2020927*
X2020245Y1461563*
X2020245D02*
X2020018Y1461875D01*
X2019791Y1462500*
X2025018Y1466563D02*
X2025473Y1466875D01*
X2026155Y1467813*
X2026155D02*
Y1461250D01*
X2030018Y1467813D02*
X2028200Y1461250D01*
X2030018Y1467813D02*
X2031836Y1461250D01*
X2028882Y1463438D02*
X2031155D01*
X2033882Y1464063D02*
X2037973D01*
X2040245Y1466250D02*
Y1466563D01*
X2040245D02*
X2040473Y1467188D01*
X2040473D02*
X2040700Y1467500D01*
X2041155Y1467813*
X2041155D02*
X2042064D01*
X2042064D02*
X2042518Y1467500D01*
X2042745Y1467188*
X2042745D02*
X2042973Y1466563D01*
X2042973D02*
Y1465938D01*
X2042973D02*
X2042745Y1465313D01*
X2042745D02*
X2042291Y1464375D01*
X2040018Y1461250*
X2043200*
X2045245Y1464063D02*
X2049336D01*
X2051382Y1467813D02*
Y1461250D01*
X2054109*
X2057745Y1467813D02*
Y1461250D01*
X2056155Y1467813D02*
X2059336D01*
X2061836D02*
X2064336D01*
X2064336D02*
X2062973Y1465313D01*
X2062973D02*
X2063655D01*
X2063655D02*
X2064109Y1465000D01*
X2064336Y1464688*
X2064336D02*
X2064564Y1463750D01*
Y1463125*
X2064336Y1462188*
X2064336D02*
X2063882Y1461563D01*
X2063882D02*
X2063200Y1461250D01*
X2062518*
X2061836Y1461563*
X2061836D02*
X2061609Y1461875D01*
X2061382Y1462500*
X2069791Y1467813D02*
X2067518Y1461250D01*
X2066609Y1467813D02*
X2069791D01*
X2074564Y1466875D02*
X2074336Y1467500D01*
X2073655Y1467813*
X2073655D02*
X2073200D01*
X2073200D02*
X2072518Y1467500D01*
X2072064Y1466563*
X2072064D02*
X2071836Y1465000D01*
Y1463438*
X2071836D02*
X2072064Y1462188D01*
X2072064D02*
X2072518Y1461563D01*
X2072518D02*
X2073200Y1461250D01*
X2073427*
X2074109Y1461563*
X2074109D02*
X2074564Y1462188D01*
X2074564D02*
X2074791Y1463125D01*
Y1463438*
X2074791D02*
X2074564Y1464375D01*
X2074109Y1465000*
X2073427Y1465313*
X2073427D02*
X2073200D01*
X2073200D02*
X2072518Y1465000D01*
X2072064Y1464375*
X2071836Y1463438*
X2077291Y1467813D02*
X2079791D01*
X2079791D02*
X2078427Y1465313D01*
X2078427D02*
X2079109D01*
X2079109D02*
X2079564Y1465000D01*
X2079791Y1464688*
X2079791D02*
X2080018Y1463750D01*
Y1463125*
X2079791Y1462188*
X2079791D02*
X2079336Y1461563D01*
X2079336D02*
X2078655Y1461250D01*
X2077973*
X2077291Y1461563*
X2077291D02*
X2077064Y1461875D01*
X2076836Y1462500*
X2082064Y1467813D02*
Y1461250D01*
Y1467813D02*
X2085018D01*
X2082064Y1464688D02*
X2083882D01*
X2082064Y1461250D02*
X2085018D01*
X2087064Y1467813D02*
Y1461250D01*
Y1467813D02*
X2090018D01*
X2087064Y1464688D02*
X2088882D01*
X2092064Y1467813D02*
Y1461250D01*
Y1467813D02*
X2095018D01*
X2092064Y1464688D02*
X2093882D01*
X2092064Y1461250D02*
X2095018D01*
X2000700Y1416713D02*
Y1410150D01*
Y1416713D02*
X2002291D01*
X2002291D02*
X2002973Y1416400D01*
X2003427Y1415775*
X2003655Y1415150*
X2003882Y1414213*
X2003882D02*
Y1412650D01*
X2003655Y1411713*
X2003655D02*
X2003427Y1411088D01*
X2003427D02*
X2002973Y1410463D01*
X2002973D02*
X2002291Y1410150D01*
X2000700*
X2007745Y1416713D02*
X2005927Y1410150D01*
X2007745Y1416713D02*
X2009564Y1410150D01*
X2006609Y1412338D02*
X2008882D01*
X2013200Y1416713D02*
Y1410150D01*
X2011609Y1416713D02*
X2014791D01*
X2016836D02*
Y1410150D01*
Y1416713D02*
X2019791D01*
X2016836Y1413588D02*
X2018655D01*
X2016836Y1410150D02*
X2019791D01*
X2022064Y1414525D02*
X2021836Y1414213D01*
X2021836D02*
X2022064Y1413900D01*
X2022291Y1414213*
X2022291D02*
X2022064Y1414525D01*
Y1410775D02*
X2021836Y1410463D01*
X2021836D02*
X2022064Y1410150D01*
X2022291Y1410463*
X2022291D02*
X2022064Y1410775D01*
X2030927Y1416713D02*
X2030245Y1416400D01*
X2029791Y1415463*
X2029791D02*
X2029564Y1413900D01*
Y1412963*
X2029564D02*
X2029791Y1411400D01*
X2030245Y1410463*
X2030245D02*
X2030927Y1410150D01*
X2031382*
X2032064Y1410463*
X2032064D02*
X2032518Y1411400D01*
X2032745Y1412963*
X2032745D02*
Y1413900D01*
X2032518Y1415463*
X2032518D02*
X2032064Y1416400D01*
X2031382Y1416713*
X2031382D02*
X2030927D01*
X2037745Y1414525D02*
X2037518Y1413588D01*
X2037518D02*
X2037064Y1412963D01*
X2037064D02*
X2036382Y1412650D01*
X2036155*
X2035473Y1412963*
X2035473D02*
X2035018Y1413588D01*
X2035018D02*
X2034791Y1414525D01*
Y1414838*
X2034791D02*
X2035018Y1415775D01*
X2035473Y1416400*
X2036155Y1416713*
X2036155D02*
X2036382D01*
X2036382D02*
X2037064Y1416400D01*
X2037518Y1415775*
X2037745Y1414525*
Y1412963*
X2037745D02*
X2037518Y1411400D01*
X2037064Y1410463*
X2037064D02*
X2036382Y1410150D01*
X2035927*
X2035245Y1410463*
X2035245D02*
X2035018Y1411088D01*
X2039791Y1412963D02*
X2043882D01*
X2045927Y1415463D02*
X2046382Y1415775D01*
X2047064Y1416713*
X2047064D02*
Y1410150D01*
X2049109Y1415463D02*
X2049564Y1415775D01*
X2050245Y1416713*
X2050245D02*
Y1410150D01*
X2052291Y1412963D02*
X2056382D01*
X2058427Y1415463D02*
X2058882Y1415775D01*
X2059564Y1416713*
X2059564D02*
Y1410150D01*
X2061836Y1415150D02*
Y1415463D01*
X2061836D02*
X2062064Y1416088D01*
X2062064D02*
X2062291Y1416400D01*
X2062745Y1416713*
X2062745D02*
X2063655D01*
X2063655D02*
X2064109Y1416400D01*
X2064336Y1416088*
X2064336D02*
X2064564Y1415463D01*
X2064564D02*
Y1414838D01*
X2064564D02*
X2064336Y1414213D01*
X2064336D02*
X2063882Y1413275D01*
X2061609Y1410150*
X2064791*
X2000700Y1455313D02*
Y1448750D01*
X2003882Y1455313D02*
Y1448750D01*
X2000700Y1452188D02*
X2003882D01*
X2005927Y1455313D02*
Y1448750D01*
X2011382Y1453750D02*
X2011155Y1454375D01*
X2010700Y1455000*
X2010245Y1455313*
X2010245D02*
X2009336D01*
X2009336D02*
X2008882Y1455000D01*
X2008427Y1454375*
X2008200Y1453750*
X2007973Y1452813*
X2007973D02*
Y1451250D01*
X2008200Y1450313*
X2008200D02*
X2008427Y1449688D01*
X2008427D02*
X2008882Y1449063D01*
X2008882D02*
X2009336Y1448750D01*
X2010245*
X2010700Y1449063*
X2010700D02*
X2011155Y1449688D01*
X2011155D02*
X2011382Y1450313D01*
X2011382D02*
Y1451250D01*
X2010245D02*
X2011382D01*
X2013427Y1455313D02*
Y1448750D01*
X2016609Y1455313D02*
Y1448750D01*
X2013427Y1452188D02*
X2016609D01*
X2023882Y1455313D02*
Y1448750D01*
Y1455313D02*
X2025927D01*
X2025927D02*
X2026609Y1455000D01*
X2026836Y1454688*
X2026836D02*
X2027064Y1454063D01*
X2027064D02*
Y1453125D01*
X2026836Y1452500*
X2026609Y1452188*
X2026609D02*
X2025927Y1451875D01*
X2023882*
X2030473Y1455313D02*
X2030018Y1455000D01*
X2029564Y1454375*
X2029336Y1453750*
X2029109Y1452813*
X2029109D02*
Y1451250D01*
X2029336Y1450313*
X2029336D02*
X2029564Y1449688D01*
X2029564D02*
X2030018Y1449063D01*
X2030018D02*
X2030473Y1448750D01*
X2031382*
X2031836Y1449063*
X2031836D02*
X2032291Y1449688D01*
X2032291D02*
X2032518Y1450313D01*
X2032518D02*
X2032745Y1451250D01*
Y1452813*
X2032745D02*
X2032518Y1453750D01*
X2032291Y1454375*
X2031836Y1455000*
X2031382Y1455313*
X2031382D02*
X2030473D01*
X2034791D02*
X2035927Y1448750D01*
X2037064Y1455313D02*
X2035927Y1448750D01*
X2037064Y1455313D02*
X2038200Y1448750D01*
X2039336Y1455313D02*
X2038200Y1448750D01*
X2041382Y1455313D02*
Y1448750D01*
Y1455313D02*
X2044336D01*
X2041382Y1452188D02*
X2043200D01*
X2041382Y1448750D02*
X2044336D01*
X2046382Y1455313D02*
Y1448750D01*
Y1455313D02*
X2048427D01*
X2048427D02*
X2049109Y1455000D01*
X2049336Y1454688*
X2049336D02*
X2049564Y1454063D01*
X2049564D02*
Y1453438D01*
X2049564D02*
X2049336Y1452813D01*
X2049336D02*
X2049109Y1452500D01*
X2048427Y1452188*
X2048427D02*
X2046382D01*
X2047973D02*
X2049564Y1448750D01*
X2060245Y1453750D02*
X2060018Y1454375D01*
X2059564Y1455000*
X2059109Y1455313*
X2059109D02*
X2058200D01*
X2058200D02*
X2057745Y1455000D01*
X2057291Y1454375*
X2057064Y1453750*
X2056836Y1452813*
X2056836D02*
Y1451250D01*
X2057064Y1450313*
X2057064D02*
X2057291Y1449688D01*
X2057291D02*
X2057745Y1449063D01*
X2057745D02*
X2058200Y1448750D01*
X2059109*
X2059564Y1449063*
X2059564D02*
X2060018Y1449688D01*
X2060018D02*
X2060245Y1450313D01*
X2063655Y1455313D02*
X2063200Y1455000D01*
X2062745Y1454375*
X2062518Y1453750*
X2062291Y1452813*
X2062291D02*
Y1451250D01*
X2062518Y1450313*
X2062518D02*
X2062745Y1449688D01*
X2062745D02*
X2063200Y1449063D01*
X2063200D02*
X2063655Y1448750D01*
X2064564*
X2065018Y1449063*
X2065018D02*
X2065473Y1449688D01*
X2065473D02*
X2065700Y1450313D01*
X2065700D02*
X2065927Y1451250D01*
Y1452813*
X2065927D02*
X2065700Y1453750D01*
X2065473Y1454375*
X2065018Y1455000*
X2064564Y1455313*
X2064564D02*
X2063655D01*
X2067973D02*
Y1448750D01*
Y1455313D02*
X2071155Y1448750D01*
Y1455313D02*
Y1448750D01*
X2076382Y1454375D02*
X2075927Y1455000D01*
X2075245Y1455313*
X2075245D02*
X2074336D01*
X2074336D02*
X2073655Y1455000D01*
X2073200Y1454375*
Y1453750*
X2073427Y1453125*
X2073655Y1452813*
X2073655D02*
X2074109Y1452500D01*
X2075473Y1451875*
X2075927Y1451563*
X2075927D02*
X2076155Y1451250D01*
X2076382Y1450625*
Y1449688*
X2076382D02*
X2075927Y1449063D01*
X2075927D02*
X2075245Y1448750D01*
X2074336*
X2073655Y1449063*
X2073655D02*
X2073200Y1449688D01*
X2080018Y1455313D02*
Y1448750D01*
X2078427Y1455313D02*
X2081609D01*
X2085473D02*
X2083655Y1448750D01*
X2085473Y1455313D02*
X2087291Y1448750D01*
X2084336Y1450938D02*
X2086609D01*
X2089336Y1455313D02*
Y1448750D01*
Y1455313D02*
X2092518Y1448750D01*
Y1455313D02*
Y1448750D01*
X2096155Y1455313D02*
Y1448750D01*
X2094564Y1455313D02*
X2097745D01*
X2108427Y1453750D02*
X2108200Y1454375D01*
X2107745Y1455000*
X2107291Y1455313*
X2107291D02*
X2106382D01*
X2106382D02*
X2105927Y1455000D01*
X2105473Y1454375*
X2105245Y1453750*
X2105018Y1452813*
X2105018D02*
Y1451250D01*
X2105245Y1450313*
X2105245D02*
X2105473Y1449688D01*
X2105473D02*
X2105927Y1449063D01*
X2105927D02*
X2106382Y1448750D01*
X2107291*
X2107745Y1449063*
X2107745D02*
X2108200Y1449688D01*
X2108200D02*
X2108427Y1450313D01*
X2110473Y1455313D02*
Y1450625D01*
X2110700Y1449688*
X2110700D02*
X2111155Y1449063D01*
X2111155D02*
X2111836Y1448750D01*
X2112291*
X2112973Y1449063*
X2112973D02*
X2113427Y1449688D01*
X2113427D02*
X2113655Y1450625D01*
Y1455313*
X2115700D02*
Y1448750D01*
Y1455313D02*
X2117745D01*
X2117745D02*
X2118427Y1455000D01*
X2118655Y1454688*
X2118655D02*
X2118882Y1454063D01*
X2118882D02*
Y1453438D01*
X2118882D02*
X2118655Y1452813D01*
X2118655D02*
X2118427Y1452500D01*
X2117745Y1452188*
X2117745D02*
X2115700D01*
X2117291D02*
X2118882Y1448750D01*
X2120927Y1455313D02*
Y1448750D01*
Y1455313D02*
X2122973D01*
X2122973D02*
X2123655Y1455000D01*
X2123882Y1454688*
X2123882D02*
X2124109Y1454063D01*
X2124109D02*
Y1453438D01*
X2124109D02*
X2123882Y1452813D01*
X2123882D02*
X2123655Y1452500D01*
X2122973Y1452188*
X2122973D02*
X2120927D01*
X2122518D02*
X2124109Y1448750D01*
X2126155Y1455313D02*
Y1448750D01*
Y1455313D02*
X2129109D01*
X2126155Y1452188D02*
X2127973D01*
X2126155Y1448750D02*
X2129109D01*
X2131155Y1455313D02*
Y1448750D01*
Y1455313D02*
X2134336Y1448750D01*
Y1455313D02*
Y1448750D01*
X2137973Y1455313D02*
Y1448750D01*
X2136382Y1455313D02*
X2139564D01*
X2003009Y1441150D02*
X2002782Y1441775D01*
X2002327Y1442400*
X2001873Y1442713*
X2001873D02*
X2000964D01*
X2000964D02*
X2000509Y1442400D01*
X2000055Y1441775*
X1999827Y1441150*
X1999600Y1440213*
X1999600D02*
Y1438650D01*
X1999827Y1437713*
X1999827D02*
X2000055Y1437088D01*
X2000055D02*
X2000509Y1436463D01*
X2000509D02*
X2000964Y1436150D01*
X2001873*
X2002327Y1436463*
X2002327D02*
X2002782Y1437088D01*
X2002782D02*
X2003009Y1437713D01*
X2006418Y1442713D02*
X2005964Y1442400D01*
X2005509Y1441775*
X2005282Y1441150*
X2005055Y1440213*
X2005055D02*
Y1438650D01*
X2005282Y1437713*
X2005282D02*
X2005509Y1437088D01*
X2005509D02*
X2005964Y1436463D01*
X2005964D02*
X2006418Y1436150D01*
X2007327*
X2007782Y1436463*
X2007782D02*
X2008236Y1437088D01*
X2008236D02*
X2008464Y1437713D01*
X2008464D02*
X2008691Y1438650D01*
Y1440213*
X2008691D02*
X2008464Y1441150D01*
X2008236Y1441775*
X2007782Y1442400*
X2007327Y1442713*
X2007327D02*
X2006418D01*
X2010736D02*
Y1436150D01*
Y1442713D02*
X2013918Y1436150D01*
Y1442713D02*
Y1436150D01*
X2019145Y1441775D02*
X2018691Y1442400D01*
X2018009Y1442713*
X2018009D02*
X2017100D01*
X2017100D02*
X2016418Y1442400D01*
X2015964Y1441775*
Y1441150*
X2016191Y1440525*
X2016418Y1440213*
X2016418D02*
X2016873Y1439900D01*
X2018236Y1439275*
X2018691Y1438963*
X2018691D02*
X2018918Y1438650D01*
X2019145Y1438025*
Y1437088*
X2019145D02*
X2018691Y1436463D01*
X2018691D02*
X2018009Y1436150D01*
X2017100*
X2016418Y1436463*
X2016418D02*
X2015964Y1437088D01*
X2022782Y1442713D02*
Y1436150D01*
X2021191Y1442713D02*
X2024373D01*
X2028236D02*
X2026418Y1436150D01*
X2028236Y1442713D02*
X2030055Y1436150D01*
X2027100Y1438338D02*
X2029373D01*
X2032100Y1442713D02*
Y1436150D01*
Y1442713D02*
X2035282Y1436150D01*
Y1442713D02*
Y1436150D01*
X2038918Y1442713D02*
Y1436150D01*
X2037327Y1442713D02*
X2040509D01*
X2047782D02*
X2049600Y1436150D01*
X2051418Y1442713D02*
X2049600Y1436150D01*
X2054827Y1442713D02*
X2054373Y1442400D01*
X2053918Y1441775*
X2053691Y1441150*
X2053464Y1440213*
X2053464D02*
Y1438650D01*
X2053691Y1437713*
X2053691D02*
X2053918Y1437088D01*
X2053918D02*
X2054373Y1436463D01*
X2054373D02*
X2054827Y1436150D01*
X2055736*
X2056191Y1436463*
X2056191D02*
X2056645Y1437088D01*
X2056645D02*
X2056873Y1437713D01*
X2056873D02*
X2057100Y1438650D01*
Y1440213*
X2057100D02*
X2056873Y1441150D01*
X2056645Y1441775*
X2056191Y1442400*
X2055736Y1442713*
X2055736D02*
X2054827D01*
X2059145D02*
Y1436150D01*
X2061873*
X2065509Y1442713D02*
Y1436150D01*
X2063918Y1442713D02*
X2067100D01*
X2070964D02*
X2069145Y1436150D01*
X2070964Y1442713D02*
X2072782Y1436150D01*
X2069827Y1438338D02*
X2072100D01*
X2078236Y1441150D02*
X2078009Y1441775D01*
X2077555Y1442400*
X2077100Y1442713*
X2077100D02*
X2076191D01*
X2076191D02*
X2075736Y1442400D01*
X2075282Y1441775*
X2075055Y1441150*
X2074827Y1440213*
X2074827D02*
Y1438650D01*
X2075055Y1437713*
X2075055D02*
X2075282Y1437088D01*
X2075282D02*
X2075736Y1436463D01*
X2075736D02*
X2076191Y1436150D01*
X2077100*
X2077555Y1436463*
X2077555D02*
X2078009Y1437088D01*
X2078009D02*
X2078236Y1437713D01*
X2078236D02*
Y1438650D01*
X2077100D02*
X2078236D01*
X2080282Y1442713D02*
Y1436150D01*
Y1442713D02*
X2083236D01*
X2080282Y1439588D02*
X2082100D01*
X2080282Y1436150D02*
X2083236D01*
X2085736Y1436463D02*
X2085509Y1436150D01*
X2085282Y1436463*
X2085282D02*
X2085509Y1436775D01*
X2085736Y1436463*
X2085736D02*
Y1435837D01*
X2085736D02*
X2085509Y1435212D01*
X2085509D02*
X2085282Y1434900D01*
X2002782Y1428275D02*
X2002327Y1428900D01*
X2001645Y1429213*
X2001645D02*
X2000736D01*
X2000736D02*
X2000055Y1428900D01*
X1999600Y1428275*
Y1427650*
X1999827Y1427025*
X2000055Y1426713*
X2000055D02*
X2000509Y1426400D01*
X2001873Y1425775*
X2002327Y1425463*
X2002327D02*
X2002555Y1425150D01*
X2002782Y1424525*
Y1423588*
X2002782D02*
X2002327Y1422963D01*
X2002327D02*
X2001645Y1422650D01*
X2000736*
X2000055Y1422963*
X2000055D02*
X1999600Y1423588D01*
X2004827Y1429213D02*
X2006645Y1426088D01*
X2006645D02*
Y1422650D01*
X2008464Y1429213D02*
X2006645Y1426088D01*
X2010509Y1429213D02*
Y1422650D01*
Y1429213D02*
X2013691Y1422650D01*
Y1429213D02*
Y1422650D01*
X2019145Y1427650D02*
X2018918Y1428275D01*
X2018464Y1428900*
X2018009Y1429213*
X2018009D02*
X2017100D01*
X2017100D02*
X2016645Y1428900D01*
X2016191Y1428275*
X2015964Y1427650*
X2015736Y1426713*
X2015736D02*
Y1425150D01*
X2015964Y1424213*
X2015964D02*
X2016191Y1423588D01*
X2016191D02*
X2016645Y1422963D01*
X2016645D02*
X2017100Y1422650D01*
X2018009*
X2018464Y1422963*
X2018464D02*
X2018918Y1423588D01*
X2018918D02*
X2019145Y1424213D01*
X2021191Y1429213D02*
Y1422650D01*
X2024373Y1429213D02*
Y1422650D01*
X2021191Y1426088D02*
X2024373D01*
X2026418Y1429213D02*
Y1422650D01*
Y1429213D02*
X2028464D01*
X2028464D02*
X2029145Y1428900D01*
X2029373Y1428588*
X2029373D02*
X2029600Y1427963D01*
X2029600D02*
Y1427338D01*
X2029600D02*
X2029373Y1426713D01*
X2029373D02*
X2029145Y1426400D01*
X2028464Y1426088*
X2028464D02*
X2026418D01*
X2028009D02*
X2029600Y1422650D01*
X2033009Y1429213D02*
X2032555Y1428900D01*
X2032100Y1428275*
X2031873Y1427650*
X2031645Y1426713*
X2031645D02*
Y1425150D01*
X2031873Y1424213*
X2031873D02*
X2032100Y1423588D01*
X2032100D02*
X2032555Y1422963D01*
X2032555D02*
X2033009Y1422650D01*
X2033918*
X2034373Y1422963*
X2034373D02*
X2034827Y1423588D01*
X2034827D02*
X2035055Y1424213D01*
X2035055D02*
X2035282Y1425150D01*
Y1426713*
X2035282D02*
X2035055Y1427650D01*
X2034827Y1428275*
X2034373Y1428900*
X2033918Y1429213*
X2033918D02*
X2033009D01*
X2037327D02*
Y1422650D01*
Y1429213D02*
X2040509Y1422650D01*
Y1429213D02*
Y1422650D01*
X2043918Y1429213D02*
X2043464Y1428900D01*
X2043009Y1428275*
X2042782Y1427650*
X2042555Y1426713*
X2042555D02*
Y1425150D01*
X2042782Y1424213*
X2042782D02*
X2043009Y1423588D01*
X2043009D02*
X2043464Y1422963D01*
X2043464D02*
X2043918Y1422650D01*
X2044827*
X2045282Y1422963*
X2045282D02*
X2045736Y1423588D01*
X2045736D02*
X2045964Y1424213D01*
X2045964D02*
X2046191Y1425150D01*
Y1426713*
X2046191D02*
X2045964Y1427650D01*
X2045736Y1428275*
X2045282Y1428900*
X2044827Y1429213*
X2044827D02*
X2043918D01*
X2048236D02*
Y1424525D01*
X2048464Y1423588*
X2048464D02*
X2048918Y1422963D01*
X2048918D02*
X2049600Y1422650D01*
X2050055*
X2050736Y1422963*
X2050736D02*
X2051191Y1423588D01*
X2051191D02*
X2051418Y1424525D01*
Y1429213*
X2056645Y1428275D02*
X2056191Y1428900D01*
X2055509Y1429213*
X2055509D02*
X2054600D01*
X2054600D02*
X2053918Y1428900D01*
X2053464Y1428275*
Y1427650*
X2053691Y1427025*
X2053918Y1426713*
X2053918D02*
X2054373Y1426400D01*
X2055736Y1425775*
X2056191Y1425463*
X2056191D02*
X2056418Y1425150D01*
X2056645Y1424525*
Y1423588*
X2056645D02*
X2056191Y1422963D01*
X2056191D02*
X2055509Y1422650D01*
X2054600*
X2053918Y1422963*
X2053918D02*
X2053464Y1423588D01*
X2063918Y1429213D02*
Y1422650D01*
Y1429213D02*
X2065964D01*
X2065964D02*
X2066645Y1428900D01*
X2066873Y1428588*
X2066873D02*
X2067100Y1427963D01*
X2067100D02*
Y1427338D01*
X2067100D02*
X2066873Y1426713D01*
X2066873D02*
X2066645Y1426400D01*
X2065964Y1426088*
X2063918D02*
X2065964D01*
X2065964D02*
X2066645Y1425775D01*
X2066873Y1425463*
X2066873D02*
X2067100Y1424838D01*
X2067100D02*
Y1423900D01*
X2066873Y1423275*
X2066645Y1422963*
X2066645D02*
X2065964Y1422650D01*
X2063918*
X2069145Y1429213D02*
Y1424525D01*
X2069373Y1423588*
X2069373D02*
X2069827Y1422963D01*
X2069827D02*
X2070509Y1422650D01*
X2070964*
X2071645Y1422963*
X2071645D02*
X2072100Y1423588D01*
X2072100D02*
X2072327Y1424525D01*
Y1429213*
X2077782Y1427650D02*
X2077555Y1428275D01*
X2077100Y1428900*
X2076645Y1429213*
X2076645D02*
X2075736D01*
X2075736D02*
X2075282Y1428900D01*
X2074827Y1428275*
X2074600Y1427650*
X2074373Y1426713*
X2074373D02*
Y1425150D01*
X2074600Y1424213*
X2074600D02*
X2074827Y1423588D01*
X2074827D02*
X2075282Y1422963D01*
X2075282D02*
X2075736Y1422650D01*
X2076645*
X2077100Y1422963*
X2077100D02*
X2077555Y1423588D01*
X2077555D02*
X2077782Y1424213D01*
X2079827Y1429213D02*
Y1422650D01*
X2083009Y1429213D02*
X2079827Y1424838D01*
X2080964Y1426400D02*
X2083009Y1422650D01*
X2093691Y1427650D02*
X2093464Y1428275D01*
X2093009Y1428900*
X2092555Y1429213*
X2092555D02*
X2091645D01*
X2091645D02*
X2091191Y1428900D01*
X2090736Y1428275*
X2090509Y1427650*
X2090282Y1426713*
X2090282D02*
Y1425150D01*
X2090509Y1424213*
X2090509D02*
X2090736Y1423588D01*
X2090736D02*
X2091191Y1422963D01*
X2091191D02*
X2091645Y1422650D01*
X2092555*
X2093009Y1422963*
X2093009D02*
X2093464Y1423588D01*
X2093464D02*
X2093691Y1424213D01*
X2097100Y1429213D02*
X2096645Y1428900D01*
X2096191Y1428275*
X2095964Y1427650*
X2095736Y1426713*
X2095736D02*
Y1425150D01*
X2095964Y1424213*
X2095964D02*
X2096191Y1423588D01*
X2096191D02*
X2096645Y1422963D01*
X2096645D02*
X2097100Y1422650D01*
X2098009*
X2098464Y1422963*
X2098464D02*
X2098918Y1423588D01*
X2098918D02*
X2099145Y1424213D01*
X2099145D02*
X2099373Y1425150D01*
Y1426713*
X2099373D02*
X2099145Y1427650D01*
X2098918Y1428275*
X2098464Y1428900*
X2098009Y1429213*
X2098009D02*
X2097100D01*
X2101418D02*
Y1422650D01*
Y1429213D02*
X2104600Y1422650D01*
Y1429213D02*
Y1422650D01*
X2108236Y1429213D02*
Y1422650D01*
X2106645Y1429213D02*
X2109827D01*
X2111873D02*
Y1422650D01*
Y1429213D02*
X2113918D01*
X2113918D02*
X2114600Y1428900D01*
X2114827Y1428588*
X2114827D02*
X2115055Y1427963D01*
X2115055D02*
Y1427338D01*
X2115055D02*
X2114827Y1426713D01*
X2114827D02*
X2114600Y1426400D01*
X2113918Y1426088*
X2113918D02*
X2111873D01*
X2113464D02*
X2115055Y1422650D01*
X2118464Y1429213D02*
X2118009Y1428900D01*
X2117555Y1428275*
X2117327Y1427650*
X2117100Y1426713*
X2117100D02*
Y1425150D01*
X2117327Y1424213*
X2117327D02*
X2117555Y1423588D01*
X2117555D02*
X2118009Y1422963D01*
X2118009D02*
X2118464Y1422650D01*
X2119373*
X2119827Y1422963*
X2119827D02*
X2120282Y1423588D01*
X2120282D02*
X2120509Y1424213D01*
X2120509D02*
X2120736Y1425150D01*
Y1426713*
X2120736D02*
X2120509Y1427650D01*
X2120282Y1428275*
X2119827Y1428900*
X2119373Y1429213*
X2119373D02*
X2118464D01*
X2122782D02*
Y1422650D01*
X2125509*
X2127555Y1429213D02*
Y1422650D01*
X2130282*
X2132327Y1429213D02*
Y1422650D01*
Y1429213D02*
X2135282D01*
X2132327Y1426088D02*
X2134145D01*
X2132327Y1422650D02*
X2135282D01*
X2137327Y1429213D02*
Y1422650D01*
Y1429213D02*
X2139373D01*
X2139373D02*
X2140055Y1428900D01*
X2140282Y1428588*
X2140282D02*
X2140509Y1427963D01*
X2140509D02*
Y1427338D01*
X2140509D02*
X2140282Y1426713D01*
X2140282D02*
X2140055Y1426400D01*
X2139373Y1426088*
X2139373D02*
X2137327D01*
X2138918D02*
X2140509Y1422650D01*
X1929000Y1479600D02*
Y1474350D01*
Y1479600D02*
X1930636D01*
X1931182Y1479350*
X1931364Y1479100*
X1931545Y1478600*
Y1478100*
X1931364Y1477600*
X1931182Y1477350*
X1930636Y1477100*
X1929000D02*
X1930636D01*
X1931182Y1476850*
X1931364Y1476600*
X1931545Y1476100*
Y1475350*
X1931364Y1474850*
X1931182Y1474600*
X1930636Y1474350*
X1929000*
X1934455Y1479600D02*
Y1474350D01*
X1933182Y1479600D02*
X1935727D01*
X1938636D02*
Y1474350D01*
X1937364Y1479600D02*
X1939909D01*
X1941545D02*
Y1474350D01*
Y1479600D02*
X1943000Y1474350D01*
X1944455Y1479600D02*
X1943000Y1474350D01*
X1944455Y1479600D02*
Y1474350D01*
X1950273Y1479600D02*
Y1474350D01*
Y1479600D02*
X1951909D01*
X1952455Y1479350*
X1952636Y1479100*
X1952818Y1478600*
Y1477850*
X1952636Y1477350*
X1952455Y1477100*
X1951909Y1476850*
X1950273*
X1955909Y1479600D02*
X1954455Y1474350D01*
X1955909Y1479600D02*
X1957364Y1474350D01*
X1955000Y1476100D02*
X1956818D01*
X1961545Y1478850D02*
X1961182Y1479350D01*
X1960636Y1479600*
X1959909*
X1959364Y1479350*
X1959000Y1478850*
Y1478350*
X1959182Y1477850*
X1959364Y1477600*
X1959727Y1477350*
X1960818Y1476850*
X1961182Y1476600*
X1961364Y1476350*
X1961545Y1475850*
Y1475100*
X1961182Y1474600*
X1960636Y1474350*
X1959909*
X1959364Y1474600*
X1959000Y1475100*
X1964455Y1479600D02*
Y1474350D01*
X1963182Y1479600D02*
X1965727D01*
X1967364D02*
Y1474350D01*
Y1479600D02*
X1969727D01*
X1967364Y1477100D02*
X1968818D01*
X1967364Y1474350D02*
X1969727D01*
X1850000Y1489850D02*
Y1789850D01*
X2150000*
Y1489850*
X1850000*
G54D37*
X1930750Y1686350D03*
X1944250D03*
X1930750Y1671850D03*
X1944250D03*
G54D43*
G54D162*
X1922000Y1642776D02*
Y1657924D01*
X1938109*
Y1642776*
X1922000*
Y1657924*
X1922300Y1642776D02*
Y1657924D01*
X1922600Y1642776D02*
Y1657924D01*
X1922900Y1642776D02*
Y1657924D01*
X1923200Y1642776D02*
Y1657924D01*
X1923500Y1642776D02*
Y1657924D01*
X1923800Y1642776D02*
Y1657924D01*
X1924100Y1642776D02*
Y1657924D01*
X1924400Y1642776D02*
Y1657924D01*
X1924700Y1642776D02*
Y1657924D01*
X1925000Y1642776D02*
Y1657924D01*
X1925300Y1642776D02*
Y1657924D01*
X1925600Y1642776D02*
Y1657924D01*
X1925900Y1642776D02*
Y1657924D01*
X1926200Y1642776D02*
Y1657924D01*
X1926500Y1642776D02*
Y1657924D01*
X1926800Y1642776D02*
Y1657924D01*
X1927100Y1642776D02*
Y1657924D01*
X1927400Y1642776D02*
Y1657924D01*
X1927700Y1642776D02*
Y1657924D01*
X1928000Y1642776D02*
Y1657924D01*
X1928300Y1642776D02*
Y1657924D01*
X1928600Y1642776D02*
Y1657924D01*
X1928900Y1642776D02*
Y1657924D01*
X1929200Y1642776D02*
Y1657924D01*
X1929500Y1642776D02*
Y1657924D01*
X1929800Y1642776D02*
Y1657924D01*
X1930100Y1642776D02*
Y1657924D01*
X1930400Y1642776D02*
Y1657924D01*
X1930700Y1642776D02*
Y1657924D01*
X1931000Y1642776D02*
Y1657924D01*
X1931300Y1642776D02*
Y1657924D01*
X1931600Y1642776D02*
Y1657924D01*
X1931900Y1642776D02*
Y1657924D01*
X1932200Y1642776D02*
Y1657924D01*
X1932500Y1642776D02*
Y1657924D01*
X1932800Y1642776D02*
Y1657924D01*
X1933100Y1642776D02*
Y1657924D01*
X1933400Y1642776D02*
Y1657924D01*
X1933700Y1642776D02*
Y1657924D01*
X1934000Y1642776D02*
Y1657924D01*
X1934300Y1642776D02*
Y1657924D01*
X1934600Y1642776D02*
Y1657924D01*
X1934900Y1642776D02*
Y1657924D01*
X1935200Y1642776D02*
Y1657924D01*
X1935500Y1642776D02*
Y1657924D01*
X1935800Y1642776D02*
Y1657924D01*
X1936100Y1642776D02*
Y1657924D01*
X1936400Y1642776D02*
Y1657924D01*
X1936700Y1642776D02*
Y1657924D01*
X1937000Y1642776D02*
Y1657924D01*
X1937300Y1642776D02*
Y1657924D01*
X1937600Y1642776D02*
Y1657924D01*
X1937900Y1642776D02*
Y1657924D01*
X1976574Y1643350D02*
X1961426D01*
Y1659459*
X1976574*
Y1643350*
X1961500D02*
Y1659459D01*
X1961800Y1643350D02*
Y1659459D01*
X1962100Y1643350D02*
Y1659459D01*
X1962400Y1643350D02*
Y1659459D01*
X1962700Y1643350D02*
Y1659459D01*
X1963000Y1643350D02*
Y1659459D01*
X1963300Y1643350D02*
Y1659459D01*
X1963600Y1643350D02*
Y1659459D01*
X1963900Y1643350D02*
Y1659459D01*
X1964200Y1643350D02*
Y1659459D01*
X1964500Y1643350D02*
Y1659459D01*
X1964800Y1643350D02*
Y1659459D01*
X1965100Y1643350D02*
Y1659459D01*
X1965400Y1643350D02*
Y1659459D01*
X1965700Y1643350D02*
Y1659459D01*
X1966000Y1643350D02*
Y1659459D01*
X1966300Y1643350D02*
Y1659459D01*
X1966600Y1643350D02*
Y1659459D01*
X1966900Y1643350D02*
Y1659459D01*
X1967200Y1643350D02*
Y1659459D01*
X1967500Y1643350D02*
Y1659459D01*
X1967800Y1643350D02*
Y1659459D01*
X1968100Y1643350D02*
Y1659459D01*
X1968400Y1643350D02*
Y1659459D01*
X1968700Y1643350D02*
Y1659459D01*
X1969000Y1643350D02*
Y1659459D01*
X1969300Y1643350D02*
Y1659459D01*
X1969600Y1643350D02*
Y1659459D01*
X1969900Y1643350D02*
Y1659459D01*
X1970200Y1643350D02*
Y1659459D01*
X1970500Y1643350D02*
Y1659459D01*
X1970800Y1643350D02*
Y1659459D01*
X1971100Y1643350D02*
Y1659459D01*
X1971400Y1643350D02*
Y1659459D01*
X1971700Y1643350D02*
Y1659459D01*
X1972000Y1643350D02*
Y1659459D01*
X1972300Y1643350D02*
Y1659459D01*
X1972600Y1643350D02*
Y1659459D01*
X1972900Y1643350D02*
Y1659459D01*
X1973200Y1643350D02*
Y1659459D01*
X1973500Y1643350D02*
Y1659459D01*
X1973800Y1643350D02*
Y1659459D01*
X1974100Y1643350D02*
Y1659459D01*
X1974400Y1643350D02*
Y1659459D01*
X1974700Y1643350D02*
Y1659459D01*
X1975000Y1643350D02*
Y1659459D01*
X1975300Y1643350D02*
Y1659459D01*
X1975600Y1643350D02*
Y1659459D01*
X1975900Y1643350D02*
Y1659459D01*
X1976200Y1643350D02*
Y1659459D01*
X1976500Y1643350D02*
Y1659459D01*
G54D174*
X1945811Y1657850D03*
Y1652850D03*
Y1647850D03*
Y1642850D03*
X1922189D03*
Y1647850D03*
Y1652850D03*
Y1657850D03*
G54D175*
X1961500Y1667161D03*
X1966500D03*
X1971500D03*
X1976500D03*
Y1643539D03*
X1971500D03*
X1966500D03*
X1961500D03*
G54D186*
X1954661Y1765850D03*
X1987339D03*
G54D189*
X2076000Y1586189D03*
X2057000D03*
G54D190*
X2076000Y1607448D03*
X2057000D03*
X0Y0D02*
M02*
