%
T1C.012F095S3
X-0091Y-01235
X-0091Y-0136
X-0075Y-0123
X-0075Y-0136
X-00465Y-01365
X-004Y-0136
X-0004Y-0136
X00405Y-01375
X00815Y-0063
X0076Y-0063
X0071Y-0063
X0066Y-0063
X0061Y-0063
X0056Y-0063
X0051Y-0063
X00005Y-0066
X-00055Y-00685
X-0009Y-0065
X-00175Y-00725
X-0024Y-00785
X-00365Y-00675
X-00365Y-00785
X-00365Y-00735
X-00365Y-0076
X-00415Y-00785
X-00415Y-00675
X-00415Y-00735
X-00465Y-00785
X-00465Y-00735
X-00465Y-00675
X-0052Y-00665
X-00675Y-0073
X-00705Y-0063
X-0126Y-0079
X-0135Y-00745
X-01115Y-00525
X-0075Y-00525
X-00705Y-00575
X-0063Y-00515
X-006Y-00485
X-00575Y-0038
X-0057Y-00625
X-00465Y-00525
X-00465Y-00575
X-00465Y-00625
X-00465Y-00475
X-00465Y-00425
X-00415Y-00525
X-00415Y-00475
X-00415Y-00425
X-00415Y-00625
X-00415Y-00575
X-00365Y-00425
X-00365Y-00475
X-00365Y-00525
X-00365Y-00625
X-00365Y-00575
X-0027Y-00535
X-0027Y-0038
X-0023Y-0048
X-0022Y-00445
X-0015Y-00405
X-0009Y-0061
X-0008Y-0057
X-0007Y-0042
X-00035Y-00555
X00005Y-00515
X0004Y-0048
X0006Y-0061
X00075Y-0044
X0011Y-0056
X0012Y-004
X00155Y-0051
X00205Y-0046
X00255Y-0041
X00325Y-0045
X00325Y-0055
X00325Y-006
X00325Y-005
X00375Y-006
X00375Y-0055
X00375Y-005
X00375Y-0045
X00425Y-0045
X00425Y-0055
X00425Y-006
X00425Y-005
X00475Y-0055
X00475Y-0045
X00475Y-006
X00475Y-005
X0052Y-00445
X0057Y-00445
X0062Y-00445
X00645Y-0055
X00645Y-005
X00685Y-0055
X00685Y-005
X0071Y-00445
X0076Y-00445
X0081Y-00445
X00835Y-005
X00835Y-0055
X0091Y-006
X0091Y-005
X0091Y-0055
X0096Y-005
X0096Y-006
X0096Y-0055
X0101Y-005
X0101Y-006
X0101Y-0055
X01435Y-00275
X01435Y-00325
X01435Y-00375
X01435Y-00175
X01435Y-00225
X01385Y-00375
X01385Y-00275
X01385Y-00325
X01385Y-00225
X01385Y-00175
X01335Y-00275
X01335Y-00325
X01335Y-00375
X01335Y-00175
X01335Y-00225
X01285Y-00375
X01285Y-00325
X01285Y-00275
X01285Y-00175
X01285Y-00225
X01235Y-00375
X01235Y-00325
X01235Y-00275
X01235Y-00175
X01235Y-00225
X01185Y-00375
X01185Y-00275
X01185Y-00325
X01185Y-00175
X01185Y-00225
X01135Y-00375
X01135Y-00325
X01135Y-00275
X01135Y-00175
X01135Y-00225
X01085Y-00375
X01085Y-00325
X01085Y-00275
X01085Y-00175
X01085Y-00225
X01035Y-00275
X01035Y-00325
X01035Y-00175
X01035Y-00225
X01035Y-00375
X00985Y-00375
X00985Y-00225
X00985Y-00175
X00985Y-00275
X00985Y-00325
X00935Y-00325
X00935Y-00275
X00935Y-00225
X00935Y-00175
X00935Y-00375
X00885Y-00275
X00885Y-00225
X00885Y-00175
X00835Y-00225
X00835Y-00175
X0082Y-0028
X0082Y-00365
X00785Y-00225
X00785Y-00175
X0076Y-0028
X0076Y-00365
X00735Y-00225
X00735Y-00175
X007Y-00365
X007Y-0028
X00685Y-00225
X00685Y-00175
X00635Y-00175
X00635Y-00225
X0063Y-00365
X0063Y-0028
X00585Y-00175
X00585Y-00225
X0057Y-0028
X0057Y-00365
X00535Y-00225
X00535Y-00175
X0051Y-00365
X0051Y-0028
X00485Y-00175
X00485Y-00225
X0038Y-00215
X0038Y-00365
X00305Y-0036
X00275Y-0025
X00235Y-0027
X00185Y-0033
X00155Y-0036
X-00035Y-0017
X-00065Y-00375
X-00125Y-00325
X-00325Y-00235
X-00365Y-00285
X-00365Y-00325
X-00365Y-00375
X-00415Y-00325
X-00415Y-00375
X-00415Y-00285
X-00465Y-00285
X-00465Y-00375
X-00465Y-00325
X-005Y-0014
X-0054Y-0024
X-007Y-00265
X-00805Y-00375
X-00835Y-00185
X-00835Y-00245
X-0084Y-00305
X-0093Y-00145
X-01045Y-0022
X-01095Y-00185
X-01185Y-0033
X-0131Y-0033
X-0137Y-0033
X-012Y00085
X-01185Y-0009
X-0096Y-00115
X-00875Y001
X-00875Y0005
X-00875Y0
X-00875Y-0005
X-00825Y-0005
X-00825Y0
X-00825Y0005
X-00825Y001
X-00765Y-00045
X-00695Y-00045
X-00665Y-00125
X-00575Y-00125
X-0054Y-00015
X-00475Y0011
X-00475Y0002
X-00475Y0006
X-00425Y0006
X-00425Y0011
X-00375Y0
X-00325Y0
X-00325Y-0005
X-00275Y-0005
X-00275Y-00095
X-00275Y0
X-00225Y-0005
X-00225Y-00095
X-00225Y0
X-00175Y0005
X-00175Y001
X-00175Y-0005
X-00175Y0
X-00175Y-00095
X-00125Y0
X-00125Y-0005
X-00125Y-00095
X-00125Y001
X-00125Y0005
X-00075Y0
X-00075Y-0005
X-00075Y-00095
X-00075Y001
X-00075Y0005
X-00025Y-00045
X-00025Y0
X-00025Y-00095
X-00025Y0005
X00025Y0005
X00025Y-00045
X00025Y-00095
X00025Y0
X00075Y-00045
X00075Y0005
X00075Y0
X00075Y-00095
X00125Y-00045
X00125Y001
X00125Y0005
X00125Y-00095
X00125Y0
X00175Y-00045
X00175Y0
X00175Y0005
X00175Y001
X00275Y001
X00275Y0
X00275Y0005
X00275Y-0005
X00275Y-001
X00325Y0005
X00325Y001
X00325Y-001
X00325Y0
X00325Y-0005
X00375Y001
X00375Y-001
X00375Y-0005
X00375Y0005
X00375Y0
X00425Y0005
X00425Y001
X00425Y-0005
X00425Y-001
X00425Y0
X00475Y-0005
X00475Y0
X00475Y001
X00475Y0005
X00525Y0005
X00525Y001
X00525Y0
X00525Y-0005
X00575Y001
X00585Y-00125
X00635Y-00125
X00685Y-00125
X00735Y-00125
X00785Y-00125
X00835Y-00125
X00885Y-00125
X00935Y-00125
X00985Y-00125
X01035Y-00125
X01085Y-00125
X01135Y-00125
X01185Y-00125
X01235Y-00125
X01285Y-00125
X01335Y-00125
X01385Y-00125
X01435Y-00125
X00575Y0015
X00575Y002
X00575Y0035
X00575Y003
X00575Y0025
X00525Y0015
X00525Y002
X00525Y0025
X00525Y003
X00525Y0035
X00475Y0035
X00475Y003
X00425Y0035
X00425Y003
X00375Y0035
X00375Y003
X00325Y0035
X00325Y0025
X00325Y002
X00325Y0015
X00325Y003
X00275Y002
X00275Y0025
X00275Y003
X00275Y0035
X00275Y0015
X00175Y002
X00175Y0025
X00175Y003
X00175Y0035
X00175Y0015
X00125Y0035
X00125Y003
X00125Y0025
X00125Y002
X00125Y0015
X00075Y0035
X00025Y0035
X-00025Y0035
X-00075Y002
X-00075Y0015
X-00125Y0015
X-00175Y002
X-00175Y0035
X-00175Y0015
X-00195Y00275
X-00225Y0035
X-00275Y0035
X-00325Y0035
X-00375Y0035
X-00425Y0035
X-00425Y0021
X-00425Y0016
X-00435Y00245
X-00475Y0016
X-00475Y0021
X-00475Y0031
X-00475Y0035
X-0054Y0022
X-00775Y0025
X-00775Y003
X-00775Y0035
X-00825Y003
X-00825Y002
X-00825Y0015
X-00825Y0035
X-00825Y0025
X-00875Y0015
X-00875Y0035
X-00875Y0025
X-00875Y002
X-00875Y003
X-01235Y0016
X-01335Y0013
X-00875Y0055
X-00875Y005
X-00875Y004
X-00875Y0045
X-00825Y005
X-00825Y0045
X-00825Y004
X-00825Y0055
X-00775Y005
X-00775Y004
X-00775Y0045
X-00775Y0055
X-00725Y0055
X-00675Y0055
X-00575Y0055
X-00525Y0055
X-00475Y0045
X-00475Y005
X-00475Y004
X-00475Y0055
X-00425Y005
X-00425Y0045
X-00425Y004
X-00425Y0055
X-00375Y004
X-00375Y005
X-00375Y0045
X-00375Y0055
X-00325Y0045
X-00325Y004
X-00325Y005
X-00325Y0055
X-00275Y0045
X-00275Y005
X-00275Y004
X-00275Y0055
X-00225Y0055
X-00225Y005
X-00225Y0045
X-00225Y004
X-00175Y004
X-00175Y0045
X-00175Y0055
X-00175Y005
X-00125Y004
X-00125Y005
X-00125Y0055
X-00125Y0045
X-00075Y0055
X-00075Y005
X-00025Y0055
X-00025Y004
X-00025Y005
X-00025Y0045
X00025Y004
X00025Y005
X00025Y0055
X00025Y0045
X00075Y0055
X00075Y0045
X00075Y005
X00075Y004
X00125Y005
X00125Y0045
X00125Y004
X00125Y0055
X00175Y004
X00175Y0055
X00175Y0045
X00175Y005
X00275Y005
X00275Y004
X00275Y0045
X00275Y0055
X00275Y006
X00325Y004
X00325Y0045
X00325Y005
X00325Y0055
X00325Y006
X00375Y0045
X00375Y005
X00375Y0055
X00375Y004
X00375Y006
X00425Y005
X00425Y0055
X00425Y004
X00425Y0045
X00425Y006
X00475Y004
X00475Y0055
X00475Y005
X00475Y0045
X00475Y006
X00525Y004
X00525Y005
X00525Y0055
X00525Y0045
X00525Y006
X00575Y006
X00575Y005
X00575Y004
X00575Y0045
X00575Y0055
X011Y00565
X-00765Y00885
X-00765Y00925
T2C.07F081S55
X-014Y0117
X0138Y-01155
T3C.095F066S55
X-01325Y-0105
X-01025Y-013
X-00625Y-013
X-00285Y-013
X00085Y-013
X0054Y-013
X-01325Y-00125
X-01325Y00275
X-0133Y-00625
X00595Y0125
T4C.187F035S1033
X-01375Y-01375
X01375Y-01375
X01375Y01375
X-01375Y01375
T5C.208F0S0
X0125Y-006
X0125Y001
X0125Y0101
X0017Y0125
X-00765Y0125
M30
